solid OpenSCAD_Model
  facet normal -1 0 0
    outer loop
      vertex 0 124.2 0
      vertex 0 1 34.55
      vertex 0 124.2 35.55
    endloop
  endfacet
  facet normal -1 0 0
    outer loop
      vertex 0 0 0
      vertex 0 1 34.55
      vertex 0 124.2 0
    endloop
  endfacet
  facet normal -1 -0 0
    outer loop
      vertex 0 1 34.55
      vertex 0 0 0
      vertex 0 0 34.55
    endloop
  endfacet
  facet normal -1 -0 0
    outer loop
      vertex 0 124.2 35.55
      vertex 0 1 34.55
      vertex 0 1 35.55
    endloop
  endfacet
  facet normal 0 0 1
    outer loop
      vertex 2 124.2 35.55
      vertex 0 124.2 35.55
      vertex 2 2 35.55
    endloop
  endfacet
  facet normal 0 0 1
    outer loop
      vertex 112.1 2 35.55
      vertex 114.1 124.2 35.55
      vertex 112.1 124.2 35.55
    endloop
  endfacet
  facet normal 0 0 1
    outer loop
      vertex 114.1 124.2 35.55
      vertex 112.1 2 35.55
      vertex 114.1 1 35.55
    endloop
  endfacet
  facet normal -0 0 1
    outer loop
      vertex 2 2 35.55
      vertex 114.1 1 35.55
      vertex 112.1 2 35.55
    endloop
  endfacet
  facet normal 0 0 1
    outer loop
      vertex 2 2 35.55
      vertex 0 1 35.55
      vertex 114.1 1 35.55
    endloop
  endfacet
  facet normal 0 0 1
    outer loop
      vertex 0 1 35.55
      vertex 2 2 35.55
      vertex 0 124.2 35.55
    endloop
  endfacet
  facet normal 1 0 0
    outer loop
      vertex 114.1 1 34.55
      vertex 114.1 124.2 35.55
      vertex 114.1 1 35.55
    endloop
  endfacet
  facet normal 1 0 0
    outer loop
      vertex 114.1 124.2 35.55
      vertex 114.1 1 34.55
      vertex 114.1 124.2 0
    endloop
  endfacet
  facet normal 1 0 0
    outer loop
      vertex 114.1 0 0
      vertex 114.1 1 34.55
      vertex 114.1 0 34.55
    endloop
  endfacet
  facet normal 1 0 0
    outer loop
      vertex 114.1 1 34.55
      vertex 114.1 0 0
      vertex 114.1 124.2 0
    endloop
  endfacet
  facet normal 0 0 -1
    outer loop
      vertex 0 0 0
      vertex 114.1 124.2 0
      vertex 114.1 0 0
    endloop
  endfacet
  facet normal -0 0 -1
    outer loop
      vertex 114.1 124.2 0
      vertex 0 0 0
      vertex 0 124.2 0
    endloop
  endfacet
  facet normal 0 -1 0
    outer loop
      vertex 0 0 34.55
      vertex 40.05 0 30.55
      vertex 114.1 0 34.55
    endloop
  endfacet
  facet normal 0 -1 0
    outer loop
      vertex 0 0 34.55
      vertex 39.1599 0 30.4497
      vertex 40.05 0 30.55
    endloop
  endfacet
  facet normal 0 -1 0
    outer loop
      vertex 0 0 34.55
      vertex 38.3145 0 30.1539
      vertex 39.1599 0 30.4497
    endloop
  endfacet
  facet normal 0 -1 0
    outer loop
      vertex 0 0 34.55
      vertex 37.556 0 29.6773
      vertex 38.3145 0 30.1539
    endloop
  endfacet
  facet normal 0 -1 0
    outer loop
      vertex 0 0 34.55
      vertex 36.9227 0 29.044
      vertex 37.556 0 29.6773
    endloop
  endfacet
  facet normal 0 -1 0
    outer loop
      vertex 0 0 34.55
      vertex 36.4461 0 28.2855
      vertex 36.9227 0 29.044
    endloop
  endfacet
  facet normal 0 -1 0
    outer loop
      vertex 0 0 34.55
      vertex 36.1503 0 27.4401
      vertex 36.4461 0 28.2855
    endloop
  endfacet
  facet normal 0 -1 0
    outer loop
      vertex 0 0 34.55
      vertex 36.05 0 26.55
      vertex 36.1503 0 27.4401
    endloop
  endfacet
  facet normal 0 -1 0
    outer loop
      vertex 0 0 34.55
      vertex 36.1503 0 25.6599
      vertex 36.05 0 26.55
    endloop
  endfacet
  facet normal 0 -1 0
    outer loop
      vertex 0 0 34.55
      vertex 36.4461 0 24.8145
      vertex 36.1503 0 25.6599
    endloop
  endfacet
  facet normal 0 -1 0
    outer loop
      vertex 0 0 0
      vertex 36.4461 0 24.8145
      vertex 0 0 34.55
    endloop
  endfacet
  facet normal 0 -1 -0
    outer loop
      vertex 36.4461 0 24.8145
      vertex 0 0 0
      vertex 36.9227 0 24.056
    endloop
  endfacet
  facet normal 0 -1 -0
    outer loop
      vertex 36.9227 0 24.056
      vertex 0 0 0
      vertex 37.556 0 23.4227
    endloop
  endfacet
  facet normal 0 -1 -0
    outer loop
      vertex 37.556 0 23.4227
      vertex 0 0 0
      vertex 38.3145 0 22.9461
    endloop
  endfacet
  facet normal 0 -1 -0
    outer loop
      vertex 40.05 0 22.55
      vertex 0 0 0
      vertex 74.05 0 22.55
    endloop
  endfacet
  facet normal 0 -1 -0
    outer loop
      vertex 39.1599 0 22.6503
      vertex 0 0 0
      vertex 40.05 0 22.55
    endloop
  endfacet
  facet normal 0 -1 -0
    outer loop
      vertex 38.3145 0 22.9461
      vertex 0 0 0
      vertex 39.1599 0 22.6503
    endloop
  endfacet
  facet normal 0 -1 0
    outer loop
      vertex 74.05 0 30.55
      vertex 114.1 0 34.55
      vertex 40.05 0 30.55
    endloop
  endfacet
  facet normal 0 -1 0
    outer loop
      vertex 74.9401 0 30.4497
      vertex 114.1 0 34.55
      vertex 74.05 0 30.55
    endloop
  endfacet
  facet normal 0 -1 0
    outer loop
      vertex 75.7855 0 30.1539
      vertex 114.1 0 34.55
      vertex 74.9401 0 30.4497
    endloop
  endfacet
  facet normal 0 -1 0
    outer loop
      vertex 76.544 0 29.6773
      vertex 114.1 0 34.55
      vertex 75.7855 0 30.1539
    endloop
  endfacet
  facet normal 0 -1 0
    outer loop
      vertex 77.1773 0 29.044
      vertex 114.1 0 34.55
      vertex 76.544 0 29.6773
    endloop
  endfacet
  facet normal 0 -1 0
    outer loop
      vertex 77.6539 0 28.2855
      vertex 114.1 0 34.55
      vertex 77.1773 0 29.044
    endloop
  endfacet
  facet normal 0 -1 0
    outer loop
      vertex 77.9497 0 27.4401
      vertex 114.1 0 34.55
      vertex 77.6539 0 28.2855
    endloop
  endfacet
  facet normal 0 -1 0
    outer loop
      vertex 78.05 0 26.55
      vertex 114.1 0 34.55
      vertex 77.9497 0 27.4401
    endloop
  endfacet
  facet normal 0 -1 0
    outer loop
      vertex 77.9497 0 25.6599
      vertex 114.1 0 34.55
      vertex 78.05 0 26.55
    endloop
  endfacet
  facet normal 0 -1 0
    outer loop
      vertex 77.6539 0 24.8145
      vertex 114.1 0 34.55
      vertex 77.9497 0 25.6599
    endloop
  endfacet
  facet normal 0 -1 0
    outer loop
      vertex 114.1 0 0
      vertex 77.6539 0 24.8145
      vertex 77.1773 0 24.056
    endloop
  endfacet
  facet normal 0 -1 0
    outer loop
      vertex 114.1 0 0
      vertex 77.1773 0 24.056
      vertex 76.544 0 23.4227
    endloop
  endfacet
  facet normal 0 -1 0
    outer loop
      vertex 114.1 0 0
      vertex 76.544 0 23.4227
      vertex 75.7855 0 22.9461
    endloop
  endfacet
  facet normal 0 -1 0
    outer loop
      vertex 114.1 0 0
      vertex 75.7855 0 22.9461
      vertex 74.9401 0 22.6503
    endloop
  endfacet
  facet normal 0 -1 0
    outer loop
      vertex 114.1 0 0
      vertex 74.05 0 22.55
      vertex 0 0 0
    endloop
  endfacet
  facet normal 0 -1 0
    outer loop
      vertex 77.6539 0 24.8145
      vertex 114.1 0 0
      vertex 114.1 0 34.55
    endloop
  endfacet
  facet normal 0 -1 0
    outer loop
      vertex 74.05 0 22.55
      vertex 114.1 0 0
      vertex 74.9401 0 22.6503
    endloop
  endfacet
  facet normal 0 1 0
    outer loop
      vertex 114.1 124.2 35.55
      vertex 112.1 124.2 1.6
      vertex 112.1 124.2 35.55
    endloop
  endfacet
  facet normal 0 1 0
    outer loop
      vertex 112.1 124.2 1.6
      vertex 114.1 124.2 0
      vertex 2 124.2 1.6
    endloop
  endfacet
  facet normal 0 1 -0
    outer loop
      vertex 114.1 124.2 0
      vertex 112.1 124.2 1.6
      vertex 114.1 124.2 35.55
    endloop
  endfacet
  facet normal 0 1 -0
    outer loop
      vertex 2 124.2 1.6
      vertex 0 124.2 35.55
      vertex 2 124.2 35.55
    endloop
  endfacet
  facet normal 0 1 0
    outer loop
      vertex 2 124.2 1.6
      vertex 0 124.2 0
      vertex 0 124.2 35.55
    endloop
  endfacet
  facet normal 0 1 0
    outer loop
      vertex 0 124.2 0
      vertex 2 124.2 1.6
      vertex 114.1 124.2 0
    endloop
  endfacet
  facet normal 1 -0 0
    outer loop
      vertex 2 2 35.55
      vertex 2 124.2 1.6
      vertex 2 124.2 35.55
    endloop
  endfacet
  facet normal 1 0 0
    outer loop
      vertex 2 124.2 1.6
      vertex 2 2 35.55
      vertex 2 2 1.6
    endloop
  endfacet
  facet normal -1 0 0
    outer loop
      vertex 112.1 2 1.6
      vertex 112.1 124.2 35.55
      vertex 112.1 124.2 1.6
    endloop
  endfacet
  facet normal -1 -0 0
    outer loop
      vertex 112.1 124.2 35.55
      vertex 112.1 2 1.6
      vertex 112.1 2 35.55
    endloop
  endfacet
  facet normal -0 0 1
    outer loop
      vertex 2 124.2 1.6
      vertex 112.1 2 1.6
      vertex 112.1 124.2 1.6
    endloop
  endfacet
  facet normal 0 0 1
    outer loop
      vertex 112.1 2 1.6
      vertex 2 124.2 1.6
      vertex 2 2 1.6
    endloop
  endfacet
  facet normal 0 1 0
    outer loop
      vertex 112.1 2 35.55
      vertex 74.05 2 30.55
      vertex 2 2 35.55
    endloop
  endfacet
  facet normal 0 1 0
    outer loop
      vertex 112.1 2 35.55
      vertex 74.9401 2 30.4497
      vertex 74.05 2 30.55
    endloop
  endfacet
  facet normal 0 1 0
    outer loop
      vertex 112.1 2 35.55
      vertex 75.7855 2 30.1539
      vertex 74.9401 2 30.4497
    endloop
  endfacet
  facet normal 0 1 0
    outer loop
      vertex 112.1 2 35.55
      vertex 76.544 2 29.6773
      vertex 75.7855 2 30.1539
    endloop
  endfacet
  facet normal 0 1 0
    outer loop
      vertex 112.1 2 35.55
      vertex 77.1773 2 29.044
      vertex 76.544 2 29.6773
    endloop
  endfacet
  facet normal 0 1 0
    outer loop
      vertex 112.1 2 35.55
      vertex 77.6539 2 28.2855
      vertex 77.1773 2 29.044
    endloop
  endfacet
  facet normal 0 1 0
    outer loop
      vertex 112.1 2 35.55
      vertex 77.9497 2 27.4401
      vertex 77.6539 2 28.2855
    endloop
  endfacet
  facet normal 0 1 0
    outer loop
      vertex 112.1 2 35.55
      vertex 78.05 2 26.55
      vertex 77.9497 2 27.4401
    endloop
  endfacet
  facet normal 0 1 0
    outer loop
      vertex 112.1 2 35.55
      vertex 77.9497 2 25.6599
      vertex 78.05 2 26.55
    endloop
  endfacet
  facet normal 0 1 -0
    outer loop
      vertex 112.1 2 1.6
      vertex 77.9497 2 25.6599
      vertex 112.1 2 35.55
    endloop
  endfacet
  facet normal 0 1 0
    outer loop
      vertex 77.9497 2 25.6599
      vertex 112.1 2 1.6
      vertex 77.6539 2 24.8145
    endloop
  endfacet
  facet normal 0 1 0
    outer loop
      vertex 77.6539 2 24.8145
      vertex 112.1 2 1.6
      vertex 77.1773 2 24.056
    endloop
  endfacet
  facet normal 0 1 0
    outer loop
      vertex 77.1773 2 24.056
      vertex 112.1 2 1.6
      vertex 76.544 2 23.4227
    endloop
  endfacet
  facet normal 0 1 0
    outer loop
      vertex 76.544 2 23.4227
      vertex 112.1 2 1.6
      vertex 75.7855 2 22.9461
    endloop
  endfacet
  facet normal 0 1 0
    outer loop
      vertex 74.05 2 22.55
      vertex 112.1 2 1.6
      vertex 40.05 2 22.55
    endloop
  endfacet
  facet normal 0 1 0
    outer loop
      vertex 74.9401 2 22.6503
      vertex 112.1 2 1.6
      vertex 74.05 2 22.55
    endloop
  endfacet
  facet normal 0 1 0
    outer loop
      vertex 75.7855 2 22.9461
      vertex 112.1 2 1.6
      vertex 74.9401 2 22.6503
    endloop
  endfacet
  facet normal 0 1 -0
    outer loop
      vertex 40.05 2 30.55
      vertex 2 2 35.55
      vertex 74.05 2 30.55
    endloop
  endfacet
  facet normal 0 1 -0
    outer loop
      vertex 39.1599 2 30.4497
      vertex 2 2 35.55
      vertex 40.05 2 30.55
    endloop
  endfacet
  facet normal 0 1 -0
    outer loop
      vertex 38.3145 2 30.1539
      vertex 2 2 35.55
      vertex 39.1599 2 30.4497
    endloop
  endfacet
  facet normal 0 1 -0
    outer loop
      vertex 37.556 2 29.6773
      vertex 2 2 35.55
      vertex 38.3145 2 30.1539
    endloop
  endfacet
  facet normal 0 1 -0
    outer loop
      vertex 36.9227 2 29.044
      vertex 2 2 35.55
      vertex 37.556 2 29.6773
    endloop
  endfacet
  facet normal 0 1 -0
    outer loop
      vertex 36.4461 2 28.2855
      vertex 2 2 35.55
      vertex 36.9227 2 29.044
    endloop
  endfacet
  facet normal 0 1 -0
    outer loop
      vertex 36.1503 2 27.4401
      vertex 2 2 35.55
      vertex 36.4461 2 28.2855
    endloop
  endfacet
  facet normal 0 1 -0
    outer loop
      vertex 36.05 2 26.55
      vertex 2 2 35.55
      vertex 36.1503 2 27.4401
    endloop
  endfacet
  facet normal 0 1 0
    outer loop
      vertex 36.1503 2 25.6599
      vertex 2 2 35.55
      vertex 36.05 2 26.55
    endloop
  endfacet
  facet normal 0 1 0
    outer loop
      vertex 2 2 1.6
      vertex 36.1503 2 25.6599
      vertex 36.4461 2 24.8145
    endloop
  endfacet
  facet normal 0 1 0
    outer loop
      vertex 2 2 1.6
      vertex 36.4461 2 24.8145
      vertex 36.9227 2 24.056
    endloop
  endfacet
  facet normal 0 1 0
    outer loop
      vertex 2 2 1.6
      vertex 36.9227 2 24.056
      vertex 37.556 2 23.4227
    endloop
  endfacet
  facet normal 0 1 0
    outer loop
      vertex 2 2 1.6
      vertex 37.556 2 23.4227
      vertex 38.3145 2 22.9461
    endloop
  endfacet
  facet normal 0 1 0
    outer loop
      vertex 2 2 1.6
      vertex 38.3145 2 22.9461
      vertex 39.1599 2 22.6503
    endloop
  endfacet
  facet normal 0 1 0
    outer loop
      vertex 2 2 1.6
      vertex 40.05 2 22.55
      vertex 112.1 2 1.6
    endloop
  endfacet
  facet normal 0 1 0
    outer loop
      vertex 36.1503 2 25.6599
      vertex 2 2 1.6
      vertex 2 2 35.55
    endloop
  endfacet
  facet normal 0 1 0
    outer loop
      vertex 40.05 2 22.55
      vertex 2 2 1.6
      vertex 39.1599 2 22.6503
    endloop
  endfacet
  facet normal 0.993711 -0 0.111975
    outer loop
      vertex 36.05 0 26.55
      vertex 36.1503 2 25.6599
      vertex 36.05 2 26.55
    endloop
  endfacet
  facet normal 0.993711 0 0.111975
    outer loop
      vertex 36.1503 2 25.6599
      vertex 36.05 0 26.55
      vertex 36.1503 0 25.6599
    endloop
  endfacet
  facet normal 0.993711 0 -0.111975
    outer loop
      vertex 36.1503 0 27.4401
      vertex 36.05 2 26.55
      vertex 36.1503 2 27.4401
    endloop
  endfacet
  facet normal 0.993711 0 -0.111975
    outer loop
      vertex 36.05 2 26.55
      vertex 36.1503 0 27.4401
      vertex 36.05 0 26.55
    endloop
  endfacet
  facet normal -0.94389 0 -0.330261
    outer loop
      vertex 77.9497 0 27.4401
      vertex 77.6539 2 28.2855
      vertex 77.9497 2 27.4401
    endloop
  endfacet
  facet normal -0.94389 -0 -0.330261
    outer loop
      vertex 77.6539 2 28.2855
      vertex 77.9497 0 27.4401
      vertex 77.6539 0 28.2855
    endloop
  endfacet
  facet normal 0.111975 0 -0.993711
    outer loop
      vertex 39.1599 0 30.4497
      vertex 40.05 2 30.55
      vertex 40.05 0 30.55
    endloop
  endfacet
  facet normal 0.111975 0 -0.993711
    outer loop
      vertex 40.05 2 30.55
      vertex 39.1599 0 30.4497
      vertex 39.1599 2 30.4497
    endloop
  endfacet
  facet normal 0 0 -1
    outer loop
      vertex 40.05 0 30.55
      vertex 74.05 2 30.55
      vertex 74.05 0 30.55
    endloop
  endfacet
  facet normal -0 0 -1
    outer loop
      vertex 74.05 2 30.55
      vertex 40.05 0 30.55
      vertex 40.05 2 30.55
    endloop
  endfacet
  facet normal -0.94389 0 0.330261
    outer loop
      vertex 77.6539 0 24.8145
      vertex 77.9497 2 25.6599
      vertex 77.6539 2 24.8145
    endloop
  endfacet
  facet normal -0.94389 0 0.330261
    outer loop
      vertex 77.9497 2 25.6599
      vertex 77.6539 0 24.8145
      vertex 77.9497 0 25.6599
    endloop
  endfacet
  facet normal -0 0 1
    outer loop
      vertex 40.05 2 22.55
      vertex 74.05 0 22.55
      vertex 74.05 2 22.55
    endloop
  endfacet
  facet normal 0 0 1
    outer loop
      vertex 74.05 0 22.55
      vertex 40.05 2 22.55
      vertex 40.05 0 22.55
    endloop
  endfacet
  facet normal 0.94389 -0 0.330261
    outer loop
      vertex 36.1503 0 25.6599
      vertex 36.4461 2 24.8145
      vertex 36.1503 2 25.6599
    endloop
  endfacet
  facet normal 0.94389 0 0.330261
    outer loop
      vertex 36.4461 2 24.8145
      vertex 36.1503 0 25.6599
      vertex 36.4461 0 24.8145
    endloop
  endfacet
  facet normal -0.993711 0 -0.111975
    outer loop
      vertex 78.05 0 26.55
      vertex 77.9497 2 27.4401
      vertex 78.05 2 26.55
    endloop
  endfacet
  facet normal -0.993711 -0 -0.111975
    outer loop
      vertex 77.9497 2 27.4401
      vertex 78.05 0 26.55
      vertex 77.9497 0 27.4401
    endloop
  endfacet
  facet normal 0.94389 0 -0.330261
    outer loop
      vertex 36.4461 0 28.2855
      vertex 36.1503 2 27.4401
      vertex 36.4461 2 28.2855
    endloop
  endfacet
  facet normal 0.94389 0 -0.330261
    outer loop
      vertex 36.1503 2 27.4401
      vertex 36.4461 0 28.2855
      vertex 36.1503 0 27.4401
    endloop
  endfacet
  facet normal 0.330261 0 -0.94389
    outer loop
      vertex 38.3145 0 30.1539
      vertex 39.1599 2 30.4497
      vertex 39.1599 0 30.4497
    endloop
  endfacet
  facet normal 0.330261 0 -0.94389
    outer loop
      vertex 39.1599 2 30.4497
      vertex 38.3145 0 30.1539
      vertex 38.3145 2 30.1539
    endloop
  endfacet
  facet normal 0.707107 0 -0.707107
    outer loop
      vertex 36.9227 0 29.044
      vertex 37.556 2 29.6773
      vertex 37.556 0 29.6773
    endloop
  endfacet
  facet normal 0.707107 0 -0.707107
    outer loop
      vertex 37.556 2 29.6773
      vertex 36.9227 0 29.044
      vertex 36.9227 2 29.044
    endloop
  endfacet
  facet normal 0.846723 -0 0.532034
    outer loop
      vertex 36.4461 0 24.8145
      vertex 36.9227 2 24.056
      vertex 36.4461 2 24.8145
    endloop
  endfacet
  facet normal 0.846723 0 0.532034
    outer loop
      vertex 36.9227 2 24.056
      vertex 36.4461 0 24.8145
      vertex 36.9227 0 24.056
    endloop
  endfacet
  facet normal 0.707107 -0 0.707107
    outer loop
      vertex 36.9227 0 24.056
      vertex 37.556 2 23.4227
      vertex 36.9227 2 24.056
    endloop
  endfacet
  facet normal 0.707107 0 0.707107
    outer loop
      vertex 37.556 2 23.4227
      vertex 36.9227 0 24.056
      vertex 37.556 0 23.4227
    endloop
  endfacet
  facet normal 0.846723 0 -0.532034
    outer loop
      vertex 36.9227 0 29.044
      vertex 36.4461 2 28.2855
      vertex 36.9227 2 29.044
    endloop
  endfacet
  facet normal 0.846723 0 -0.532034
    outer loop
      vertex 36.4461 2 28.2855
      vertex 36.9227 0 29.044
      vertex 36.4461 0 28.2855
    endloop
  endfacet
  facet normal 0.532034 0 -0.846723
    outer loop
      vertex 37.556 0 29.6773
      vertex 38.3145 2 30.1539
      vertex 38.3145 0 30.1539
    endloop
  endfacet
  facet normal 0.532034 0 -0.846723
    outer loop
      vertex 38.3145 2 30.1539
      vertex 37.556 0 29.6773
      vertex 37.556 2 29.6773
    endloop
  endfacet
  facet normal -0.846723 0 -0.532034
    outer loop
      vertex 77.6539 0 28.2855
      vertex 77.1773 2 29.044
      vertex 77.6539 2 28.2855
    endloop
  endfacet
  facet normal -0.846723 -0 -0.532034
    outer loop
      vertex 77.1773 2 29.044
      vertex 77.6539 0 28.2855
      vertex 77.1773 0 29.044
    endloop
  endfacet
  facet normal -0.532034 0 -0.846723
    outer loop
      vertex 75.7855 0 30.1539
      vertex 76.544 2 29.6773
      vertex 76.544 0 29.6773
    endloop
  endfacet
  facet normal -0.532034 0 -0.846723
    outer loop
      vertex 76.544 2 29.6773
      vertex 75.7855 0 30.1539
      vertex 75.7855 2 30.1539
    endloop
  endfacet
  facet normal -0.111975 0 -0.993711
    outer loop
      vertex 74.05 0 30.55
      vertex 74.9401 2 30.4497
      vertex 74.9401 0 30.4497
    endloop
  endfacet
  facet normal -0.111975 0 -0.993711
    outer loop
      vertex 74.9401 2 30.4497
      vertex 74.05 0 30.55
      vertex 74.05 2 30.55
    endloop
  endfacet
  facet normal -0.111975 0 0.993711
    outer loop
      vertex 74.05 2 22.55
      vertex 74.9401 0 22.6503
      vertex 74.9401 2 22.6503
    endloop
  endfacet
  facet normal -0.111975 0 0.993711
    outer loop
      vertex 74.9401 0 22.6503
      vertex 74.05 2 22.55
      vertex 74.05 0 22.55
    endloop
  endfacet
  facet normal -0.846723 0 0.532034
    outer loop
      vertex 77.1773 0 24.056
      vertex 77.6539 2 24.8145
      vertex 77.1773 2 24.056
    endloop
  endfacet
  facet normal -0.846723 0 0.532034
    outer loop
      vertex 77.6539 2 24.8145
      vertex 77.1773 0 24.056
      vertex 77.6539 0 24.8145
    endloop
  endfacet
  facet normal -0.993711 0 0.111975
    outer loop
      vertex 77.9497 0 25.6599
      vertex 78.05 2 26.55
      vertex 77.9497 2 25.6599
    endloop
  endfacet
  facet normal -0.993711 0 0.111975
    outer loop
      vertex 78.05 2 26.55
      vertex 77.9497 0 25.6599
      vertex 78.05 0 26.55
    endloop
  endfacet
  facet normal 0.532034 0 0.846723
    outer loop
      vertex 37.556 2 23.4227
      vertex 38.3145 0 22.9461
      vertex 38.3145 2 22.9461
    endloop
  endfacet
  facet normal 0.532034 0 0.846723
    outer loop
      vertex 38.3145 0 22.9461
      vertex 37.556 2 23.4227
      vertex 37.556 0 23.4227
    endloop
  endfacet
  facet normal 0.330261 0 0.94389
    outer loop
      vertex 38.3145 2 22.9461
      vertex 39.1599 0 22.6503
      vertex 39.1599 2 22.6503
    endloop
  endfacet
  facet normal 0.330261 0 0.94389
    outer loop
      vertex 39.1599 0 22.6503
      vertex 38.3145 2 22.9461
      vertex 38.3145 0 22.9461
    endloop
  endfacet
  facet normal 0.111975 0 0.993711
    outer loop
      vertex 39.1599 2 22.6503
      vertex 40.05 0 22.55
      vertex 40.05 2 22.55
    endloop
  endfacet
  facet normal 0.111975 0 0.993711
    outer loop
      vertex 40.05 0 22.55
      vertex 39.1599 2 22.6503
      vertex 39.1599 0 22.6503
    endloop
  endfacet
  facet normal -0.707107 0 -0.707107
    outer loop
      vertex 77.1773 0 29.044
      vertex 76.544 2 29.6773
      vertex 77.1773 2 29.044
    endloop
  endfacet
  facet normal -0.707107 -0 -0.707107
    outer loop
      vertex 76.544 2 29.6773
      vertex 77.1773 0 29.044
      vertex 76.544 0 29.6773
    endloop
  endfacet
  facet normal -0.330261 0 -0.94389
    outer loop
      vertex 74.9401 0 30.4497
      vertex 75.7855 2 30.1539
      vertex 75.7855 0 30.1539
    endloop
  endfacet
  facet normal -0.330261 0 -0.94389
    outer loop
      vertex 75.7855 2 30.1539
      vertex 74.9401 0 30.4497
      vertex 74.9401 2 30.4497
    endloop
  endfacet
  facet normal -0.532034 0 0.846723
    outer loop
      vertex 75.7855 2 22.9461
      vertex 76.544 0 23.4227
      vertex 76.544 2 23.4227
    endloop
  endfacet
  facet normal -0.532034 0 0.846723
    outer loop
      vertex 76.544 0 23.4227
      vertex 75.7855 2 22.9461
      vertex 75.7855 0 22.9461
    endloop
  endfacet
  facet normal -0.707107 0 0.707107
    outer loop
      vertex 76.544 0 23.4227
      vertex 77.1773 2 24.056
      vertex 76.544 2 23.4227
    endloop
  endfacet
  facet normal -0.707107 0 0.707107
    outer loop
      vertex 77.1773 2 24.056
      vertex 76.544 0 23.4227
      vertex 77.1773 0 24.056
    endloop
  endfacet
  facet normal -0.330261 0 0.94389
    outer loop
      vertex 74.9401 2 22.6503
      vertex 75.7855 0 22.9461
      vertex 75.7855 2 22.9461
    endloop
  endfacet
  facet normal -0.330261 0 0.94389
    outer loop
      vertex 75.7855 0 22.9461
      vertex 74.9401 2 22.6503
      vertex 74.9401 0 22.6503
    endloop
  endfacet
  facet normal 0 -1 0
    outer loop
      vertex 0 1 34.55
      vertex 114.1 1 35.55
      vertex 0 1 35.55
    endloop
  endfacet
  facet normal 0 -1 -0
    outer loop
      vertex 114.1 1 35.55
      vertex 0 1 34.55
      vertex 114.1 1 34.55
    endloop
  endfacet
  facet normal -0 0 1
    outer loop
      vertex 0 1 34.55
      vertex 114.1 0 34.55
      vertex 114.1 1 34.55
    endloop
  endfacet
  facet normal 0 0 1
    outer loop
      vertex 114.1 0 34.55
      vertex 0 1 34.55
      vertex 0 0 34.55
    endloop
  endfacet
endsolid OpenSCAD_Model
