solid OpenSCAD_Model
  facet normal 0 1 -0
    outer loop
      vertex 2.4 2.4 126.36
      vertex 2.32001 2.4 127.4
      vertex 2.4 2.4 127.4
    endloop
  endfacet
  facet normal 0 1 0
    outer loop
      vertex 2.32001 2.4 127.4
      vertex 2.4 2.4 126.36
      vertex 2.32001 2.4 126.28
    endloop
  endfacet
  facet normal -0.707151 0 0.707063
    outer loop
      vertex 2.32001 2.4 126.28
      vertex 2.4 38.4 126.36
      vertex 2.32001 38.4 126.28
    endloop
  endfacet
  facet normal -0.707151 0 0.707063
    outer loop
      vertex 2.4 38.4 126.36
      vertex 2.32001 2.4 126.28
      vertex 2.4 2.4 126.36
    endloop
  endfacet
  facet normal 1 -0 0
    outer loop
      vertex 2.32001 2.4 127.4
      vertex 2.32001 38.4 126.28
      vertex 2.32001 38.4 127.4
    endloop
  endfacet
  facet normal 1 0 0
    outer loop
      vertex 2.32001 38.4 126.28
      vertex 2.32001 2.4 127.4
      vertex 2.32001 2.4 126.28
    endloop
  endfacet
  facet normal 0 -1 0
    outer loop
      vertex 2.32001 38.4 127.4
      vertex 2.4 38.4 126.36
      vertex 2.4 38.4 127.4
    endloop
  endfacet
  facet normal -0 -1 0
    outer loop
      vertex 2.4 38.4 126.36
      vertex 2.32001 38.4 127.4
      vertex 2.32001 38.4 126.28
    endloop
  endfacet
  facet normal 0 1 0
    outer loop
      vertex 117.48 2.4 127.4
      vertex 117.4 2.4 126.36
      vertex 117.4 2.4 127.4
    endloop
  endfacet
  facet normal -0 1 0
    outer loop
      vertex 117.4 2.4 126.36
      vertex 117.48 2.4 127.4
      vertex 117.48 2.4 126.28
    endloop
  endfacet
  facet normal -1 0 0
    outer loop
      vertex 117.48 2.4 126.28
      vertex 117.48 38.4 127.4
      vertex 117.48 38.4 126.28
    endloop
  endfacet
  facet normal -1 -0 0
    outer loop
      vertex 117.48 38.4 127.4
      vertex 117.48 2.4 126.28
      vertex 117.48 2.4 127.4
    endloop
  endfacet
  facet normal 0 -1 0
    outer loop
      vertex 117.4 38.4 126.36
      vertex 117.48 38.4 127.4
      vertex 117.4 38.4 127.4
    endloop
  endfacet
  facet normal 0 -1 -0
    outer loop
      vertex 117.48 38.4 127.4
      vertex 117.4 38.4 126.36
      vertex 117.48 38.4 126.28
    endloop
  endfacet
  facet normal 0.707107 -0 0.707107
    outer loop
      vertex 117.4 2.4 126.36
      vertex 117.48 38.4 126.28
      vertex 117.4 38.4 126.36
    endloop
  endfacet
  facet normal 0.707107 0 0.707107
    outer loop
      vertex 117.4 2.4 126.36
      vertex 117.48 2.4 126.28
      vertex 117.48 38.4 126.28
    endloop
  endfacet
  facet normal 1 -0 0
    outer loop
      vertex 2.4 2.32001 127.4
      vertex 2.4 2.4 126.36
      vertex 2.4 2.4 127.4
    endloop
  endfacet
  facet normal 1 0 0
    outer loop
      vertex 2.4 2.4 126.36
      vertex 2.4 2.32001 127.4
      vertex 2.4 2.32001 126.28
    endloop
  endfacet
  facet normal 0 1 -0
    outer loop
      vertex 117.4 2.32001 126.28
      vertex 2.4 2.32001 127.4
      vertex 117.4 2.32001 127.4
    endloop
  endfacet
  facet normal 0 1 0
    outer loop
      vertex 2.4 2.32001 127.4
      vertex 117.4 2.32001 126.28
      vertex 2.4 2.32001 126.28
    endloop
  endfacet
  facet normal 0 -0.707151 0.707063
    outer loop
      vertex 2.4 2.4 126.36
      vertex 117.4 2.32001 126.28
      vertex 117.4 2.4 126.36
    endloop
  endfacet
  facet normal 0 -0.707151 0.707063
    outer loop
      vertex 117.4 2.32001 126.28
      vertex 2.4 2.4 126.36
      vertex 2.4 2.32001 126.28
    endloop
  endfacet
  facet normal -1 0 0
    outer loop
      vertex 117.4 2.32001 127.4
      vertex 117.4 2.4 126.36
      vertex 117.4 2.32001 126.28
    endloop
  endfacet
  facet normal -1 0 0
    outer loop
      vertex 117.4 2.4 126.36
      vertex 117.4 2.32001 127.4
      vertex 117.4 2.4 127.4
    endloop
  endfacet
  facet normal 1 0 0
    outer loop
      vertex 2.4 38.4 126.36
      vertex 2.4 38.48 127.4
      vertex 2.4 38.4 127.4
    endloop
  endfacet
  facet normal 1 0 0
    outer loop
      vertex 2.4 38.48 127.4
      vertex 2.4 38.4 126.36
      vertex 2.4 38.48 126.28
    endloop
  endfacet
  facet normal 0 0.707107 0.707107
    outer loop
      vertex 117.4 38.48 126.28
      vertex 2.4 38.4 126.36
      vertex 117.4 38.4 126.36
    endloop
  endfacet
  facet normal -0 0.707107 0.707107
    outer loop
      vertex 2.4 38.48 126.28
      vertex 2.4 38.4 126.36
      vertex 117.4 38.48 126.28
    endloop
  endfacet
  facet normal -1 0 0
    outer loop
      vertex 117.4 38.4 126.36
      vertex 117.4 38.48 127.4
      vertex 117.4 38.48 126.28
    endloop
  endfacet
  facet normal -1 -0 0
    outer loop
      vertex 117.4 38.48 127.4
      vertex 117.4 38.4 126.36
      vertex 117.4 38.4 127.4
    endloop
  endfacet
  facet normal 0 -1 0
    outer loop
      vertex 2.4 38.48 126.28
      vertex 117.4 38.48 127.4
      vertex 2.4 38.48 127.4
    endloop
  endfacet
  facet normal 0 -1 -0
    outer loop
      vertex 117.4 38.48 127.4
      vertex 2.4 38.48 126.28
      vertex 117.4 38.48 126.28
    endloop
  endfacet
  facet normal 0 1 -0
    outer loop
      vertex 2.4 40.8 126.36
      vertex 2.32001 40.8 127.4
      vertex 2.4 40.8 127.4
    endloop
  endfacet
  facet normal 0 1 0
    outer loop
      vertex 2.32001 40.8 127.4
      vertex 2.4 40.8 126.36
      vertex 2.32001 40.8 126.28
    endloop
  endfacet
  facet normal -0.707151 0 0.707063
    outer loop
      vertex 2.32001 40.8 126.28
      vertex 2.4 76.8 126.36
      vertex 2.32001 76.8 126.28
    endloop
  endfacet
  facet normal -0.707151 0 0.707063
    outer loop
      vertex 2.4 76.8 126.36
      vertex 2.32001 40.8 126.28
      vertex 2.4 40.8 126.36
    endloop
  endfacet
  facet normal 1 -0 0
    outer loop
      vertex 2.32001 40.8 127.4
      vertex 2.32001 76.8 126.28
      vertex 2.32001 76.8 127.4
    endloop
  endfacet
  facet normal 1 0 0
    outer loop
      vertex 2.32001 76.8 126.28
      vertex 2.32001 40.8 127.4
      vertex 2.32001 40.8 126.28
    endloop
  endfacet
  facet normal 0 -1 0
    outer loop
      vertex 2.32001 76.8 127.4
      vertex 2.4 76.8 126.36
      vertex 2.4 76.8 127.4
    endloop
  endfacet
  facet normal -0 -1 0
    outer loop
      vertex 2.4 76.8 126.36
      vertex 2.32001 76.8 127.4
      vertex 2.32001 76.8 126.28
    endloop
  endfacet
  facet normal 0 1 0
    outer loop
      vertex 117.48 40.8 127.4
      vertex 117.4 40.8 126.36
      vertex 117.4 40.8 127.4
    endloop
  endfacet
  facet normal -0 1 0
    outer loop
      vertex 117.4 40.8 126.36
      vertex 117.48 40.8 127.4
      vertex 117.48 40.8 126.28
    endloop
  endfacet
  facet normal -1 0 0
    outer loop
      vertex 117.48 40.8 126.28
      vertex 117.48 76.8 127.4
      vertex 117.48 76.8 126.28
    endloop
  endfacet
  facet normal -1 -0 0
    outer loop
      vertex 117.48 76.8 127.4
      vertex 117.48 40.8 126.28
      vertex 117.48 40.8 127.4
    endloop
  endfacet
  facet normal 0 -1 0
    outer loop
      vertex 117.4 76.8 126.36
      vertex 117.48 76.8 127.4
      vertex 117.4 76.8 127.4
    endloop
  endfacet
  facet normal 0 -1 -0
    outer loop
      vertex 117.48 76.8 127.4
      vertex 117.4 76.8 126.36
      vertex 117.48 76.8 126.28
    endloop
  endfacet
  facet normal 0.707107 -0 0.707107
    outer loop
      vertex 117.4 40.8 126.36
      vertex 117.48 76.8 126.28
      vertex 117.4 76.8 126.36
    endloop
  endfacet
  facet normal 0.707107 0 0.707107
    outer loop
      vertex 117.48 76.8 126.28
      vertex 117.4 40.8 126.36
      vertex 117.48 40.8 126.28
    endloop
  endfacet
  facet normal 1 -0 0
    outer loop
      vertex 2.4 40.72 127.4
      vertex 2.4 40.8 126.36
      vertex 2.4 40.8 127.4
    endloop
  endfacet
  facet normal 1 0 0
    outer loop
      vertex 2.4 40.8 126.36
      vertex 2.4 40.72 127.4
      vertex 2.4 40.72 126.28
    endloop
  endfacet
  facet normal 0 1 -0
    outer loop
      vertex 117.4 40.72 126.28
      vertex 2.4 40.72 127.4
      vertex 117.4 40.72 127.4
    endloop
  endfacet
  facet normal 0 1 0
    outer loop
      vertex 2.4 40.72 127.4
      vertex 117.4 40.72 126.28
      vertex 2.4 40.72 126.28
    endloop
  endfacet
  facet normal 0 -0.707107 0.707107
    outer loop
      vertex 2.4 40.72 126.28
      vertex 117.4 40.8 126.36
      vertex 2.4 40.8 126.36
    endloop
  endfacet
  facet normal 0 -0.707107 0.707107
    outer loop
      vertex 117.4 40.8 126.36
      vertex 2.4 40.72 126.28
      vertex 117.4 40.72 126.28
    endloop
  endfacet
  facet normal -1 0 0
    outer loop
      vertex 117.4 40.72 127.4
      vertex 117.4 40.8 126.36
      vertex 117.4 40.72 126.28
    endloop
  endfacet
  facet normal -1 0 0
    outer loop
      vertex 117.4 40.8 126.36
      vertex 117.4 40.72 127.4
      vertex 117.4 40.8 127.4
    endloop
  endfacet
  facet normal 1 0 0
    outer loop
      vertex 2.4 76.8 126.36
      vertex 2.4 76.88 127.4
      vertex 2.4 76.8 127.4
    endloop
  endfacet
  facet normal 1 0 0
    outer loop
      vertex 2.4 76.88 127.4
      vertex 2.4 76.8 126.36
      vertex 2.4 76.88 126.28
    endloop
  endfacet
  facet normal 0 0.707107 0.707107
    outer loop
      vertex 117.4 76.88 126.28
      vertex 2.4 76.8 126.36
      vertex 117.4 76.8 126.36
    endloop
  endfacet
  facet normal -0 0.707107 0.707107
    outer loop
      vertex 2.4 76.88 126.28
      vertex 2.4 76.8 126.36
      vertex 117.4 76.88 126.28
    endloop
  endfacet
  facet normal -1 0 0
    outer loop
      vertex 117.4 76.8 126.36
      vertex 117.4 76.88 127.4
      vertex 117.4 76.88 126.28
    endloop
  endfacet
  facet normal -1 -0 0
    outer loop
      vertex 117.4 76.88 127.4
      vertex 117.4 76.8 126.36
      vertex 117.4 76.8 127.4
    endloop
  endfacet
  facet normal 0 -1 0
    outer loop
      vertex 2.4 76.88 126.28
      vertex 117.4 76.88 127.4
      vertex 2.4 76.88 127.4
    endloop
  endfacet
  facet normal 0 -1 -0
    outer loop
      vertex 117.4 76.88 127.4
      vertex 2.4 76.88 126.28
      vertex 117.4 76.88 126.28
    endloop
  endfacet
  facet normal 0 1 -0
    outer loop
      vertex 2.4 79.2 126.36
      vertex 2.32001 79.2 127.4
      vertex 2.4 79.2 127.4
    endloop
  endfacet
  facet normal 0 1 0
    outer loop
      vertex 2.32001 79.2 127.4
      vertex 2.4 79.2 126.36
      vertex 2.32001 79.2 126.28
    endloop
  endfacet
  facet normal -0.707151 0 0.707063
    outer loop
      vertex 2.32001 79.2 126.28
      vertex 2.4 115.2 126.36
      vertex 2.32001 115.2 126.28
    endloop
  endfacet
  facet normal -0.707151 0 0.707063
    outer loop
      vertex 2.4 115.2 126.36
      vertex 2.32001 79.2 126.28
      vertex 2.4 79.2 126.36
    endloop
  endfacet
  facet normal 1 -0 0
    outer loop
      vertex 2.32001 79.2 127.4
      vertex 2.32001 115.2 126.28
      vertex 2.32001 115.2 127.4
    endloop
  endfacet
  facet normal 1 0 0
    outer loop
      vertex 2.32001 115.2 126.28
      vertex 2.32001 79.2 127.4
      vertex 2.32001 79.2 126.28
    endloop
  endfacet
  facet normal 0 -1 0
    outer loop
      vertex 2.32001 115.2 127.4
      vertex 2.4 115.2 126.36
      vertex 2.4 115.2 127.4
    endloop
  endfacet
  facet normal -0 -1 0
    outer loop
      vertex 2.4 115.2 126.36
      vertex 2.32001 115.2 127.4
      vertex 2.32001 115.2 126.28
    endloop
  endfacet
  facet normal 0 1 0
    outer loop
      vertex 117.48 79.2 127.4
      vertex 117.4 79.2 126.36
      vertex 117.4 79.2 127.4
    endloop
  endfacet
  facet normal -0 1 0
    outer loop
      vertex 117.4 79.2 126.36
      vertex 117.48 79.2 127.4
      vertex 117.48 79.2 126.28
    endloop
  endfacet
  facet normal -1 0 0
    outer loop
      vertex 117.48 79.2 126.28
      vertex 117.48 115.2 127.4
      vertex 117.48 115.2 126.28
    endloop
  endfacet
  facet normal -1 -0 0
    outer loop
      vertex 117.48 115.2 127.4
      vertex 117.48 79.2 126.28
      vertex 117.48 79.2 127.4
    endloop
  endfacet
  facet normal 0 -1 0
    outer loop
      vertex 117.4 115.2 126.36
      vertex 117.48 115.2 127.4
      vertex 117.4 115.2 127.4
    endloop
  endfacet
  facet normal 0 -1 -0
    outer loop
      vertex 117.48 115.2 127.4
      vertex 117.4 115.2 126.36
      vertex 117.48 115.2 126.28
    endloop
  endfacet
  facet normal 0.707107 -0 0.707107
    outer loop
      vertex 117.4 79.2 126.36
      vertex 117.48 115.2 126.28
      vertex 117.4 115.2 126.36
    endloop
  endfacet
  facet normal 0.707107 0 0.707107
    outer loop
      vertex 117.48 115.2 126.28
      vertex 117.4 79.2 126.36
      vertex 117.48 79.2 126.28
    endloop
  endfacet
  facet normal 1 -0 0
    outer loop
      vertex 2.4 79.12 127.4
      vertex 2.4 79.2 126.36
      vertex 2.4 79.2 127.4
    endloop
  endfacet
  facet normal 1 0 0
    outer loop
      vertex 2.4 79.2 126.36
      vertex 2.4 79.12 127.4
      vertex 2.4 79.12 126.28
    endloop
  endfacet
  facet normal 0 1 -0
    outer loop
      vertex 117.4 79.12 126.28
      vertex 2.4 79.12 127.4
      vertex 117.4 79.12 127.4
    endloop
  endfacet
  facet normal 0 1 0
    outer loop
      vertex 2.4 79.12 127.4
      vertex 117.4 79.12 126.28
      vertex 2.4 79.12 126.28
    endloop
  endfacet
  facet normal 0 -0.707107 0.707107
    outer loop
      vertex 2.4 79.12 126.28
      vertex 117.4 79.2 126.36
      vertex 2.4 79.2 126.36
    endloop
  endfacet
  facet normal 0 -0.707107 0.707107
    outer loop
      vertex 117.4 79.2 126.36
      vertex 2.4 79.12 126.28
      vertex 117.4 79.12 126.28
    endloop
  endfacet
  facet normal -1 0 0
    outer loop
      vertex 117.4 79.12 127.4
      vertex 117.4 79.2 126.36
      vertex 117.4 79.12 126.28
    endloop
  endfacet
  facet normal -1 0 0
    outer loop
      vertex 117.4 79.2 126.36
      vertex 117.4 79.12 127.4
      vertex 117.4 79.2 127.4
    endloop
  endfacet
  facet normal 1 0 0
    outer loop
      vertex 2.4 115.2 126.36
      vertex 2.4 115.28 127.4
      vertex 2.4 115.2 127.4
    endloop
  endfacet
  facet normal 1 0 0
    outer loop
      vertex 2.4 115.28 127.4
      vertex 2.4 115.2 126.36
      vertex 2.4 115.28 126.28
    endloop
  endfacet
  facet normal 0 0.707107 0.707107
    outer loop
      vertex 117.4 115.28 126.28
      vertex 2.4 115.2 126.36
      vertex 117.4 115.2 126.36
    endloop
  endfacet
  facet normal 0 0.707107 0.707107
    outer loop
      vertex 2.4 115.2 126.36
      vertex 117.4 115.28 126.28
      vertex 2.4 115.28 126.28
    endloop
  endfacet
  facet normal -1 0 0
    outer loop
      vertex 117.4 115.2 126.36
      vertex 117.4 115.28 127.4
      vertex 117.4 115.28 126.28
    endloop
  endfacet
  facet normal -1 -0 0
    outer loop
      vertex 117.4 115.28 127.4
      vertex 117.4 115.2 126.36
      vertex 117.4 115.2 127.4
    endloop
  endfacet
  facet normal 0 -1 0
    outer loop
      vertex 2.4 115.28 126.28
      vertex 117.4 115.28 127.4
      vertex 2.4 115.28 127.4
    endloop
  endfacet
  facet normal 0 -1 -0
    outer loop
      vertex 117.4 115.28 127.4
      vertex 2.4 115.28 126.28
      vertex 117.4 115.28 126.28
    endloop
  endfacet
  facet normal 1 -0 0
    outer loop
      vertex 2.4 2.4 126.36
      vertex 2.4 38.4 2.4
      vertex 2.4 38.4 126.36
    endloop
  endfacet
  facet normal 1 0 0
    outer loop
      vertex 2.4 2.4 126.36
      vertex 2.4 2.4 2.4
      vertex 2.4 38.4 2.4
    endloop
  endfacet
  facet normal 0 0 0
    outer loop
      vertex 2.4 2.4 2.4
      vertex 2.4 2.4 126.36
      vertex 2.4 2.4 127.4
    endloop
  endfacet
  facet normal 0 -1 0
    outer loop
      vertex 2.4 38.4 126.36
      vertex 2.4 38.4 2.4
      vertex 117.4 38.4 126.36
    endloop
  endfacet
  facet normal 0 -1 -0
    outer loop
      vertex 117.4 38.4 126.36
      vertex 2.4 38.4 2.4
      vertex 117.4 38.4 2.4
    endloop
  endfacet
  facet normal -1 0 0
    outer loop
      vertex 117.4 38.4 2.4
      vertex 117.4 2.4 126.36
      vertex 117.4 38.4 126.36
    endloop
  endfacet
  facet normal -1 0 0
    outer loop
      vertex 117.4 2.4 2.4
      vertex 117.4 2.4 126.36
      vertex 117.4 38.4 2.4
    endloop
  endfacet
  facet normal -0 0 1
    outer loop
      vertex 2.4 38.4 2.4
      vertex 117.4 2.4 2.4
      vertex 117.4 38.4 2.4
    endloop
  endfacet
  facet normal 0 0 1
    outer loop
      vertex 117.4 2.4 2.4
      vertex 2.4 38.4 2.4
      vertex 2.4 2.4 2.4
    endloop
  endfacet
  facet normal 0 1 0
    outer loop
      vertex 117.4 2.4 126.36
      vertex 117.4 2.4 2.4
      vertex 2.4 2.4 126.36
    endloop
  endfacet
  facet normal 0 -0 0
    outer loop
      vertex 2.4 2.4 126.36
      vertex 2.4 2.4 2.4
      vertex 2.4 2.4 127.4
    endloop
  endfacet
  facet normal 0 1 0
    outer loop
      vertex 2.4 2.4 2.4
      vertex 2.4 2.4 126.36
      vertex 117.4 2.4 2.4
    endloop
  endfacet
  facet normal 1 -0 0
    outer loop
      vertex 2.4 40.8 126.36
      vertex 2.4 76.8 2.4
      vertex 2.4 76.8 126.36
    endloop
  endfacet
  facet normal 1 0 0
    outer loop
      vertex 2.4 76.8 2.4
      vertex 2.4 40.8 126.36
      vertex 2.4 40.8 2.4
    endloop
  endfacet
  facet normal 0 0 0
    outer loop
      vertex 2.4 40.8 2.4
      vertex 2.4 40.8 126.36
      vertex 2.4 40.8 127.4
    endloop
  endfacet
  facet normal 0 -1 0
    outer loop
      vertex 2.4 76.8 126.36
      vertex 2.4 76.8 2.4
      vertex 117.4 76.8 126.36
    endloop
  endfacet
  facet normal 0 -1 -0
    outer loop
      vertex 117.4 76.8 126.36
      vertex 2.4 76.8 2.4
      vertex 117.4 76.8 2.4
    endloop
  endfacet
  facet normal -1 0 0
    outer loop
      vertex 117.4 40.8 2.4
      vertex 117.4 76.8 126.36
      vertex 117.4 76.8 2.4
    endloop
  endfacet
  facet normal -1 -0 0
    outer loop
      vertex 117.4 76.8 126.36
      vertex 117.4 40.8 2.4
      vertex 117.4 40.8 126.36
    endloop
  endfacet
  facet normal 0 1 0
    outer loop
      vertex 117.4 40.8 126.36
      vertex 117.4 40.8 2.4
      vertex 2.4 40.8 126.36
    endloop
  endfacet
  facet normal 0 -0 0
    outer loop
      vertex 2.4 40.8 126.36
      vertex 2.4 40.8 2.4
      vertex 2.4 40.8 127.4
    endloop
  endfacet
  facet normal 0 1 0
    outer loop
      vertex 2.4 40.8 2.4
      vertex 2.4 40.8 126.36
      vertex 117.4 40.8 2.4
    endloop
  endfacet
  facet normal -0 0 1
    outer loop
      vertex 2.4 76.8 2.4
      vertex 117.4 40.8 2.4
      vertex 117.4 76.8 2.4
    endloop
  endfacet
  facet normal 0 0 1
    outer loop
      vertex 117.4 40.8 2.4
      vertex 2.4 76.8 2.4
      vertex 2.4 40.8 2.4
    endloop
  endfacet
  facet normal 1 -0 0
    outer loop
      vertex 2.4 79.2 126.36
      vertex 2.4 115.2 2.4
      vertex 2.4 115.2 126.36
    endloop
  endfacet
  facet normal 1 0 0
    outer loop
      vertex 2.4 115.2 2.4
      vertex 2.4 79.2 126.36
      vertex 2.4 79.2 2.4
    endloop
  endfacet
  facet normal 0 0 0
    outer loop
      vertex 2.4 79.2 2.4
      vertex 2.4 79.2 126.36
      vertex 2.4 79.2 127.4
    endloop
  endfacet
  facet normal 0 -1 0
    outer loop
      vertex 2.4 115.2 126.36
      vertex 2.4 115.2 2.4
      vertex 117.4 115.2 126.36
    endloop
  endfacet
  facet normal 0 -1 -0
    outer loop
      vertex 117.4 115.2 126.36
      vertex 2.4 115.2 2.4
      vertex 117.4 115.2 2.4
    endloop
  endfacet
  facet normal -1 0 0
    outer loop
      vertex 117.4 79.2 2.4
      vertex 117.4 115.2 126.36
      vertex 117.4 115.2 2.4
    endloop
  endfacet
  facet normal -1 -0 0
    outer loop
      vertex 117.4 115.2 126.36
      vertex 117.4 79.2 2.4
      vertex 117.4 79.2 126.36
    endloop
  endfacet
  facet normal -0 0 1
    outer loop
      vertex 2.4 115.2 2.4
      vertex 117.4 79.2 2.4
      vertex 117.4 115.2 2.4
    endloop
  endfacet
  facet normal 0 0 1
    outer loop
      vertex 117.4 79.2 2.4
      vertex 2.4 115.2 2.4
      vertex 2.4 79.2 2.4
    endloop
  endfacet
  facet normal 0 1 0
    outer loop
      vertex 117.4 79.2 126.36
      vertex 117.4 79.2 2.4
      vertex 2.4 79.2 126.36
    endloop
  endfacet
  facet normal 0 -0 0
    outer loop
      vertex 2.4 79.2 126.36
      vertex 2.4 79.2 2.4
      vertex 2.4 79.2 127.4
    endloop
  endfacet
  facet normal 0 1 0
    outer loop
      vertex 2.4 79.2 2.4
      vertex 2.4 79.2 126.36
      vertex 117.4 79.2 2.4
    endloop
  endfacet
  facet normal -1 0 0
    outer loop
      vertex 0 0 3.8147e-07
      vertex 0 139.6 127.4
      vertex 0 139.6 3.8147e-07
    endloop
  endfacet
  facet normal -1 -0 0
    outer loop
      vertex 0 139.6 127.4
      vertex 0 0 3.8147e-07
      vertex 0 0 127.4
    endloop
  endfacet
  facet normal 0 1 -0
    outer loop
      vertex 117.4 117.6 2.4
      vertex 2.4 117.6 125
      vertex 117.4 117.6 125
    endloop
  endfacet
  facet normal 0 1 0
    outer loop
      vertex 2.4 117.6 125
      vertex 117.4 117.6 2.4
      vertex 2.4 117.6 2.4
    endloop
  endfacet
  facet normal 1 0 0
    outer loop
      vertex 119.8 123.6 127.4
      vertex 119.8 0 127.4
      vertex 119.8 123.6 2.4
    endloop
  endfacet
  facet normal 1 -0 0
    outer loop
      vertex 119.8 123.6 2.4
      vertex 119.8 139.6 3.8147e-07
      vertex 119.8 139.6 2.4
    endloop
  endfacet
  facet normal 1 0 0
    outer loop
      vertex 119.8 123.6 2.4
      vertex 119.8 0 3.8147e-07
      vertex 119.8 139.6 3.8147e-07
    endloop
  endfacet
  facet normal 1 0 0
    outer loop
      vertex 119.8 0 3.8147e-07
      vertex 119.8 123.6 2.4
      vertex 119.8 0 127.4
    endloop
  endfacet
  facet normal 0 -1 0
    outer loop
      vertex 0 0 3.8147e-07
      vertex 119.8 0 127.4
      vertex 0 0 127.4
    endloop
  endfacet
  facet normal 0 -1 -0
    outer loop
      vertex 119.8 0 127.4
      vertex 0 0 3.8147e-07
      vertex 119.8 0 3.8147e-07
    endloop
  endfacet
  facet normal -0 0 1
    outer loop
      vertex 2.32001 40.8 127.4
      vertex 2.4 40.72 127.4
      vertex 2.4 40.8 127.4
    endloop
  endfacet
  facet normal 0 0 1
    outer loop
      vertex 2.4 40.72 127.4
      vertex 2.32001 40.8 127.4
      vertex 2.4 38.48 127.4
    endloop
  endfacet
  facet normal 0 0 1
    outer loop
      vertex 2.32001 38.4 127.4
      vertex 2.4 38.48 127.4
      vertex 2.32001 40.8 127.4
    endloop
  endfacet
  facet normal 0 0 1
    outer loop
      vertex 2.4 38.48 127.4
      vertex 2.32001 38.4 127.4
      vertex 2.4 38.4 127.4
    endloop
  endfacet
  facet normal -0 0 1
    outer loop
      vertex 2.32001 79.2 127.4
      vertex 2.4 79.12 127.4
      vertex 2.4 79.2 127.4
    endloop
  endfacet
  facet normal 0 0 1
    outer loop
      vertex 2.4 79.12 127.4
      vertex 2.32001 79.2 127.4
      vertex 2.4 76.88 127.4
    endloop
  endfacet
  facet normal 0 0 1
    outer loop
      vertex 2.32001 76.8 127.4
      vertex 2.4 76.88 127.4
      vertex 2.32001 79.2 127.4
    endloop
  endfacet
  facet normal 0 0 1
    outer loop
      vertex 2.4 76.88 127.4
      vertex 2.32001 76.8 127.4
      vertex 2.4 76.8 127.4
    endloop
  endfacet
  facet normal -0 0 1
    outer loop
      vertex 2.4 40.72 127.4
      vertex 117.4 38.48 127.4
      vertex 117.4 40.72 127.4
    endloop
  endfacet
  facet normal 0 0 1
    outer loop
      vertex 117.4 38.48 127.4
      vertex 2.4 40.72 127.4
      vertex 2.4 38.48 127.4
    endloop
  endfacet
  facet normal -0 0 1
    outer loop
      vertex 2.4 79.12 127.4
      vertex 117.4 76.88 127.4
      vertex 117.4 79.12 127.4
    endloop
  endfacet
  facet normal 0 0 1
    outer loop
      vertex 117.4 76.88 127.4
      vertex 2.4 79.12 127.4
      vertex 2.4 76.88 127.4
    endloop
  endfacet
  facet normal 0 0 1
    outer loop
      vertex 117.4 119.6 127.4
      vertex 2.4 115.28 127.4
      vertex 117.4 115.28 127.4
    endloop
  endfacet
  facet normal -0 0 1
    outer loop
      vertex 2.4 119.6 127.4
      vertex 2.4 115.28 127.4
      vertex 117.4 119.6 127.4
    endloop
  endfacet
  facet normal 0 0 1
    outer loop
      vertex 2.32001 115.2 127.4
      vertex 2.4 115.28 127.4
      vertex 2.4 119.6 127.4
    endloop
  endfacet
  facet normal 0 0 1
    outer loop
      vertex 2.4 115.28 127.4
      vertex 2.32001 115.2 127.4
      vertex 2.4 115.2 127.4
    endloop
  endfacet
  facet normal 0 0 1
    outer loop
      vertex 117.4 40.72 127.4
      vertex 117.48 40.8 127.4
      vertex 117.4 40.8 127.4
    endloop
  endfacet
  facet normal 0 0 1
    outer loop
      vertex 117.48 40.8 127.4
      vertex 117.4 40.72 127.4
      vertex 117.48 38.4 127.4
    endloop
  endfacet
  facet normal -0 0 1
    outer loop
      vertex 117.4 38.48 127.4
      vertex 117.48 38.4 127.4
      vertex 117.4 40.72 127.4
    endloop
  endfacet
  facet normal 0 0 1
    outer loop
      vertex 117.48 38.4 127.4
      vertex 117.4 38.48 127.4
      vertex 117.4 38.4 127.4
    endloop
  endfacet
  facet normal 0 0 1
    outer loop
      vertex 117.4 79.12 127.4
      vertex 117.48 79.2 127.4
      vertex 117.4 79.2 127.4
    endloop
  endfacet
  facet normal 0 0 1
    outer loop
      vertex 117.48 79.2 127.4
      vertex 117.4 79.12 127.4
      vertex 117.48 76.8 127.4
    endloop
  endfacet
  facet normal -0 0 1
    outer loop
      vertex 117.4 76.88 127.4
      vertex 117.48 76.8 127.4
      vertex 117.4 79.12 127.4
    endloop
  endfacet
  facet normal 0 0 1
    outer loop
      vertex 117.48 76.8 127.4
      vertex 117.4 76.88 127.4
      vertex 117.4 76.8 127.4
    endloop
  endfacet
  facet normal 0 0 1
    outer loop
      vertex 117.48 79.2 127.4
      vertex 119.8 123.6 127.4
      vertex 117.48 115.2 127.4
    endloop
  endfacet
  facet normal 0 0 1
    outer loop
      vertex 117.4 119.6 127.4
      vertex 119.8 123.6 127.4
      vertex 117.4 123.6 127.4
    endloop
  endfacet
  facet normal 0 0 1
    outer loop
      vertex 119.8 123.6 127.4
      vertex 117.4 119.6 127.4
      vertex 117.48 115.2 127.4
    endloop
  endfacet
  facet normal -0 0 1
    outer loop
      vertex 117.4 115.28 127.4
      vertex 117.48 115.2 127.4
      vertex 117.4 119.6 127.4
    endloop
  endfacet
  facet normal 0 0 1
    outer loop
      vertex 117.48 115.2 127.4
      vertex 117.4 115.28 127.4
      vertex 117.4 115.2 127.4
    endloop
  endfacet
  facet normal 0 0 1
    outer loop
      vertex 117.48 76.8 127.4
      vertex 119.8 123.6 127.4
      vertex 117.48 79.2 127.4
    endloop
  endfacet
  facet normal 0 0 1
    outer loop
      vertex 119.8 123.6 127.4
      vertex 117.48 76.8 127.4
      vertex 119.8 0 127.4
    endloop
  endfacet
  facet normal -0 0 1
    outer loop
      vertex 117.48 40.8 127.4
      vertex 119.8 0 127.4
      vertex 117.48 76.8 127.4
    endloop
  endfacet
  facet normal -0 0 1
    outer loop
      vertex 117.48 38.4 127.4
      vertex 119.8 0 127.4
      vertex 117.48 40.8 127.4
    endloop
  endfacet
  facet normal -0 0 1
    outer loop
      vertex 117.48 2.4 127.4
      vertex 119.8 0 127.4
      vertex 117.48 38.4 127.4
    endloop
  endfacet
  facet normal 0 0 1
    outer loop
      vertex 117.4 2.32001 127.4
      vertex 117.48 2.4 127.4
      vertex 117.4 2.4 127.4
    endloop
  endfacet
  facet normal 0 0 1
    outer loop
      vertex 117.48 2.4 127.4
      vertex 117.4 2.32001 127.4
      vertex 119.8 0 127.4
    endloop
  endfacet
  facet normal -0 0 1
    outer loop
      vertex 2.4 2.32001 127.4
      vertex 119.8 0 127.4
      vertex 117.4 2.32001 127.4
    endloop
  endfacet
  facet normal -0 0 1
    outer loop
      vertex 2.32001 2.4 127.4
      vertex 2.4 2.32001 127.4
      vertex 2.4 2.4 127.4
    endloop
  endfacet
  facet normal 0 0 1
    outer loop
      vertex 2.4 2.32001 127.4
      vertex 0 0 127.4
      vertex 119.8 0 127.4
    endloop
  endfacet
  facet normal 0 0 1
    outer loop
      vertex 2.32001 2.4 127.4
      vertex 0 0 127.4
      vertex 2.4 2.32001 127.4
    endloop
  endfacet
  facet normal 0 0 1
    outer loop
      vertex 2.32001 38.4 127.4
      vertex 0 0 127.4
      vertex 2.32001 2.4 127.4
    endloop
  endfacet
  facet normal -0 0 1
    outer loop
      vertex 0 139.6 127.4
      vertex 2.4 119.6 127.4
      vertex 2.4 139.6 127.4
    endloop
  endfacet
  facet normal 0 0 1
    outer loop
      vertex 0 139.6 127.4
      vertex 2.32001 79.2 127.4
      vertex 2.32001 115.2 127.4
    endloop
  endfacet
  facet normal 0 0 1
    outer loop
      vertex 2.32001 79.2 127.4
      vertex 0 139.6 127.4
      vertex 2.32001 76.8 127.4
    endloop
  endfacet
  facet normal 0 0 1
    outer loop
      vertex 0 0 127.4
      vertex 2.32001 76.8 127.4
      vertex 0 139.6 127.4
    endloop
  endfacet
  facet normal 0 0 1
    outer loop
      vertex 2.32001 76.8 127.4
      vertex 0 0 127.4
      vertex 2.32001 40.8 127.4
    endloop
  endfacet
  facet normal 0 0 1
    outer loop
      vertex 2.32001 40.8 127.4
      vertex 0 0 127.4
      vertex 2.32001 38.4 127.4
    endloop
  endfacet
  facet normal 0 0 1
    outer loop
      vertex 2.4 119.6 127.4
      vertex 0 139.6 127.4
      vertex 2.32001 115.2 127.4
    endloop
  endfacet
  facet normal 0 0 -1
    outer loop
      vertex 0 0 3.8147e-07
      vertex 119.8 139.6 3.8147e-07
      vertex 119.8 0 3.8147e-07
    endloop
  endfacet
  facet normal -0 0 -1
    outer loop
      vertex 119.8 139.6 3.8147e-07
      vertex 0 0 3.8147e-07
      vertex 0 139.6 3.8147e-07
    endloop
  endfacet
  facet normal 0 1 0
    outer loop
      vertex 119.8 139.6 2.4
      vertex 119.8 139.6 3.8147e-07
      vertex 2.4 139.6 2.4
    endloop
  endfacet
  facet normal 0 1 -0
    outer loop
      vertex 2.4 139.6 2.4
      vertex 0 139.6 127.4
      vertex 2.4 139.6 127.4
    endloop
  endfacet
  facet normal 0 1 0
    outer loop
      vertex 2.4 139.6 2.4
      vertex 0 139.6 3.8147e-07
      vertex 0 139.6 127.4
    endloop
  endfacet
  facet normal 0 1 0
    outer loop
      vertex 0 139.6 3.8147e-07
      vertex 2.4 139.6 2.4
      vertex 119.8 139.6 3.8147e-07
    endloop
  endfacet
  facet normal 1 0 0
    outer loop
      vertex 2.4 119.6 125
      vertex 2.4 139.6 127.4
      vertex 2.4 119.6 127.4
    endloop
  endfacet
  facet normal 1 0 0
    outer loop
      vertex 2.4 139.6 127.4
      vertex 2.4 119.6 125
      vertex 2.4 139.6 2.4
    endloop
  endfacet
  facet normal 1 0 0
    outer loop
      vertex 2.4 117.6 2.4
      vertex 2.4 119.6 125
      vertex 2.4 117.6 125
    endloop
  endfacet
  facet normal 1 0 0
    outer loop
      vertex 2.4 119.6 125
      vertex 2.4 117.6 2.4
      vertex 2.4 139.6 2.4
    endloop
  endfacet
  facet normal -1 0 0
    outer loop
      vertex 117.4 123.6 2.4
      vertex 117.4 119.6 125
      vertex 117.4 123.6 127.4
    endloop
  endfacet
  facet normal -1 0 0
    outer loop
      vertex 117.4 117.6 2.4
      vertex 117.4 119.6 125
      vertex 117.4 123.6 2.4
    endloop
  endfacet
  facet normal -1 -0 0
    outer loop
      vertex 117.4 119.6 125
      vertex 117.4 117.6 2.4
      vertex 117.4 117.6 125
    endloop
  endfacet
  facet normal -1 -0 0
    outer loop
      vertex 117.4 123.6 127.4
      vertex 117.4 119.6 125
      vertex 117.4 119.6 127.4
    endloop
  endfacet
  facet normal 0 1 -0
    outer loop
      vertex 119.8 123.6 2.4
      vertex 117.4 123.6 127.4
      vertex 119.8 123.6 127.4
    endloop
  endfacet
  facet normal 0 1 0
    outer loop
      vertex 117.4 123.6 127.4
      vertex 119.8 123.6 2.4
      vertex 117.4 123.6 2.4
    endloop
  endfacet
  facet normal 0 0 1
    outer loop
      vertex 119.8 139.6 2.4
      vertex 117.4 123.6 2.4
      vertex 119.8 123.6 2.4
    endloop
  endfacet
  facet normal -0 0 1
    outer loop
      vertex 2.4 139.6 2.4
      vertex 117.4 123.6 2.4
      vertex 119.8 139.6 2.4
    endloop
  endfacet
  facet normal 0 0 1
    outer loop
      vertex 2.4 117.6 2.4
      vertex 117.4 123.6 2.4
      vertex 2.4 139.6 2.4
    endloop
  endfacet
  facet normal 0 0 1
    outer loop
      vertex 117.4 123.6 2.4
      vertex 2.4 117.6 2.4
      vertex 117.4 117.6 2.4
    endloop
  endfacet
  facet normal 0 1 -0
    outer loop
      vertex 117.4 119.6 125
      vertex 2.4 119.6 127.4
      vertex 117.4 119.6 127.4
    endloop
  endfacet
  facet normal 0 1 0
    outer loop
      vertex 2.4 119.6 127.4
      vertex 117.4 119.6 125
      vertex 2.4 119.6 125
    endloop
  endfacet
  facet normal 0 0 -1
    outer loop
      vertex 2.4 117.6 125
      vertex 117.4 119.6 125
      vertex 117.4 117.6 125
    endloop
  endfacet
  facet normal -0 0 -1
    outer loop
      vertex 117.4 119.6 125
      vertex 2.4 117.6 125
      vertex 2.4 119.6 125
    endloop
  endfacet
  facet normal 0 -1 0
    outer loop
      vertex 181.4 18 22.8
      vertex 185.9 18 27.8
      vertex 181.4 18 27.8
    endloop
  endfacet
  facet normal 0 -1 -0
    outer loop
      vertex 185.9 18 27.8
      vertex 181.4 18 22.8
      vertex 185.9 18 22.8
    endloop
  endfacet
  facet normal -0 0 1
    outer loop
      vertex 181.4 18 22.8
      vertex 185.9 10 22.8
      vertex 185.9 18 22.8
    endloop
  endfacet
  facet normal 0 0 1
    outer loop
      vertex 185.9 10 22.8
      vertex 181.4 18 22.8
      vertex 181.4 10 22.8
    endloop
  endfacet
  facet normal 0 1 -0
    outer loop
      vertex 185.9 10 22.8
      vertex 181.4 10 27.8
      vertex 185.9 10 27.8
    endloop
  endfacet
  facet normal 0 1 0
    outer loop
      vertex 181.4 10 27.8
      vertex 185.9 10 22.8
      vertex 181.4 10 22.8
    endloop
  endfacet
  facet normal 0 0 -1
    outer loop
      vertex 181.4 10 27.8
      vertex 185.9 18 27.8
      vertex 185.9 10 27.8
    endloop
  endfacet
  facet normal -0 0 -1
    outer loop
      vertex 185.9 18 27.8
      vertex 181.4 10 27.8
      vertex 181.4 18 27.8
    endloop
  endfacet
  facet normal 0 -1 0
    outer loop
      vertex 181.4 62.8 22.8
      vertex 185.9 62.8 27.8
      vertex 181.4 62.8 27.8
    endloop
  endfacet
  facet normal 0 -1 -0
    outer loop
      vertex 185.9 62.8 27.8
      vertex 181.4 62.8 22.8
      vertex 185.9 62.8 22.8
    endloop
  endfacet
  facet normal -0 0 1
    outer loop
      vertex 181.4 62.8 22.8
      vertex 185.9 54.8 22.8
      vertex 185.9 62.8 22.8
    endloop
  endfacet
  facet normal 0 0 1
    outer loop
      vertex 185.9 54.8 22.8
      vertex 181.4 62.8 22.8
      vertex 181.4 54.8 22.8
    endloop
  endfacet
  facet normal 0 1 -0
    outer loop
      vertex 185.9 54.8 22.8
      vertex 181.4 54.8 27.8
      vertex 185.9 54.8 27.8
    endloop
  endfacet
  facet normal 0 1 0
    outer loop
      vertex 181.4 54.8 27.8
      vertex 185.9 54.8 22.8
      vertex 181.4 54.8 22.8
    endloop
  endfacet
  facet normal 0 0 -1
    outer loop
      vertex 181.4 54.8 27.8
      vertex 185.9 62.8 27.8
      vertex 185.9 54.8 27.8
    endloop
  endfacet
  facet normal -0 0 -1
    outer loop
      vertex 185.9 62.8 27.8
      vertex 181.4 54.8 27.8
      vertex 181.4 62.8 27.8
    endloop
  endfacet
  facet normal 0 -1 0
    outer loop
      vertex 181.4 107.6 22.8
      vertex 185.9 107.6 27.8
      vertex 181.4 107.6 27.8
    endloop
  endfacet
  facet normal 0 -1 -0
    outer loop
      vertex 185.9 107.6 27.8
      vertex 181.4 107.6 22.8
      vertex 185.9 107.6 22.8
    endloop
  endfacet
  facet normal 0 1 -0
    outer loop
      vertex 185.9 99.6 22.8
      vertex 181.4 99.6 27.8
      vertex 185.9 99.6 27.8
    endloop
  endfacet
  facet normal 0 1 0
    outer loop
      vertex 181.4 99.6 27.8
      vertex 185.9 99.6 22.8
      vertex 181.4 99.6 22.8
    endloop
  endfacet
  facet normal 0 0 -1
    outer loop
      vertex 181.4 99.6 27.8
      vertex 185.9 107.6 27.8
      vertex 185.9 99.6 27.8
    endloop
  endfacet
  facet normal -0 0 -1
    outer loop
      vertex 185.9 107.6 27.8
      vertex 181.4 99.6 27.8
      vertex 181.4 107.6 27.8
    endloop
  endfacet
  facet normal -0 0 1
    outer loop
      vertex 181.4 107.6 22.8
      vertex 185.9 99.6 22.8
      vertex 185.9 107.6 22.8
    endloop
  endfacet
  facet normal 0 0 1
    outer loop
      vertex 185.9 99.6 22.8
      vertex 181.4 107.6 22.8
      vertex 181.4 99.6 22.8
    endloop
  endfacet
  facet normal 1 0 0
    outer loop
      vertex 185.9 117.6 127.4
      vertex 185.9 107.6 27.8
      vertex 185.9 117.6 3.8147e-07
    endloop
  endfacet
  facet normal 1 0 0
    outer loop
      vertex 185.9 117.6 127.4
      vertex 185.9 99.6 27.8
      vertex 185.9 107.6 27.8
    endloop
  endfacet
  facet normal 1 0 0
    outer loop
      vertex 185.9 99.6 27.8
      vertex 185.9 62.8 27.8
      vertex 185.9 99.6 22.8
    endloop
  endfacet
  facet normal 1 0 0
    outer loop
      vertex 185.9 117.6 127.4
      vertex 185.9 62.8 27.8
      vertex 185.9 99.6 27.8
    endloop
  endfacet
  facet normal 1 0 0
    outer loop
      vertex 185.9 117.6 127.4
      vertex 185.9 54.8 27.8
      vertex 185.9 62.8 27.8
    endloop
  endfacet
  facet normal 1 0 0
    outer loop
      vertex 185.9 54.8 27.8
      vertex 185.9 18 27.8
      vertex 185.9 54.8 22.8
    endloop
  endfacet
  facet normal 1 -0 0
    outer loop
      vertex 185.9 0 127.4
      vertex 185.9 54.8 27.8
      vertex 185.9 117.6 127.4
    endloop
  endfacet
  facet normal 1 0 0
    outer loop
      vertex 185.9 54.8 27.8
      vertex 185.9 0 127.4
      vertex 185.9 18 27.8
    endloop
  endfacet
  facet normal 1 0 0
    outer loop
      vertex 185.9 0 3.8147e-07
      vertex 185.9 10 27.8
      vertex 185.9 0 127.4
    endloop
  endfacet
  facet normal 1 0 0
    outer loop
      vertex 185.9 18 27.8
      vertex 185.9 0 127.4
      vertex 185.9 10 27.8
    endloop
  endfacet
  facet normal 1 -0 0
    outer loop
      vertex 185.9 107.6 22.8
      vertex 185.9 117.6 3.8147e-07
      vertex 185.9 107.6 27.8
    endloop
  endfacet
  facet normal 1 -0 0
    outer loop
      vertex 185.9 99.6 22.8
      vertex 185.9 117.6 3.8147e-07
      vertex 185.9 107.6 22.8
    endloop
  endfacet
  facet normal 1 0 0
    outer loop
      vertex 185.9 62.8 22.8
      vertex 185.9 99.6 22.8
      vertex 185.9 62.8 27.8
    endloop
  endfacet
  facet normal 1 0 0
    outer loop
      vertex 185.9 99.6 22.8
      vertex 185.9 62.8 22.8
      vertex 185.9 117.6 3.8147e-07
    endloop
  endfacet
  facet normal 1 -0 0
    outer loop
      vertex 185.9 54.8 22.8
      vertex 185.9 117.6 3.8147e-07
      vertex 185.9 62.8 22.8
    endloop
  endfacet
  facet normal 1 0 0
    outer loop
      vertex 185.9 18 22.8
      vertex 185.9 54.8 22.8
      vertex 185.9 18 27.8
    endloop
  endfacet
  facet normal 1 0 0
    outer loop
      vertex 185.9 0 3.8147e-07
      vertex 185.9 54.8 22.8
      vertex 185.9 18 22.8
    endloop
  endfacet
  facet normal 1 0 0
    outer loop
      vertex 185.9 0 3.8147e-07
      vertex 185.9 18 22.8
      vertex 185.9 10 22.8
    endloop
  endfacet
  facet normal 1 0 0
    outer loop
      vertex 185.9 54.8 22.8
      vertex 185.9 0 3.8147e-07
      vertex 185.9 117.6 3.8147e-07
    endloop
  endfacet
  facet normal 1 0 0
    outer loop
      vertex 185.9 10 27.8
      vertex 185.9 0 3.8147e-07
      vertex 185.9 10 22.8
    endloop
  endfacet
  facet normal 0 1 0
    outer loop
      vertex 185.9 117.6 127.4
      vertex 181.4 117.6 125.48
      vertex 183.32 117.6 127.4
    endloop
  endfacet
  facet normal 0 1 0
    outer loop
      vertex 185.9 117.6 127.4
      vertex 181.4 117.6 4.5
      vertex 181.4 117.6 125.48
    endloop
  endfacet
  facet normal 0 1 -0
    outer loop
      vertex 185.9 117.6 3.8147e-07
      vertex 181.4 117.6 4.5
      vertex 185.9 117.6 127.4
    endloop
  endfacet
  facet normal 0 1 0
    outer loop
      vertex 119.8 117.6 3.8147e-07
      vertex 181.4 117.6 4.5
      vertex 185.9 117.6 3.8147e-07
    endloop
  endfacet
  facet normal 0 1 0
    outer loop
      vertex 181.4 117.6 4.5
      vertex 119.8 117.6 3.8147e-07
      vertex 119.8 117.6 4.5
    endloop
  endfacet
  facet normal -1 0 0
    outer loop
      vertex 181.4 107.6 27.8
      vertex 181.4 117.6 4.5
      vertex 181.4 107.6 22.8
    endloop
  endfacet
  facet normal -1 0 0
    outer loop
      vertex 181.4 117.6 4.5
      vertex 181.4 99.6 22.8
      vertex 181.4 107.6 22.8
    endloop
  endfacet
  facet normal -1 0 0
    outer loop
      vertex 181.4 99.6 22.8
      vertex 181.4 62.8 22.8
      vertex 181.4 99.6 27.8
    endloop
  endfacet
  facet normal -1 0 0
    outer loop
      vertex 181.4 117.6 4.5
      vertex 181.4 62.8 22.8
      vertex 181.4 99.6 22.8
    endloop
  endfacet
  facet normal -1 0 0
    outer loop
      vertex 181.4 117.6 4.5
      vertex 181.4 54.8 22.8
      vertex 181.4 62.8 22.8
    endloop
  endfacet
  facet normal -1 0 0
    outer loop
      vertex 181.4 54.8 22.8
      vertex 181.4 18 22.8
      vertex 181.4 54.8 27.8
    endloop
  endfacet
  facet normal -1 0 0
    outer loop
      vertex 181.4 0 4.5
      vertex 181.4 54.8 22.8
      vertex 181.4 117.6 4.5
    endloop
  endfacet
  facet normal -1 -0 0
    outer loop
      vertex 181.4 54.8 22.8
      vertex 181.4 0 4.5
      vertex 181.4 18 22.8
    endloop
  endfacet
  facet normal -1 -0 0
    outer loop
      vertex 181.4 10 22.8
      vertex 181.4 0 4.5
      vertex 181.4 10 27.8
    endloop
  endfacet
  facet normal -1 -0 0
    outer loop
      vertex 181.4 18 22.8
      vertex 181.4 0 4.5
      vertex 181.4 10 22.8
    endloop
  endfacet
  facet normal -1 0 0
    outer loop
      vertex 181.4 117.6 4.5
      vertex 181.4 107.6 27.8
      vertex 181.4 117.6 125.48
    endloop
  endfacet
  facet normal -1 0 0
    outer loop
      vertex 181.4 99.6 27.8
      vertex 181.4 117.6 125.48
      vertex 181.4 107.6 27.8
    endloop
  endfacet
  facet normal -1 0 0
    outer loop
      vertex 181.4 62.8 27.8
      vertex 181.4 99.6 27.8
      vertex 181.4 62.8 22.8
    endloop
  endfacet
  facet normal -1 0 0
    outer loop
      vertex 181.4 99.6 27.8
      vertex 181.4 62.8 27.8
      vertex 181.4 117.6 125.48
    endloop
  endfacet
  facet normal -1 0 0
    outer loop
      vertex 181.4 54.8 27.8
      vertex 181.4 117.6 125.48
      vertex 181.4 62.8 27.8
    endloop
  endfacet
  facet normal -1 0 0
    outer loop
      vertex 181.4 18 27.8
      vertex 181.4 54.8 27.8
      vertex 181.4 18 22.8
    endloop
  endfacet
  facet normal -1 0 0
    outer loop
      vertex 181.4 0 125.48
      vertex 181.4 54.8 27.8
      vertex 181.4 18 27.8
    endloop
  endfacet
  facet normal -1 0 0
    outer loop
      vertex 181.4 0 125.48
      vertex 181.4 18 27.8
      vertex 181.4 10 27.8
    endloop
  endfacet
  facet normal -1 0 0
    outer loop
      vertex 181.4 54.8 27.8
      vertex 181.4 0 125.48
      vertex 181.4 117.6 125.48
    endloop
  endfacet
  facet normal -1 0 0
    outer loop
      vertex 181.4 0 125.48
      vertex 181.4 10 27.8
      vertex 181.4 0 4.5
    endloop
  endfacet
  facet normal 0 0 -1
    outer loop
      vertex 119.8 0 3.8147e-07
      vertex 185.9 117.6 3.8147e-07
      vertex 185.9 0 3.8147e-07
    endloop
  endfacet
  facet normal -0 0 -1
    outer loop
      vertex 185.9 117.6 3.8147e-07
      vertex 119.8 0 3.8147e-07
      vertex 119.8 117.6 3.8147e-07
    endloop
  endfacet
  facet normal 0 -1 0
    outer loop
      vertex 119.8 0 4.5
      vertex 119.8 0 3.8147e-07
      vertex 181.4 0 4.5
    endloop
  endfacet
  facet normal 0 -1 0
    outer loop
      vertex 181.4 0 125.48
      vertex 185.9 0 127.4
      vertex 183.32 0 127.4
    endloop
  endfacet
  facet normal 0 -1 0
    outer loop
      vertex 181.4 0 4.5
      vertex 185.9 0 127.4
      vertex 181.4 0 125.48
    endloop
  endfacet
  facet normal 0 -1 0
    outer loop
      vertex 181.4 0 4.5
      vertex 185.9 0 3.8147e-07
      vertex 185.9 0 127.4
    endloop
  endfacet
  facet normal 0 -1 0
    outer loop
      vertex 185.9 0 3.8147e-07
      vertex 181.4 0 4.5
      vertex 119.8 0 3.8147e-07
    endloop
  endfacet
  facet normal -0 0 1
    outer loop
      vertex 183.32 117.6 127.4
      vertex 185.9 0 127.4
      vertex 185.9 117.6 127.4
    endloop
  endfacet
  facet normal 0 0 1
    outer loop
      vertex 185.9 0 127.4
      vertex 183.32 117.6 127.4
      vertex 183.32 0 127.4
    endloop
  endfacet
  facet normal -0.707107 0 0.707107
    outer loop
      vertex 181.4 0 125.48
      vertex 183.32 117.6 127.4
      vertex 181.4 117.6 125.48
    endloop
  endfacet
  facet normal -0.707107 0 0.707107
    outer loop
      vertex 183.32 117.6 127.4
      vertex 181.4 0 125.48
      vertex 183.32 0 127.4
    endloop
  endfacet
  facet normal -1 0 0
    outer loop
      vertex 119.8 0 3.8147e-07
      vertex 119.8 117.6 4.5
      vertex 119.8 117.6 3.8147e-07
    endloop
  endfacet
  facet normal -1 -0 0
    outer loop
      vertex 119.8 117.6 4.5
      vertex 119.8 0 3.8147e-07
      vertex 119.8 0 4.5
    endloop
  endfacet
  facet normal -0 0 1
    outer loop
      vertex 119.8 117.6 4.5
      vertex 181.4 0 4.5
      vertex 181.4 117.6 4.5
    endloop
  endfacet
  facet normal 0 0 1
    outer loop
      vertex 181.4 0 4.5
      vertex 119.8 117.6 4.5
      vertex 119.8 0 4.5
    endloop
  endfacet
endsolid OpenSCAD_Model
