solid OpenSCAD_Model
  facet normal 0 1 -0
    outer loop
      vertex 48.5 2.4 121.36
      vertex 48.42 2.4 122.4
      vertex 48.5 2.4 122.4
    endloop
  endfacet
  facet normal 0 1 0
    outer loop
      vertex 48.42 2.4 122.4
      vertex 48.5 2.4 121.36
      vertex 48.42 2.4 121.28
    endloop
  endfacet
  facet normal -0.707107 0 0.707107
    outer loop
      vertex 48.42 2.4 121.28
      vertex 48.5 40.4 121.36
      vertex 48.42 40.4 121.28
    endloop
  endfacet
  facet normal -0.707107 0 0.707107
    outer loop
      vertex 48.5 40.4 121.36
      vertex 48.42 2.4 121.28
      vertex 48.5 2.4 121.36
    endloop
  endfacet
  facet normal 0 -1 0
    outer loop
      vertex 48.42 40.4 122.4
      vertex 48.5 40.4 121.36
      vertex 48.5 40.4 122.4
    endloop
  endfacet
  facet normal -0 -1 0
    outer loop
      vertex 48.5 40.4 121.36
      vertex 48.42 40.4 122.4
      vertex 48.42 40.4 121.28
    endloop
  endfacet
  facet normal 1 -0 0
    outer loop
      vertex 48.42 2.4 122.4
      vertex 48.42 40.4 121.28
      vertex 48.42 40.4 122.4
    endloop
  endfacet
  facet normal 1 0 0
    outer loop
      vertex 48.42 40.4 121.28
      vertex 48.42 2.4 122.4
      vertex 48.42 2.4 121.28
    endloop
  endfacet
  facet normal 0 1 0
    outer loop
      vertex 188.58 2.4 122.4
      vertex 188.5 2.4 121.36
      vertex 188.5 2.4 122.4
    endloop
  endfacet
  facet normal -0 1 0
    outer loop
      vertex 188.5 2.4 121.36
      vertex 188.58 2.4 122.4
      vertex 188.58 2.4 121.28
    endloop
  endfacet
  facet normal -1 0 0
    outer loop
      vertex 188.58 2.4 121.28
      vertex 188.58 40.4 122.4
      vertex 188.58 40.4 121.28
    endloop
  endfacet
  facet normal -1 -0 0
    outer loop
      vertex 188.58 40.4 122.4
      vertex 188.58 2.4 121.28
      vertex 188.58 2.4 122.4
    endloop
  endfacet
  facet normal 0.707107 -0 0.707107
    outer loop
      vertex 188.5 2.4 121.36
      vertex 188.58 40.4 121.28
      vertex 188.5 40.4 121.36
    endloop
  endfacet
  facet normal 0.707107 0 0.707107
    outer loop
      vertex 188.5 2.4 121.36
      vertex 188.58 2.4 121.28
      vertex 188.58 40.4 121.28
    endloop
  endfacet
  facet normal 0 -1 0
    outer loop
      vertex 188.5 40.4 121.36
      vertex 188.58 40.4 122.4
      vertex 188.5 40.4 122.4
    endloop
  endfacet
  facet normal 0 -1 -0
    outer loop
      vertex 188.58 40.4 122.4
      vertex 188.5 40.4 121.36
      vertex 188.58 40.4 121.28
    endloop
  endfacet
  facet normal 1 -0 0
    outer loop
      vertex 48.5 2.32001 122.4
      vertex 48.5 2.4 121.36
      vertex 48.5 2.4 122.4
    endloop
  endfacet
  facet normal 1 0 0
    outer loop
      vertex 48.5 2.4 121.36
      vertex 48.5 2.32001 122.4
      vertex 48.5 2.32001 121.28
    endloop
  endfacet
  facet normal 0 1 -0
    outer loop
      vertex 188.5 2.32001 121.28
      vertex 48.5 2.32001 122.4
      vertex 188.5 2.32001 122.4
    endloop
  endfacet
  facet normal 0 1 0
    outer loop
      vertex 48.5 2.32001 122.4
      vertex 188.5 2.32001 121.28
      vertex 48.5 2.32001 121.28
    endloop
  endfacet
  facet normal 0 -0.707151 0.707063
    outer loop
      vertex 48.5 2.4 121.36
      vertex 188.5 2.32001 121.28
      vertex 188.5 2.4 121.36
    endloop
  endfacet
  facet normal 0 -0.707151 0.707063
    outer loop
      vertex 188.5 2.32001 121.28
      vertex 48.5 2.4 121.36
      vertex 48.5 2.32001 121.28
    endloop
  endfacet
  facet normal -1 0 0
    outer loop
      vertex 188.5 2.32001 122.4
      vertex 188.5 2.4 121.36
      vertex 188.5 2.32001 121.28
    endloop
  endfacet
  facet normal -1 0 0
    outer loop
      vertex 188.5 2.4 121.36
      vertex 188.5 2.32001 122.4
      vertex 188.5 2.4 122.4
    endloop
  endfacet
  facet normal 1 0 0
    outer loop
      vertex 48.5 40.4 121.36
      vertex 48.5 40.48 122.4
      vertex 48.5 40.4 122.4
    endloop
  endfacet
  facet normal 1 0 0
    outer loop
      vertex 48.5 40.48 122.4
      vertex 48.5 40.4 121.36
      vertex 48.5 40.48 121.28
    endloop
  endfacet
  facet normal 0 0.707107 0.707107
    outer loop
      vertex 188.5 40.48 121.28
      vertex 48.5 40.4 121.36
      vertex 188.5 40.4 121.36
    endloop
  endfacet
  facet normal 0 0.707107 0.707107
    outer loop
      vertex 48.5 40.4 121.36
      vertex 188.5 40.48 121.28
      vertex 48.5 40.48 121.28
    endloop
  endfacet
  facet normal -1 0 0
    outer loop
      vertex 188.5 40.4 121.36
      vertex 188.5 40.48 122.4
      vertex 188.5 40.48 121.28
    endloop
  endfacet
  facet normal -1 -0 0
    outer loop
      vertex 188.5 40.48 122.4
      vertex 188.5 40.4 121.36
      vertex 188.5 40.4 122.4
    endloop
  endfacet
  facet normal 0 -1 0
    outer loop
      vertex 48.5 40.48 121.28
      vertex 188.5 40.48 122.4
      vertex 48.5 40.48 122.4
    endloop
  endfacet
  facet normal 0 -1 -0
    outer loop
      vertex 188.5 40.48 122.4
      vertex 48.5 40.48 121.28
      vertex 188.5 40.48 121.28
    endloop
  endfacet
  facet normal 0 1 -0
    outer loop
      vertex 48.5 42.8 121.36
      vertex 48.42 42.8 122.4
      vertex 48.5 42.8 122.4
    endloop
  endfacet
  facet normal 0 1 0
    outer loop
      vertex 48.42 42.8 122.4
      vertex 48.5 42.8 121.36
      vertex 48.42 42.8 121.28
    endloop
  endfacet
  facet normal -0.707107 0 0.707107
    outer loop
      vertex 48.42 42.8 121.28
      vertex 48.5 80.8 121.36
      vertex 48.42 80.8 121.28
    endloop
  endfacet
  facet normal -0.707107 0 0.707107
    outer loop
      vertex 48.5 80.8 121.36
      vertex 48.42 42.8 121.28
      vertex 48.5 42.8 121.36
    endloop
  endfacet
  facet normal 0 -1 0
    outer loop
      vertex 48.42 80.8 122.4
      vertex 48.5 80.8 121.36
      vertex 48.5 80.8 122.4
    endloop
  endfacet
  facet normal -0 -1 0
    outer loop
      vertex 48.5 80.8 121.36
      vertex 48.42 80.8 122.4
      vertex 48.42 80.8 121.28
    endloop
  endfacet
  facet normal 1 -0 0
    outer loop
      vertex 48.42 42.8 122.4
      vertex 48.42 80.8 121.28
      vertex 48.42 80.8 122.4
    endloop
  endfacet
  facet normal 1 0 0
    outer loop
      vertex 48.42 80.8 121.28
      vertex 48.42 42.8 122.4
      vertex 48.42 42.8 121.28
    endloop
  endfacet
  facet normal 0 1 0
    outer loop
      vertex 188.58 42.8 122.4
      vertex 188.5 42.8 121.36
      vertex 188.5 42.8 122.4
    endloop
  endfacet
  facet normal -0 1 0
    outer loop
      vertex 188.5 42.8 121.36
      vertex 188.58 42.8 122.4
      vertex 188.58 42.8 121.28
    endloop
  endfacet
  facet normal -1 0 0
    outer loop
      vertex 188.58 42.8 121.28
      vertex 188.58 80.8 122.4
      vertex 188.58 80.8 121.28
    endloop
  endfacet
  facet normal -1 -0 0
    outer loop
      vertex 188.58 80.8 122.4
      vertex 188.58 42.8 121.28
      vertex 188.58 42.8 122.4
    endloop
  endfacet
  facet normal 0.707107 -0 0.707107
    outer loop
      vertex 188.5 42.8 121.36
      vertex 188.58 80.8 121.28
      vertex 188.5 80.8 121.36
    endloop
  endfacet
  facet normal 0.707107 0 0.707107
    outer loop
      vertex 188.58 80.8 121.28
      vertex 188.5 42.8 121.36
      vertex 188.58 42.8 121.28
    endloop
  endfacet
  facet normal 0 -1 0
    outer loop
      vertex 188.5 80.8 121.36
      vertex 188.58 80.8 122.4
      vertex 188.5 80.8 122.4
    endloop
  endfacet
  facet normal 0 -1 -0
    outer loop
      vertex 188.58 80.8 122.4
      vertex 188.5 80.8 121.36
      vertex 188.58 80.8 121.28
    endloop
  endfacet
  facet normal 1 -0 0
    outer loop
      vertex 48.5 42.72 122.4
      vertex 48.5 42.8 121.36
      vertex 48.5 42.8 122.4
    endloop
  endfacet
  facet normal 1 0 0
    outer loop
      vertex 48.5 42.8 121.36
      vertex 48.5 42.72 122.4
      vertex 48.5 42.72 121.28
    endloop
  endfacet
  facet normal 0 1 -0
    outer loop
      vertex 188.5 42.72 121.28
      vertex 48.5 42.72 122.4
      vertex 188.5 42.72 122.4
    endloop
  endfacet
  facet normal 0 1 0
    outer loop
      vertex 48.5 42.72 122.4
      vertex 188.5 42.72 121.28
      vertex 48.5 42.72 121.28
    endloop
  endfacet
  facet normal 0 -0.707107 0.707107
    outer loop
      vertex 48.5 42.72 121.28
      vertex 188.5 42.8 121.36
      vertex 48.5 42.8 121.36
    endloop
  endfacet
  facet normal 0 -0.707107 0.707107
    outer loop
      vertex 188.5 42.8 121.36
      vertex 48.5 42.72 121.28
      vertex 188.5 42.72 121.28
    endloop
  endfacet
  facet normal -1 0 0
    outer loop
      vertex 188.5 42.72 122.4
      vertex 188.5 42.8 121.36
      vertex 188.5 42.72 121.28
    endloop
  endfacet
  facet normal -1 0 0
    outer loop
      vertex 188.5 42.8 121.36
      vertex 188.5 42.72 122.4
      vertex 188.5 42.8 122.4
    endloop
  endfacet
  facet normal 1 0 0
    outer loop
      vertex 48.5 80.8 121.36
      vertex 48.5 80.88 122.4
      vertex 48.5 80.8 122.4
    endloop
  endfacet
  facet normal 1 0 0
    outer loop
      vertex 48.5 80.88 122.4
      vertex 48.5 80.8 121.36
      vertex 48.5 80.88 121.28
    endloop
  endfacet
  facet normal 0 0.707107 0.707107
    outer loop
      vertex 188.5 80.88 121.28
      vertex 48.5 80.8 121.36
      vertex 188.5 80.8 121.36
    endloop
  endfacet
  facet normal 0 0.707107 0.707107
    outer loop
      vertex 48.5 80.8 121.36
      vertex 188.5 80.88 121.28
      vertex 48.5 80.88 121.28
    endloop
  endfacet
  facet normal -1 0 0
    outer loop
      vertex 188.5 80.8 121.36
      vertex 188.5 80.88 122.4
      vertex 188.5 80.88 121.28
    endloop
  endfacet
  facet normal -1 -0 0
    outer loop
      vertex 188.5 80.88 122.4
      vertex 188.5 80.8 121.36
      vertex 188.5 80.8 122.4
    endloop
  endfacet
  facet normal 0 -1 0
    outer loop
      vertex 48.5 80.88 121.28
      vertex 188.5 80.88 122.4
      vertex 48.5 80.88 122.4
    endloop
  endfacet
  facet normal 0 -1 -0
    outer loop
      vertex 188.5 80.88 122.4
      vertex 48.5 80.88 121.28
      vertex 188.5 80.88 121.28
    endloop
  endfacet
  facet normal 0 1 -0
    outer loop
      vertex 48.5 83.2 121.36
      vertex 48.42 83.2 122.4
      vertex 48.5 83.2 122.4
    endloop
  endfacet
  facet normal 0 1 0
    outer loop
      vertex 48.42 83.2 122.4
      vertex 48.5 83.2 121.36
      vertex 48.42 83.2 121.28
    endloop
  endfacet
  facet normal -0.707107 0 0.707107
    outer loop
      vertex 48.42 83.2 121.28
      vertex 48.5 121.2 121.36
      vertex 48.42 121.2 121.28
    endloop
  endfacet
  facet normal -0.707107 0 0.707107
    outer loop
      vertex 48.5 121.2 121.36
      vertex 48.42 83.2 121.28
      vertex 48.5 83.2 121.36
    endloop
  endfacet
  facet normal 0 -1 0
    outer loop
      vertex 48.42 121.2 122.4
      vertex 48.5 121.2 121.36
      vertex 48.5 121.2 122.4
    endloop
  endfacet
  facet normal -0 -1 0
    outer loop
      vertex 48.5 121.2 121.36
      vertex 48.42 121.2 122.4
      vertex 48.42 121.2 121.28
    endloop
  endfacet
  facet normal 1 -0 0
    outer loop
      vertex 48.42 83.2 122.4
      vertex 48.42 121.2 121.28
      vertex 48.42 121.2 122.4
    endloop
  endfacet
  facet normal 1 0 0
    outer loop
      vertex 48.42 121.2 121.28
      vertex 48.42 83.2 122.4
      vertex 48.42 83.2 121.28
    endloop
  endfacet
  facet normal 0 1 0
    outer loop
      vertex 188.58 83.2 122.4
      vertex 188.5 83.2 121.36
      vertex 188.5 83.2 122.4
    endloop
  endfacet
  facet normal -0 1 0
    outer loop
      vertex 188.5 83.2 121.36
      vertex 188.58 83.2 122.4
      vertex 188.58 83.2 121.28
    endloop
  endfacet
  facet normal -1 0 0
    outer loop
      vertex 188.58 83.2 121.28
      vertex 188.58 121.2 122.4
      vertex 188.58 121.2 121.28
    endloop
  endfacet
  facet normal -1 -0 0
    outer loop
      vertex 188.58 121.2 122.4
      vertex 188.58 83.2 121.28
      vertex 188.58 83.2 122.4
    endloop
  endfacet
  facet normal 0.707107 -0 0.707107
    outer loop
      vertex 188.5 83.2 121.36
      vertex 188.58 121.2 121.28
      vertex 188.5 121.2 121.36
    endloop
  endfacet
  facet normal 0.707107 0 0.707107
    outer loop
      vertex 188.58 121.2 121.28
      vertex 188.5 83.2 121.36
      vertex 188.58 83.2 121.28
    endloop
  endfacet
  facet normal 0 -1 0
    outer loop
      vertex 188.5 121.2 121.36
      vertex 188.58 121.2 122.4
      vertex 188.5 121.2 122.4
    endloop
  endfacet
  facet normal 0 -1 -0
    outer loop
      vertex 188.58 121.2 122.4
      vertex 188.5 121.2 121.36
      vertex 188.58 121.2 121.28
    endloop
  endfacet
  facet normal 1 -0 0
    outer loop
      vertex 48.5 83.12 122.4
      vertex 48.5 83.2 121.36
      vertex 48.5 83.2 122.4
    endloop
  endfacet
  facet normal 1 0 0
    outer loop
      vertex 48.5 83.2 121.36
      vertex 48.5 83.12 122.4
      vertex 48.5 83.12 121.28
    endloop
  endfacet
  facet normal 0 1 -0
    outer loop
      vertex 188.5 83.12 121.28
      vertex 48.5 83.12 122.4
      vertex 188.5 83.12 122.4
    endloop
  endfacet
  facet normal 0 1 0
    outer loop
      vertex 48.5 83.12 122.4
      vertex 188.5 83.12 121.28
      vertex 48.5 83.12 121.28
    endloop
  endfacet
  facet normal 0 -0.707107 0.707107
    outer loop
      vertex 48.5 83.12 121.28
      vertex 188.5 83.2 121.36
      vertex 48.5 83.2 121.36
    endloop
  endfacet
  facet normal 0 -0.707107 0.707107
    outer loop
      vertex 188.5 83.2 121.36
      vertex 48.5 83.12 121.28
      vertex 188.5 83.12 121.28
    endloop
  endfacet
  facet normal -1 0 0
    outer loop
      vertex 188.5 83.12 122.4
      vertex 188.5 83.2 121.36
      vertex 188.5 83.12 121.28
    endloop
  endfacet
  facet normal -1 0 0
    outer loop
      vertex 188.5 83.2 121.36
      vertex 188.5 83.12 122.4
      vertex 188.5 83.2 122.4
    endloop
  endfacet
  facet normal 1 0 0
    outer loop
      vertex 48.5 121.2 121.36
      vertex 48.5 121.28 122.4
      vertex 48.5 121.2 122.4
    endloop
  endfacet
  facet normal 1 0 0
    outer loop
      vertex 48.5 121.28 122.4
      vertex 48.5 121.2 121.36
      vertex 48.5 121.28 121.28
    endloop
  endfacet
  facet normal 0 0.707107 0.707107
    outer loop
      vertex 188.5 121.28 121.28
      vertex 48.5 121.2 121.36
      vertex 188.5 121.2 121.36
    endloop
  endfacet
  facet normal 0 0.707107 0.707107
    outer loop
      vertex 48.5 121.2 121.36
      vertex 188.5 121.28 121.28
      vertex 48.5 121.28 121.28
    endloop
  endfacet
  facet normal -1 0 0
    outer loop
      vertex 188.5 121.2 121.36
      vertex 188.5 121.28 122.4
      vertex 188.5 121.28 121.28
    endloop
  endfacet
  facet normal -1 -0 0
    outer loop
      vertex 188.5 121.28 122.4
      vertex 188.5 121.2 121.36
      vertex 188.5 121.2 122.4
    endloop
  endfacet
  facet normal 0 -1 0
    outer loop
      vertex 48.5 121.28 121.28
      vertex 188.5 121.28 122.4
      vertex 48.5 121.28 122.4
    endloop
  endfacet
  facet normal 0 -1 -0
    outer loop
      vertex 188.5 121.28 122.4
      vertex 48.5 121.28 121.28
      vertex 188.5 121.28 121.28
    endloop
  endfacet
  facet normal 1 -0 0
    outer loop
      vertex 48.5 2.4 121.36
      vertex 48.5 40.4 2.4
      vertex 48.5 40.4 121.36
    endloop
  endfacet
  facet normal 1 0 0
    outer loop
      vertex 48.5 2.4 121.36
      vertex 48.5 2.4 2.4
      vertex 48.5 40.4 2.4
    endloop
  endfacet
  facet normal 0 0 0
    outer loop
      vertex 48.5 2.4 2.4
      vertex 48.5 2.4 121.36
      vertex 48.5 2.4 122.4
    endloop
  endfacet
  facet normal 0 -1 0
    outer loop
      vertex 48.5 40.4 2.4
      vertex 188.5 40.4 121.36
      vertex 48.5 40.4 121.36
    endloop
  endfacet
  facet normal 0 -1 -0
    outer loop
      vertex 188.5 40.4 121.36
      vertex 48.5 40.4 2.4
      vertex 188.5 40.4 2.4
    endloop
  endfacet
  facet normal -1 0 0
    outer loop
      vertex 188.5 40.4 2.4
      vertex 188.5 2.4 121.36
      vertex 188.5 40.4 121.36
    endloop
  endfacet
  facet normal -1 0 0
    outer loop
      vertex 188.5 2.4 2.4
      vertex 188.5 2.4 121.36
      vertex 188.5 40.4 2.4
    endloop
  endfacet
  facet normal -0 0 1
    outer loop
      vertex 48.5 40.4 2.4
      vertex 188.5 2.4 2.4
      vertex 188.5 40.4 2.4
    endloop
  endfacet
  facet normal 0 0 1
    outer loop
      vertex 188.5 2.4 2.4
      vertex 48.5 40.4 2.4
      vertex 48.5 2.4 2.4
    endloop
  endfacet
  facet normal 0 1 -0
    outer loop
      vertex 188.5 2.4 2.4
      vertex 48.5 2.4 121.36
      vertex 188.5 2.4 121.36
    endloop
  endfacet
  facet normal 0 1 0
    outer loop
      vertex 48.5 2.4 121.36
      vertex 188.5 2.4 2.4
      vertex 48.5 2.4 2.4
    endloop
  endfacet
  facet normal 0 0 0
    outer loop
      vertex 48.5 2.4 2.4
      vertex 48.5 2.4 122.4
      vertex 48.5 2.4 121.36
    endloop
  endfacet
  facet normal 1 -0 0
    outer loop
      vertex 48.5 42.8 121.36
      vertex 48.5 80.8 2.4
      vertex 48.5 80.8 121.36
    endloop
  endfacet
  facet normal 1 0 0
    outer loop
      vertex 48.5 80.8 2.4
      vertex 48.5 42.8 121.36
      vertex 48.5 42.8 2.4
    endloop
  endfacet
  facet normal 0 0 0
    outer loop
      vertex 48.5 42.8 2.4
      vertex 48.5 42.8 121.36
      vertex 48.5 42.8 122.4
    endloop
  endfacet
  facet normal 0 -1 0
    outer loop
      vertex 48.5 80.8 2.4
      vertex 188.5 80.8 121.36
      vertex 48.5 80.8 121.36
    endloop
  endfacet
  facet normal 0 -1 -0
    outer loop
      vertex 188.5 80.8 121.36
      vertex 48.5 80.8 2.4
      vertex 188.5 80.8 2.4
    endloop
  endfacet
  facet normal -1 0 0
    outer loop
      vertex 188.5 42.8 2.4
      vertex 188.5 80.8 121.36
      vertex 188.5 80.8 2.4
    endloop
  endfacet
  facet normal -1 -0 0
    outer loop
      vertex 188.5 80.8 121.36
      vertex 188.5 42.8 2.4
      vertex 188.5 42.8 121.36
    endloop
  endfacet
  facet normal -0 0 1
    outer loop
      vertex 48.5 80.8 2.4
      vertex 188.5 42.8 2.4
      vertex 188.5 80.8 2.4
    endloop
  endfacet
  facet normal 0 0 1
    outer loop
      vertex 188.5 42.8 2.4
      vertex 48.5 80.8 2.4
      vertex 48.5 42.8 2.4
    endloop
  endfacet
  facet normal 0 1 -0
    outer loop
      vertex 188.5 42.8 2.4
      vertex 48.5 42.8 121.36
      vertex 188.5 42.8 121.36
    endloop
  endfacet
  facet normal 0 1 0
    outer loop
      vertex 48.5 42.8 121.36
      vertex 188.5 42.8 2.4
      vertex 48.5 42.8 2.4
    endloop
  endfacet
  facet normal 0 0 0
    outer loop
      vertex 48.5 42.8 2.4
      vertex 48.5 42.8 122.4
      vertex 48.5 42.8 121.36
    endloop
  endfacet
  facet normal 1 -0 0
    outer loop
      vertex 48.5 83.2 121.36
      vertex 48.5 121.2 2.4
      vertex 48.5 121.2 121.36
    endloop
  endfacet
  facet normal 1 0 0
    outer loop
      vertex 48.5 121.2 2.4
      vertex 48.5 83.2 121.36
      vertex 48.5 83.2 2.4
    endloop
  endfacet
  facet normal -0 0 0
    outer loop
      vertex 48.5 83.2 121.36
      vertex 48.5 83.2 122.4
      vertex 48.5 83.2 2.4
    endloop
  endfacet
  facet normal 0 -1 0
    outer loop
      vertex 48.5 121.2 2.4
      vertex 188.5 121.2 121.36
      vertex 48.5 121.2 121.36
    endloop
  endfacet
  facet normal 0 -1 -0
    outer loop
      vertex 188.5 121.2 121.36
      vertex 48.5 121.2 2.4
      vertex 188.5 121.2 2.4
    endloop
  endfacet
  facet normal -1 0 0
    outer loop
      vertex 188.5 83.2 2.4
      vertex 188.5 121.2 121.36
      vertex 188.5 121.2 2.4
    endloop
  endfacet
  facet normal -1 -0 0
    outer loop
      vertex 188.5 121.2 121.36
      vertex 188.5 83.2 2.4
      vertex 188.5 83.2 121.36
    endloop
  endfacet
  facet normal 0 1 -0
    outer loop
      vertex 188.5 83.2 2.4
      vertex 48.5 83.2 121.36
      vertex 188.5 83.2 121.36
    endloop
  endfacet
  facet normal 0 1 0
    outer loop
      vertex 48.5 83.2 121.36
      vertex 188.5 83.2 2.4
      vertex 48.5 83.2 2.4
    endloop
  endfacet
  facet normal 0 0 0
    outer loop
      vertex 48.5 83.2 2.4
      vertex 48.5 83.2 122.4
      vertex 48.5 83.2 121.36
    endloop
  endfacet
  facet normal -0 0 1
    outer loop
      vertex 48.5 121.2 2.4
      vertex 188.5 83.2 2.4
      vertex 188.5 121.2 2.4
    endloop
  endfacet
  facet normal 0 0 1
    outer loop
      vertex 188.5 83.2 2.4
      vertex 48.5 121.2 2.4
      vertex 48.5 83.2 2.4
    endloop
  endfacet
  facet normal -1 0 0
    outer loop
      vertex 46.1 141.6 3.8147e-07
      vertex 46.1 135.6 2.4
      vertex 46.1 141.6 2.4
    endloop
  endfacet
  facet normal -1 0 0
    outer loop
      vertex 46.1 123.6 3.8147e-07
      vertex 46.1 135.6 2.4
      vertex 46.1 141.6 3.8147e-07
    endloop
  endfacet
  facet normal -1 0 0
    outer loop
      vertex 46.1 123.6 4.5
      vertex 46.1 135.6 2.4
      vertex 46.1 123.6 3.8147e-07
    endloop
  endfacet
  facet normal -1 0 0
    outer loop
      vertex 46.1 135.6 2.4
      vertex 46.1 123.6 4.5
      vertex 46.1 135.6 122.4
    endloop
  endfacet
  facet normal -1 0 0
    outer loop
      vertex 46.1 0 122.4
      vertex 46.1 123.6 4.5
      vertex 46.1 0 4.5
    endloop
  endfacet
  facet normal -1 0 0
    outer loop
      vertex 46.1 123.6 4.5
      vertex 46.1 0 122.4
      vertex 46.1 135.6 122.4
    endloop
  endfacet
  facet normal 0 1 -0
    outer loop
      vertex 188.5 123.6 2.4
      vertex 48.5 123.6 120
      vertex 188.5 123.6 120
    endloop
  endfacet
  facet normal 0 1 0
    outer loop
      vertex 48.5 123.6 120
      vertex 188.5 123.6 2.4
      vertex 48.5 123.6 2.4
    endloop
  endfacet
  facet normal 1 0 0
    outer loop
      vertex 190.9 135.6 122.4
      vertex 190.9 0 122.4
      vertex 190.9 135.6 2.4
    endloop
  endfacet
  facet normal 1 -0 0
    outer loop
      vertex 190.9 135.6 2.4
      vertex 190.9 141.6 3.8147e-07
      vertex 190.9 141.6 2.4
    endloop
  endfacet
  facet normal 1 0 0
    outer loop
      vertex 190.9 135.6 2.4
      vertex 190.9 0 3.8147e-07
      vertex 190.9 141.6 3.8147e-07
    endloop
  endfacet
  facet normal 1 0 0
    outer loop
      vertex 190.9 0 3.8147e-07
      vertex 190.9 135.6 2.4
      vertex 190.9 0 122.4
    endloop
  endfacet
  facet normal 0 0 -1
    outer loop
      vertex 190.9 0 3.8147e-07
      vertex 46.1 123.6 3.8147e-07
      vertex 190.9 141.6 3.8147e-07
    endloop
  endfacet
  facet normal 0 0 -1
    outer loop
      vertex 5.72205e-07 0 3.8147e-07
      vertex 46.1 123.6 3.8147e-07
      vertex 190.9 0 3.8147e-07
    endloop
  endfacet
  facet normal -0 0 -1
    outer loop
      vertex 46.1 123.6 3.8147e-07
      vertex 5.72205e-07 0 3.8147e-07
      vertex 5.72205e-07 123.6 3.8147e-07
    endloop
  endfacet
  facet normal -0 0 -1
    outer loop
      vertex 190.9 141.6 3.8147e-07
      vertex 46.1 123.6 3.8147e-07
      vertex 46.1 141.6 3.8147e-07
    endloop
  endfacet
  facet normal 0 -1 0
    outer loop
      vertex 5.72205e-07 0 122.4
      vertex 4.5 0 120.48
      vertex 2.57999 0 122.4
    endloop
  endfacet
  facet normal 0 -1 0
    outer loop
      vertex 5.72205e-07 0 122.4
      vertex 4.5 0 4.5
      vertex 4.5 0 120.48
    endloop
  endfacet
  facet normal 0 -1 -0
    outer loop
      vertex 4.5 0 4.5
      vertex 5.72205e-07 0 3.8147e-07
      vertex 46.1 0 4.5
    endloop
  endfacet
  facet normal 0 -1 0
    outer loop
      vertex 5.72205e-07 0 3.8147e-07
      vertex 4.5 0 4.5
      vertex 5.72205e-07 0 122.4
    endloop
  endfacet
  facet normal 0 -1 0
    outer loop
      vertex 46.1 0 4.5
      vertex 190.9 0 122.4
      vertex 46.1 0 122.4
    endloop
  endfacet
  facet normal 0 -1 0
    outer loop
      vertex 46.1 0 4.5
      vertex 190.9 0 3.8147e-07
      vertex 190.9 0 122.4
    endloop
  endfacet
  facet normal 0 -1 0
    outer loop
      vertex 190.9 0 3.8147e-07
      vertex 46.1 0 4.5
      vertex 5.72205e-07 0 3.8147e-07
    endloop
  endfacet
  facet normal 0 0 1
    outer loop
      vertex 48.5 2.4 122.4
      vertex 48.42 2.4 122.4
      vertex 48.5 2.32001 122.4
    endloop
  endfacet
  facet normal -0 0 1
    outer loop
      vertex 48.42 42.8 122.4
      vertex 48.5 42.72 122.4
      vertex 48.5 42.8 122.4
    endloop
  endfacet
  facet normal 0 0 1
    outer loop
      vertex 48.5 42.72 122.4
      vertex 48.42 42.8 122.4
      vertex 48.5 40.48 122.4
    endloop
  endfacet
  facet normal 0 0 1
    outer loop
      vertex 48.42 40.4 122.4
      vertex 48.5 40.48 122.4
      vertex 48.42 42.8 122.4
    endloop
  endfacet
  facet normal 0 0 1
    outer loop
      vertex 48.5 40.48 122.4
      vertex 48.42 40.4 122.4
      vertex 48.5 40.4 122.4
    endloop
  endfacet
  facet normal -0 0 1
    outer loop
      vertex 48.42 83.2 122.4
      vertex 48.5 83.12 122.4
      vertex 48.5 83.2 122.4
    endloop
  endfacet
  facet normal 0 0 1
    outer loop
      vertex 48.5 83.12 122.4
      vertex 48.42 83.2 122.4
      vertex 48.5 80.88 122.4
    endloop
  endfacet
  facet normal 0 0 1
    outer loop
      vertex 48.42 80.8 122.4
      vertex 48.5 80.88 122.4
      vertex 48.42 83.2 122.4
    endloop
  endfacet
  facet normal 0 0 1
    outer loop
      vertex 48.5 80.88 122.4
      vertex 48.42 80.8 122.4
      vertex 48.5 80.8 122.4
    endloop
  endfacet
  facet normal -0 0 1
    outer loop
      vertex 46.1 135.6 122.4
      vertex 48.5 126.6 122.4
      vertex 48.5 135.6 122.4
    endloop
  endfacet
  facet normal 0 -0 1
    outer loop
      vertex 48.42 121.2 122.4
      vertex 48.5 126.6 122.4
      vertex 46.1 135.6 122.4
    endloop
  endfacet
  facet normal 0 0 1
    outer loop
      vertex 48.5 121.28 122.4
      vertex 48.42 121.2 122.4
      vertex 48.5 121.2 122.4
    endloop
  endfacet
  facet normal 0 0 1
    outer loop
      vertex 46.1 135.6 122.4
      vertex 48.42 83.2 122.4
      vertex 48.42 121.2 122.4
    endloop
  endfacet
  facet normal 0 0 1
    outer loop
      vertex 48.42 83.2 122.4
      vertex 46.1 135.6 122.4
      vertex 48.42 80.8 122.4
    endloop
  endfacet
  facet normal 0 0 1
    outer loop
      vertex 46.1 0 122.4
      vertex 48.42 80.8 122.4
      vertex 46.1 135.6 122.4
    endloop
  endfacet
  facet normal 0 0 1
    outer loop
      vertex 48.42 80.8 122.4
      vertex 46.1 0 122.4
      vertex 48.42 42.8 122.4
    endloop
  endfacet
  facet normal 0 0 1
    outer loop
      vertex 48.42 42.8 122.4
      vertex 46.1 0 122.4
      vertex 48.42 40.4 122.4
    endloop
  endfacet
  facet normal 0 0 1
    outer loop
      vertex 48.5 126.6 122.4
      vertex 48.42 121.2 122.4
      vertex 48.5 121.28 122.4
    endloop
  endfacet
  facet normal -0 0 1
    outer loop
      vertex 48.5 42.72 122.4
      vertex 188.5 40.48 122.4
      vertex 188.5 42.72 122.4
    endloop
  endfacet
  facet normal 0 0 1
    outer loop
      vertex 188.5 40.48 122.4
      vertex 48.5 42.72 122.4
      vertex 48.5 40.48 122.4
    endloop
  endfacet
  facet normal -0 0 1
    outer loop
      vertex 48.5 83.12 122.4
      vertex 188.5 80.88 122.4
      vertex 188.5 83.12 122.4
    endloop
  endfacet
  facet normal 0 0 1
    outer loop
      vertex 188.5 80.88 122.4
      vertex 48.5 83.12 122.4
      vertex 48.5 80.88 122.4
    endloop
  endfacet
  facet normal -0 0 1
    outer loop
      vertex 48.5 126.6 122.4
      vertex 188.5 121.28 122.4
      vertex 188.5 126.6 122.4
    endloop
  endfacet
  facet normal 0 0 1
    outer loop
      vertex 188.5 121.28 122.4
      vertex 48.5 126.6 122.4
      vertex 48.5 121.28 122.4
    endloop
  endfacet
  facet normal 0 0 1
    outer loop
      vertex 188.5 42.72 122.4
      vertex 188.58 42.8 122.4
      vertex 188.5 42.8 122.4
    endloop
  endfacet
  facet normal 0 0 1
    outer loop
      vertex 188.58 42.8 122.4
      vertex 188.5 42.72 122.4
      vertex 188.58 40.4 122.4
    endloop
  endfacet
  facet normal -0 0 1
    outer loop
      vertex 188.5 40.48 122.4
      vertex 188.58 40.4 122.4
      vertex 188.5 42.72 122.4
    endloop
  endfacet
  facet normal 0 0 1
    outer loop
      vertex 188.58 40.4 122.4
      vertex 188.5 40.48 122.4
      vertex 188.5 40.4 122.4
    endloop
  endfacet
  facet normal 0 0 1
    outer loop
      vertex 188.5 83.12 122.4
      vertex 188.58 83.2 122.4
      vertex 188.5 83.2 122.4
    endloop
  endfacet
  facet normal 0 0 1
    outer loop
      vertex 188.58 83.2 122.4
      vertex 188.5 83.12 122.4
      vertex 188.58 80.8 122.4
    endloop
  endfacet
  facet normal -0 0 1
    outer loop
      vertex 188.5 80.88 122.4
      vertex 188.58 80.8 122.4
      vertex 188.5 83.12 122.4
    endloop
  endfacet
  facet normal 0 0 1
    outer loop
      vertex 188.58 80.8 122.4
      vertex 188.5 80.88 122.4
      vertex 188.5 80.8 122.4
    endloop
  endfacet
  facet normal 0 0 1
    outer loop
      vertex 188.58 83.2 122.4
      vertex 190.9 135.6 122.4
      vertex 188.58 121.2 122.4
    endloop
  endfacet
  facet normal 0 0 1
    outer loop
      vertex 188.5 126.6 122.4
      vertex 190.9 135.6 122.4
      vertex 188.5 135.6 122.4
    endloop
  endfacet
  facet normal 0 0 1
    outer loop
      vertex 190.9 135.6 122.4
      vertex 188.5 126.6 122.4
      vertex 188.58 121.2 122.4
    endloop
  endfacet
  facet normal -0 0 1
    outer loop
      vertex 188.5 121.28 122.4
      vertex 188.58 121.2 122.4
      vertex 188.5 126.6 122.4
    endloop
  endfacet
  facet normal 0 0 1
    outer loop
      vertex 188.58 121.2 122.4
      vertex 188.5 121.28 122.4
      vertex 188.5 121.2 122.4
    endloop
  endfacet
  facet normal 0 0 1
    outer loop
      vertex 188.58 80.8 122.4
      vertex 190.9 135.6 122.4
      vertex 188.58 83.2 122.4
    endloop
  endfacet
  facet normal 0 0 1
    outer loop
      vertex 190.9 135.6 122.4
      vertex 188.58 80.8 122.4
      vertex 190.9 0 122.4
    endloop
  endfacet
  facet normal -0 0 1
    outer loop
      vertex 188.58 42.8 122.4
      vertex 190.9 0 122.4
      vertex 188.58 80.8 122.4
    endloop
  endfacet
  facet normal -0 0 1
    outer loop
      vertex 188.58 40.4 122.4
      vertex 190.9 0 122.4
      vertex 188.58 42.8 122.4
    endloop
  endfacet
  facet normal -0 0 1
    outer loop
      vertex 188.58 2.4 122.4
      vertex 190.9 0 122.4
      vertex 188.58 40.4 122.4
    endloop
  endfacet
  facet normal 0 0 1
    outer loop
      vertex 188.5 2.32001 122.4
      vertex 188.58 2.4 122.4
      vertex 188.5 2.4 122.4
    endloop
  endfacet
  facet normal 0 0 1
    outer loop
      vertex 188.58 2.4 122.4
      vertex 188.5 2.32001 122.4
      vertex 190.9 0 122.4
    endloop
  endfacet
  facet normal -0 0 1
    outer loop
      vertex 48.5 2.32001 122.4
      vertex 190.9 0 122.4
      vertex 188.5 2.32001 122.4
    endloop
  endfacet
  facet normal 0 0 1
    outer loop
      vertex 48.5 2.32001 122.4
      vertex 46.1 0 122.4
      vertex 190.9 0 122.4
    endloop
  endfacet
  facet normal 0 0 1
    outer loop
      vertex 48.42 2.4 122.4
      vertex 46.1 0 122.4
      vertex 48.5 2.32001 122.4
    endloop
  endfacet
  facet normal 0 0 1
    outer loop
      vertex 48.42 40.4 122.4
      vertex 46.1 0 122.4
      vertex 48.42 2.4 122.4
    endloop
  endfacet
  facet normal 0 1 -0
    outer loop
      vertex 48.5 135.6 2.4
      vertex 46.1 135.6 122.4
      vertex 48.5 135.6 122.4
    endloop
  endfacet
  facet normal 0 1 0
    outer loop
      vertex 46.1 135.6 122.4
      vertex 48.5 135.6 2.4
      vertex 46.1 135.6 2.4
    endloop
  endfacet
  facet normal 1 0 0
    outer loop
      vertex 48.5 126.6 120
      vertex 48.5 135.6 122.4
      vertex 48.5 126.6 122.4
    endloop
  endfacet
  facet normal 1 0 0
    outer loop
      vertex 48.5 135.6 122.4
      vertex 48.5 126.6 120
      vertex 48.5 135.6 2.4
    endloop
  endfacet
  facet normal 1 0 0
    outer loop
      vertex 48.5 123.6 2.4
      vertex 48.5 126.6 120
      vertex 48.5 123.6 120
    endloop
  endfacet
  facet normal 1 0 0
    outer loop
      vertex 48.5 126.6 120
      vertex 48.5 123.6 2.4
      vertex 48.5 135.6 2.4
    endloop
  endfacet
  facet normal -1 0 0
    outer loop
      vertex 188.5 135.6 2.4
      vertex 188.5 126.6 120
      vertex 188.5 135.6 122.4
    endloop
  endfacet
  facet normal -1 0 0
    outer loop
      vertex 188.5 123.6 2.4
      vertex 188.5 126.6 120
      vertex 188.5 135.6 2.4
    endloop
  endfacet
  facet normal -1 -0 0
    outer loop
      vertex 188.5 126.6 120
      vertex 188.5 123.6 2.4
      vertex 188.5 123.6 120
    endloop
  endfacet
  facet normal -1 -0 0
    outer loop
      vertex 188.5 135.6 122.4
      vertex 188.5 126.6 120
      vertex 188.5 126.6 122.4
    endloop
  endfacet
  facet normal 0 1 -0
    outer loop
      vertex 190.9 135.6 2.4
      vertex 188.5 135.6 122.4
      vertex 190.9 135.6 122.4
    endloop
  endfacet
  facet normal 0 1 0
    outer loop
      vertex 188.5 135.6 122.4
      vertex 190.9 135.6 2.4
      vertex 188.5 135.6 2.4
    endloop
  endfacet
  facet normal 0 1 -0
    outer loop
      vertex 190.9 141.6 3.8147e-07
      vertex 46.1 141.6 2.4
      vertex 190.9 141.6 2.4
    endloop
  endfacet
  facet normal 0 1 0
    outer loop
      vertex 46.1 141.6 2.4
      vertex 190.9 141.6 3.8147e-07
      vertex 46.1 141.6 3.8147e-07
    endloop
  endfacet
  facet normal 0 0 1
    outer loop
      vertex 190.9 141.6 2.4
      vertex 188.5 135.6 2.4
      vertex 190.9 135.6 2.4
    endloop
  endfacet
  facet normal 0 0 1
    outer loop
      vertex 188.5 135.6 2.4
      vertex 48.5 135.6 2.4
      vertex 188.5 123.6 2.4
    endloop
  endfacet
  facet normal 0 0 1
    outer loop
      vertex 190.9 141.6 2.4
      vertex 48.5 135.6 2.4
      vertex 188.5 135.6 2.4
    endloop
  endfacet
  facet normal -0 0 1
    outer loop
      vertex 46.1 141.6 2.4
      vertex 48.5 135.6 2.4
      vertex 190.9 141.6 2.4
    endloop
  endfacet
  facet normal 0 0 1
    outer loop
      vertex 48.5 135.6 2.4
      vertex 46.1 141.6 2.4
      vertex 46.1 135.6 2.4
    endloop
  endfacet
  facet normal 0 0 1
    outer loop
      vertex 188.5 123.6 2.4
      vertex 48.5 135.6 2.4
      vertex 48.5 123.6 2.4
    endloop
  endfacet
  facet normal 0 1 -0
    outer loop
      vertex 188.5 126.6 120
      vertex 48.5 126.6 122.4
      vertex 188.5 126.6 122.4
    endloop
  endfacet
  facet normal 0 1 0
    outer loop
      vertex 48.5 126.6 122.4
      vertex 188.5 126.6 120
      vertex 48.5 126.6 120
    endloop
  endfacet
  facet normal 0 0 -1
    outer loop
      vertex 48.5 123.6 120
      vertex 188.5 126.6 120
      vertex 188.5 123.6 120
    endloop
  endfacet
  facet normal -0 0 -1
    outer loop
      vertex 188.5 126.6 120
      vertex 48.5 123.6 120
      vertex 48.5 126.6 120
    endloop
  endfacet
  facet normal 0 -1 0
    outer loop
      vertex 5.72205e-07 18 42.8
      vertex 4.5 18 47.8
      vertex 5.72205e-07 18 47.8
    endloop
  endfacet
  facet normal 0 -1 -0
    outer loop
      vertex 4.5 18 47.8
      vertex 5.72205e-07 18 42.8
      vertex 4.5 18 42.8
    endloop
  endfacet
  facet normal 0 1 -0
    outer loop
      vertex 4.5 10 42.8
      vertex 5.72205e-07 10 47.8
      vertex 4.5 10 47.8
    endloop
  endfacet
  facet normal 0 1 0
    outer loop
      vertex 5.72205e-07 10 47.8
      vertex 4.5 10 42.8
      vertex 5.72205e-07 10 42.8
    endloop
  endfacet
  facet normal 0 0 -1
    outer loop
      vertex 5.72205e-07 10 47.8
      vertex 4.5 18 47.8
      vertex 4.5 10 47.8
    endloop
  endfacet
  facet normal -0 0 -1
    outer loop
      vertex 4.5 18 47.8
      vertex 5.72205e-07 10 47.8
      vertex 5.72205e-07 18 47.8
    endloop
  endfacet
  facet normal -0 0 1
    outer loop
      vertex 5.72205e-07 18 42.8
      vertex 4.5 10 42.8
      vertex 4.5 18 42.8
    endloop
  endfacet
  facet normal 0 0 1
    outer loop
      vertex 4.5 10 42.8
      vertex 5.72205e-07 18 42.8
      vertex 5.72205e-07 10 42.8
    endloop
  endfacet
  facet normal 0 -1 0
    outer loop
      vertex 5.72205e-07 65.8 42.8
      vertex 4.5 65.8 47.8
      vertex 5.72205e-07 65.8 47.8
    endloop
  endfacet
  facet normal 0 -1 -0
    outer loop
      vertex 4.5 65.8 47.8
      vertex 5.72205e-07 65.8 42.8
      vertex 4.5 65.8 42.8
    endloop
  endfacet
  facet normal -0 0 1
    outer loop
      vertex 5.72205e-07 65.8 42.8
      vertex 4.5 57.8 42.8
      vertex 4.5 65.8 42.8
    endloop
  endfacet
  facet normal 0 0 1
    outer loop
      vertex 4.5 57.8 42.8
      vertex 5.72205e-07 65.8 42.8
      vertex 5.72205e-07 57.8 42.8
    endloop
  endfacet
  facet normal 0 1 -0
    outer loop
      vertex 4.5 57.8 42.8
      vertex 5.72205e-07 57.8 47.8
      vertex 4.5 57.8 47.8
    endloop
  endfacet
  facet normal 0 1 0
    outer loop
      vertex 5.72205e-07 57.8 47.8
      vertex 4.5 57.8 42.8
      vertex 5.72205e-07 57.8 42.8
    endloop
  endfacet
  facet normal 0 0 -1
    outer loop
      vertex 5.72205e-07 57.8 47.8
      vertex 4.5 65.8 47.8
      vertex 4.5 57.8 47.8
    endloop
  endfacet
  facet normal -0 0 -1
    outer loop
      vertex 4.5 65.8 47.8
      vertex 5.72205e-07 57.8 47.8
      vertex 5.72205e-07 65.8 47.8
    endloop
  endfacet
  facet normal 0 -1 0
    outer loop
      vertex 5.72205e-07 113.6 42.8
      vertex 4.5 113.6 47.8
      vertex 5.72205e-07 113.6 47.8
    endloop
  endfacet
  facet normal 0 -1 -0
    outer loop
      vertex 4.5 113.6 47.8
      vertex 5.72205e-07 113.6 42.8
      vertex 4.5 113.6 42.8
    endloop
  endfacet
  facet normal -0 0 1
    outer loop
      vertex 5.72205e-07 113.6 42.8
      vertex 4.5 105.6 42.8
      vertex 4.5 113.6 42.8
    endloop
  endfacet
  facet normal 0 0 1
    outer loop
      vertex 4.5 105.6 42.8
      vertex 5.72205e-07 113.6 42.8
      vertex 5.72205e-07 105.6 42.8
    endloop
  endfacet
  facet normal 0 1 -0
    outer loop
      vertex 4.5 105.6 42.8
      vertex 5.72205e-07 105.6 47.8
      vertex 4.5 105.6 47.8
    endloop
  endfacet
  facet normal 0 1 0
    outer loop
      vertex 5.72205e-07 105.6 47.8
      vertex 4.5 105.6 42.8
      vertex 5.72205e-07 105.6 42.8
    endloop
  endfacet
  facet normal 0 0 -1
    outer loop
      vertex 5.72205e-07 105.6 47.8
      vertex 4.5 113.6 47.8
      vertex 4.5 105.6 47.8
    endloop
  endfacet
  facet normal -0 0 -1
    outer loop
      vertex 4.5 113.6 47.8
      vertex 5.72205e-07 105.6 47.8
      vertex 5.72205e-07 113.6 47.8
    endloop
  endfacet
  facet normal -1 0 0
    outer loop
      vertex 5.72205e-07 113.6 47.8
      vertex 5.72205e-07 123.6 3.8147e-07
      vertex 5.72205e-07 113.6 42.8
    endloop
  endfacet
  facet normal -1 0 0
    outer loop
      vertex 5.72205e-07 123.6 3.8147e-07
      vertex 5.72205e-07 105.6 42.8
      vertex 5.72205e-07 113.6 42.8
    endloop
  endfacet
  facet normal -1 0 0
    outer loop
      vertex 5.72205e-07 105.6 42.8
      vertex 5.72205e-07 65.8 42.8
      vertex 5.72205e-07 105.6 47.8
    endloop
  endfacet
  facet normal -1 0 0
    outer loop
      vertex 5.72205e-07 123.6 3.8147e-07
      vertex 5.72205e-07 65.8 42.8
      vertex 5.72205e-07 105.6 42.8
    endloop
  endfacet
  facet normal -1 0 0
    outer loop
      vertex 5.72205e-07 123.6 3.8147e-07
      vertex 5.72205e-07 57.8 42.8
      vertex 5.72205e-07 65.8 42.8
    endloop
  endfacet
  facet normal -1 0 0
    outer loop
      vertex 5.72205e-07 57.8 42.8
      vertex 5.72205e-07 18 42.8
      vertex 5.72205e-07 57.8 47.8
    endloop
  endfacet
  facet normal -1 0 0
    outer loop
      vertex 5.72205e-07 0 3.8147e-07
      vertex 5.72205e-07 57.8 42.8
      vertex 5.72205e-07 123.6 3.8147e-07
    endloop
  endfacet
  facet normal -1 -0 0
    outer loop
      vertex 5.72205e-07 57.8 42.8
      vertex 5.72205e-07 0 3.8147e-07
      vertex 5.72205e-07 18 42.8
    endloop
  endfacet
  facet normal -1 -0 0
    outer loop
      vertex 5.72205e-07 10 42.8
      vertex 5.72205e-07 0 3.8147e-07
      vertex 5.72205e-07 10 47.8
    endloop
  endfacet
  facet normal -1 -0 0
    outer loop
      vertex 5.72205e-07 18 42.8
      vertex 5.72205e-07 0 3.8147e-07
      vertex 5.72205e-07 10 42.8
    endloop
  endfacet
  facet normal -1 0 0
    outer loop
      vertex 5.72205e-07 123.6 3.8147e-07
      vertex 5.72205e-07 113.6 47.8
      vertex 5.72205e-07 123.6 122.4
    endloop
  endfacet
  facet normal -1 0 0
    outer loop
      vertex 5.72205e-07 105.6 47.8
      vertex 5.72205e-07 123.6 122.4
      vertex 5.72205e-07 113.6 47.8
    endloop
  endfacet
  facet normal -1 0 0
    outer loop
      vertex 5.72205e-07 65.8 47.8
      vertex 5.72205e-07 105.6 47.8
      vertex 5.72205e-07 65.8 42.8
    endloop
  endfacet
  facet normal -1 0 0
    outer loop
      vertex 5.72205e-07 105.6 47.8
      vertex 5.72205e-07 65.8 47.8
      vertex 5.72205e-07 123.6 122.4
    endloop
  endfacet
  facet normal -1 0 0
    outer loop
      vertex 5.72205e-07 57.8 47.8
      vertex 5.72205e-07 123.6 122.4
      vertex 5.72205e-07 65.8 47.8
    endloop
  endfacet
  facet normal -1 0 0
    outer loop
      vertex 5.72205e-07 18 47.8
      vertex 5.72205e-07 57.8 47.8
      vertex 5.72205e-07 18 42.8
    endloop
  endfacet
  facet normal -1 0 0
    outer loop
      vertex 5.72205e-07 0 122.4
      vertex 5.72205e-07 57.8 47.8
      vertex 5.72205e-07 18 47.8
    endloop
  endfacet
  facet normal -1 0 0
    outer loop
      vertex 5.72205e-07 0 122.4
      vertex 5.72205e-07 18 47.8
      vertex 5.72205e-07 10 47.8
    endloop
  endfacet
  facet normal -1 0 0
    outer loop
      vertex 5.72205e-07 57.8 47.8
      vertex 5.72205e-07 0 122.4
      vertex 5.72205e-07 123.6 122.4
    endloop
  endfacet
  facet normal -1 0 0
    outer loop
      vertex 5.72205e-07 0 122.4
      vertex 5.72205e-07 10 47.8
      vertex 5.72205e-07 0 3.8147e-07
    endloop
  endfacet
  facet normal 0 1 0
    outer loop
      vertex 46.1 123.6 4.5
      vertex 46.1 123.6 3.8147e-07
      vertex 4.5 123.6 4.5
    endloop
  endfacet
  facet normal 0 1 0
    outer loop
      vertex 4.5 123.6 120.48
      vertex 5.72205e-07 123.6 122.4
      vertex 2.57999 123.6 122.4
    endloop
  endfacet
  facet normal 0 1 -0
    outer loop
      vertex 4.5 123.6 4.5
      vertex 5.72205e-07 123.6 122.4
      vertex 4.5 123.6 120.48
    endloop
  endfacet
  facet normal 0 1 0
    outer loop
      vertex 4.5 123.6 4.5
      vertex 5.72205e-07 123.6 3.8147e-07
      vertex 5.72205e-07 123.6 122.4
    endloop
  endfacet
  facet normal 0 1 0
    outer loop
      vertex 5.72205e-07 123.6 3.8147e-07
      vertex 4.5 123.6 4.5
      vertex 46.1 123.6 3.8147e-07
    endloop
  endfacet
  facet normal 1 0 0
    outer loop
      vertex 4.5 123.6 120.48
      vertex 4.5 113.6 47.8
      vertex 4.5 123.6 4.5
    endloop
  endfacet
  facet normal 1 0 0
    outer loop
      vertex 4.5 123.6 120.48
      vertex 4.5 105.6 47.8
      vertex 4.5 113.6 47.8
    endloop
  endfacet
  facet normal 1 0 0
    outer loop
      vertex 4.5 105.6 47.8
      vertex 4.5 65.8 47.8
      vertex 4.5 105.6 42.8
    endloop
  endfacet
  facet normal 1 0 0
    outer loop
      vertex 4.5 123.6 120.48
      vertex 4.5 65.8 47.8
      vertex 4.5 105.6 47.8
    endloop
  endfacet
  facet normal 1 0 0
    outer loop
      vertex 4.5 123.6 120.48
      vertex 4.5 57.8 47.8
      vertex 4.5 65.8 47.8
    endloop
  endfacet
  facet normal 1 0 0
    outer loop
      vertex 4.5 57.8 47.8
      vertex 4.5 18 47.8
      vertex 4.5 57.8 42.8
    endloop
  endfacet
  facet normal 1 -0 0
    outer loop
      vertex 4.5 0 120.48
      vertex 4.5 57.8 47.8
      vertex 4.5 123.6 120.48
    endloop
  endfacet
  facet normal 1 0 0
    outer loop
      vertex 4.5 57.8 47.8
      vertex 4.5 0 120.48
      vertex 4.5 18 47.8
    endloop
  endfacet
  facet normal 1 0 0
    outer loop
      vertex 4.5 0 4.5
      vertex 4.5 10 47.8
      vertex 4.5 0 120.48
    endloop
  endfacet
  facet normal 1 0 0
    outer loop
      vertex 4.5 18 47.8
      vertex 4.5 0 120.48
      vertex 4.5 10 47.8
    endloop
  endfacet
  facet normal 1 -0 0
    outer loop
      vertex 4.5 113.6 42.8
      vertex 4.5 123.6 4.5
      vertex 4.5 113.6 47.8
    endloop
  endfacet
  facet normal 1 -0 0
    outer loop
      vertex 4.5 105.6 42.8
      vertex 4.5 123.6 4.5
      vertex 4.5 113.6 42.8
    endloop
  endfacet
  facet normal 1 0 0
    outer loop
      vertex 4.5 65.8 42.8
      vertex 4.5 105.6 42.8
      vertex 4.5 65.8 47.8
    endloop
  endfacet
  facet normal 1 0 0
    outer loop
      vertex 4.5 105.6 42.8
      vertex 4.5 65.8 42.8
      vertex 4.5 123.6 4.5
    endloop
  endfacet
  facet normal 1 -0 0
    outer loop
      vertex 4.5 57.8 42.8
      vertex 4.5 123.6 4.5
      vertex 4.5 65.8 42.8
    endloop
  endfacet
  facet normal 1 0 0
    outer loop
      vertex 4.5 18 42.8
      vertex 4.5 57.8 42.8
      vertex 4.5 18 47.8
    endloop
  endfacet
  facet normal 1 0 0
    outer loop
      vertex 4.5 0 4.5
      vertex 4.5 57.8 42.8
      vertex 4.5 18 42.8
    endloop
  endfacet
  facet normal 1 0 0
    outer loop
      vertex 4.5 0 4.5
      vertex 4.5 18 42.8
      vertex 4.5 10 42.8
    endloop
  endfacet
  facet normal 1 0 0
    outer loop
      vertex 4.5 57.8 42.8
      vertex 4.5 0 4.5
      vertex 4.5 123.6 4.5
    endloop
  endfacet
  facet normal 1 0 0
    outer loop
      vertex 4.5 10 47.8
      vertex 4.5 0 4.5
      vertex 4.5 10 42.8
    endloop
  endfacet
  facet normal -0 0 1
    outer loop
      vertex 5.72205e-07 123.6 122.4
      vertex 2.57999 0 122.4
      vertex 2.57999 123.6 122.4
    endloop
  endfacet
  facet normal 0 0 1
    outer loop
      vertex 2.57999 0 122.4
      vertex 5.72205e-07 123.6 122.4
      vertex 5.72205e-07 0 122.4
    endloop
  endfacet
  facet normal 0.707105 -0 0.707109
    outer loop
      vertex 2.57999 0 122.4
      vertex 4.5 123.6 120.48
      vertex 2.57999 123.6 122.4
    endloop
  endfacet
  facet normal 0.707105 0 0.707109
    outer loop
      vertex 4.5 123.6 120.48
      vertex 2.57999 0 122.4
      vertex 4.5 0 120.48
    endloop
  endfacet
  facet normal -0 0 1
    outer loop
      vertex 4.5 123.6 4.5
      vertex 46.1 0 4.5
      vertex 46.1 123.6 4.5
    endloop
  endfacet
  facet normal 0 0 1
    outer loop
      vertex 46.1 0 4.5
      vertex 4.5 123.6 4.5
      vertex 4.5 0 4.5
    endloop
  endfacet
endsolid OpenSCAD_Model
