solid OpenSCAD_Model
  facet normal -1 0 0
    outer loop
      vertex 0 129.2 0
      vertex 0 1 18.55
      vertex 0 129.2 19.55
    endloop
  endfacet
  facet normal -1 0 0
    outer loop
      vertex 0 0 0
      vertex 0 1 18.55
      vertex 0 129.2 0
    endloop
  endfacet
  facet normal -1 -0 0
    outer loop
      vertex 0 1 18.55
      vertex 0 0 0
      vertex 0 0 18.55
    endloop
  endfacet
  facet normal -1 -0 0
    outer loop
      vertex 0 129.2 19.55
      vertex 0 1 18.55
      vertex 0 1 19.55
    endloop
  endfacet
  facet normal 0 0 1
    outer loop
      vertex 2 129.2 19.55
      vertex 0 129.2 19.55
      vertex 2 2 19.55
    endloop
  endfacet
  facet normal 0 0 1
    outer loop
      vertex 82.1 2 19.55
      vertex 84.1 129.2 19.55
      vertex 82.1 129.2 19.55
    endloop
  endfacet
  facet normal 0 0 1
    outer loop
      vertex 84.1 129.2 19.55
      vertex 82.1 2 19.55
      vertex 84.1 1 19.55
    endloop
  endfacet
  facet normal -0 0 1
    outer loop
      vertex 2 2 19.55
      vertex 84.1 1 19.55
      vertex 82.1 2 19.55
    endloop
  endfacet
  facet normal 0 0 1
    outer loop
      vertex 2 2 19.55
      vertex 0 1 19.55
      vertex 84.1 1 19.55
    endloop
  endfacet
  facet normal 0 0 1
    outer loop
      vertex 0 1 19.55
      vertex 2 2 19.55
      vertex 0 129.2 19.55
    endloop
  endfacet
  facet normal 1 0 0
    outer loop
      vertex 84.1 1 18.55
      vertex 84.1 129.2 19.55
      vertex 84.1 1 19.55
    endloop
  endfacet
  facet normal 1 0 0
    outer loop
      vertex 84.1 129.2 19.55
      vertex 84.1 1 18.55
      vertex 84.1 129.2 0
    endloop
  endfacet
  facet normal 1 0 0
    outer loop
      vertex 84.1 0 0
      vertex 84.1 1 18.55
      vertex 84.1 0 18.55
    endloop
  endfacet
  facet normal 1 0 0
    outer loop
      vertex 84.1 1 18.55
      vertex 84.1 0 0
      vertex 84.1 129.2 0
    endloop
  endfacet
  facet normal 0 1 0
    outer loop
      vertex 84.1 129.2 19.55
      vertex 82.1 129.2 1.6
      vertex 82.1 129.2 19.55
    endloop
  endfacet
  facet normal 0 1 0
    outer loop
      vertex 82.1 129.2 1.6
      vertex 84.1 129.2 0
      vertex 2 129.2 1.6
    endloop
  endfacet
  facet normal 0 1 -0
    outer loop
      vertex 84.1 129.2 0
      vertex 82.1 129.2 1.6
      vertex 84.1 129.2 19.55
    endloop
  endfacet
  facet normal 0 1 -0
    outer loop
      vertex 2 129.2 1.6
      vertex 0 129.2 19.55
      vertex 2 129.2 19.55
    endloop
  endfacet
  facet normal 0 1 0
    outer loop
      vertex 2 129.2 1.6
      vertex 0 129.2 0
      vertex 0 129.2 19.55
    endloop
  endfacet
  facet normal 0 1 0
    outer loop
      vertex 0 129.2 0
      vertex 2 129.2 1.6
      vertex 84.1 129.2 0
    endloop
  endfacet
  facet normal 0 0 -1
    outer loop
      vertex 0 0 0
      vertex 84.1 129.2 0
      vertex 84.1 0 0
    endloop
  endfacet
  facet normal -0 0 -1
    outer loop
      vertex 84.1 129.2 0
      vertex 0 0 0
      vertex 0 129.2 0
    endloop
  endfacet
  facet normal 0 -1 0
    outer loop
      vertex 0 0 18.55
      vertex 28.389 0 14.55
      vertex 84.1 0 18.55
    endloop
  endfacet
  facet normal 0 -1 0
    outer loop
      vertex 0 0 18.55
      vertex 27.4989 0 14.4497
      vertex 28.389 0 14.55
    endloop
  endfacet
  facet normal 0 -1 0
    outer loop
      vertex 0 0 18.55
      vertex 26.6535 0 14.1539
      vertex 27.4989 0 14.4497
    endloop
  endfacet
  facet normal 0 -1 0
    outer loop
      vertex 0 0 18.55
      vertex 25.895 0 13.6773
      vertex 26.6535 0 14.1539
    endloop
  endfacet
  facet normal 0 -1 0
    outer loop
      vertex 0 0 18.55
      vertex 25.2617 0 13.044
      vertex 25.895 0 13.6773
    endloop
  endfacet
  facet normal 0 -1 0
    outer loop
      vertex 0 0 18.55
      vertex 24.7851 0 12.2855
      vertex 25.2617 0 13.044
    endloop
  endfacet
  facet normal 0 -1 0
    outer loop
      vertex 0 0 18.55
      vertex 24.4893 0 11.4401
      vertex 24.7851 0 12.2855
    endloop
  endfacet
  facet normal 0 -1 0
    outer loop
      vertex 0 0 18.55
      vertex 24.389 0 10.55
      vertex 24.4893 0 11.4401
    endloop
  endfacet
  facet normal 0 -1 0
    outer loop
      vertex 0 0 0
      vertex 24.389 0 10.55
      vertex 0 0 18.55
    endloop
  endfacet
  facet normal 0 -1 -0
    outer loop
      vertex 24.389 0 10.55
      vertex 0 0 0
      vertex 24.4893 0 9.65992
    endloop
  endfacet
  facet normal 0 -1 -0
    outer loop
      vertex 24.4893 0 9.65992
      vertex 0 0 0
      vertex 24.7851 0 8.81446
    endloop
  endfacet
  facet normal 0 -1 -0
    outer loop
      vertex 24.7851 0 8.81446
      vertex 0 0 0
      vertex 25.2617 0 8.05604
    endloop
  endfacet
  facet normal 0 -1 -0
    outer loop
      vertex 25.2617 0 8.05604
      vertex 0 0 0
      vertex 25.895 0 7.42267
    endloop
  endfacet
  facet normal 0 -1 -0
    outer loop
      vertex 28.389 0 6.55
      vertex 0 0 0
      vertex 55.711 0 6.55
    endloop
  endfacet
  facet normal 0 -1 -0
    outer loop
      vertex 27.4989 0 6.65029
      vertex 0 0 0
      vertex 28.389 0 6.55
    endloop
  endfacet
  facet normal 0 -1 -0
    outer loop
      vertex 26.6535 0 6.94612
      vertex 0 0 0
      vertex 27.4989 0 6.65029
    endloop
  endfacet
  facet normal 0 -1 -0
    outer loop
      vertex 25.895 0 7.42267
      vertex 0 0 0
      vertex 26.6535 0 6.94612
    endloop
  endfacet
  facet normal 0 -1 0
    outer loop
      vertex 55.711 0 14.55
      vertex 84.1 0 18.55
      vertex 28.389 0 14.55
    endloop
  endfacet
  facet normal 0 -1 0
    outer loop
      vertex 56.6011 0 14.4497
      vertex 84.1 0 18.55
      vertex 55.711 0 14.55
    endloop
  endfacet
  facet normal 0 -1 0
    outer loop
      vertex 57.4465 0 14.1539
      vertex 84.1 0 18.55
      vertex 56.6011 0 14.4497
    endloop
  endfacet
  facet normal 0 -1 0
    outer loop
      vertex 58.205 0 13.6773
      vertex 84.1 0 18.55
      vertex 57.4465 0 14.1539
    endloop
  endfacet
  facet normal 0 -1 0
    outer loop
      vertex 58.8383 0 13.044
      vertex 84.1 0 18.55
      vertex 58.205 0 13.6773
    endloop
  endfacet
  facet normal 0 -1 0
    outer loop
      vertex 59.3149 0 12.2855
      vertex 84.1 0 18.55
      vertex 58.8383 0 13.044
    endloop
  endfacet
  facet normal 0 -1 0
    outer loop
      vertex 59.6107 0 11.4401
      vertex 84.1 0 18.55
      vertex 59.3149 0 12.2855
    endloop
  endfacet
  facet normal 0 -1 0
    outer loop
      vertex 59.711 0 10.55
      vertex 84.1 0 18.55
      vertex 59.6107 0 11.4401
    endloop
  endfacet
  facet normal 0 -1 0
    outer loop
      vertex 84.1 0 0
      vertex 59.711 0 10.55
      vertex 59.6107 0 9.65992
    endloop
  endfacet
  facet normal 0 -1 0
    outer loop
      vertex 84.1 0 0
      vertex 59.6107 0 9.65992
      vertex 59.3149 0 8.81446
    endloop
  endfacet
  facet normal 0 -1 0
    outer loop
      vertex 84.1 0 0
      vertex 59.3149 0 8.81446
      vertex 58.8383 0 8.05604
    endloop
  endfacet
  facet normal 0 -1 0
    outer loop
      vertex 84.1 0 0
      vertex 58.8383 0 8.05604
      vertex 58.205 0 7.42267
    endloop
  endfacet
  facet normal 0 -1 0
    outer loop
      vertex 84.1 0 0
      vertex 58.205 0 7.42267
      vertex 57.4465 0 6.94612
    endloop
  endfacet
  facet normal 0 -1 0
    outer loop
      vertex 84.1 0 0
      vertex 55.711 0 6.55
      vertex 0 0 0
    endloop
  endfacet
  facet normal 0 -1 0
    outer loop
      vertex 59.711 0 10.55
      vertex 84.1 0 0
      vertex 84.1 0 18.55
    endloop
  endfacet
  facet normal 0 -1 0
    outer loop
      vertex 56.6011 0 6.65029
      vertex 84.1 0 0
      vertex 57.4465 0 6.94612
    endloop
  endfacet
  facet normal 0 -1 0
    outer loop
      vertex 55.711 0 6.55
      vertex 84.1 0 0
      vertex 56.6011 0 6.65029
    endloop
  endfacet
  facet normal 1 -0 0
    outer loop
      vertex 2 2 19.55
      vertex 2 129.2 1.6
      vertex 2 129.2 19.55
    endloop
  endfacet
  facet normal 1 0 0
    outer loop
      vertex 2 129.2 1.6
      vertex 2 2 19.55
      vertex 2 2 1.6
    endloop
  endfacet
  facet normal -1 0 0
    outer loop
      vertex 82.1 2 1.6
      vertex 82.1 129.2 19.55
      vertex 82.1 129.2 1.6
    endloop
  endfacet
  facet normal -1 -0 0
    outer loop
      vertex 82.1 129.2 19.55
      vertex 82.1 2 1.6
      vertex 82.1 2 19.55
    endloop
  endfacet
  facet normal -0 0 1
    outer loop
      vertex 2 129.2 1.6
      vertex 82.1 2 1.6
      vertex 82.1 129.2 1.6
    endloop
  endfacet
  facet normal 0 0 1
    outer loop
      vertex 82.1 2 1.6
      vertex 2 129.2 1.6
      vertex 2 2 1.6
    endloop
  endfacet
  facet normal 0 1 0
    outer loop
      vertex 82.1 2 19.55
      vertex 55.711 2 14.55
      vertex 2 2 19.55
    endloop
  endfacet
  facet normal 0 1 0
    outer loop
      vertex 82.1 2 19.55
      vertex 56.6011 2 14.4497
      vertex 55.711 2 14.55
    endloop
  endfacet
  facet normal 0 1 0
    outer loop
      vertex 82.1 2 19.55
      vertex 57.4465 2 14.1539
      vertex 56.6011 2 14.4497
    endloop
  endfacet
  facet normal 0 1 0
    outer loop
      vertex 82.1 2 19.55
      vertex 58.205 2 13.6773
      vertex 57.4465 2 14.1539
    endloop
  endfacet
  facet normal 0 1 0
    outer loop
      vertex 82.1 2 19.55
      vertex 58.8383 2 13.044
      vertex 58.205 2 13.6773
    endloop
  endfacet
  facet normal 0 1 0
    outer loop
      vertex 82.1 2 19.55
      vertex 59.3149 2 12.2855
      vertex 58.8383 2 13.044
    endloop
  endfacet
  facet normal 0 1 0
    outer loop
      vertex 82.1 2 19.55
      vertex 59.6107 2 11.4401
      vertex 59.3149 2 12.2855
    endloop
  endfacet
  facet normal 0 1 0
    outer loop
      vertex 82.1 2 19.55
      vertex 59.711 2 10.55
      vertex 59.6107 2 11.4401
    endloop
  endfacet
  facet normal 0 1 -0
    outer loop
      vertex 82.1 2 1.6
      vertex 59.711 2 10.55
      vertex 82.1 2 19.55
    endloop
  endfacet
  facet normal 0 1 0
    outer loop
      vertex 59.711 2 10.55
      vertex 82.1 2 1.6
      vertex 59.6107 2 9.65992
    endloop
  endfacet
  facet normal 0 1 0
    outer loop
      vertex 59.6107 2 9.65992
      vertex 82.1 2 1.6
      vertex 59.3149 2 8.81446
    endloop
  endfacet
  facet normal 0 1 0
    outer loop
      vertex 59.3149 2 8.81446
      vertex 82.1 2 1.6
      vertex 58.8383 2 8.05604
    endloop
  endfacet
  facet normal 0 1 0
    outer loop
      vertex 58.8383 2 8.05604
      vertex 82.1 2 1.6
      vertex 58.205 2 7.42267
    endloop
  endfacet
  facet normal 0 1 0
    outer loop
      vertex 55.711 2 6.55
      vertex 82.1 2 1.6
      vertex 28.389 2 6.55
    endloop
  endfacet
  facet normal 0 1 0
    outer loop
      vertex 56.6011 2 6.65029
      vertex 82.1 2 1.6
      vertex 55.711 2 6.55
    endloop
  endfacet
  facet normal 0 1 0
    outer loop
      vertex 57.4465 2 6.94612
      vertex 82.1 2 1.6
      vertex 56.6011 2 6.65029
    endloop
  endfacet
  facet normal 0 1 0
    outer loop
      vertex 58.205 2 7.42267
      vertex 82.1 2 1.6
      vertex 57.4465 2 6.94612
    endloop
  endfacet
  facet normal 0 1 -0
    outer loop
      vertex 28.389 2 14.55
      vertex 2 2 19.55
      vertex 55.711 2 14.55
    endloop
  endfacet
  facet normal 0 1 -0
    outer loop
      vertex 27.4989 2 14.4497
      vertex 2 2 19.55
      vertex 28.389 2 14.55
    endloop
  endfacet
  facet normal 0 1 -0
    outer loop
      vertex 26.6535 2 14.1539
      vertex 2 2 19.55
      vertex 27.4989 2 14.4497
    endloop
  endfacet
  facet normal 0 1 -0
    outer loop
      vertex 25.895 2 13.6773
      vertex 2 2 19.55
      vertex 26.6535 2 14.1539
    endloop
  endfacet
  facet normal 0 1 -0
    outer loop
      vertex 25.2617 2 13.044
      vertex 2 2 19.55
      vertex 25.895 2 13.6773
    endloop
  endfacet
  facet normal 0 1 -0
    outer loop
      vertex 24.7851 2 12.2855
      vertex 2 2 19.55
      vertex 25.2617 2 13.044
    endloop
  endfacet
  facet normal 0 1 -0
    outer loop
      vertex 24.4893 2 11.4401
      vertex 2 2 19.55
      vertex 24.7851 2 12.2855
    endloop
  endfacet
  facet normal 0 1 -0
    outer loop
      vertex 24.389 2 10.55
      vertex 2 2 19.55
      vertex 24.4893 2 11.4401
    endloop
  endfacet
  facet normal 0 1 0
    outer loop
      vertex 2 2 1.6
      vertex 24.389 2 10.55
      vertex 24.4893 2 9.65992
    endloop
  endfacet
  facet normal 0 1 0
    outer loop
      vertex 2 2 1.6
      vertex 24.4893 2 9.65992
      vertex 24.7851 2 8.81446
    endloop
  endfacet
  facet normal 0 1 0
    outer loop
      vertex 2 2 1.6
      vertex 24.7851 2 8.81446
      vertex 25.2617 2 8.05604
    endloop
  endfacet
  facet normal 0 1 0
    outer loop
      vertex 2 2 1.6
      vertex 25.2617 2 8.05604
      vertex 25.895 2 7.42267
    endloop
  endfacet
  facet normal 0 1 0
    outer loop
      vertex 2 2 1.6
      vertex 25.895 2 7.42267
      vertex 26.6535 2 6.94612
    endloop
  endfacet
  facet normal 0 1 0
    outer loop
      vertex 24.389 2 10.55
      vertex 2 2 1.6
      vertex 2 2 19.55
    endloop
  endfacet
  facet normal 0 1 0
    outer loop
      vertex 27.4989 2 6.65029
      vertex 2 2 1.6
      vertex 26.6535 2 6.94612
    endloop
  endfacet
  facet normal 0 1 0
    outer loop
      vertex 28.389 2 6.55
      vertex 2 2 1.6
      vertex 27.4989 2 6.65029
    endloop
  endfacet
  facet normal 0 1 0
    outer loop
      vertex 2 2 1.6
      vertex 28.389 2 6.55
      vertex 82.1 2 1.6
    endloop
  endfacet
  facet normal 0.993711 -0 0.111978
    outer loop
      vertex 24.389 0 10.55
      vertex 24.4893 2 9.65992
      vertex 24.389 2 10.55
    endloop
  endfacet
  facet normal 0.993711 0 0.111978
    outer loop
      vertex 24.4893 2 9.65992
      vertex 24.389 0 10.55
      vertex 24.4893 0 9.65992
    endloop
  endfacet
  facet normal 0.707107 0 -0.707107
    outer loop
      vertex 25.2617 0 13.044
      vertex 25.895 2 13.6773
      vertex 25.895 0 13.6773
    endloop
  endfacet
  facet normal 0.707107 0 -0.707107
    outer loop
      vertex 25.895 2 13.6773
      vertex 25.2617 0 13.044
      vertex 25.2617 2 13.044
    endloop
  endfacet
  facet normal 0 0 -1
    outer loop
      vertex 28.389 0 14.55
      vertex 55.711 2 14.55
      vertex 55.711 0 14.55
    endloop
  endfacet
  facet normal -0 0 -1
    outer loop
      vertex 55.711 2 14.55
      vertex 28.389 0 14.55
      vertex 28.389 2 14.55
    endloop
  endfacet
  facet normal -0.846697 0 0.532075
    outer loop
      vertex 58.8383 0 8.05604
      vertex 59.3149 2 8.81446
      vertex 58.8383 2 8.05604
    endloop
  endfacet
  facet normal -0.846697 0 0.532075
    outer loop
      vertex 59.3149 2 8.81446
      vertex 58.8383 0 8.05604
      vertex 59.3149 0 8.81446
    endloop
  endfacet
  facet normal -0 0 1
    outer loop
      vertex 28.389 2 6.55
      vertex 55.711 0 6.55
      vertex 55.711 2 6.55
    endloop
  endfacet
  facet normal 0 0 1
    outer loop
      vertex 55.711 0 6.55
      vertex 28.389 2 6.55
      vertex 28.389 0 6.55
    endloop
  endfacet
  facet normal 0.846723 0 -0.532034
    outer loop
      vertex 25.2617 0 13.044
      vertex 24.7851 2 12.2855
      vertex 25.2617 2 13.044
    endloop
  endfacet
  facet normal 0.846723 0 -0.532034
    outer loop
      vertex 24.7851 2 12.2855
      vertex 25.2617 0 13.044
      vertex 24.7851 0 12.2855
    endloop
  endfacet
  facet normal 0.993711 0 -0.111975
    outer loop
      vertex 24.4893 0 11.4401
      vertex 24.389 2 10.55
      vertex 24.4893 2 11.4401
    endloop
  endfacet
  facet normal 0.993711 0 -0.111975
    outer loop
      vertex 24.389 2 10.55
      vertex 24.4893 0 11.4401
      vertex 24.389 0 10.55
    endloop
  endfacet
  facet normal 0.94389 0 -0.330261
    outer loop
      vertex 24.7851 0 12.2855
      vertex 24.4893 2 11.4401
      vertex 24.7851 2 12.2855
    endloop
  endfacet
  facet normal 0.94389 0 -0.330261
    outer loop
      vertex 24.4893 2 11.4401
      vertex 24.7851 0 12.2855
      vertex 24.4893 0 11.4401
    endloop
  endfacet
  facet normal 0.330261 0 -0.94389
    outer loop
      vertex 26.6535 0 14.1539
      vertex 27.4989 2 14.4497
      vertex 27.4989 0 14.4497
    endloop
  endfacet
  facet normal 0.330261 0 -0.94389
    outer loop
      vertex 27.4989 2 14.4497
      vertex 26.6535 0 14.1539
      vertex 26.6535 2 14.1539
    endloop
  endfacet
  facet normal 0.111975 0 -0.993711
    outer loop
      vertex 27.4989 0 14.4497
      vertex 28.389 2 14.55
      vertex 28.389 0 14.55
    endloop
  endfacet
  facet normal 0.111975 0 -0.993711
    outer loop
      vertex 28.389 2 14.55
      vertex 27.4989 0 14.4497
      vertex 27.4989 2 14.4497
    endloop
  endfacet
  facet normal -0.111975 0 -0.993711
    outer loop
      vertex 55.711 0 14.55
      vertex 56.6011 2 14.4497
      vertex 56.6011 0 14.4497
    endloop
  endfacet
  facet normal -0.111975 0 -0.993711
    outer loop
      vertex 56.6011 2 14.4497
      vertex 55.711 0 14.55
      vertex 55.711 2 14.55
    endloop
  endfacet
  facet normal -0.993711 0 -0.111975
    outer loop
      vertex 59.711 0 10.55
      vertex 59.6107 2 11.4401
      vertex 59.711 2 10.55
    endloop
  endfacet
  facet normal -0.993711 -0 -0.111975
    outer loop
      vertex 59.6107 2 11.4401
      vertex 59.711 0 10.55
      vertex 59.6107 0 11.4401
    endloop
  endfacet
  facet normal 0.846697 -0 0.532075
    outer loop
      vertex 24.7851 0 8.81446
      vertex 25.2617 2 8.05604
      vertex 24.7851 2 8.81446
    endloop
  endfacet
  facet normal 0.846697 0 0.532075
    outer loop
      vertex 25.2617 2 8.05604
      vertex 24.7851 0 8.81446
      vertex 25.2617 0 8.05604
    endloop
  endfacet
  facet normal 0.532034 0 -0.846723
    outer loop
      vertex 25.895 0 13.6773
      vertex 26.6535 2 14.1539
      vertex 26.6535 0 14.1539
    endloop
  endfacet
  facet normal 0.532034 0 -0.846723
    outer loop
      vertex 26.6535 2 14.1539
      vertex 25.895 0 13.6773
      vertex 25.895 2 13.6773
    endloop
  endfacet
  facet normal -0.94389 0 -0.330261
    outer loop
      vertex 59.6107 0 11.4401
      vertex 59.3149 2 12.2855
      vertex 59.6107 2 11.4401
    endloop
  endfacet
  facet normal -0.94389 -0 -0.330261
    outer loop
      vertex 59.3149 2 12.2855
      vertex 59.6107 0 11.4401
      vertex 59.3149 0 12.2855
    endloop
  endfacet
  facet normal -0.846723 0 -0.532034
    outer loop
      vertex 59.3149 0 12.2855
      vertex 58.8383 2 13.044
      vertex 59.3149 2 12.2855
    endloop
  endfacet
  facet normal -0.846723 -0 -0.532034
    outer loop
      vertex 58.8383 2 13.044
      vertex 59.3149 0 12.2855
      vertex 58.8383 0 13.044
    endloop
  endfacet
  facet normal -0.707107 0 -0.707107
    outer loop
      vertex 58.8383 0 13.044
      vertex 58.205 2 13.6773
      vertex 58.8383 2 13.044
    endloop
  endfacet
  facet normal -0.707107 -0 -0.707107
    outer loop
      vertex 58.205 2 13.6773
      vertex 58.8383 0 13.044
      vertex 58.205 0 13.6773
    endloop
  endfacet
  facet normal -0.532034 0 -0.846723
    outer loop
      vertex 57.4465 0 14.1539
      vertex 58.205 2 13.6773
      vertex 58.205 0 13.6773
    endloop
  endfacet
  facet normal -0.532034 0 -0.846723
    outer loop
      vertex 58.205 2 13.6773
      vertex 57.4465 0 14.1539
      vertex 57.4465 2 14.1539
    endloop
  endfacet
  facet normal -0.111964 0 0.993712
    outer loop
      vertex 55.711 2 6.55
      vertex 56.6011 0 6.65029
      vertex 56.6011 2 6.65029
    endloop
  endfacet
  facet normal -0.111964 0 0.993712
    outer loop
      vertex 56.6011 0 6.65029
      vertex 55.711 2 6.55
      vertex 55.711 0 6.55
    endloop
  endfacet
  facet normal -0.330291 0 0.943879
    outer loop
      vertex 56.6011 2 6.65029
      vertex 57.4465 0 6.94612
      vertex 57.4465 2 6.94612
    endloop
  endfacet
  facet normal -0.330291 0 0.943879
    outer loop
      vertex 57.4465 0 6.94612
      vertex 56.6011 2 6.65029
      vertex 56.6011 0 6.65029
    endloop
  endfacet
  facet normal -0.531994 0 0.846748
    outer loop
      vertex 57.4465 2 6.94612
      vertex 58.205 0 7.42267
      vertex 58.205 2 7.42267
    endloop
  endfacet
  facet normal -0.531994 0 0.846748
    outer loop
      vertex 58.205 0 7.42267
      vertex 57.4465 2 6.94612
      vertex 57.4465 0 6.94612
    endloop
  endfacet
  facet normal -0.707146 0 0.707068
    outer loop
      vertex 58.205 0 7.42267
      vertex 58.8383 2 8.05604
      vertex 58.205 2 7.42267
    endloop
  endfacet
  facet normal -0.707146 0 0.707068
    outer loop
      vertex 58.8383 2 8.05604
      vertex 58.205 0 7.42267
      vertex 58.8383 0 8.05604
    endloop
  endfacet
  facet normal -0.993711 0 0.111978
    outer loop
      vertex 59.6107 0 9.65992
      vertex 59.711 2 10.55
      vertex 59.6107 2 9.65992
    endloop
  endfacet
  facet normal -0.993711 0 0.111978
    outer loop
      vertex 59.711 2 10.55
      vertex 59.6107 0 9.65992
      vertex 59.711 0 10.55
    endloop
  endfacet
  facet normal -0.943897 0 0.33024
    outer loop
      vertex 59.3149 0 8.81446
      vertex 59.6107 2 9.65992
      vertex 59.3149 2 8.81446
    endloop
  endfacet
  facet normal -0.943897 0 0.33024
    outer loop
      vertex 59.6107 2 9.65992
      vertex 59.3149 0 8.81446
      vertex 59.6107 0 9.65992
    endloop
  endfacet
  facet normal 0.111964 0 0.993712
    outer loop
      vertex 27.4989 2 6.65029
      vertex 28.389 0 6.55
      vertex 28.389 2 6.55
    endloop
  endfacet
  facet normal 0.111964 0 0.993712
    outer loop
      vertex 28.389 0 6.55
      vertex 27.4989 2 6.65029
      vertex 27.4989 0 6.65029
    endloop
  endfacet
  facet normal 0.943897 -0 0.33024
    outer loop
      vertex 24.4893 0 9.65992
      vertex 24.7851 2 8.81446
      vertex 24.4893 2 9.65992
    endloop
  endfacet
  facet normal 0.943897 0 0.33024
    outer loop
      vertex 24.7851 2 8.81446
      vertex 24.4893 0 9.65992
      vertex 24.7851 0 8.81446
    endloop
  endfacet
  facet normal -0.330261 0 -0.94389
    outer loop
      vertex 56.6011 0 14.4497
      vertex 57.4465 2 14.1539
      vertex 57.4465 0 14.1539
    endloop
  endfacet
  facet normal -0.330261 0 -0.94389
    outer loop
      vertex 57.4465 2 14.1539
      vertex 56.6011 0 14.4497
      vertex 56.6011 2 14.4497
    endloop
  endfacet
  facet normal 0.707146 -0 0.707068
    outer loop
      vertex 25.2617 0 8.05604
      vertex 25.895 2 7.42267
      vertex 25.2617 2 8.05604
    endloop
  endfacet
  facet normal 0.707146 0 0.707068
    outer loop
      vertex 25.895 2 7.42267
      vertex 25.2617 0 8.05604
      vertex 25.895 0 7.42267
    endloop
  endfacet
  facet normal 0.531994 0 0.846748
    outer loop
      vertex 25.895 2 7.42267
      vertex 26.6535 0 6.94612
      vertex 26.6535 2 6.94612
    endloop
  endfacet
  facet normal 0.531994 0 0.846748
    outer loop
      vertex 26.6535 0 6.94612
      vertex 25.895 2 7.42267
      vertex 25.895 0 7.42267
    endloop
  endfacet
  facet normal 0.330291 0 0.943879
    outer loop
      vertex 26.6535 2 6.94612
      vertex 27.4989 0 6.65029
      vertex 27.4989 2 6.65029
    endloop
  endfacet
  facet normal 0.330291 0 0.943879
    outer loop
      vertex 27.4989 0 6.65029
      vertex 26.6535 2 6.94612
      vertex 26.6535 0 6.94612
    endloop
  endfacet
  facet normal 0 -1 0
    outer loop
      vertex 0 1 18.55
      vertex 84.1 1 19.55
      vertex 0 1 19.55
    endloop
  endfacet
  facet normal 0 -1 -0
    outer loop
      vertex 84.1 1 19.55
      vertex 0 1 18.55
      vertex 84.1 1 18.55
    endloop
  endfacet
  facet normal -0 0 1
    outer loop
      vertex 0 1 18.55
      vertex 84.1 0 18.55
      vertex 84.1 1 18.55
    endloop
  endfacet
  facet normal 0 0 1
    outer loop
      vertex 84.1 0 18.55
      vertex 0 1 18.55
      vertex 0 0 18.55
    endloop
  endfacet
endsolid OpenSCAD_Model
