solid OpenSCAD_Model
  facet normal 0 1 -0
    outer loop
      vertex 58.5 2.4 131.36
      vertex 58.42 2.4 132.4
      vertex 58.5 2.4 132.4
    endloop
  endfacet
  facet normal 0 1 0
    outer loop
      vertex 58.42 2.4 132.4
      vertex 58.5 2.4 131.36
      vertex 58.42 2.4 131.28
    endloop
  endfacet
  facet normal -0.707107 0 0.707107
    outer loop
      vertex 58.42 2.4 131.28
      vertex 58.5 22.4 131.36
      vertex 58.42 22.4 131.28
    endloop
  endfacet
  facet normal -0.707107 0 0.707107
    outer loop
      vertex 58.5 22.4 131.36
      vertex 58.42 2.4 131.28
      vertex 58.5 2.4 131.36
    endloop
  endfacet
  facet normal 0 -1 0
    outer loop
      vertex 58.42 22.4 132.4
      vertex 58.5 22.4 131.36
      vertex 58.5 22.4 132.4
    endloop
  endfacet
  facet normal -0 -1 0
    outer loop
      vertex 58.5 22.4 131.36
      vertex 58.42 22.4 132.4
      vertex 58.42 22.4 131.28
    endloop
  endfacet
  facet normal 1 -0 0
    outer loop
      vertex 58.42 2.4 132.4
      vertex 58.42 22.4 131.28
      vertex 58.42 22.4 132.4
    endloop
  endfacet
  facet normal 1 0 0
    outer loop
      vertex 58.42 22.4 131.28
      vertex 58.42 2.4 132.4
      vertex 58.42 2.4 131.28
    endloop
  endfacet
  facet normal 0 1 0
    outer loop
      vertex 143.58 2.4 132.4
      vertex 143.5 2.4 131.36
      vertex 143.5 2.4 132.4
    endloop
  endfacet
  facet normal -0 1 0
    outer loop
      vertex 143.5 2.4 131.36
      vertex 143.58 2.4 132.4
      vertex 143.58 2.4 131.28
    endloop
  endfacet
  facet normal -1 0 0
    outer loop
      vertex 143.58 2.4 131.28
      vertex 143.58 22.4 132.4
      vertex 143.58 22.4 131.28
    endloop
  endfacet
  facet normal -1 -0 0
    outer loop
      vertex 143.58 22.4 132.4
      vertex 143.58 2.4 131.28
      vertex 143.58 2.4 132.4
    endloop
  endfacet
  facet normal 0 -1 0
    outer loop
      vertex 143.5 22.4 131.36
      vertex 143.58 22.4 132.4
      vertex 143.5 22.4 132.4
    endloop
  endfacet
  facet normal 0 -1 -0
    outer loop
      vertex 143.58 22.4 132.4
      vertex 143.5 22.4 131.36
      vertex 143.58 22.4 131.28
    endloop
  endfacet
  facet normal 0.707107 -0 0.707107
    outer loop
      vertex 143.5 2.4 131.36
      vertex 143.58 22.4 131.28
      vertex 143.5 22.4 131.36
    endloop
  endfacet
  facet normal 0.707107 0 0.707107
    outer loop
      vertex 143.5 2.4 131.36
      vertex 143.58 2.4 131.28
      vertex 143.58 22.4 131.28
    endloop
  endfacet
  facet normal 1 -0 0
    outer loop
      vertex 58.5 2.32001 132.4
      vertex 58.5 2.4 131.36
      vertex 58.5 2.4 132.4
    endloop
  endfacet
  facet normal 1 0 0
    outer loop
      vertex 58.5 2.4 131.36
      vertex 58.5 2.32001 132.4
      vertex 58.5 2.32001 131.28
    endloop
  endfacet
  facet normal 0 1 -0
    outer loop
      vertex 143.5 2.32001 131.28
      vertex 58.5 2.32001 132.4
      vertex 143.5 2.32001 132.4
    endloop
  endfacet
  facet normal 0 1 0
    outer loop
      vertex 58.5 2.32001 132.4
      vertex 143.5 2.32001 131.28
      vertex 58.5 2.32001 131.28
    endloop
  endfacet
  facet normal -1 0 0
    outer loop
      vertex 143.5 2.32001 132.4
      vertex 143.5 2.4 131.36
      vertex 143.5 2.32001 131.28
    endloop
  endfacet
  facet normal -1 0 0
    outer loop
      vertex 143.5 2.4 131.36
      vertex 143.5 2.32001 132.4
      vertex 143.5 2.4 132.4
    endloop
  endfacet
  facet normal 0 -0.707151 0.707063
    outer loop
      vertex 58.5 2.4 131.36
      vertex 143.5 2.32001 131.28
      vertex 143.5 2.4 131.36
    endloop
  endfacet
  facet normal 0 -0.707151 0.707063
    outer loop
      vertex 143.5 2.32001 131.28
      vertex 58.5 2.4 131.36
      vertex 58.5 2.32001 131.28
    endloop
  endfacet
  facet normal 1 0 0
    outer loop
      vertex 58.5 22.4 131.36
      vertex 58.5 22.48 132.4
      vertex 58.5 22.4 132.4
    endloop
  endfacet
  facet normal 1 0 0
    outer loop
      vertex 58.5 22.48 132.4
      vertex 58.5 22.4 131.36
      vertex 58.5 22.48 131.28
    endloop
  endfacet
  facet normal 0 0.707107 0.707107
    outer loop
      vertex 143.5 22.48 131.28
      vertex 58.5 22.4 131.36
      vertex 143.5 22.4 131.36
    endloop
  endfacet
  facet normal 0 0.707107 0.707107
    outer loop
      vertex 58.5 22.4 131.36
      vertex 143.5 22.48 131.28
      vertex 58.5 22.48 131.28
    endloop
  endfacet
  facet normal -1 0 0
    outer loop
      vertex 143.5 22.4 131.36
      vertex 143.5 22.48 132.4
      vertex 143.5 22.48 131.28
    endloop
  endfacet
  facet normal -1 -0 0
    outer loop
      vertex 143.5 22.48 132.4
      vertex 143.5 22.4 131.36
      vertex 143.5 22.4 132.4
    endloop
  endfacet
  facet normal 0 -1 0
    outer loop
      vertex 58.5 22.48 131.28
      vertex 143.5 22.48 132.4
      vertex 58.5 22.48 132.4
    endloop
  endfacet
  facet normal 0 -1 -0
    outer loop
      vertex 143.5 22.48 132.4
      vertex 58.5 22.48 131.28
      vertex 143.5 22.48 131.28
    endloop
  endfacet
  facet normal 0 1 -0
    outer loop
      vertex 58.5 24.8 131.36
      vertex 58.42 24.8 132.4
      vertex 58.5 24.8 132.4
    endloop
  endfacet
  facet normal 0 1 0
    outer loop
      vertex 58.42 24.8 132.4
      vertex 58.5 24.8 131.36
      vertex 58.42 24.8 131.28
    endloop
  endfacet
  facet normal -0.707107 0 0.707107
    outer loop
      vertex 58.42 24.8 131.28
      vertex 58.5 44.8 131.36
      vertex 58.42 44.8 131.28
    endloop
  endfacet
  facet normal -0.707107 0 0.707107
    outer loop
      vertex 58.5 44.8 131.36
      vertex 58.42 24.8 131.28
      vertex 58.5 24.8 131.36
    endloop
  endfacet
  facet normal 0 -1 0
    outer loop
      vertex 58.42 44.8 132.4
      vertex 58.5 44.8 131.36
      vertex 58.5 44.8 132.4
    endloop
  endfacet
  facet normal -0 -1 0
    outer loop
      vertex 58.5 44.8 131.36
      vertex 58.42 44.8 132.4
      vertex 58.42 44.8 131.28
    endloop
  endfacet
  facet normal 1 -0 0
    outer loop
      vertex 58.42 24.8 132.4
      vertex 58.42 44.8 131.28
      vertex 58.42 44.8 132.4
    endloop
  endfacet
  facet normal 1 0 0
    outer loop
      vertex 58.42 44.8 131.28
      vertex 58.42 24.8 132.4
      vertex 58.42 24.8 131.28
    endloop
  endfacet
  facet normal 0 1 0
    outer loop
      vertex 143.58 24.8 132.4
      vertex 143.5 24.8 131.36
      vertex 143.5 24.8 132.4
    endloop
  endfacet
  facet normal -0 1 0
    outer loop
      vertex 143.5 24.8 131.36
      vertex 143.58 24.8 132.4
      vertex 143.58 24.8 131.28
    endloop
  endfacet
  facet normal -1 0 0
    outer loop
      vertex 143.58 24.8 131.28
      vertex 143.58 44.8 132.4
      vertex 143.58 44.8 131.28
    endloop
  endfacet
  facet normal -1 -0 0
    outer loop
      vertex 143.58 44.8 132.4
      vertex 143.58 24.8 131.28
      vertex 143.58 24.8 132.4
    endloop
  endfacet
  facet normal 0 -1 0
    outer loop
      vertex 143.5 44.8 131.36
      vertex 143.58 44.8 132.4
      vertex 143.5 44.8 132.4
    endloop
  endfacet
  facet normal 0 -1 -0
    outer loop
      vertex 143.58 44.8 132.4
      vertex 143.5 44.8 131.36
      vertex 143.58 44.8 131.28
    endloop
  endfacet
  facet normal 0.707107 -0 0.707107
    outer loop
      vertex 143.5 24.8 131.36
      vertex 143.58 44.8 131.28
      vertex 143.5 44.8 131.36
    endloop
  endfacet
  facet normal 0.707107 0 0.707107
    outer loop
      vertex 143.5 24.8 131.36
      vertex 143.58 24.8 131.28
      vertex 143.58 44.8 131.28
    endloop
  endfacet
  facet normal 1 -0 0
    outer loop
      vertex 58.5 24.72 132.4
      vertex 58.5 24.8 131.36
      vertex 58.5 24.8 132.4
    endloop
  endfacet
  facet normal 1 0 0
    outer loop
      vertex 58.5 24.8 131.36
      vertex 58.5 24.72 132.4
      vertex 58.5 24.72 131.28
    endloop
  endfacet
  facet normal 0 1 -0
    outer loop
      vertex 143.5 24.72 131.28
      vertex 58.5 24.72 132.4
      vertex 143.5 24.72 132.4
    endloop
  endfacet
  facet normal 0 1 0
    outer loop
      vertex 58.5 24.72 132.4
      vertex 143.5 24.72 131.28
      vertex 58.5 24.72 131.28
    endloop
  endfacet
  facet normal -1 0 0
    outer loop
      vertex 143.5 24.72 132.4
      vertex 143.5 24.8 131.36
      vertex 143.5 24.72 131.28
    endloop
  endfacet
  facet normal -1 0 0
    outer loop
      vertex 143.5 24.8 131.36
      vertex 143.5 24.72 132.4
      vertex 143.5 24.8 132.4
    endloop
  endfacet
  facet normal 0 -0.707107 0.707107
    outer loop
      vertex 58.5 24.72 131.28
      vertex 143.5 24.8 131.36
      vertex 58.5 24.8 131.36
    endloop
  endfacet
  facet normal 0 -0.707107 0.707107
    outer loop
      vertex 143.5 24.8 131.36
      vertex 58.5 24.72 131.28
      vertex 143.5 24.72 131.28
    endloop
  endfacet
  facet normal 1 0 0
    outer loop
      vertex 58.5 44.8 131.36
      vertex 58.5 44.88 132.4
      vertex 58.5 44.8 132.4
    endloop
  endfacet
  facet normal 1 0 0
    outer loop
      vertex 58.5 44.88 132.4
      vertex 58.5 44.8 131.36
      vertex 58.5 44.88 131.28
    endloop
  endfacet
  facet normal 0 0.707107 0.707107
    outer loop
      vertex 143.5 44.88 131.28
      vertex 58.5 44.8 131.36
      vertex 143.5 44.8 131.36
    endloop
  endfacet
  facet normal 0 0.707107 0.707107
    outer loop
      vertex 58.5 44.8 131.36
      vertex 143.5 44.88 131.28
      vertex 58.5 44.88 131.28
    endloop
  endfacet
  facet normal -1 0 0
    outer loop
      vertex 143.5 44.8 131.36
      vertex 143.5 44.88 132.4
      vertex 143.5 44.88 131.28
    endloop
  endfacet
  facet normal -1 -0 0
    outer loop
      vertex 143.5 44.88 132.4
      vertex 143.5 44.8 131.36
      vertex 143.5 44.8 132.4
    endloop
  endfacet
  facet normal 0 -1 0
    outer loop
      vertex 58.5 44.88 131.28
      vertex 143.5 44.88 132.4
      vertex 58.5 44.88 132.4
    endloop
  endfacet
  facet normal 0 -1 -0
    outer loop
      vertex 143.5 44.88 132.4
      vertex 58.5 44.88 131.28
      vertex 143.5 44.88 131.28
    endloop
  endfacet
  facet normal 0 1 -0
    outer loop
      vertex 58.5 47.2 131.36
      vertex 58.42 47.2 132.4
      vertex 58.5 47.2 132.4
    endloop
  endfacet
  facet normal 0 1 0
    outer loop
      vertex 58.42 47.2 132.4
      vertex 58.5 47.2 131.36
      vertex 58.42 47.2 131.28
    endloop
  endfacet
  facet normal -0.707107 0 0.707107
    outer loop
      vertex 58.42 47.2 131.28
      vertex 58.5 67.2 131.36
      vertex 58.42 67.2 131.28
    endloop
  endfacet
  facet normal -0.707107 0 0.707107
    outer loop
      vertex 58.5 67.2 131.36
      vertex 58.42 47.2 131.28
      vertex 58.5 47.2 131.36
    endloop
  endfacet
  facet normal 0 -1 0
    outer loop
      vertex 58.42 67.2 132.4
      vertex 58.5 67.2 131.36
      vertex 58.5 67.2 132.4
    endloop
  endfacet
  facet normal -0 -1 0
    outer loop
      vertex 58.5 67.2 131.36
      vertex 58.42 67.2 132.4
      vertex 58.42 67.2 131.28
    endloop
  endfacet
  facet normal 1 -0 0
    outer loop
      vertex 58.42 47.2 132.4
      vertex 58.42 67.2 131.28
      vertex 58.42 67.2 132.4
    endloop
  endfacet
  facet normal 1 0 0
    outer loop
      vertex 58.42 67.2 131.28
      vertex 58.42 47.2 132.4
      vertex 58.42 47.2 131.28
    endloop
  endfacet
  facet normal 0 1 0
    outer loop
      vertex 143.58 47.2 132.4
      vertex 143.5 47.2 131.36
      vertex 143.5 47.2 132.4
    endloop
  endfacet
  facet normal -0 1 0
    outer loop
      vertex 143.5 47.2 131.36
      vertex 143.58 47.2 132.4
      vertex 143.58 47.2 131.28
    endloop
  endfacet
  facet normal -1 0 0
    outer loop
      vertex 143.58 47.2 131.28
      vertex 143.58 67.2 132.4
      vertex 143.58 67.2 131.28
    endloop
  endfacet
  facet normal -1 -0 0
    outer loop
      vertex 143.58 67.2 132.4
      vertex 143.58 47.2 131.28
      vertex 143.58 47.2 132.4
    endloop
  endfacet
  facet normal 0 -1 0
    outer loop
      vertex 143.5 67.2 131.36
      vertex 143.58 67.2 132.4
      vertex 143.5 67.2 132.4
    endloop
  endfacet
  facet normal 0 -1 -0
    outer loop
      vertex 143.58 67.2 132.4
      vertex 143.5 67.2 131.36
      vertex 143.58 67.2 131.28
    endloop
  endfacet
  facet normal 0.707107 -0 0.707107
    outer loop
      vertex 143.5 47.2 131.36
      vertex 143.58 67.2 131.28
      vertex 143.5 67.2 131.36
    endloop
  endfacet
  facet normal 0.707107 0 0.707107
    outer loop
      vertex 143.58 67.2 131.28
      vertex 143.5 47.2 131.36
      vertex 143.58 47.2 131.28
    endloop
  endfacet
  facet normal 1 -0 0
    outer loop
      vertex 58.5 47.12 132.4
      vertex 58.5 47.2 131.36
      vertex 58.5 47.2 132.4
    endloop
  endfacet
  facet normal 1 0 0
    outer loop
      vertex 58.5 47.2 131.36
      vertex 58.5 47.12 132.4
      vertex 58.5 47.12 131.28
    endloop
  endfacet
  facet normal 0 1 -0
    outer loop
      vertex 143.5 47.12 131.28
      vertex 58.5 47.12 132.4
      vertex 143.5 47.12 132.4
    endloop
  endfacet
  facet normal 0 1 0
    outer loop
      vertex 58.5 47.12 132.4
      vertex 143.5 47.12 131.28
      vertex 58.5 47.12 131.28
    endloop
  endfacet
  facet normal -1 0 0
    outer loop
      vertex 143.5 47.12 132.4
      vertex 143.5 47.2 131.36
      vertex 143.5 47.12 131.28
    endloop
  endfacet
  facet normal -1 0 0
    outer loop
      vertex 143.5 47.2 131.36
      vertex 143.5 47.12 132.4
      vertex 143.5 47.2 132.4
    endloop
  endfacet
  facet normal 0 -0.707107 0.707107
    outer loop
      vertex 58.5 47.12 131.28
      vertex 143.5 47.2 131.36
      vertex 58.5 47.2 131.36
    endloop
  endfacet
  facet normal 0 -0.707107 0.707107
    outer loop
      vertex 143.5 47.2 131.36
      vertex 58.5 47.12 131.28
      vertex 143.5 47.12 131.28
    endloop
  endfacet
  facet normal 1 0 0
    outer loop
      vertex 58.5 67.2 131.36
      vertex 58.5 67.28 132.4
      vertex 58.5 67.2 132.4
    endloop
  endfacet
  facet normal 1 0 0
    outer loop
      vertex 58.5 67.28 132.4
      vertex 58.5 67.2 131.36
      vertex 58.5 67.28 131.28
    endloop
  endfacet
  facet normal 0 0.707107 0.707107
    outer loop
      vertex 143.5 67.28 131.28
      vertex 58.5 67.2 131.36
      vertex 143.5 67.2 131.36
    endloop
  endfacet
  facet normal 0 0.707107 0.707107
    outer loop
      vertex 58.5 67.2 131.36
      vertex 143.5 67.28 131.28
      vertex 58.5 67.28 131.28
    endloop
  endfacet
  facet normal -1 0 0
    outer loop
      vertex 143.5 67.2 131.36
      vertex 143.5 67.28 132.4
      vertex 143.5 67.28 131.28
    endloop
  endfacet
  facet normal -1 -0 0
    outer loop
      vertex 143.5 67.28 132.4
      vertex 143.5 67.2 131.36
      vertex 143.5 67.2 132.4
    endloop
  endfacet
  facet normal 0 -1 0
    outer loop
      vertex 58.5 67.28 131.28
      vertex 143.5 67.28 132.4
      vertex 58.5 67.28 132.4
    endloop
  endfacet
  facet normal 0 -1 -0
    outer loop
      vertex 143.5 67.28 132.4
      vertex 58.5 67.28 131.28
      vertex 143.5 67.28 131.28
    endloop
  endfacet
  facet normal 0 1 -0
    outer loop
      vertex 58.5 69.6 131.36
      vertex 58.42 69.6 132.4
      vertex 58.5 69.6 132.4
    endloop
  endfacet
  facet normal 0 1 0
    outer loop
      vertex 58.42 69.6 132.4
      vertex 58.5 69.6 131.36
      vertex 58.42 69.6 131.28
    endloop
  endfacet
  facet normal -0.707107 0 0.707107
    outer loop
      vertex 58.42 69.6 131.28
      vertex 58.5 89.6 131.36
      vertex 58.42 89.6 131.28
    endloop
  endfacet
  facet normal -0.707107 0 0.707107
    outer loop
      vertex 58.5 89.6 131.36
      vertex 58.42 69.6 131.28
      vertex 58.5 69.6 131.36
    endloop
  endfacet
  facet normal 0 -1 0
    outer loop
      vertex 58.42 89.6 132.4
      vertex 58.5 89.6 131.36
      vertex 58.5 89.6 132.4
    endloop
  endfacet
  facet normal -0 -1 0
    outer loop
      vertex 58.5 89.6 131.36
      vertex 58.42 89.6 132.4
      vertex 58.42 89.6 131.28
    endloop
  endfacet
  facet normal 1 -0 0
    outer loop
      vertex 58.42 69.6 132.4
      vertex 58.42 89.6 131.28
      vertex 58.42 89.6 132.4
    endloop
  endfacet
  facet normal 1 0 0
    outer loop
      vertex 58.42 89.6 131.28
      vertex 58.42 69.6 132.4
      vertex 58.42 69.6 131.28
    endloop
  endfacet
  facet normal 0 1 0
    outer loop
      vertex 143.58 69.6 132.4
      vertex 143.5 69.6 131.36
      vertex 143.5 69.6 132.4
    endloop
  endfacet
  facet normal -0 1 0
    outer loop
      vertex 143.5 69.6 131.36
      vertex 143.58 69.6 132.4
      vertex 143.58 69.6 131.28
    endloop
  endfacet
  facet normal -1 0 0
    outer loop
      vertex 143.58 69.6 131.28
      vertex 143.58 89.6 132.4
      vertex 143.58 89.6 131.28
    endloop
  endfacet
  facet normal -1 -0 0
    outer loop
      vertex 143.58 89.6 132.4
      vertex 143.58 69.6 131.28
      vertex 143.58 69.6 132.4
    endloop
  endfacet
  facet normal 0 -1 0
    outer loop
      vertex 143.5 89.6 131.36
      vertex 143.58 89.6 132.4
      vertex 143.5 89.6 132.4
    endloop
  endfacet
  facet normal 0 -1 -0
    outer loop
      vertex 143.58 89.6 132.4
      vertex 143.5 89.6 131.36
      vertex 143.58 89.6 131.28
    endloop
  endfacet
  facet normal 0.707107 -0 0.707107
    outer loop
      vertex 143.5 69.6 131.36
      vertex 143.58 89.6 131.28
      vertex 143.5 89.6 131.36
    endloop
  endfacet
  facet normal 0.707107 0 0.707107
    outer loop
      vertex 143.58 89.6 131.28
      vertex 143.5 69.6 131.36
      vertex 143.58 69.6 131.28
    endloop
  endfacet
  facet normal 1 -0 0
    outer loop
      vertex 58.5 69.52 132.4
      vertex 58.5 69.6 131.36
      vertex 58.5 69.6 132.4
    endloop
  endfacet
  facet normal 1 0 0
    outer loop
      vertex 58.5 69.6 131.36
      vertex 58.5 69.52 132.4
      vertex 58.5 69.52 131.28
    endloop
  endfacet
  facet normal 0 1 -0
    outer loop
      vertex 143.5 69.52 131.28
      vertex 58.5 69.52 132.4
      vertex 143.5 69.52 132.4
    endloop
  endfacet
  facet normal 0 1 0
    outer loop
      vertex 58.5 69.52 132.4
      vertex 143.5 69.52 131.28
      vertex 58.5 69.52 131.28
    endloop
  endfacet
  facet normal -1 0 0
    outer loop
      vertex 143.5 69.52 132.4
      vertex 143.5 69.6 131.36
      vertex 143.5 69.52 131.28
    endloop
  endfacet
  facet normal -1 0 0
    outer loop
      vertex 143.5 69.6 131.36
      vertex 143.5 69.52 132.4
      vertex 143.5 69.6 132.4
    endloop
  endfacet
  facet normal 0 -0.707107 0.707107
    outer loop
      vertex 58.5 69.52 131.28
      vertex 143.5 69.6 131.36
      vertex 58.5 69.6 131.36
    endloop
  endfacet
  facet normal 0 -0.707107 0.707107
    outer loop
      vertex 143.5 69.6 131.36
      vertex 58.5 69.52 131.28
      vertex 143.5 69.52 131.28
    endloop
  endfacet
  facet normal 1 0 0
    outer loop
      vertex 58.5 89.6 131.36
      vertex 58.5 89.68 132.4
      vertex 58.5 89.6 132.4
    endloop
  endfacet
  facet normal 1 0 0
    outer loop
      vertex 58.5 89.68 132.4
      vertex 58.5 89.6 131.36
      vertex 58.5 89.68 131.28
    endloop
  endfacet
  facet normal 0 0.707107 0.707107
    outer loop
      vertex 143.5 89.68 131.28
      vertex 58.5 89.6 131.36
      vertex 143.5 89.6 131.36
    endloop
  endfacet
  facet normal 0 0.707107 0.707107
    outer loop
      vertex 58.5 89.6 131.36
      vertex 143.5 89.68 131.28
      vertex 58.5 89.68 131.28
    endloop
  endfacet
  facet normal -1 0 0
    outer loop
      vertex 143.5 89.6 131.36
      vertex 143.5 89.68 132.4
      vertex 143.5 89.68 131.28
    endloop
  endfacet
  facet normal -1 -0 0
    outer loop
      vertex 143.5 89.68 132.4
      vertex 143.5 89.6 131.36
      vertex 143.5 89.6 132.4
    endloop
  endfacet
  facet normal 0 -1 0
    outer loop
      vertex 58.5 89.68 131.28
      vertex 143.5 89.68 132.4
      vertex 58.5 89.68 132.4
    endloop
  endfacet
  facet normal 0 -1 -0
    outer loop
      vertex 143.5 89.68 132.4
      vertex 58.5 89.68 131.28
      vertex 143.5 89.68 131.28
    endloop
  endfacet
  facet normal 1 -0 0
    outer loop
      vertex 58.5 2.4 131.36
      vertex 58.5 22.4 2.4
      vertex 58.5 22.4 131.36
    endloop
  endfacet
  facet normal 1 0 0
    outer loop
      vertex 58.5 2.4 131.36
      vertex 58.5 2.4 2.4
      vertex 58.5 22.4 2.4
    endloop
  endfacet
  facet normal 0 0 0
    outer loop
      vertex 58.5 2.4 2.4
      vertex 58.5 2.4 131.36
      vertex 58.5 2.4 132.4
    endloop
  endfacet
  facet normal 0 -1 0
    outer loop
      vertex 58.5 22.4 2.4
      vertex 143.5 22.4 131.36
      vertex 58.5 22.4 131.36
    endloop
  endfacet
  facet normal 0 -1 -0
    outer loop
      vertex 143.5 22.4 131.36
      vertex 58.5 22.4 2.4
      vertex 143.5 22.4 2.4
    endloop
  endfacet
  facet normal -1 0 0
    outer loop
      vertex 143.5 22.4 2.4
      vertex 143.5 2.4 131.36
      vertex 143.5 22.4 131.36
    endloop
  endfacet
  facet normal -1 0 0
    outer loop
      vertex 143.5 2.4 2.4
      vertex 143.5 2.4 131.36
      vertex 143.5 22.4 2.4
    endloop
  endfacet
  facet normal -0 0 1
    outer loop
      vertex 58.5 22.4 2.4
      vertex 143.5 2.4 2.4
      vertex 143.5 22.4 2.4
    endloop
  endfacet
  facet normal 0 0 1
    outer loop
      vertex 143.5 2.4 2.4
      vertex 58.5 22.4 2.4
      vertex 58.5 2.4 2.4
    endloop
  endfacet
  facet normal 0 1 -0
    outer loop
      vertex 143.5 2.4 2.4
      vertex 58.5 2.4 131.36
      vertex 143.5 2.4 131.36
    endloop
  endfacet
  facet normal 0 1 0
    outer loop
      vertex 58.5 2.4 131.36
      vertex 143.5 2.4 2.4
      vertex 58.5 2.4 2.4
    endloop
  endfacet
  facet normal 0 0 0
    outer loop
      vertex 58.5 2.4 2.4
      vertex 58.5 2.4 132.4
      vertex 58.5 2.4 131.36
    endloop
  endfacet
  facet normal 1 -0 0
    outer loop
      vertex 58.5 24.8 131.36
      vertex 58.5 44.8 2.4
      vertex 58.5 44.8 131.36
    endloop
  endfacet
  facet normal 1 0 0
    outer loop
      vertex 58.5 44.8 2.4
      vertex 58.5 24.8 131.36
      vertex 58.5 24.8 2.4
    endloop
  endfacet
  facet normal 0 0 0
    outer loop
      vertex 58.5 24.8 2.4
      vertex 58.5 24.8 131.36
      vertex 58.5 24.8 132.4
    endloop
  endfacet
  facet normal 0 -1 0
    outer loop
      vertex 58.5 44.8 2.4
      vertex 143.5 44.8 131.36
      vertex 58.5 44.8 131.36
    endloop
  endfacet
  facet normal 0 -1 -0
    outer loop
      vertex 143.5 44.8 131.36
      vertex 58.5 44.8 2.4
      vertex 143.5 44.8 2.4
    endloop
  endfacet
  facet normal -1 0 0
    outer loop
      vertex 143.5 44.8 2.4
      vertex 143.5 24.8 131.36
      vertex 143.5 44.8 131.36
    endloop
  endfacet
  facet normal -1 0 0
    outer loop
      vertex 143.5 24.8 2.4
      vertex 143.5 24.8 131.36
      vertex 143.5 44.8 2.4
    endloop
  endfacet
  facet normal -0 0 1
    outer loop
      vertex 58.5 44.8 2.4
      vertex 143.5 24.8 2.4
      vertex 143.5 44.8 2.4
    endloop
  endfacet
  facet normal 0 0 1
    outer loop
      vertex 143.5 24.8 2.4
      vertex 58.5 44.8 2.4
      vertex 58.5 24.8 2.4
    endloop
  endfacet
  facet normal 0 1 -0
    outer loop
      vertex 143.5 24.8 2.4
      vertex 58.5 24.8 131.36
      vertex 143.5 24.8 131.36
    endloop
  endfacet
  facet normal 0 1 0
    outer loop
      vertex 58.5 24.8 131.36
      vertex 143.5 24.8 2.4
      vertex 58.5 24.8 2.4
    endloop
  endfacet
  facet normal 0 0 0
    outer loop
      vertex 58.5 24.8 132.4
      vertex 58.5 24.8 131.36
      vertex 58.5 24.8 2.4
    endloop
  endfacet
  facet normal 1 -0 0
    outer loop
      vertex 58.5 47.2 131.36
      vertex 58.5 67.2 2.4
      vertex 58.5 67.2 131.36
    endloop
  endfacet
  facet normal 1 0 0
    outer loop
      vertex 58.5 67.2 2.4
      vertex 58.5 47.2 131.36
      vertex 58.5 47.2 2.4
    endloop
  endfacet
  facet normal -0 0 0
    outer loop
      vertex 58.5 47.2 131.36
      vertex 58.5 47.2 132.4
      vertex 58.5 47.2 2.4
    endloop
  endfacet
  facet normal 0 -1 0
    outer loop
      vertex 58.5 67.2 2.4
      vertex 143.5 67.2 131.36
      vertex 58.5 67.2 131.36
    endloop
  endfacet
  facet normal 0 -1 -0
    outer loop
      vertex 143.5 67.2 131.36
      vertex 58.5 67.2 2.4
      vertex 143.5 67.2 2.4
    endloop
  endfacet
  facet normal -1 0 0
    outer loop
      vertex 143.5 47.2 2.4
      vertex 143.5 67.2 131.36
      vertex 143.5 67.2 2.4
    endloop
  endfacet
  facet normal -1 -0 0
    outer loop
      vertex 143.5 67.2 131.36
      vertex 143.5 47.2 2.4
      vertex 143.5 47.2 131.36
    endloop
  endfacet
  facet normal 0 1 -0
    outer loop
      vertex 143.5 47.2 2.4
      vertex 58.5 47.2 131.36
      vertex 143.5 47.2 131.36
    endloop
  endfacet
  facet normal 0 1 0
    outer loop
      vertex 58.5 47.2 131.36
      vertex 143.5 47.2 2.4
      vertex 58.5 47.2 2.4
    endloop
  endfacet
  facet normal 0 0 0
    outer loop
      vertex 58.5 47.2 132.4
      vertex 58.5 47.2 131.36
      vertex 58.5 47.2 2.4
    endloop
  endfacet
  facet normal -0 0 1
    outer loop
      vertex 58.5 67.2 2.4
      vertex 143.5 47.2 2.4
      vertex 143.5 67.2 2.4
    endloop
  endfacet
  facet normal 0 0 1
    outer loop
      vertex 143.5 47.2 2.4
      vertex 58.5 67.2 2.4
      vertex 58.5 47.2 2.4
    endloop
  endfacet
  facet normal 1 -0 0
    outer loop
      vertex 58.5 69.6 131.36
      vertex 58.5 89.6 2.4
      vertex 58.5 89.6 131.36
    endloop
  endfacet
  facet normal 1 0 0
    outer loop
      vertex 58.5 89.6 2.4
      vertex 58.5 69.6 131.36
      vertex 58.5 69.6 2.4
    endloop
  endfacet
  facet normal 0 0 0
    outer loop
      vertex 58.5 69.6 2.4
      vertex 58.5 69.6 131.36
      vertex 58.5 69.6 132.4
    endloop
  endfacet
  facet normal 0 -1 0
    outer loop
      vertex 58.5 89.6 2.4
      vertex 143.5 89.6 131.36
      vertex 58.5 89.6 131.36
    endloop
  endfacet
  facet normal 0 -1 -0
    outer loop
      vertex 143.5 89.6 131.36
      vertex 58.5 89.6 2.4
      vertex 143.5 89.6 2.4
    endloop
  endfacet
  facet normal -1 0 0
    outer loop
      vertex 143.5 69.6 2.4
      vertex 143.5 89.6 131.36
      vertex 143.5 89.6 2.4
    endloop
  endfacet
  facet normal -1 -0 0
    outer loop
      vertex 143.5 89.6 131.36
      vertex 143.5 69.6 2.4
      vertex 143.5 69.6 131.36
    endloop
  endfacet
  facet normal -0 0 1
    outer loop
      vertex 58.5 89.6 2.4
      vertex 143.5 69.6 2.4
      vertex 143.5 89.6 2.4
    endloop
  endfacet
  facet normal 0 0 1
    outer loop
      vertex 143.5 69.6 2.4
      vertex 58.5 89.6 2.4
      vertex 58.5 69.6 2.4
    endloop
  endfacet
  facet normal 0 1 -0
    outer loop
      vertex 143.5 69.6 2.4
      vertex 58.5 69.6 131.36
      vertex 143.5 69.6 131.36
    endloop
  endfacet
  facet normal 0 1 0
    outer loop
      vertex 58.5 69.6 131.36
      vertex 143.5 69.6 2.4
      vertex 58.5 69.6 2.4
    endloop
  endfacet
  facet normal 0 -0 0
    outer loop
      vertex 58.5 69.6 131.36
      vertex 58.5 69.6 2.4
      vertex 58.5 69.6 132.4
    endloop
  endfacet
  facet normal -1 0 0
    outer loop
      vertex 56.1 92 4.5
      vertex 56.1 100 3.8147e-07
      vertex 56.1 92 3.8147e-07
    endloop
  endfacet
  facet normal -1 0 0
    outer loop
      vertex 56.1 100 3.8147e-07
      vertex 56.1 92 4.5
      vertex 56.1 100 132.4
    endloop
  endfacet
  facet normal -1 0 0
    outer loop
      vertex 56.1 0 132.4
      vertex 56.1 92 4.5
      vertex 56.1 0 4.5
    endloop
  endfacet
  facet normal -1 0 0
    outer loop
      vertex 56.1 92 4.5
      vertex 56.1 0 132.4
      vertex 56.1 100 132.4
    endloop
  endfacet
  facet normal 0 1 -0
    outer loop
      vertex 143.5 92 2.4
      vertex 58.5 92 130
      vertex 143.5 92 130
    endloop
  endfacet
  facet normal 0 1 0
    outer loop
      vertex 58.5 92 130
      vertex 143.5 92 2.4
      vertex 58.5 92 2.4
    endloop
  endfacet
  facet normal 1 -0 0
    outer loop
      vertex 145.9 0 132.4
      vertex 145.9 100 3.8147e-07
      vertex 145.9 100 132.4
    endloop
  endfacet
  facet normal 1 0 0
    outer loop
      vertex 145.9 100 3.8147e-07
      vertex 145.9 0 132.4
      vertex 145.9 0 3.8147e-07
    endloop
  endfacet
  facet normal 0 0 -1
    outer loop
      vertex 145.9 0 3.8147e-07
      vertex 56.1 92 3.8147e-07
      vertex 145.9 100 3.8147e-07
    endloop
  endfacet
  facet normal 0 0 -1
    outer loop
      vertex 5.72205e-07 0 3.8147e-07
      vertex 56.1 92 3.8147e-07
      vertex 145.9 0 3.8147e-07
    endloop
  endfacet
  facet normal -0 0 -1
    outer loop
      vertex 56.1 92 3.8147e-07
      vertex 5.72205e-07 0 3.8147e-07
      vertex 5.72205e-07 92 3.8147e-07
    endloop
  endfacet
  facet normal -0 0 -1
    outer loop
      vertex 145.9 100 3.8147e-07
      vertex 56.1 92 3.8147e-07
      vertex 56.1 100 3.8147e-07
    endloop
  endfacet
  facet normal 0 -1 0
    outer loop
      vertex 5.72205e-07 0 132.4
      vertex 4.5 0 130.48
      vertex 2.57999 0 132.4
    endloop
  endfacet
  facet normal 0 -1 0
    outer loop
      vertex 5.72205e-07 0 132.4
      vertex 4.5 0 4.5
      vertex 4.5 0 130.48
    endloop
  endfacet
  facet normal 0 -1 -0
    outer loop
      vertex 4.5 0 4.5
      vertex 5.72205e-07 0 3.8147e-07
      vertex 56.1 0 4.5
    endloop
  endfacet
  facet normal 0 -1 0
    outer loop
      vertex 5.72205e-07 0 3.8147e-07
      vertex 4.5 0 4.5
      vertex 5.72205e-07 0 132.4
    endloop
  endfacet
  facet normal 0 -1 0
    outer loop
      vertex 56.1 0 4.5
      vertex 145.9 0 132.4
      vertex 56.1 0 132.4
    endloop
  endfacet
  facet normal 0 -1 0
    outer loop
      vertex 56.1 0 4.5
      vertex 145.9 0 3.8147e-07
      vertex 145.9 0 132.4
    endloop
  endfacet
  facet normal 0 -1 0
    outer loop
      vertex 145.9 0 3.8147e-07
      vertex 56.1 0 4.5
      vertex 5.72205e-07 0 3.8147e-07
    endloop
  endfacet
  facet normal 0 0 1
    outer loop
      vertex 58.5 2.4 132.4
      vertex 58.42 2.4 132.4
      vertex 58.5 2.32001 132.4
    endloop
  endfacet
  facet normal -0 0 1
    outer loop
      vertex 58.42 24.8 132.4
      vertex 58.5 24.72 132.4
      vertex 58.5 24.8 132.4
    endloop
  endfacet
  facet normal 0 0 1
    outer loop
      vertex 58.5 24.72 132.4
      vertex 58.42 24.8 132.4
      vertex 58.5 22.48 132.4
    endloop
  endfacet
  facet normal 0 0 1
    outer loop
      vertex 58.42 22.4 132.4
      vertex 58.5 22.48 132.4
      vertex 58.42 24.8 132.4
    endloop
  endfacet
  facet normal 0 0 1
    outer loop
      vertex 58.5 22.48 132.4
      vertex 58.42 22.4 132.4
      vertex 58.5 22.4 132.4
    endloop
  endfacet
  facet normal -0 0 1
    outer loop
      vertex 58.42 47.2 132.4
      vertex 58.5 47.12 132.4
      vertex 58.5 47.2 132.4
    endloop
  endfacet
  facet normal 0 0 1
    outer loop
      vertex 58.5 47.12 132.4
      vertex 58.42 47.2 132.4
      vertex 58.5 44.88 132.4
    endloop
  endfacet
  facet normal 0 0 1
    outer loop
      vertex 58.42 44.8 132.4
      vertex 58.5 44.88 132.4
      vertex 58.42 47.2 132.4
    endloop
  endfacet
  facet normal 0 0 1
    outer loop
      vertex 58.5 44.88 132.4
      vertex 58.42 44.8 132.4
      vertex 58.5 44.8 132.4
    endloop
  endfacet
  facet normal -0 0 1
    outer loop
      vertex 58.42 69.6 132.4
      vertex 58.5 69.52 132.4
      vertex 58.5 69.6 132.4
    endloop
  endfacet
  facet normal 0 0 1
    outer loop
      vertex 58.5 69.52 132.4
      vertex 58.42 69.6 132.4
      vertex 58.5 67.28 132.4
    endloop
  endfacet
  facet normal 0 0 1
    outer loop
      vertex 58.42 67.2 132.4
      vertex 58.5 67.28 132.4
      vertex 58.42 69.6 132.4
    endloop
  endfacet
  facet normal 0 0 1
    outer loop
      vertex 58.5 67.28 132.4
      vertex 58.42 67.2 132.4
      vertex 58.5 67.2 132.4
    endloop
  endfacet
  facet normal -0 0 1
    outer loop
      vertex 56.1 100 132.4
      vertex 58.5 94 132.4
      vertex 58.5 100 132.4
    endloop
  endfacet
  facet normal 0 -0 1
    outer loop
      vertex 58.42 89.6 132.4
      vertex 58.5 94 132.4
      vertex 56.1 100 132.4
    endloop
  endfacet
  facet normal 0 0 1
    outer loop
      vertex 58.5 89.68 132.4
      vertex 58.42 89.6 132.4
      vertex 58.5 89.6 132.4
    endloop
  endfacet
  facet normal 0 0 1
    outer loop
      vertex 56.1 100 132.4
      vertex 58.42 69.6 132.4
      vertex 58.42 89.6 132.4
    endloop
  endfacet
  facet normal 0 0 1
    outer loop
      vertex 58.42 69.6 132.4
      vertex 56.1 100 132.4
      vertex 58.42 67.2 132.4
    endloop
  endfacet
  facet normal 0 0 1
    outer loop
      vertex 58.42 67.2 132.4
      vertex 56.1 100 132.4
      vertex 58.42 47.2 132.4
    endloop
  endfacet
  facet normal 0 0 1
    outer loop
      vertex 58.42 47.2 132.4
      vertex 56.1 100 132.4
      vertex 58.42 44.8 132.4
    endloop
  endfacet
  facet normal 0 0 1
    outer loop
      vertex 56.1 0 132.4
      vertex 58.42 44.8 132.4
      vertex 56.1 100 132.4
    endloop
  endfacet
  facet normal 0 0 1
    outer loop
      vertex 58.42 44.8 132.4
      vertex 56.1 0 132.4
      vertex 58.42 24.8 132.4
    endloop
  endfacet
  facet normal 0 0 1
    outer loop
      vertex 58.42 24.8 132.4
      vertex 56.1 0 132.4
      vertex 58.42 22.4 132.4
    endloop
  endfacet
  facet normal 0 0 1
    outer loop
      vertex 58.5 94 132.4
      vertex 58.42 89.6 132.4
      vertex 58.5 89.68 132.4
    endloop
  endfacet
  facet normal -0 0 1
    outer loop
      vertex 58.5 24.72 132.4
      vertex 143.5 22.48 132.4
      vertex 143.5 24.72 132.4
    endloop
  endfacet
  facet normal 0 0 1
    outer loop
      vertex 143.5 22.48 132.4
      vertex 58.5 24.72 132.4
      vertex 58.5 22.48 132.4
    endloop
  endfacet
  facet normal -0 0 1
    outer loop
      vertex 58.5 47.12 132.4
      vertex 143.5 44.88 132.4
      vertex 143.5 47.12 132.4
    endloop
  endfacet
  facet normal 0 0 1
    outer loop
      vertex 143.5 44.88 132.4
      vertex 58.5 47.12 132.4
      vertex 58.5 44.88 132.4
    endloop
  endfacet
  facet normal -0 0 1
    outer loop
      vertex 58.5 69.52 132.4
      vertex 143.5 67.28 132.4
      vertex 143.5 69.52 132.4
    endloop
  endfacet
  facet normal 0 0 1
    outer loop
      vertex 143.5 67.28 132.4
      vertex 58.5 69.52 132.4
      vertex 58.5 67.28 132.4
    endloop
  endfacet
  facet normal -0 0 1
    outer loop
      vertex 58.5 94 132.4
      vertex 143.5 89.68 132.4
      vertex 143.5 94 132.4
    endloop
  endfacet
  facet normal 0 0 1
    outer loop
      vertex 143.5 89.68 132.4
      vertex 58.5 94 132.4
      vertex 58.5 89.68 132.4
    endloop
  endfacet
  facet normal 0 0 1
    outer loop
      vertex 143.5 24.72 132.4
      vertex 143.58 24.8 132.4
      vertex 143.5 24.8 132.4
    endloop
  endfacet
  facet normal 0 0 1
    outer loop
      vertex 143.58 24.8 132.4
      vertex 143.5 24.72 132.4
      vertex 143.58 22.4 132.4
    endloop
  endfacet
  facet normal -0 0 1
    outer loop
      vertex 143.5 22.48 132.4
      vertex 143.58 22.4 132.4
      vertex 143.5 24.72 132.4
    endloop
  endfacet
  facet normal 0 0 1
    outer loop
      vertex 143.58 22.4 132.4
      vertex 143.5 22.48 132.4
      vertex 143.5 22.4 132.4
    endloop
  endfacet
  facet normal 0 0 1
    outer loop
      vertex 143.5 47.12 132.4
      vertex 143.58 47.2 132.4
      vertex 143.5 47.2 132.4
    endloop
  endfacet
  facet normal 0 0 1
    outer loop
      vertex 143.58 47.2 132.4
      vertex 143.5 47.12 132.4
      vertex 143.58 44.8 132.4
    endloop
  endfacet
  facet normal -0 0 1
    outer loop
      vertex 143.5 44.88 132.4
      vertex 143.58 44.8 132.4
      vertex 143.5 47.12 132.4
    endloop
  endfacet
  facet normal 0 0 1
    outer loop
      vertex 143.58 44.8 132.4
      vertex 143.5 44.88 132.4
      vertex 143.5 44.8 132.4
    endloop
  endfacet
  facet normal 0 0 1
    outer loop
      vertex 143.5 69.52 132.4
      vertex 143.58 69.6 132.4
      vertex 143.5 69.6 132.4
    endloop
  endfacet
  facet normal 0 0 1
    outer loop
      vertex 143.58 69.6 132.4
      vertex 143.5 69.52 132.4
      vertex 143.58 67.2 132.4
    endloop
  endfacet
  facet normal -0 0 1
    outer loop
      vertex 143.5 67.28 132.4
      vertex 143.58 67.2 132.4
      vertex 143.5 69.52 132.4
    endloop
  endfacet
  facet normal 0 0 1
    outer loop
      vertex 143.58 67.2 132.4
      vertex 143.5 67.28 132.4
      vertex 143.5 67.2 132.4
    endloop
  endfacet
  facet normal 0 0 1
    outer loop
      vertex 143.58 69.6 132.4
      vertex 145.9 100 132.4
      vertex 143.58 89.6 132.4
    endloop
  endfacet
  facet normal 0 0 1
    outer loop
      vertex 143.5 94 132.4
      vertex 145.9 100 132.4
      vertex 143.5 100 132.4
    endloop
  endfacet
  facet normal 0 0 1
    outer loop
      vertex 145.9 100 132.4
      vertex 143.5 94 132.4
      vertex 143.58 89.6 132.4
    endloop
  endfacet
  facet normal -0 0 1
    outer loop
      vertex 143.5 89.68 132.4
      vertex 143.58 89.6 132.4
      vertex 143.5 94 132.4
    endloop
  endfacet
  facet normal 0 0 1
    outer loop
      vertex 143.58 89.6 132.4
      vertex 143.5 89.68 132.4
      vertex 143.5 89.6 132.4
    endloop
  endfacet
  facet normal 0 0 1
    outer loop
      vertex 143.58 67.2 132.4
      vertex 145.9 100 132.4
      vertex 143.58 69.6 132.4
    endloop
  endfacet
  facet normal 0 0 1
    outer loop
      vertex 143.58 47.2 132.4
      vertex 145.9 100 132.4
      vertex 143.58 67.2 132.4
    endloop
  endfacet
  facet normal 0 0 1
    outer loop
      vertex 145.9 100 132.4
      vertex 143.58 47.2 132.4
      vertex 145.9 0 132.4
    endloop
  endfacet
  facet normal -0 0 1
    outer loop
      vertex 143.58 44.8 132.4
      vertex 145.9 0 132.4
      vertex 143.58 47.2 132.4
    endloop
  endfacet
  facet normal -0 0 1
    outer loop
      vertex 143.58 24.8 132.4
      vertex 145.9 0 132.4
      vertex 143.58 44.8 132.4
    endloop
  endfacet
  facet normal -0 0 1
    outer loop
      vertex 143.58 22.4 132.4
      vertex 145.9 0 132.4
      vertex 143.58 24.8 132.4
    endloop
  endfacet
  facet normal -0 0 1
    outer loop
      vertex 143.58 2.4 132.4
      vertex 145.9 0 132.4
      vertex 143.58 22.4 132.4
    endloop
  endfacet
  facet normal 0 0 1
    outer loop
      vertex 143.5 2.32001 132.4
      vertex 143.58 2.4 132.4
      vertex 143.5 2.4 132.4
    endloop
  endfacet
  facet normal 0 0 1
    outer loop
      vertex 143.58 2.4 132.4
      vertex 143.5 2.32001 132.4
      vertex 145.9 0 132.4
    endloop
  endfacet
  facet normal -0 0 1
    outer loop
      vertex 58.5 2.32001 132.4
      vertex 145.9 0 132.4
      vertex 143.5 2.32001 132.4
    endloop
  endfacet
  facet normal 0 0 1
    outer loop
      vertex 58.5 2.32001 132.4
      vertex 56.1 0 132.4
      vertex 145.9 0 132.4
    endloop
  endfacet
  facet normal 0 0 1
    outer loop
      vertex 58.42 2.4 132.4
      vertex 56.1 0 132.4
      vertex 58.5 2.32001 132.4
    endloop
  endfacet
  facet normal 0 0 1
    outer loop
      vertex 58.42 22.4 132.4
      vertex 56.1 0 132.4
      vertex 58.42 2.4 132.4
    endloop
  endfacet
  facet normal 0 1 0
    outer loop
      vertex 145.9 100 132.4
      vertex 143.5 100 2.4
      vertex 143.5 100 132.4
    endloop
  endfacet
  facet normal 0 1 0
    outer loop
      vertex 143.5 100 2.4
      vertex 145.9 100 3.8147e-07
      vertex 58.5 100 2.4
    endloop
  endfacet
  facet normal 0 1 -0
    outer loop
      vertex 145.9 100 3.8147e-07
      vertex 143.5 100 2.4
      vertex 145.9 100 132.4
    endloop
  endfacet
  facet normal 0 1 -0
    outer loop
      vertex 58.5 100 2.4
      vertex 56.1 100 132.4
      vertex 58.5 100 132.4
    endloop
  endfacet
  facet normal 0 1 0
    outer loop
      vertex 58.5 100 2.4
      vertex 56.1 100 3.8147e-07
      vertex 56.1 100 132.4
    endloop
  endfacet
  facet normal 0 1 0
    outer loop
      vertex 56.1 100 3.8147e-07
      vertex 58.5 100 2.4
      vertex 145.9 100 3.8147e-07
    endloop
  endfacet
  facet normal 1 0 0
    outer loop
      vertex 58.5 94 130
      vertex 58.5 100 132.4
      vertex 58.5 94 132.4
    endloop
  endfacet
  facet normal 1 0 0
    outer loop
      vertex 58.5 100 132.4
      vertex 58.5 94 130
      vertex 58.5 100 2.4
    endloop
  endfacet
  facet normal 1 0 0
    outer loop
      vertex 58.5 92 2.4
      vertex 58.5 94 130
      vertex 58.5 92 130
    endloop
  endfacet
  facet normal 1 0 0
    outer loop
      vertex 58.5 94 130
      vertex 58.5 92 2.4
      vertex 58.5 100 2.4
    endloop
  endfacet
  facet normal -1 0 0
    outer loop
      vertex 143.5 100 2.4
      vertex 143.5 94 130
      vertex 143.5 100 132.4
    endloop
  endfacet
  facet normal -1 0 0
    outer loop
      vertex 143.5 92 2.4
      vertex 143.5 94 130
      vertex 143.5 100 2.4
    endloop
  endfacet
  facet normal -1 -0 0
    outer loop
      vertex 143.5 94 130
      vertex 143.5 92 2.4
      vertex 143.5 92 130
    endloop
  endfacet
  facet normal -1 -0 0
    outer loop
      vertex 143.5 100 132.4
      vertex 143.5 94 130
      vertex 143.5 94 132.4
    endloop
  endfacet
  facet normal -0 0 1
    outer loop
      vertex 58.5 100 2.4
      vertex 143.5 92 2.4
      vertex 143.5 100 2.4
    endloop
  endfacet
  facet normal 0 0 1
    outer loop
      vertex 143.5 92 2.4
      vertex 58.5 100 2.4
      vertex 58.5 92 2.4
    endloop
  endfacet
  facet normal 0 1 -0
    outer loop
      vertex 143.5 94 130
      vertex 58.5 94 132.4
      vertex 143.5 94 132.4
    endloop
  endfacet
  facet normal 0 1 0
    outer loop
      vertex 58.5 94 132.4
      vertex 143.5 94 130
      vertex 58.5 94 130
    endloop
  endfacet
  facet normal 0 0 -1
    outer loop
      vertex 58.5 92 130
      vertex 143.5 94 130
      vertex 143.5 92 130
    endloop
  endfacet
  facet normal -0 0 -1
    outer loop
      vertex 143.5 94 130
      vertex 58.5 92 130
      vertex 58.5 94 130
    endloop
  endfacet
  facet normal 0 -1 0
    outer loop
      vertex 5.72205e-07 18 27.8
      vertex 4.5 18 32.8
      vertex 5.72205e-07 18 32.8
    endloop
  endfacet
  facet normal 0 -1 -0
    outer loop
      vertex 4.5 18 32.8
      vertex 5.72205e-07 18 27.8
      vertex 4.5 18 27.8
    endloop
  endfacet
  facet normal -0 0 1
    outer loop
      vertex 5.72205e-07 18 27.8
      vertex 4.5 10 27.8
      vertex 4.5 18 27.8
    endloop
  endfacet
  facet normal 0 0 1
    outer loop
      vertex 4.5 10 27.8
      vertex 5.72205e-07 18 27.8
      vertex 5.72205e-07 10 27.8
    endloop
  endfacet
  facet normal 0 1 -0
    outer loop
      vertex 4.5 10 27.8
      vertex 5.72205e-07 10 32.8
      vertex 4.5 10 32.8
    endloop
  endfacet
  facet normal 0 1 0
    outer loop
      vertex 5.72205e-07 10 32.8
      vertex 4.5 10 27.8
      vertex 5.72205e-07 10 27.8
    endloop
  endfacet
  facet normal 0 0 -1
    outer loop
      vertex 5.72205e-07 10 32.8
      vertex 4.5 18 32.8
      vertex 4.5 10 32.8
    endloop
  endfacet
  facet normal -0 0 -1
    outer loop
      vertex 4.5 18 32.8
      vertex 5.72205e-07 10 32.8
      vertex 5.72205e-07 18 32.8
    endloop
  endfacet
  facet normal 0 -1 0
    outer loop
      vertex 5.72205e-07 50 27.8
      vertex 4.5 50 32.8
      vertex 5.72205e-07 50 32.8
    endloop
  endfacet
  facet normal 0 -1 -0
    outer loop
      vertex 4.5 50 32.8
      vertex 5.72205e-07 50 27.8
      vertex 4.5 50 27.8
    endloop
  endfacet
  facet normal -0 0 1
    outer loop
      vertex 5.72205e-07 50 27.8
      vertex 4.5 42 27.8
      vertex 4.5 50 27.8
    endloop
  endfacet
  facet normal 0 0 1
    outer loop
      vertex 4.5 42 27.8
      vertex 5.72205e-07 50 27.8
      vertex 5.72205e-07 42 27.8
    endloop
  endfacet
  facet normal 0 1 -0
    outer loop
      vertex 4.5 42 27.8
      vertex 5.72205e-07 42 32.8
      vertex 4.5 42 32.8
    endloop
  endfacet
  facet normal 0 1 0
    outer loop
      vertex 5.72205e-07 42 32.8
      vertex 4.5 42 27.8
      vertex 5.72205e-07 42 27.8
    endloop
  endfacet
  facet normal 0 0 -1
    outer loop
      vertex 5.72205e-07 42 32.8
      vertex 4.5 50 32.8
      vertex 4.5 42 32.8
    endloop
  endfacet
  facet normal -0 0 -1
    outer loop
      vertex 4.5 50 32.8
      vertex 5.72205e-07 42 32.8
      vertex 5.72205e-07 50 32.8
    endloop
  endfacet
  facet normal 0 -1 0
    outer loop
      vertex 5.72205e-07 82 27.8
      vertex 4.5 82 32.8
      vertex 5.72205e-07 82 32.8
    endloop
  endfacet
  facet normal 0 -1 -0
    outer loop
      vertex 4.5 82 32.8
      vertex 5.72205e-07 82 27.8
      vertex 4.5 82 27.8
    endloop
  endfacet
  facet normal 0 1 -0
    outer loop
      vertex 4.5 74 27.8
      vertex 5.72205e-07 74 32.8
      vertex 4.5 74 32.8
    endloop
  endfacet
  facet normal 0 1 0
    outer loop
      vertex 5.72205e-07 74 32.8
      vertex 4.5 74 27.8
      vertex 5.72205e-07 74 27.8
    endloop
  endfacet
  facet normal 0 0 -1
    outer loop
      vertex 5.72205e-07 74 32.8
      vertex 4.5 82 32.8
      vertex 4.5 74 32.8
    endloop
  endfacet
  facet normal -0 0 -1
    outer loop
      vertex 4.5 82 32.8
      vertex 5.72205e-07 74 32.8
      vertex 5.72205e-07 82 32.8
    endloop
  endfacet
  facet normal -0 0 1
    outer loop
      vertex 5.72205e-07 82 27.8
      vertex 4.5 74 27.8
      vertex 4.5 82 27.8
    endloop
  endfacet
  facet normal 0 0 1
    outer loop
      vertex 4.5 74 27.8
      vertex 5.72205e-07 82 27.8
      vertex 5.72205e-07 74 27.8
    endloop
  endfacet
  facet normal -1 0 0
    outer loop
      vertex 5.72205e-07 82 32.8
      vertex 5.72205e-07 92 3.8147e-07
      vertex 5.72205e-07 82 27.8
    endloop
  endfacet
  facet normal -1 0 0
    outer loop
      vertex 5.72205e-07 92 3.8147e-07
      vertex 5.72205e-07 74 27.8
      vertex 5.72205e-07 82 27.8
    endloop
  endfacet
  facet normal -1 0 0
    outer loop
      vertex 5.72205e-07 74 27.8
      vertex 5.72205e-07 50 27.8
      vertex 5.72205e-07 74 32.8
    endloop
  endfacet
  facet normal -1 0 0
    outer loop
      vertex 5.72205e-07 92 3.8147e-07
      vertex 5.72205e-07 50 27.8
      vertex 5.72205e-07 74 27.8
    endloop
  endfacet
  facet normal -1 0 0
    outer loop
      vertex 5.72205e-07 92 3.8147e-07
      vertex 5.72205e-07 42 27.8
      vertex 5.72205e-07 50 27.8
    endloop
  endfacet
  facet normal -1 0 0
    outer loop
      vertex 5.72205e-07 42 27.8
      vertex 5.72205e-07 18 27.8
      vertex 5.72205e-07 42 32.8
    endloop
  endfacet
  facet normal -1 0 0
    outer loop
      vertex 5.72205e-07 0 3.8147e-07
      vertex 5.72205e-07 42 27.8
      vertex 5.72205e-07 92 3.8147e-07
    endloop
  endfacet
  facet normal -1 -0 0
    outer loop
      vertex 5.72205e-07 42 27.8
      vertex 5.72205e-07 0 3.8147e-07
      vertex 5.72205e-07 18 27.8
    endloop
  endfacet
  facet normal -1 -0 0
    outer loop
      vertex 5.72205e-07 10 27.8
      vertex 5.72205e-07 0 3.8147e-07
      vertex 5.72205e-07 10 32.8
    endloop
  endfacet
  facet normal -1 -0 0
    outer loop
      vertex 5.72205e-07 18 27.8
      vertex 5.72205e-07 0 3.8147e-07
      vertex 5.72205e-07 10 27.8
    endloop
  endfacet
  facet normal -1 0 0
    outer loop
      vertex 5.72205e-07 92 3.8147e-07
      vertex 5.72205e-07 82 32.8
      vertex 5.72205e-07 92 132.4
    endloop
  endfacet
  facet normal -1 0 0
    outer loop
      vertex 5.72205e-07 74 32.8
      vertex 5.72205e-07 92 132.4
      vertex 5.72205e-07 82 32.8
    endloop
  endfacet
  facet normal -1 0 0
    outer loop
      vertex 5.72205e-07 50 32.8
      vertex 5.72205e-07 74 32.8
      vertex 5.72205e-07 50 27.8
    endloop
  endfacet
  facet normal -1 0 0
    outer loop
      vertex 5.72205e-07 74 32.8
      vertex 5.72205e-07 50 32.8
      vertex 5.72205e-07 92 132.4
    endloop
  endfacet
  facet normal -1 0 0
    outer loop
      vertex 5.72205e-07 42 32.8
      vertex 5.72205e-07 92 132.4
      vertex 5.72205e-07 50 32.8
    endloop
  endfacet
  facet normal -1 0 0
    outer loop
      vertex 5.72205e-07 18 32.8
      vertex 5.72205e-07 42 32.8
      vertex 5.72205e-07 18 27.8
    endloop
  endfacet
  facet normal -1 0 0
    outer loop
      vertex 5.72205e-07 0 132.4
      vertex 5.72205e-07 42 32.8
      vertex 5.72205e-07 18 32.8
    endloop
  endfacet
  facet normal -1 0 0
    outer loop
      vertex 5.72205e-07 0 132.4
      vertex 5.72205e-07 18 32.8
      vertex 5.72205e-07 10 32.8
    endloop
  endfacet
  facet normal -1 0 0
    outer loop
      vertex 5.72205e-07 42 32.8
      vertex 5.72205e-07 0 132.4
      vertex 5.72205e-07 92 132.4
    endloop
  endfacet
  facet normal -1 0 0
    outer loop
      vertex 5.72205e-07 0 132.4
      vertex 5.72205e-07 10 32.8
      vertex 5.72205e-07 0 3.8147e-07
    endloop
  endfacet
  facet normal 0 1 0
    outer loop
      vertex 56.1 92 4.5
      vertex 56.1 92 3.8147e-07
      vertex 4.5 92 4.5
    endloop
  endfacet
  facet normal 0 1 0
    outer loop
      vertex 4.5 92 130.48
      vertex 5.72205e-07 92 132.4
      vertex 2.57999 92 132.4
    endloop
  endfacet
  facet normal 0 1 -0
    outer loop
      vertex 4.5 92 4.5
      vertex 5.72205e-07 92 132.4
      vertex 4.5 92 130.48
    endloop
  endfacet
  facet normal 0 1 0
    outer loop
      vertex 4.5 92 4.5
      vertex 5.72205e-07 92 3.8147e-07
      vertex 5.72205e-07 92 132.4
    endloop
  endfacet
  facet normal 0 1 0
    outer loop
      vertex 5.72205e-07 92 3.8147e-07
      vertex 4.5 92 4.5
      vertex 56.1 92 3.8147e-07
    endloop
  endfacet
  facet normal 1 0 0
    outer loop
      vertex 4.5 92 130.48
      vertex 4.5 82 32.8
      vertex 4.5 92 4.5
    endloop
  endfacet
  facet normal 1 0 0
    outer loop
      vertex 4.5 92 130.48
      vertex 4.5 74 32.8
      vertex 4.5 82 32.8
    endloop
  endfacet
  facet normal 1 0 0
    outer loop
      vertex 4.5 74 32.8
      vertex 4.5 50 32.8
      vertex 4.5 74 27.8
    endloop
  endfacet
  facet normal 1 0 0
    outer loop
      vertex 4.5 92 130.48
      vertex 4.5 50 32.8
      vertex 4.5 74 32.8
    endloop
  endfacet
  facet normal 1 0 0
    outer loop
      vertex 4.5 92 130.48
      vertex 4.5 42 32.8
      vertex 4.5 50 32.8
    endloop
  endfacet
  facet normal 1 0 0
    outer loop
      vertex 4.5 42 32.8
      vertex 4.5 18 32.8
      vertex 4.5 42 27.8
    endloop
  endfacet
  facet normal 1 -0 0
    outer loop
      vertex 4.5 0 130.48
      vertex 4.5 42 32.8
      vertex 4.5 92 130.48
    endloop
  endfacet
  facet normal 1 0 0
    outer loop
      vertex 4.5 42 32.8
      vertex 4.5 0 130.48
      vertex 4.5 18 32.8
    endloop
  endfacet
  facet normal 1 0 0
    outer loop
      vertex 4.5 0 4.5
      vertex 4.5 10 32.8
      vertex 4.5 0 130.48
    endloop
  endfacet
  facet normal 1 0 0
    outer loop
      vertex 4.5 18 32.8
      vertex 4.5 0 130.48
      vertex 4.5 10 32.8
    endloop
  endfacet
  facet normal 1 -0 0
    outer loop
      vertex 4.5 82 27.8
      vertex 4.5 92 4.5
      vertex 4.5 82 32.8
    endloop
  endfacet
  facet normal 1 -0 0
    outer loop
      vertex 4.5 74 27.8
      vertex 4.5 92 4.5
      vertex 4.5 82 27.8
    endloop
  endfacet
  facet normal 1 0 0
    outer loop
      vertex 4.5 50 27.8
      vertex 4.5 74 27.8
      vertex 4.5 50 32.8
    endloop
  endfacet
  facet normal 1 0 0
    outer loop
      vertex 4.5 74 27.8
      vertex 4.5 50 27.8
      vertex 4.5 92 4.5
    endloop
  endfacet
  facet normal 1 -0 0
    outer loop
      vertex 4.5 42 27.8
      vertex 4.5 92 4.5
      vertex 4.5 50 27.8
    endloop
  endfacet
  facet normal 1 0 0
    outer loop
      vertex 4.5 18 27.8
      vertex 4.5 42 27.8
      vertex 4.5 18 32.8
    endloop
  endfacet
  facet normal 1 0 0
    outer loop
      vertex 4.5 0 4.5
      vertex 4.5 42 27.8
      vertex 4.5 18 27.8
    endloop
  endfacet
  facet normal 1 0 0
    outer loop
      vertex 4.5 0 4.5
      vertex 4.5 18 27.8
      vertex 4.5 10 27.8
    endloop
  endfacet
  facet normal 1 0 0
    outer loop
      vertex 4.5 42 27.8
      vertex 4.5 0 4.5
      vertex 4.5 92 4.5
    endloop
  endfacet
  facet normal 1 0 0
    outer loop
      vertex 4.5 10 32.8
      vertex 4.5 0 4.5
      vertex 4.5 10 27.8
    endloop
  endfacet
  facet normal -0 0 1
    outer loop
      vertex 5.72205e-07 92 132.4
      vertex 2.57999 0 132.4
      vertex 2.57999 92 132.4
    endloop
  endfacet
  facet normal 0 0 1
    outer loop
      vertex 2.57999 0 132.4
      vertex 5.72205e-07 92 132.4
      vertex 5.72205e-07 0 132.4
    endloop
  endfacet
  facet normal 0.707105 -0 0.707109
    outer loop
      vertex 2.57999 0 132.4
      vertex 4.5 92 130.48
      vertex 2.57999 92 132.4
    endloop
  endfacet
  facet normal 0.707105 0 0.707109
    outer loop
      vertex 4.5 92 130.48
      vertex 2.57999 0 132.4
      vertex 4.5 0 130.48
    endloop
  endfacet
  facet normal -0 0 1
    outer loop
      vertex 4.5 92 4.5
      vertex 56.1 0 4.5
      vertex 56.1 92 4.5
    endloop
  endfacet
  facet normal 0 0 1
    outer loop
      vertex 56.1 0 4.5
      vertex 4.5 92 4.5
      vertex 4.5 0 4.5
    endloop
  endfacet
endsolid OpenSCAD_Model
