solid OpenSCAD_Model
  facet normal 0 1 -0
    outer loop
      vertex 84 2.4 161.36
      vertex 83.92 2.4 162.4
      vertex 84 2.4 162.4
    endloop
  endfacet
  facet normal 0 1 0
    outer loop
      vertex 83.92 2.4 162.4
      vertex 84 2.4 161.36
      vertex 83.92 2.4 161.28
    endloop
  endfacet
  facet normal -0.707107 0 0.707107
    outer loop
      vertex 83.92 2.4 161.28
      vertex 84 44.4 161.36
      vertex 83.92 44.4 161.28
    endloop
  endfacet
  facet normal -0.707107 0 0.707107
    outer loop
      vertex 84 44.4 161.36
      vertex 83.92 2.4 161.28
      vertex 84 2.4 161.36
    endloop
  endfacet
  facet normal 0 -1 0
    outer loop
      vertex 83.92 44.4 162.4
      vertex 84 44.4 161.36
      vertex 84 44.4 162.4
    endloop
  endfacet
  facet normal -0 -1 0
    outer loop
      vertex 84 44.4 161.36
      vertex 83.92 44.4 162.4
      vertex 83.92 44.4 161.28
    endloop
  endfacet
  facet normal 1 -0 0
    outer loop
      vertex 83.92 2.4 162.4
      vertex 83.92 44.4 161.28
      vertex 83.92 44.4 162.4
    endloop
  endfacet
  facet normal 1 0 0
    outer loop
      vertex 83.92 44.4 161.28
      vertex 83.92 2.4 162.4
      vertex 83.92 2.4 161.28
    endloop
  endfacet
  facet normal 0 1 0
    outer loop
      vertex 264.08 2.4 162.4
      vertex 264 2.4 161.36
      vertex 264 2.4 162.4
    endloop
  endfacet
  facet normal -0 1 0
    outer loop
      vertex 264 2.4 161.36
      vertex 264.08 2.4 162.4
      vertex 264.08 2.4 161.28
    endloop
  endfacet
  facet normal -1 0 0
    outer loop
      vertex 264.08 2.4 161.28
      vertex 264.08 44.4 162.4
      vertex 264.08 44.4 161.28
    endloop
  endfacet
  facet normal -1 -0 0
    outer loop
      vertex 264.08 44.4 162.4
      vertex 264.08 2.4 161.28
      vertex 264.08 2.4 162.4
    endloop
  endfacet
  facet normal 0 -1 0
    outer loop
      vertex 264 44.4 161.36
      vertex 264.08 44.4 162.4
      vertex 264 44.4 162.4
    endloop
  endfacet
  facet normal 0 -1 -0
    outer loop
      vertex 264.08 44.4 162.4
      vertex 264 44.4 161.36
      vertex 264.08 44.4 161.28
    endloop
  endfacet
  facet normal 0.707107 -0 0.707107
    outer loop
      vertex 264 2.4 161.36
      vertex 264.08 44.4 161.28
      vertex 264 44.4 161.36
    endloop
  endfacet
  facet normal 0.707107 0 0.707107
    outer loop
      vertex 264 2.4 161.36
      vertex 264.08 2.4 161.28
      vertex 264.08 44.4 161.28
    endloop
  endfacet
  facet normal 1 -0 0
    outer loop
      vertex 84 2.32001 162.4
      vertex 84 2.4 161.36
      vertex 84 2.4 162.4
    endloop
  endfacet
  facet normal 1 0 0
    outer loop
      vertex 84 2.4 161.36
      vertex 84 2.32001 162.4
      vertex 84 2.32001 161.28
    endloop
  endfacet
  facet normal 0 1 -0
    outer loop
      vertex 264 2.32001 161.28
      vertex 84 2.32001 162.4
      vertex 264 2.32001 162.4
    endloop
  endfacet
  facet normal 0 1 0
    outer loop
      vertex 84 2.32001 162.4
      vertex 264 2.32001 161.28
      vertex 84 2.32001 161.28
    endloop
  endfacet
  facet normal 0 -0.707151 0.707063
    outer loop
      vertex 84 2.4 161.36
      vertex 264 2.32001 161.28
      vertex 264 2.4 161.36
    endloop
  endfacet
  facet normal 0 -0.707151 0.707063
    outer loop
      vertex 264 2.32001 161.28
      vertex 84 2.4 161.36
      vertex 84 2.32001 161.28
    endloop
  endfacet
  facet normal -1 0 0
    outer loop
      vertex 264 2.32001 162.4
      vertex 264 2.4 161.36
      vertex 264 2.32001 161.28
    endloop
  endfacet
  facet normal -1 0 0
    outer loop
      vertex 264 2.4 161.36
      vertex 264 2.32001 162.4
      vertex 264 2.4 162.4
    endloop
  endfacet
  facet normal 1 0 0
    outer loop
      vertex 84 44.4 161.36
      vertex 84 44.48 162.4
      vertex 84 44.4 162.4
    endloop
  endfacet
  facet normal 1 0 0
    outer loop
      vertex 84 44.48 162.4
      vertex 84 44.4 161.36
      vertex 84 44.48 161.28
    endloop
  endfacet
  facet normal 0 0.707107 0.707107
    outer loop
      vertex 264 44.48 161.28
      vertex 84 44.4 161.36
      vertex 264 44.4 161.36
    endloop
  endfacet
  facet normal 0 0.707107 0.707107
    outer loop
      vertex 84 44.4 161.36
      vertex 264 44.48 161.28
      vertex 84 44.48 161.28
    endloop
  endfacet
  facet normal -1 0 0
    outer loop
      vertex 264 44.4 161.36
      vertex 264 44.48 162.4
      vertex 264 44.48 161.28
    endloop
  endfacet
  facet normal -1 -0 0
    outer loop
      vertex 264 44.48 162.4
      vertex 264 44.4 161.36
      vertex 264 44.4 162.4
    endloop
  endfacet
  facet normal 0 -1 0
    outer loop
      vertex 84 44.48 161.28
      vertex 264 44.48 162.4
      vertex 84 44.48 162.4
    endloop
  endfacet
  facet normal 0 -1 -0
    outer loop
      vertex 264 44.48 162.4
      vertex 84 44.48 161.28
      vertex 264 44.48 161.28
    endloop
  endfacet
  facet normal 0 1 -0
    outer loop
      vertex 84 46.8 161.36
      vertex 83.92 46.8 162.4
      vertex 84 46.8 162.4
    endloop
  endfacet
  facet normal 0 1 0
    outer loop
      vertex 83.92 46.8 162.4
      vertex 84 46.8 161.36
      vertex 83.92 46.8 161.28
    endloop
  endfacet
  facet normal -0.707107 0 0.707107
    outer loop
      vertex 83.92 46.8 161.28
      vertex 84 88.8 161.36
      vertex 83.92 88.8 161.28
    endloop
  endfacet
  facet normal -0.707107 0 0.707107
    outer loop
      vertex 84 88.8 161.36
      vertex 83.92 46.8 161.28
      vertex 84 46.8 161.36
    endloop
  endfacet
  facet normal 0 -1 0
    outer loop
      vertex 83.92 88.8 162.4
      vertex 84 88.8 161.36
      vertex 84 88.8 162.4
    endloop
  endfacet
  facet normal -0 -1 0
    outer loop
      vertex 84 88.8 161.36
      vertex 83.92 88.8 162.4
      vertex 83.92 88.8 161.28
    endloop
  endfacet
  facet normal 1 -0 0
    outer loop
      vertex 83.92 46.8 162.4
      vertex 83.92 88.8 161.28
      vertex 83.92 88.8 162.4
    endloop
  endfacet
  facet normal 1 0 0
    outer loop
      vertex 83.92 88.8 161.28
      vertex 83.92 46.8 162.4
      vertex 83.92 46.8 161.28
    endloop
  endfacet
  facet normal 0 1 0
    outer loop
      vertex 264.08 46.8 162.4
      vertex 264 46.8 161.36
      vertex 264 46.8 162.4
    endloop
  endfacet
  facet normal -0 1 0
    outer loop
      vertex 264 46.8 161.36
      vertex 264.08 46.8 162.4
      vertex 264.08 46.8 161.28
    endloop
  endfacet
  facet normal -1 0 0
    outer loop
      vertex 264.08 46.8 161.28
      vertex 264.08 88.8 162.4
      vertex 264.08 88.8 161.28
    endloop
  endfacet
  facet normal -1 -0 0
    outer loop
      vertex 264.08 88.8 162.4
      vertex 264.08 46.8 161.28
      vertex 264.08 46.8 162.4
    endloop
  endfacet
  facet normal 0 -1 0
    outer loop
      vertex 264 88.8 161.36
      vertex 264.08 88.8 162.4
      vertex 264 88.8 162.4
    endloop
  endfacet
  facet normal 0 -1 -0
    outer loop
      vertex 264.08 88.8 162.4
      vertex 264 88.8 161.36
      vertex 264.08 88.8 161.28
    endloop
  endfacet
  facet normal 0.707107 -0 0.707107
    outer loop
      vertex 264 46.8 161.36
      vertex 264.08 88.8 161.28
      vertex 264 88.8 161.36
    endloop
  endfacet
  facet normal 0.707107 0 0.707107
    outer loop
      vertex 264.08 88.8 161.28
      vertex 264 46.8 161.36
      vertex 264.08 46.8 161.28
    endloop
  endfacet
  facet normal 1 -0 0
    outer loop
      vertex 84 46.72 162.4
      vertex 84 46.8 161.36
      vertex 84 46.8 162.4
    endloop
  endfacet
  facet normal 1 0 0
    outer loop
      vertex 84 46.8 161.36
      vertex 84 46.72 162.4
      vertex 84 46.72 161.28
    endloop
  endfacet
  facet normal 0 1 -0
    outer loop
      vertex 264 46.72 161.28
      vertex 84 46.72 162.4
      vertex 264 46.72 162.4
    endloop
  endfacet
  facet normal 0 1 0
    outer loop
      vertex 84 46.72 162.4
      vertex 264 46.72 161.28
      vertex 84 46.72 161.28
    endloop
  endfacet
  facet normal 0 -0.707107 0.707107
    outer loop
      vertex 84 46.72 161.28
      vertex 264 46.8 161.36
      vertex 84 46.8 161.36
    endloop
  endfacet
  facet normal 0 -0.707107 0.707107
    outer loop
      vertex 264 46.8 161.36
      vertex 84 46.72 161.28
      vertex 264 46.72 161.28
    endloop
  endfacet
  facet normal -1 0 0
    outer loop
      vertex 264 46.72 162.4
      vertex 264 46.8 161.36
      vertex 264 46.72 161.28
    endloop
  endfacet
  facet normal -1 0 0
    outer loop
      vertex 264 46.8 161.36
      vertex 264 46.72 162.4
      vertex 264 46.8 162.4
    endloop
  endfacet
  facet normal 1 0 0
    outer loop
      vertex 84 88.8 161.36
      vertex 84 88.88 162.4
      vertex 84 88.8 162.4
    endloop
  endfacet
  facet normal 1 0 0
    outer loop
      vertex 84 88.88 162.4
      vertex 84 88.8 161.36
      vertex 84 88.88 161.28
    endloop
  endfacet
  facet normal 0 0.707107 0.707107
    outer loop
      vertex 264 88.88 161.28
      vertex 84 88.8 161.36
      vertex 264 88.8 161.36
    endloop
  endfacet
  facet normal 0 0.707107 0.707107
    outer loop
      vertex 84 88.8 161.36
      vertex 264 88.88 161.28
      vertex 84 88.88 161.28
    endloop
  endfacet
  facet normal -1 0 0
    outer loop
      vertex 264 88.8 161.36
      vertex 264 88.88 162.4
      vertex 264 88.88 161.28
    endloop
  endfacet
  facet normal -1 -0 0
    outer loop
      vertex 264 88.88 162.4
      vertex 264 88.8 161.36
      vertex 264 88.8 162.4
    endloop
  endfacet
  facet normal 0 -1 0
    outer loop
      vertex 84 88.88 161.28
      vertex 264 88.88 162.4
      vertex 84 88.88 162.4
    endloop
  endfacet
  facet normal 0 -1 -0
    outer loop
      vertex 264 88.88 162.4
      vertex 84 88.88 161.28
      vertex 264 88.88 161.28
    endloop
  endfacet
  facet normal 0 1 -0
    outer loop
      vertex 84 91.2 161.36
      vertex 83.92 91.2 162.4
      vertex 84 91.2 162.4
    endloop
  endfacet
  facet normal 0 1 0
    outer loop
      vertex 83.92 91.2 162.4
      vertex 84 91.2 161.36
      vertex 83.92 91.2 161.28
    endloop
  endfacet
  facet normal -0.707107 0 0.707107
    outer loop
      vertex 83.92 91.2 161.28
      vertex 84 133.2 161.36
      vertex 83.92 133.2 161.28
    endloop
  endfacet
  facet normal -0.707107 0 0.707107
    outer loop
      vertex 84 133.2 161.36
      vertex 83.92 91.2 161.28
      vertex 84 91.2 161.36
    endloop
  endfacet
  facet normal 0 -1 0
    outer loop
      vertex 83.92 133.2 162.4
      vertex 84 133.2 161.36
      vertex 84 133.2 162.4
    endloop
  endfacet
  facet normal -0 -1 0
    outer loop
      vertex 84 133.2 161.36
      vertex 83.92 133.2 162.4
      vertex 83.92 133.2 161.28
    endloop
  endfacet
  facet normal 1 -0 0
    outer loop
      vertex 83.92 91.2 162.4
      vertex 83.92 133.2 161.28
      vertex 83.92 133.2 162.4
    endloop
  endfacet
  facet normal 1 0 0
    outer loop
      vertex 83.92 133.2 161.28
      vertex 83.92 91.2 162.4
      vertex 83.92 91.2 161.28
    endloop
  endfacet
  facet normal 0 1 0
    outer loop
      vertex 264.08 91.2 162.4
      vertex 264 91.2 161.36
      vertex 264 91.2 162.4
    endloop
  endfacet
  facet normal -0 1 0
    outer loop
      vertex 264 91.2 161.36
      vertex 264.08 91.2 162.4
      vertex 264.08 91.2 161.28
    endloop
  endfacet
  facet normal -1 0 0
    outer loop
      vertex 264.08 91.2 161.28
      vertex 264.08 133.2 162.4
      vertex 264.08 133.2 161.28
    endloop
  endfacet
  facet normal -1 -0 0
    outer loop
      vertex 264.08 133.2 162.4
      vertex 264.08 91.2 161.28
      vertex 264.08 91.2 162.4
    endloop
  endfacet
  facet normal 0 -1 0
    outer loop
      vertex 264 133.2 161.36
      vertex 264.08 133.2 162.4
      vertex 264 133.2 162.4
    endloop
  endfacet
  facet normal 0 -1 -0
    outer loop
      vertex 264.08 133.2 162.4
      vertex 264 133.2 161.36
      vertex 264.08 133.2 161.28
    endloop
  endfacet
  facet normal 0.707107 -0 0.707107
    outer loop
      vertex 264 91.2 161.36
      vertex 264.08 133.2 161.28
      vertex 264 133.2 161.36
    endloop
  endfacet
  facet normal 0.707107 0 0.707107
    outer loop
      vertex 264.08 133.2 161.28
      vertex 264 91.2 161.36
      vertex 264.08 91.2 161.28
    endloop
  endfacet
  facet normal 1 -0 0
    outer loop
      vertex 84 91.12 162.4
      vertex 84 91.2 161.36
      vertex 84 91.2 162.4
    endloop
  endfacet
  facet normal 1 0 0
    outer loop
      vertex 84 91.2 161.36
      vertex 84 91.12 162.4
      vertex 84 91.12 161.28
    endloop
  endfacet
  facet normal 0 1 -0
    outer loop
      vertex 264 91.12 161.28
      vertex 84 91.12 162.4
      vertex 264 91.12 162.4
    endloop
  endfacet
  facet normal 0 1 0
    outer loop
      vertex 84 91.12 162.4
      vertex 264 91.12 161.28
      vertex 84 91.12 161.28
    endloop
  endfacet
  facet normal 0 -0.707107 0.707107
    outer loop
      vertex 84 91.12 161.28
      vertex 264 91.2 161.36
      vertex 84 91.2 161.36
    endloop
  endfacet
  facet normal 0 -0.707107 0.707107
    outer loop
      vertex 264 91.2 161.36
      vertex 84 91.12 161.28
      vertex 264 91.12 161.28
    endloop
  endfacet
  facet normal -1 0 0
    outer loop
      vertex 264 91.12 162.4
      vertex 264 91.2 161.36
      vertex 264 91.12 161.28
    endloop
  endfacet
  facet normal -1 0 0
    outer loop
      vertex 264 91.2 161.36
      vertex 264 91.12 162.4
      vertex 264 91.2 162.4
    endloop
  endfacet
  facet normal 1 0 0
    outer loop
      vertex 84 133.2 161.36
      vertex 84 133.28 162.4
      vertex 84 133.2 162.4
    endloop
  endfacet
  facet normal 1 0 0
    outer loop
      vertex 84 133.28 162.4
      vertex 84 133.2 161.36
      vertex 84 133.28 161.28
    endloop
  endfacet
  facet normal 0 0.707107 0.707107
    outer loop
      vertex 264 133.28 161.28
      vertex 84 133.2 161.36
      vertex 264 133.2 161.36
    endloop
  endfacet
  facet normal 0 0.707107 0.707107
    outer loop
      vertex 84 133.2 161.36
      vertex 264 133.28 161.28
      vertex 84 133.28 161.28
    endloop
  endfacet
  facet normal -1 0 0
    outer loop
      vertex 264 133.2 161.36
      vertex 264 133.28 162.4
      vertex 264 133.28 161.28
    endloop
  endfacet
  facet normal -1 -0 0
    outer loop
      vertex 264 133.28 162.4
      vertex 264 133.2 161.36
      vertex 264 133.2 162.4
    endloop
  endfacet
  facet normal 0 -1 0
    outer loop
      vertex 84 133.28 161.28
      vertex 264 133.28 162.4
      vertex 84 133.28 162.4
    endloop
  endfacet
  facet normal 0 -1 -0
    outer loop
      vertex 264 133.28 162.4
      vertex 84 133.28 161.28
      vertex 264 133.28 161.28
    endloop
  endfacet
  facet normal 1 -0 0
    outer loop
      vertex 84 2.4 161.36
      vertex 84 44.4 2.4
      vertex 84 44.4 161.36
    endloop
  endfacet
  facet normal 1 0 0
    outer loop
      vertex 84 2.4 161.36
      vertex 84 2.4 2.4
      vertex 84 44.4 2.4
    endloop
  endfacet
  facet normal 0 0 0
    outer loop
      vertex 84 2.4 2.4
      vertex 84 2.4 161.36
      vertex 84 2.4 162.4
    endloop
  endfacet
  facet normal 0 -1 0
    outer loop
      vertex 84 44.4 2.4
      vertex 264 44.4 161.36
      vertex 84 44.4 161.36
    endloop
  endfacet
  facet normal 0 -1 -0
    outer loop
      vertex 264 44.4 161.36
      vertex 84 44.4 2.4
      vertex 264 44.4 2.4
    endloop
  endfacet
  facet normal -1 0 0
    outer loop
      vertex 264 44.4 2.4
      vertex 264 2.4 161.36
      vertex 264 44.4 161.36
    endloop
  endfacet
  facet normal -1 0 0
    outer loop
      vertex 264 2.4 2.4
      vertex 264 2.4 161.36
      vertex 264 44.4 2.4
    endloop
  endfacet
  facet normal -0 0 1
    outer loop
      vertex 84 44.4 2.4
      vertex 264 2.4 2.4
      vertex 264 44.4 2.4
    endloop
  endfacet
  facet normal 0 0 1
    outer loop
      vertex 264 2.4 2.4
      vertex 84 44.4 2.4
      vertex 84 2.4 2.4
    endloop
  endfacet
  facet normal 0 1 -0
    outer loop
      vertex 264 2.4 2.4
      vertex 84 2.4 161.36
      vertex 264 2.4 161.36
    endloop
  endfacet
  facet normal 0 1 0
    outer loop
      vertex 84 2.4 161.36
      vertex 264 2.4 2.4
      vertex 84 2.4 2.4
    endloop
  endfacet
  facet normal 0 0 0
    outer loop
      vertex 84 2.4 2.4
      vertex 84 2.4 162.4
      vertex 84 2.4 161.36
    endloop
  endfacet
  facet normal 1 -0 0
    outer loop
      vertex 84 46.8 161.36
      vertex 84 88.8 2.4
      vertex 84 88.8 161.36
    endloop
  endfacet
  facet normal 1 0 0
    outer loop
      vertex 84 88.8 2.4
      vertex 84 46.8 161.36
      vertex 84 46.8 2.4
    endloop
  endfacet
  facet normal 0 0 0
    outer loop
      vertex 84 46.8 2.4
      vertex 84 46.8 161.36
      vertex 84 46.8 162.4
    endloop
  endfacet
  facet normal 0 -1 0
    outer loop
      vertex 84 88.8 2.4
      vertex 264 88.8 161.36
      vertex 84 88.8 161.36
    endloop
  endfacet
  facet normal 0 -1 -0
    outer loop
      vertex 264 88.8 161.36
      vertex 84 88.8 2.4
      vertex 264 88.8 2.4
    endloop
  endfacet
  facet normal -1 0 0
    outer loop
      vertex 264 46.8 2.4
      vertex 264 88.8 161.36
      vertex 264 88.8 2.4
    endloop
  endfacet
  facet normal -1 -0 0
    outer loop
      vertex 264 88.8 161.36
      vertex 264 46.8 2.4
      vertex 264 46.8 161.36
    endloop
  endfacet
  facet normal -0 0 1
    outer loop
      vertex 84 88.8 2.4
      vertex 264 46.8 2.4
      vertex 264 88.8 2.4
    endloop
  endfacet
  facet normal 0 0 1
    outer loop
      vertex 264 46.8 2.4
      vertex 84 88.8 2.4
      vertex 84 46.8 2.4
    endloop
  endfacet
  facet normal 0 1 -0
    outer loop
      vertex 264 46.8 2.4
      vertex 84 46.8 161.36
      vertex 264 46.8 161.36
    endloop
  endfacet
  facet normal 0 1 0
    outer loop
      vertex 84 46.8 161.36
      vertex 264 46.8 2.4
      vertex 84 46.8 2.4
    endloop
  endfacet
  facet normal 0 0 0
    outer loop
      vertex 84 46.8 2.4
      vertex 84 46.8 162.4
      vertex 84 46.8 161.36
    endloop
  endfacet
  facet normal 1 -0 0
    outer loop
      vertex 84 91.2 161.36
      vertex 84 133.2 2.4
      vertex 84 133.2 161.36
    endloop
  endfacet
  facet normal 1 0 0
    outer loop
      vertex 84 133.2 2.4
      vertex 84 91.2 161.36
      vertex 84 91.2 2.4
    endloop
  endfacet
  facet normal -0 0 0
    outer loop
      vertex 84 91.2 161.36
      vertex 84 91.2 162.4
      vertex 84 91.2 2.4
    endloop
  endfacet
  facet normal 0 -1 0
    outer loop
      vertex 84 133.2 2.4
      vertex 264 133.2 161.36
      vertex 84 133.2 161.36
    endloop
  endfacet
  facet normal 0 -1 -0
    outer loop
      vertex 264 133.2 161.36
      vertex 84 133.2 2.4
      vertex 264 133.2 2.4
    endloop
  endfacet
  facet normal -1 0 0
    outer loop
      vertex 264 91.2 2.4
      vertex 264 133.2 161.36
      vertex 264 133.2 2.4
    endloop
  endfacet
  facet normal -1 -0 0
    outer loop
      vertex 264 133.2 161.36
      vertex 264 91.2 2.4
      vertex 264 91.2 161.36
    endloop
  endfacet
  facet normal -0 0 1
    outer loop
      vertex 84 133.2 2.4
      vertex 264 91.2 2.4
      vertex 264 133.2 2.4
    endloop
  endfacet
  facet normal 0 0 1
    outer loop
      vertex 264 91.2 2.4
      vertex 84 133.2 2.4
      vertex 84 91.2 2.4
    endloop
  endfacet
  facet normal 0 1 -0
    outer loop
      vertex 264 91.2 2.4
      vertex 84 91.2 161.36
      vertex 264 91.2 161.36
    endloop
  endfacet
  facet normal 0 1 0
    outer loop
      vertex 84 91.2 161.36
      vertex 264 91.2 2.4
      vertex 84 91.2 2.4
    endloop
  endfacet
  facet normal 0 0 0
    outer loop
      vertex 84 91.2 2.4
      vertex 84 91.2 162.4
      vertex 84 91.2 161.36
    endloop
  endfacet
  facet normal -1 0 0
    outer loop
      vertex 81.6 0 4.5
      vertex 81.6 135.6 76.1
      vertex 81.6 135.6 4.5
    endloop
  endfacet
  facet normal -1 -0 0
    outer loop
      vertex 81.6 135.6 76.1
      vertex 81.6 0 4.5
      vertex 81.6 0 76.1
    endloop
  endfacet
  facet normal -1 0 0
    outer loop
      vertex 81.6 135.6 4.5
      vertex 81.6 147.6 3.8147e-07
      vertex 81.6 135.6 3.8147e-07
    endloop
  endfacet
  facet normal -1 0 0
    outer loop
      vertex 81.6 135.6 76.1
      vertex 81.6 147.6 3.8147e-07
      vertex 81.6 135.6 4.5
    endloop
  endfacet
  facet normal -1 0 0
    outer loop
      vertex 81.6 135.6 80.6
      vertex 81.6 147.6 3.8147e-07
      vertex 81.6 135.6 76.1
    endloop
  endfacet
  facet normal -1 0 0
    outer loop
      vertex 81.6 147.6 3.8147e-07
      vertex 81.6 135.6 80.6
      vertex 81.6 147.6 162.4
    endloop
  endfacet
  facet normal -1 0 0
    outer loop
      vertex 81.6 0 162.4
      vertex 81.6 135.6 80.6
      vertex 81.6 0 80.6
    endloop
  endfacet
  facet normal -1 0 0
    outer loop
      vertex 81.6 135.6 80.6
      vertex 81.6 0 162.4
      vertex 81.6 147.6 162.4
    endloop
  endfacet
  facet normal 0 1 -0
    outer loop
      vertex 264 135.6 2.4
      vertex 84 135.6 160
      vertex 264 135.6 160
    endloop
  endfacet
  facet normal 0 1 0
    outer loop
      vertex 84 135.6 160
      vertex 264 135.6 2.4
      vertex 84 135.6 2.4
    endloop
  endfacet
  facet normal 1 -0 0
    outer loop
      vertex 266.4 0 162.4
      vertex 266.4 147.6 3.8147e-07
      vertex 266.4 147.6 162.4
    endloop
  endfacet
  facet normal 1 0 0
    outer loop
      vertex 266.4 147.6 3.8147e-07
      vertex 266.4 0 162.4
      vertex 266.4 0 3.8147e-07
    endloop
  endfacet
  facet normal 0 0 -1
    outer loop
      vertex 3 73.8 3.8147e-07
      vertex 7 115.6 3.8147e-07
      vertex 7 73.8 3.8147e-07
    endloop
  endfacet
  facet normal -0 0 -1
    outer loop
      vertex 7 115.6 3.8147e-07
      vertex 3 73.8 3.8147e-07
      vertex 3 115.6 3.8147e-07
    endloop
  endfacet
  facet normal 0 0 -1
    outer loop
      vertex 3 20 3.8147e-07
      vertex 7 61.8 3.8147e-07
      vertex 7 20 3.8147e-07
    endloop
  endfacet
  facet normal -0 0 -1
    outer loop
      vertex 7 61.8 3.8147e-07
      vertex 3 20 3.8147e-07
      vertex 3 61.8 3.8147e-07
    endloop
  endfacet
  facet normal 0 0 -1
    outer loop
      vertex 266.4 0 3.8147e-07
      vertex 81.6 135.6 3.8147e-07
      vertex 266.4 147.6 3.8147e-07
    endloop
  endfacet
  facet normal 0 0 -1
    outer loop
      vertex 7 20 3.8147e-07
      vertex 266.4 0 3.8147e-07
      vertex 7 8 3.8147e-07
    endloop
  endfacet
  facet normal 0 0 -1
    outer loop
      vertex 5.72205e-07 0 3.8147e-07
      vertex 7 8 3.8147e-07
      vertex 266.4 0 3.8147e-07
    endloop
  endfacet
  facet normal 0 0 -1
    outer loop
      vertex 5.72205e-07 0 3.8147e-07
      vertex 3 20 3.8147e-07
      vertex 3 8 3.8147e-07
    endloop
  endfacet
  facet normal -0 0 -1
    outer loop
      vertex 3 20 3.8147e-07
      vertex 5.72205e-07 0 3.8147e-07
      vertex 3 61.8 3.8147e-07
    endloop
  endfacet
  facet normal -0 0 -1
    outer loop
      vertex 3 61.8 3.8147e-07
      vertex 5.72205e-07 0 3.8147e-07
      vertex 3 73.8 3.8147e-07
    endloop
  endfacet
  facet normal 0 0 -1
    outer loop
      vertex 5.72205e-07 135.6 3.8147e-07
      vertex 3 73.8 3.8147e-07
      vertex 5.72205e-07 0 3.8147e-07
    endloop
  endfacet
  facet normal 0 0 -1
    outer loop
      vertex 3 73.8 3.8147e-07
      vertex 5.72205e-07 135.6 3.8147e-07
      vertex 3 115.6 3.8147e-07
    endloop
  endfacet
  facet normal -0 0 -1
    outer loop
      vertex 7 8 3.8147e-07
      vertex 5.72205e-07 0 3.8147e-07
      vertex 3 8 3.8147e-07
    endloop
  endfacet
  facet normal -0 0 -1
    outer loop
      vertex 266.4 147.6 3.8147e-07
      vertex 81.6 135.6 3.8147e-07
      vertex 81.6 147.6 3.8147e-07
    endloop
  endfacet
  facet normal 0 0 -1
    outer loop
      vertex 266.4 0 3.8147e-07
      vertex 7 20 3.8147e-07
      vertex 81.6 135.6 3.8147e-07
    endloop
  endfacet
  facet normal 0 0 -1
    outer loop
      vertex 7 61.8 3.8147e-07
      vertex 81.6 135.6 3.8147e-07
      vertex 7 20 3.8147e-07
    endloop
  endfacet
  facet normal 0 0 -1
    outer loop
      vertex 7 73.8 3.8147e-07
      vertex 81.6 135.6 3.8147e-07
      vertex 7 61.8 3.8147e-07
    endloop
  endfacet
  facet normal 0 0 -1
    outer loop
      vertex 7 115.6 3.8147e-07
      vertex 81.6 135.6 3.8147e-07
      vertex 7 73.8 3.8147e-07
    endloop
  endfacet
  facet normal 0 0 -1
    outer loop
      vertex 7 127.6 3.8147e-07
      vertex 81.6 135.6 3.8147e-07
      vertex 7 115.6 3.8147e-07
    endloop
  endfacet
  facet normal 0 0 -1
    outer loop
      vertex 5.72205e-07 135.6 3.8147e-07
      vertex 7 127.6 3.8147e-07
      vertex 3 127.6 3.8147e-07
    endloop
  endfacet
  facet normal 0 0 -1
    outer loop
      vertex 7 127.6 3.8147e-07
      vertex 5.72205e-07 135.6 3.8147e-07
      vertex 81.6 135.6 3.8147e-07
    endloop
  endfacet
  facet normal 0 0 -1
    outer loop
      vertex 3 115.6 3.8147e-07
      vertex 5.72205e-07 135.6 3.8147e-07
      vertex 3 127.6 3.8147e-07
    endloop
  endfacet
  facet normal 0 -1 0
    outer loop
      vertex 5.72205e-07 0 4.5
      vertex 5.72205e-07 0 3.8147e-07
      vertex 81.6 0 4.5
    endloop
  endfacet
  facet normal 0 -1 0
    outer loop
      vertex 81.6 0 80.6
      vertex 266.4 0 162.4
      vertex 81.6 0 162.4
    endloop
  endfacet
  facet normal 0 -1 0
    outer loop
      vertex 81.6 0 76.1
      vertex 81.6 0 80.6
      vertex 5.72205e-07 0 76.1
    endloop
  endfacet
  facet normal 0 -1 0
    outer loop
      vertex 266.4 0 3.8147e-07
      vertex 81.6 0 80.6
      vertex 81.6 0 76.1
    endloop
  endfacet
  facet normal 0 -1 0
    outer loop
      vertex 266.4 0 3.8147e-07
      vertex 81.6 0 76.1
      vertex 81.6 0 4.5
    endloop
  endfacet
  facet normal 0 -1 0
    outer loop
      vertex 81.6 0 80.6
      vertex 266.4 0 3.8147e-07
      vertex 266.4 0 162.4
    endloop
  endfacet
  facet normal 0 -1 0
    outer loop
      vertex 266.4 0 3.8147e-07
      vertex 81.6 0 4.5
      vertex 5.72205e-07 0 3.8147e-07
    endloop
  endfacet
  facet normal 0 -1 0
    outer loop
      vertex 5.72205e-07 0 80.6
      vertex 5.72205e-07 0 76.1
      vertex 81.6 0 80.6
    endloop
  endfacet
  facet normal 0 0 1
    outer loop
      vertex 84 2.4 162.4
      vertex 83.92 2.4 162.4
      vertex 84 2.32001 162.4
    endloop
  endfacet
  facet normal -0 0 1
    outer loop
      vertex 83.92 46.8 162.4
      vertex 84 46.72 162.4
      vertex 84 46.8 162.4
    endloop
  endfacet
  facet normal 0 0 1
    outer loop
      vertex 84 46.72 162.4
      vertex 83.92 46.8 162.4
      vertex 84 44.48 162.4
    endloop
  endfacet
  facet normal 0 0 1
    outer loop
      vertex 83.92 44.4 162.4
      vertex 84 44.48 162.4
      vertex 83.92 46.8 162.4
    endloop
  endfacet
  facet normal 0 0 1
    outer loop
      vertex 84 44.48 162.4
      vertex 83.92 44.4 162.4
      vertex 84 44.4 162.4
    endloop
  endfacet
  facet normal -0 0 1
    outer loop
      vertex 83.92 91.2 162.4
      vertex 84 91.12 162.4
      vertex 84 91.2 162.4
    endloop
  endfacet
  facet normal 0 0 1
    outer loop
      vertex 84 91.12 162.4
      vertex 83.92 91.2 162.4
      vertex 84 88.88 162.4
    endloop
  endfacet
  facet normal 0 0 1
    outer loop
      vertex 83.92 88.8 162.4
      vertex 84 88.88 162.4
      vertex 83.92 91.2 162.4
    endloop
  endfacet
  facet normal 0 0 1
    outer loop
      vertex 84 88.88 162.4
      vertex 83.92 88.8 162.4
      vertex 84 88.8 162.4
    endloop
  endfacet
  facet normal -0 0 1
    outer loop
      vertex 81.6 147.6 162.4
      vertex 84 139.6 162.4
      vertex 84 147.6 162.4
    endloop
  endfacet
  facet normal 0 -0 1
    outer loop
      vertex 83.92 133.2 162.4
      vertex 84 139.6 162.4
      vertex 81.6 147.6 162.4
    endloop
  endfacet
  facet normal 0 0 1
    outer loop
      vertex 84 133.28 162.4
      vertex 83.92 133.2 162.4
      vertex 84 133.2 162.4
    endloop
  endfacet
  facet normal 0 0 1
    outer loop
      vertex 81.6 147.6 162.4
      vertex 83.92 91.2 162.4
      vertex 83.92 133.2 162.4
    endloop
  endfacet
  facet normal 0 0 1
    outer loop
      vertex 83.92 91.2 162.4
      vertex 81.6 147.6 162.4
      vertex 83.92 88.8 162.4
    endloop
  endfacet
  facet normal 0 0 1
    outer loop
      vertex 81.6 0 162.4
      vertex 83.92 88.8 162.4
      vertex 81.6 147.6 162.4
    endloop
  endfacet
  facet normal 0 0 1
    outer loop
      vertex 83.92 88.8 162.4
      vertex 81.6 0 162.4
      vertex 83.92 46.8 162.4
    endloop
  endfacet
  facet normal 0 0 1
    outer loop
      vertex 83.92 46.8 162.4
      vertex 81.6 0 162.4
      vertex 83.92 44.4 162.4
    endloop
  endfacet
  facet normal 0 0 1
    outer loop
      vertex 84 139.6 162.4
      vertex 83.92 133.2 162.4
      vertex 84 133.28 162.4
    endloop
  endfacet
  facet normal -0 0 1
    outer loop
      vertex 84 46.72 162.4
      vertex 264 44.48 162.4
      vertex 264 46.72 162.4
    endloop
  endfacet
  facet normal 0 0 1
    outer loop
      vertex 264 44.48 162.4
      vertex 84 46.72 162.4
      vertex 84 44.48 162.4
    endloop
  endfacet
  facet normal -0 0 1
    outer loop
      vertex 84 91.12 162.4
      vertex 264 88.88 162.4
      vertex 264 91.12 162.4
    endloop
  endfacet
  facet normal 0 0 1
    outer loop
      vertex 264 88.88 162.4
      vertex 84 91.12 162.4
      vertex 84 88.88 162.4
    endloop
  endfacet
  facet normal -0 0 1
    outer loop
      vertex 84 139.6 162.4
      vertex 264 133.28 162.4
      vertex 264 139.6 162.4
    endloop
  endfacet
  facet normal 0 0 1
    outer loop
      vertex 264 133.28 162.4
      vertex 84 139.6 162.4
      vertex 84 133.28 162.4
    endloop
  endfacet
  facet normal 0 0 1
    outer loop
      vertex 264 46.72 162.4
      vertex 264.08 46.8 162.4
      vertex 264 46.8 162.4
    endloop
  endfacet
  facet normal 0 0 1
    outer loop
      vertex 264.08 46.8 162.4
      vertex 264 46.72 162.4
      vertex 264.08 44.4 162.4
    endloop
  endfacet
  facet normal -0 0 1
    outer loop
      vertex 264 44.48 162.4
      vertex 264.08 44.4 162.4
      vertex 264 46.72 162.4
    endloop
  endfacet
  facet normal 0 0 1
    outer loop
      vertex 264.08 44.4 162.4
      vertex 264 44.48 162.4
      vertex 264 44.4 162.4
    endloop
  endfacet
  facet normal 0 0 1
    outer loop
      vertex 264 91.12 162.4
      vertex 264.08 91.2 162.4
      vertex 264 91.2 162.4
    endloop
  endfacet
  facet normal 0 0 1
    outer loop
      vertex 264.08 91.2 162.4
      vertex 264 91.12 162.4
      vertex 264.08 88.8 162.4
    endloop
  endfacet
  facet normal -0 0 1
    outer loop
      vertex 264 88.88 162.4
      vertex 264.08 88.8 162.4
      vertex 264 91.12 162.4
    endloop
  endfacet
  facet normal 0 0 1
    outer loop
      vertex 264.08 88.8 162.4
      vertex 264 88.88 162.4
      vertex 264 88.8 162.4
    endloop
  endfacet
  facet normal 0 0 1
    outer loop
      vertex 264.08 91.2 162.4
      vertex 266.4 147.6 162.4
      vertex 264.08 133.2 162.4
    endloop
  endfacet
  facet normal 0 0 1
    outer loop
      vertex 264 139.6 162.4
      vertex 266.4 147.6 162.4
      vertex 264 147.6 162.4
    endloop
  endfacet
  facet normal 0 0 1
    outer loop
      vertex 266.4 147.6 162.4
      vertex 264 139.6 162.4
      vertex 264.08 133.2 162.4
    endloop
  endfacet
  facet normal -0 0 1
    outer loop
      vertex 264 133.28 162.4
      vertex 264.08 133.2 162.4
      vertex 264 139.6 162.4
    endloop
  endfacet
  facet normal 0 0 1
    outer loop
      vertex 264.08 133.2 162.4
      vertex 264 133.28 162.4
      vertex 264 133.2 162.4
    endloop
  endfacet
  facet normal 0 0 1
    outer loop
      vertex 264.08 88.8 162.4
      vertex 266.4 147.6 162.4
      vertex 264.08 91.2 162.4
    endloop
  endfacet
  facet normal 0 0 1
    outer loop
      vertex 266.4 147.6 162.4
      vertex 264.08 88.8 162.4
      vertex 266.4 0 162.4
    endloop
  endfacet
  facet normal -0 0 1
    outer loop
      vertex 264.08 46.8 162.4
      vertex 266.4 0 162.4
      vertex 264.08 88.8 162.4
    endloop
  endfacet
  facet normal -0 0 1
    outer loop
      vertex 264.08 44.4 162.4
      vertex 266.4 0 162.4
      vertex 264.08 46.8 162.4
    endloop
  endfacet
  facet normal -0 0 1
    outer loop
      vertex 264.08 2.4 162.4
      vertex 266.4 0 162.4
      vertex 264.08 44.4 162.4
    endloop
  endfacet
  facet normal 0 0 1
    outer loop
      vertex 264 2.32001 162.4
      vertex 264.08 2.4 162.4
      vertex 264 2.4 162.4
    endloop
  endfacet
  facet normal 0 0 1
    outer loop
      vertex 264.08 2.4 162.4
      vertex 264 2.32001 162.4
      vertex 266.4 0 162.4
    endloop
  endfacet
  facet normal -0 0 1
    outer loop
      vertex 84 2.32001 162.4
      vertex 266.4 0 162.4
      vertex 264 2.32001 162.4
    endloop
  endfacet
  facet normal 0 0 1
    outer loop
      vertex 84 2.32001 162.4
      vertex 81.6 0 162.4
      vertex 266.4 0 162.4
    endloop
  endfacet
  facet normal 0 0 1
    outer loop
      vertex 83.92 2.4 162.4
      vertex 81.6 0 162.4
      vertex 84 2.32001 162.4
    endloop
  endfacet
  facet normal 0 0 1
    outer loop
      vertex 83.92 44.4 162.4
      vertex 81.6 0 162.4
      vertex 83.92 2.4 162.4
    endloop
  endfacet
  facet normal 0 1 0
    outer loop
      vertex 266.4 147.6 162.4
      vertex 264 147.6 2.4
      vertex 264 147.6 162.4
    endloop
  endfacet
  facet normal 0 1 0
    outer loop
      vertex 264 147.6 2.4
      vertex 266.4 147.6 3.8147e-07
      vertex 84 147.6 2.4
    endloop
  endfacet
  facet normal 0 1 -0
    outer loop
      vertex 266.4 147.6 3.8147e-07
      vertex 264 147.6 2.4
      vertex 266.4 147.6 162.4
    endloop
  endfacet
  facet normal 0 1 -0
    outer loop
      vertex 84 147.6 2.4
      vertex 81.6 147.6 162.4
      vertex 84 147.6 162.4
    endloop
  endfacet
  facet normal 0 1 0
    outer loop
      vertex 84 147.6 2.4
      vertex 81.6 147.6 3.8147e-07
      vertex 81.6 147.6 162.4
    endloop
  endfacet
  facet normal 0 1 0
    outer loop
      vertex 81.6 147.6 3.8147e-07
      vertex 84 147.6 2.4
      vertex 266.4 147.6 3.8147e-07
    endloop
  endfacet
  facet normal 1 0 0
    outer loop
      vertex 84 139.6 160
      vertex 84 147.6 162.4
      vertex 84 139.6 162.4
    endloop
  endfacet
  facet normal 1 0 0
    outer loop
      vertex 84 147.6 162.4
      vertex 84 139.6 160
      vertex 84 147.6 2.4
    endloop
  endfacet
  facet normal 1 0 0
    outer loop
      vertex 84 135.6 2.4
      vertex 84 139.6 160
      vertex 84 135.6 160
    endloop
  endfacet
  facet normal 1 0 0
    outer loop
      vertex 84 139.6 160
      vertex 84 135.6 2.4
      vertex 84 147.6 2.4
    endloop
  endfacet
  facet normal -1 0 0
    outer loop
      vertex 264 147.6 2.4
      vertex 264 139.6 160
      vertex 264 147.6 162.4
    endloop
  endfacet
  facet normal -1 0 0
    outer loop
      vertex 264 135.6 2.4
      vertex 264 139.6 160
      vertex 264 147.6 2.4
    endloop
  endfacet
  facet normal -1 -0 0
    outer loop
      vertex 264 139.6 160
      vertex 264 135.6 2.4
      vertex 264 135.6 160
    endloop
  endfacet
  facet normal -1 -0 0
    outer loop
      vertex 264 147.6 162.4
      vertex 264 139.6 160
      vertex 264 139.6 162.4
    endloop
  endfacet
  facet normal -0 0 1
    outer loop
      vertex 84 147.6 2.4
      vertex 264 135.6 2.4
      vertex 264 147.6 2.4
    endloop
  endfacet
  facet normal 0 0 1
    outer loop
      vertex 264 135.6 2.4
      vertex 84 147.6 2.4
      vertex 84 135.6 2.4
    endloop
  endfacet
  facet normal 0 1 -0
    outer loop
      vertex 264 139.6 160
      vertex 84 139.6 162.4
      vertex 264 139.6 162.4
    endloop
  endfacet
  facet normal 0 1 0
    outer loop
      vertex 84 139.6 162.4
      vertex 264 139.6 160
      vertex 84 139.6 160
    endloop
  endfacet
  facet normal 0 0 -1
    outer loop
      vertex 84 135.6 160
      vertex 264 139.6 160
      vertex 264 135.6 160
    endloop
  endfacet
  facet normal -0 0 -1
    outer loop
      vertex 264 139.6 160
      vertex 84 135.6 160
      vertex 84 139.6 160
    endloop
  endfacet
  facet normal -1 0 0
    outer loop
      vertex 5.72205e-07 0 76.1
      vertex 5.72205e-07 135.6 80.6
      vertex 5.72205e-07 135.6 76.1
    endloop
  endfacet
  facet normal -1 -0 0
    outer loop
      vertex 5.72205e-07 135.6 80.6
      vertex 5.72205e-07 0 76.1
      vertex 5.72205e-07 0 80.6
    endloop
  endfacet
  facet normal 0 1 -0
    outer loop
      vertex 81.6 135.6 76.1
      vertex 5.72205e-07 135.6 80.6
      vertex 81.6 135.6 80.6
    endloop
  endfacet
  facet normal 0 1 0
    outer loop
      vertex 5.72205e-07 135.6 80.6
      vertex 81.6 135.6 76.1
      vertex 5.72205e-07 135.6 76.1
    endloop
  endfacet
  facet normal -0 0 1
    outer loop
      vertex 3 61.8 80.6
      vertex 7 20 80.6
      vertex 7 61.8 80.6
    endloop
  endfacet
  facet normal 0 0 1
    outer loop
      vertex 7 20 80.6
      vertex 3 61.8 80.6
      vertex 3 20 80.6
    endloop
  endfacet
  facet normal -0 0 1
    outer loop
      vertex 3 115.6 80.6
      vertex 7 73.8 80.6
      vertex 7 115.6 80.6
    endloop
  endfacet
  facet normal 0 0 1
    outer loop
      vertex 7 73.8 80.6
      vertex 3 115.6 80.6
      vertex 3 73.8 80.6
    endloop
  endfacet
  facet normal 0 0 1
    outer loop
      vertex 7 115.6 80.6
      vertex 81.6 135.6 80.6
      vertex 7 127.6 80.6
    endloop
  endfacet
  facet normal -0 0 1
    outer loop
      vertex 5.72205e-07 135.6 80.6
      vertex 7 127.6 80.6
      vertex 81.6 135.6 80.6
    endloop
  endfacet
  facet normal 0 0 1
    outer loop
      vertex 5.72205e-07 135.6 80.6
      vertex 3 115.6 80.6
      vertex 3 127.6 80.6
    endloop
  endfacet
  facet normal 0 0 1
    outer loop
      vertex 3 115.6 80.6
      vertex 5.72205e-07 135.6 80.6
      vertex 3 73.8 80.6
    endloop
  endfacet
  facet normal 0 0 1
    outer loop
      vertex 3 73.8 80.6
      vertex 5.72205e-07 135.6 80.6
      vertex 3 61.8 80.6
    endloop
  endfacet
  facet normal 0 0 1
    outer loop
      vertex 5.72205e-07 0 80.6
      vertex 3 61.8 80.6
      vertex 5.72205e-07 135.6 80.6
    endloop
  endfacet
  facet normal 0 0 1
    outer loop
      vertex 3 61.8 80.6
      vertex 5.72205e-07 0 80.6
      vertex 3 20 80.6
    endloop
  endfacet
  facet normal 0 0 1
    outer loop
      vertex 7 127.6 80.6
      vertex 5.72205e-07 135.6 80.6
      vertex 3 127.6 80.6
    endloop
  endfacet
  facet normal 0 0 1
    outer loop
      vertex 7 73.8 80.6
      vertex 81.6 135.6 80.6
      vertex 7 115.6 80.6
    endloop
  endfacet
  facet normal 0 0 1
    outer loop
      vertex 81.6 135.6 80.6
      vertex 7 73.8 80.6
      vertex 81.6 0 80.6
    endloop
  endfacet
  facet normal -0 0 1
    outer loop
      vertex 7 61.8 80.6
      vertex 81.6 0 80.6
      vertex 7 73.8 80.6
    endloop
  endfacet
  facet normal -0 0 1
    outer loop
      vertex 7 20 80.6
      vertex 81.6 0 80.6
      vertex 7 61.8 80.6
    endloop
  endfacet
  facet normal -0 0 1
    outer loop
      vertex 7 8 80.6
      vertex 81.6 0 80.6
      vertex 7 20 80.6
    endloop
  endfacet
  facet normal 0 0 1
    outer loop
      vertex 5.72205e-07 0 80.6
      vertex 7 8 80.6
      vertex 3 8 80.6
    endloop
  endfacet
  facet normal 0 0 1
    outer loop
      vertex 7 8 80.6
      vertex 5.72205e-07 0 80.6
      vertex 81.6 0 80.6
    endloop
  endfacet
  facet normal 0 0 1
    outer loop
      vertex 3 20 80.6
      vertex 5.72205e-07 0 80.6
      vertex 3 8 80.6
    endloop
  endfacet
  facet normal 0 0 -1
    outer loop
      vertex 3 73.8 76.1
      vertex 7 115.6 76.1
      vertex 7 73.8 76.1
    endloop
  endfacet
  facet normal -0 0 -1
    outer loop
      vertex 7 115.6 76.1
      vertex 3 73.8 76.1
      vertex 3 115.6 76.1
    endloop
  endfacet
  facet normal 0 0 -1
    outer loop
      vertex 3 20 76.1
      vertex 7 61.8 76.1
      vertex 7 20 76.1
    endloop
  endfacet
  facet normal -0 0 -1
    outer loop
      vertex 7 61.8 76.1
      vertex 3 20 76.1
      vertex 3 61.8 76.1
    endloop
  endfacet
  facet normal 0 0 -1
    outer loop
      vertex 7 20 76.1
      vertex 81.6 0 76.1
      vertex 7 8 76.1
    endloop
  endfacet
  facet normal 0 0 -1
    outer loop
      vertex 5.72205e-07 0 76.1
      vertex 7 8 76.1
      vertex 81.6 0 76.1
    endloop
  endfacet
  facet normal 0 0 -1
    outer loop
      vertex 5.72205e-07 0 76.1
      vertex 3 20 76.1
      vertex 3 8 76.1
    endloop
  endfacet
  facet normal -0 0 -1
    outer loop
      vertex 3 20 76.1
      vertex 5.72205e-07 0 76.1
      vertex 3 61.8 76.1
    endloop
  endfacet
  facet normal -0 0 -1
    outer loop
      vertex 3 61.8 76.1
      vertex 5.72205e-07 0 76.1
      vertex 3 73.8 76.1
    endloop
  endfacet
  facet normal 0 0 -1
    outer loop
      vertex 5.72205e-07 135.6 76.1
      vertex 3 73.8 76.1
      vertex 5.72205e-07 0 76.1
    endloop
  endfacet
  facet normal 0 0 -1
    outer loop
      vertex 3 73.8 76.1
      vertex 5.72205e-07 135.6 76.1
      vertex 3 115.6 76.1
    endloop
  endfacet
  facet normal -0 0 -1
    outer loop
      vertex 7 8 76.1
      vertex 5.72205e-07 0 76.1
      vertex 3 8 76.1
    endloop
  endfacet
  facet normal 0 0 -1
    outer loop
      vertex 7 61.8 76.1
      vertex 81.6 0 76.1
      vertex 7 20 76.1
    endloop
  endfacet
  facet normal 0 0 -1
    outer loop
      vertex 81.6 0 76.1
      vertex 7 61.8 76.1
      vertex 81.6 135.6 76.1
    endloop
  endfacet
  facet normal 0 0 -1
    outer loop
      vertex 7 73.8 76.1
      vertex 81.6 135.6 76.1
      vertex 7 61.8 76.1
    endloop
  endfacet
  facet normal 0 0 -1
    outer loop
      vertex 7 115.6 76.1
      vertex 81.6 135.6 76.1
      vertex 7 73.8 76.1
    endloop
  endfacet
  facet normal 0 0 -1
    outer loop
      vertex 7 127.6 76.1
      vertex 81.6 135.6 76.1
      vertex 7 115.6 76.1
    endloop
  endfacet
  facet normal 0 0 -1
    outer loop
      vertex 5.72205e-07 135.6 76.1
      vertex 7 127.6 76.1
      vertex 3 127.6 76.1
    endloop
  endfacet
  facet normal 0 0 -1
    outer loop
      vertex 7 127.6 76.1
      vertex 5.72205e-07 135.6 76.1
      vertex 81.6 135.6 76.1
    endloop
  endfacet
  facet normal 0 0 -1
    outer loop
      vertex 3 115.6 76.1
      vertex 5.72205e-07 135.6 76.1
      vertex 3 127.6 76.1
    endloop
  endfacet
  facet normal -1 0 0
    outer loop
      vertex 5.72205e-07 0 3.8147e-07
      vertex 5.72205e-07 135.6 4.5
      vertex 5.72205e-07 135.6 3.8147e-07
    endloop
  endfacet
  facet normal -1 -0 0
    outer loop
      vertex 5.72205e-07 135.6 4.5
      vertex 5.72205e-07 0 3.8147e-07
      vertex 5.72205e-07 0 4.5
    endloop
  endfacet
  facet normal 0 1 -0
    outer loop
      vertex 81.6 135.6 3.8147e-07
      vertex 5.72205e-07 135.6 4.5
      vertex 81.6 135.6 4.5
    endloop
  endfacet
  facet normal 0 1 0
    outer loop
      vertex 5.72205e-07 135.6 4.5
      vertex 81.6 135.6 3.8147e-07
      vertex 5.72205e-07 135.6 3.8147e-07
    endloop
  endfacet
  facet normal -0 0 1
    outer loop
      vertex 3 61.8 4.5
      vertex 7 20 4.5
      vertex 7 61.8 4.5
    endloop
  endfacet
  facet normal 0 0 1
    outer loop
      vertex 7 20 4.5
      vertex 3 61.8 4.5
      vertex 3 20 4.5
    endloop
  endfacet
  facet normal -0 0 1
    outer loop
      vertex 3 115.6 4.5
      vertex 7 73.8 4.5
      vertex 7 115.6 4.5
    endloop
  endfacet
  facet normal 0 0 1
    outer loop
      vertex 7 73.8 4.5
      vertex 3 115.6 4.5
      vertex 3 73.8 4.5
    endloop
  endfacet
  facet normal 0 0 1
    outer loop
      vertex 7 115.6 4.5
      vertex 81.6 135.6 4.5
      vertex 7 127.6 4.5
    endloop
  endfacet
  facet normal -0 0 1
    outer loop
      vertex 5.72205e-07 135.6 4.5
      vertex 7 127.6 4.5
      vertex 81.6 135.6 4.5
    endloop
  endfacet
  facet normal 0 0 1
    outer loop
      vertex 5.72205e-07 135.6 4.5
      vertex 3 115.6 4.5
      vertex 3 127.6 4.5
    endloop
  endfacet
  facet normal 0 0 1
    outer loop
      vertex 3 115.6 4.5
      vertex 5.72205e-07 135.6 4.5
      vertex 3 73.8 4.5
    endloop
  endfacet
  facet normal 0 0 1
    outer loop
      vertex 3 73.8 4.5
      vertex 5.72205e-07 135.6 4.5
      vertex 3 61.8 4.5
    endloop
  endfacet
  facet normal 0 0 1
    outer loop
      vertex 5.72205e-07 0 4.5
      vertex 3 61.8 4.5
      vertex 5.72205e-07 135.6 4.5
    endloop
  endfacet
  facet normal 0 0 1
    outer loop
      vertex 3 61.8 4.5
      vertex 5.72205e-07 0 4.5
      vertex 3 20 4.5
    endloop
  endfacet
  facet normal 0 0 1
    outer loop
      vertex 7 127.6 4.5
      vertex 5.72205e-07 135.6 4.5
      vertex 3 127.6 4.5
    endloop
  endfacet
  facet normal 0 0 1
    outer loop
      vertex 7 73.8 4.5
      vertex 81.6 135.6 4.5
      vertex 7 115.6 4.5
    endloop
  endfacet
  facet normal 0 0 1
    outer loop
      vertex 81.6 135.6 4.5
      vertex 7 73.8 4.5
      vertex 81.6 0 4.5
    endloop
  endfacet
  facet normal -0 0 1
    outer loop
      vertex 7 61.8 4.5
      vertex 81.6 0 4.5
      vertex 7 73.8 4.5
    endloop
  endfacet
  facet normal -0 0 1
    outer loop
      vertex 7 20 4.5
      vertex 81.6 0 4.5
      vertex 7 61.8 4.5
    endloop
  endfacet
  facet normal -0 0 1
    outer loop
      vertex 7 8 4.5
      vertex 81.6 0 4.5
      vertex 7 20 4.5
    endloop
  endfacet
  facet normal 0 0 1
    outer loop
      vertex 5.72205e-07 0 4.5
      vertex 7 8 4.5
      vertex 3 8 4.5
    endloop
  endfacet
  facet normal 0 0 1
    outer loop
      vertex 7 8 4.5
      vertex 5.72205e-07 0 4.5
      vertex 81.6 0 4.5
    endloop
  endfacet
  facet normal 0 0 1
    outer loop
      vertex 3 20 4.5
      vertex 5.72205e-07 0 4.5
      vertex 3 8 4.5
    endloop
  endfacet
  facet normal 1 -0 0
    outer loop
      vertex 3 8 80.6
      vertex 3 20 76.1
      vertex 3 20 80.6
    endloop
  endfacet
  facet normal 1 0 0
    outer loop
      vertex 3 20 76.1
      vertex 3 8 80.6
      vertex 3 8 76.1
    endloop
  endfacet
  facet normal 0 -1 0
    outer loop
      vertex 3 20 76.1
      vertex 7 20 80.6
      vertex 3 20 80.6
    endloop
  endfacet
  facet normal 0 -1 -0
    outer loop
      vertex 7 20 80.6
      vertex 3 20 76.1
      vertex 7 20 76.1
    endloop
  endfacet
  facet normal -1 0 0
    outer loop
      vertex 7 8 76.1
      vertex 7 20 80.6
      vertex 7 20 76.1
    endloop
  endfacet
  facet normal -1 -0 0
    outer loop
      vertex 7 20 80.6
      vertex 7 8 76.1
      vertex 7 8 80.6
    endloop
  endfacet
  facet normal 0 1 -0
    outer loop
      vertex 7 8 76.1
      vertex 3 8 80.6
      vertex 7 8 80.6
    endloop
  endfacet
  facet normal 0 1 0
    outer loop
      vertex 3 8 80.6
      vertex 7 8 76.1
      vertex 3 8 76.1
    endloop
  endfacet
  facet normal 1 -0 0
    outer loop
      vertex 3 61.8 80.6
      vertex 3 73.8 76.1
      vertex 3 73.8 80.6
    endloop
  endfacet
  facet normal 1 0 0
    outer loop
      vertex 3 73.8 76.1
      vertex 3 61.8 80.6
      vertex 3 61.8 76.1
    endloop
  endfacet
  facet normal 0 -1 0
    outer loop
      vertex 3 73.8 76.1
      vertex 7 73.8 80.6
      vertex 3 73.8 80.6
    endloop
  endfacet
  facet normal 0 -1 -0
    outer loop
      vertex 7 73.8 80.6
      vertex 3 73.8 76.1
      vertex 7 73.8 76.1
    endloop
  endfacet
  facet normal -1 0 0
    outer loop
      vertex 7 61.8 76.1
      vertex 7 73.8 80.6
      vertex 7 73.8 76.1
    endloop
  endfacet
  facet normal -1 -0 0
    outer loop
      vertex 7 73.8 80.6
      vertex 7 61.8 76.1
      vertex 7 61.8 80.6
    endloop
  endfacet
  facet normal 0 1 -0
    outer loop
      vertex 7 61.8 76.1
      vertex 3 61.8 80.6
      vertex 7 61.8 80.6
    endloop
  endfacet
  facet normal 0 1 0
    outer loop
      vertex 3 61.8 80.6
      vertex 7 61.8 76.1
      vertex 3 61.8 76.1
    endloop
  endfacet
  facet normal 1 -0 0
    outer loop
      vertex 3 115.6 80.6
      vertex 3 127.6 76.1
      vertex 3 127.6 80.6
    endloop
  endfacet
  facet normal 1 0 0
    outer loop
      vertex 3 127.6 76.1
      vertex 3 115.6 80.6
      vertex 3 115.6 76.1
    endloop
  endfacet
  facet normal 0 -1 0
    outer loop
      vertex 3 127.6 76.1
      vertex 7 127.6 80.6
      vertex 3 127.6 80.6
    endloop
  endfacet
  facet normal 0 -1 -0
    outer loop
      vertex 7 127.6 80.6
      vertex 3 127.6 76.1
      vertex 7 127.6 76.1
    endloop
  endfacet
  facet normal -1 0 0
    outer loop
      vertex 7 115.6 76.1
      vertex 7 127.6 80.6
      vertex 7 127.6 76.1
    endloop
  endfacet
  facet normal -1 -0 0
    outer loop
      vertex 7 127.6 80.6
      vertex 7 115.6 76.1
      vertex 7 115.6 80.6
    endloop
  endfacet
  facet normal 0 1 -0
    outer loop
      vertex 7 115.6 76.1
      vertex 3 115.6 80.6
      vertex 7 115.6 80.6
    endloop
  endfacet
  facet normal 0 1 0
    outer loop
      vertex 3 115.6 80.6
      vertex 7 115.6 76.1
      vertex 3 115.6 76.1
    endloop
  endfacet
  facet normal 1 -0 0
    outer loop
      vertex 3 8 4.5
      vertex 3 20 3.8147e-07
      vertex 3 20 4.5
    endloop
  endfacet
  facet normal 1 0 0
    outer loop
      vertex 3 20 3.8147e-07
      vertex 3 8 4.5
      vertex 3 8 3.8147e-07
    endloop
  endfacet
  facet normal 0 -1 0
    outer loop
      vertex 3 20 3.8147e-07
      vertex 7 20 4.5
      vertex 3 20 4.5
    endloop
  endfacet
  facet normal 0 -1 -0
    outer loop
      vertex 7 20 4.5
      vertex 3 20 3.8147e-07
      vertex 7 20 3.8147e-07
    endloop
  endfacet
  facet normal -1 0 0
    outer loop
      vertex 7 8 3.8147e-07
      vertex 7 20 4.5
      vertex 7 20 3.8147e-07
    endloop
  endfacet
  facet normal -1 -0 0
    outer loop
      vertex 7 20 4.5
      vertex 7 8 3.8147e-07
      vertex 7 8 4.5
    endloop
  endfacet
  facet normal 0 1 -0
    outer loop
      vertex 7 8 3.8147e-07
      vertex 3 8 4.5
      vertex 7 8 4.5
    endloop
  endfacet
  facet normal 0 1 0
    outer loop
      vertex 3 8 4.5
      vertex 7 8 3.8147e-07
      vertex 3 8 3.8147e-07
    endloop
  endfacet
  facet normal 1 -0 0
    outer loop
      vertex 3 61.8 4.5
      vertex 3 73.8 3.8147e-07
      vertex 3 73.8 4.5
    endloop
  endfacet
  facet normal 1 0 0
    outer loop
      vertex 3 73.8 3.8147e-07
      vertex 3 61.8 4.5
      vertex 3 61.8 3.8147e-07
    endloop
  endfacet
  facet normal 0 -1 0
    outer loop
      vertex 3 73.8 3.8147e-07
      vertex 7 73.8 4.5
      vertex 3 73.8 4.5
    endloop
  endfacet
  facet normal 0 -1 -0
    outer loop
      vertex 7 73.8 4.5
      vertex 3 73.8 3.8147e-07
      vertex 7 73.8 3.8147e-07
    endloop
  endfacet
  facet normal -1 0 0
    outer loop
      vertex 7 61.8 3.8147e-07
      vertex 7 73.8 4.5
      vertex 7 73.8 3.8147e-07
    endloop
  endfacet
  facet normal -1 -0 0
    outer loop
      vertex 7 73.8 4.5
      vertex 7 61.8 3.8147e-07
      vertex 7 61.8 4.5
    endloop
  endfacet
  facet normal 0 1 -0
    outer loop
      vertex 7 61.8 3.8147e-07
      vertex 3 61.8 4.5
      vertex 7 61.8 4.5
    endloop
  endfacet
  facet normal 0 1 0
    outer loop
      vertex 3 61.8 4.5
      vertex 7 61.8 3.8147e-07
      vertex 3 61.8 3.8147e-07
    endloop
  endfacet
  facet normal 1 -0 0
    outer loop
      vertex 3 115.6 4.5
      vertex 3 127.6 3.8147e-07
      vertex 3 127.6 4.5
    endloop
  endfacet
  facet normal 1 0 0
    outer loop
      vertex 3 127.6 3.8147e-07
      vertex 3 115.6 4.5
      vertex 3 115.6 3.8147e-07
    endloop
  endfacet
  facet normal 0 -1 0
    outer loop
      vertex 3 127.6 3.8147e-07
      vertex 7 127.6 4.5
      vertex 3 127.6 4.5
    endloop
  endfacet
  facet normal 0 -1 -0
    outer loop
      vertex 7 127.6 4.5
      vertex 3 127.6 3.8147e-07
      vertex 7 127.6 3.8147e-07
    endloop
  endfacet
  facet normal -1 0 0
    outer loop
      vertex 7 115.6 3.8147e-07
      vertex 7 127.6 4.5
      vertex 7 127.6 3.8147e-07
    endloop
  endfacet
  facet normal -1 -0 0
    outer loop
      vertex 7 127.6 4.5
      vertex 7 115.6 3.8147e-07
      vertex 7 115.6 4.5
    endloop
  endfacet
  facet normal 0 1 -0
    outer loop
      vertex 7 115.6 3.8147e-07
      vertex 3 115.6 4.5
      vertex 7 115.6 4.5
    endloop
  endfacet
  facet normal 0 1 0
    outer loop
      vertex 3 115.6 4.5
      vertex 7 115.6 3.8147e-07
      vertex 3 115.6 3.8147e-07
    endloop
  endfacet
endsolid OpenSCAD_Model
