solid OpenSCAD_Model
  facet normal -1 0 0
    outer loop
      vertex 0 119.2 0
      vertex 0 1 30.55
      vertex 0 119.2 31.55
    endloop
  endfacet
  facet normal -1 0 0
    outer loop
      vertex 0 0 0
      vertex 0 1 30.55
      vertex 0 119.2 0
    endloop
  endfacet
  facet normal -1 -0 0
    outer loop
      vertex 0 1 30.55
      vertex 0 0 0
      vertex 0 0 30.55
    endloop
  endfacet
  facet normal -1 -0 0
    outer loop
      vertex 0 119.2 31.55
      vertex 0 1 30.55
      vertex 0 1 31.55
    endloop
  endfacet
  facet normal 0 0 1
    outer loop
      vertex 2 119.2 31.55
      vertex 0 119.2 31.55
      vertex 2 2 31.55
    endloop
  endfacet
  facet normal 0 0 1
    outer loop
      vertex 97.1 2 31.55
      vertex 99.1 119.2 31.55
      vertex 97.1 119.2 31.55
    endloop
  endfacet
  facet normal 0 0 1
    outer loop
      vertex 99.1 119.2 31.55
      vertex 97.1 2 31.55
      vertex 99.1 1 31.55
    endloop
  endfacet
  facet normal -0 0 1
    outer loop
      vertex 2 2 31.55
      vertex 99.1 1 31.55
      vertex 97.1 2 31.55
    endloop
  endfacet
  facet normal 0 0 1
    outer loop
      vertex 2 2 31.55
      vertex 0 1 31.55
      vertex 99.1 1 31.55
    endloop
  endfacet
  facet normal 0 0 1
    outer loop
      vertex 0 1 31.55
      vertex 2 2 31.55
      vertex 0 119.2 31.55
    endloop
  endfacet
  facet normal 1 0 0
    outer loop
      vertex 99.1 1 30.55
      vertex 99.1 119.2 31.55
      vertex 99.1 1 31.55
    endloop
  endfacet
  facet normal 1 0 0
    outer loop
      vertex 99.1 119.2 31.55
      vertex 99.1 1 30.55
      vertex 99.1 119.2 0
    endloop
  endfacet
  facet normal 1 0 0
    outer loop
      vertex 99.1 0 0
      vertex 99.1 1 30.55
      vertex 99.1 0 30.55
    endloop
  endfacet
  facet normal 1 0 0
    outer loop
      vertex 99.1 1 30.55
      vertex 99.1 0 0
      vertex 99.1 119.2 0
    endloop
  endfacet
  facet normal 0 1 0
    outer loop
      vertex 99.1 119.2 31.55
      vertex 97.1 119.2 1.6
      vertex 97.1 119.2 31.55
    endloop
  endfacet
  facet normal 0 1 0
    outer loop
      vertex 97.1 119.2 1.6
      vertex 99.1 119.2 0
      vertex 2 119.2 1.6
    endloop
  endfacet
  facet normal 0 1 -0
    outer loop
      vertex 99.1 119.2 0
      vertex 97.1 119.2 1.6
      vertex 99.1 119.2 31.55
    endloop
  endfacet
  facet normal 0 1 -0
    outer loop
      vertex 2 119.2 1.6
      vertex 0 119.2 31.55
      vertex 2 119.2 31.55
    endloop
  endfacet
  facet normal 0 1 0
    outer loop
      vertex 2 119.2 1.6
      vertex 0 119.2 0
      vertex 0 119.2 31.55
    endloop
  endfacet
  facet normal 0 1 0
    outer loop
      vertex 0 119.2 0
      vertex 2 119.2 1.6
      vertex 99.1 119.2 0
    endloop
  endfacet
  facet normal 0 0 -1
    outer loop
      vertex 0 0 0
      vertex 99.1 119.2 0
      vertex 99.1 0 0
    endloop
  endfacet
  facet normal -0 0 -1
    outer loop
      vertex 99.1 119.2 0
      vertex 0 0 0
      vertex 0 119.2 0
    endloop
  endfacet
  facet normal 0 -1 0
    outer loop
      vertex 0 0 30.55
      vertex 32.739 0 26.55
      vertex 99.1 0 30.55
    endloop
  endfacet
  facet normal 0 -1 0
    outer loop
      vertex 0 0 30.55
      vertex 31.8489 0 26.4497
      vertex 32.739 0 26.55
    endloop
  endfacet
  facet normal 0 -1 0
    outer loop
      vertex 0 0 30.55
      vertex 31.0035 0 26.1539
      vertex 31.8489 0 26.4497
    endloop
  endfacet
  facet normal 0 -1 0
    outer loop
      vertex 0 0 30.55
      vertex 30.245 0 25.6773
      vertex 31.0035 0 26.1539
    endloop
  endfacet
  facet normal 0 -1 0
    outer loop
      vertex 0 0 30.55
      vertex 29.6117 0 25.044
      vertex 30.245 0 25.6773
    endloop
  endfacet
  facet normal 0 -1 0
    outer loop
      vertex 0 0 30.55
      vertex 29.1351 0 24.2855
      vertex 29.6117 0 25.044
    endloop
  endfacet
  facet normal 0 -1 0
    outer loop
      vertex 0 0 30.55
      vertex 28.8393 0 23.4401
      vertex 29.1351 0 24.2855
    endloop
  endfacet
  facet normal 0 -1 0
    outer loop
      vertex 0 0 30.55
      vertex 28.739 0 22.55
      vertex 28.8393 0 23.4401
    endloop
  endfacet
  facet normal 0 -1 0
    outer loop
      vertex 0 0 30.55
      vertex 28.8393 0 21.6599
      vertex 28.739 0 22.55
    endloop
  endfacet
  facet normal 0 -1 0
    outer loop
      vertex 0 0 0
      vertex 28.8393 0 21.6599
      vertex 0 0 30.55
    endloop
  endfacet
  facet normal 0 -1 -0
    outer loop
      vertex 28.8393 0 21.6599
      vertex 0 0 0
      vertex 29.1351 0 20.8145
    endloop
  endfacet
  facet normal 0 -1 -0
    outer loop
      vertex 29.1351 0 20.8145
      vertex 0 0 0
      vertex 29.6117 0 20.056
    endloop
  endfacet
  facet normal 0 -1 -0
    outer loop
      vertex 29.6117 0 20.056
      vertex 0 0 0
      vertex 30.245 0 19.4227
    endloop
  endfacet
  facet normal 0 -1 -0
    outer loop
      vertex 32.739 0 18.55
      vertex 0 0 0
      vertex 66.361 0 18.55
    endloop
  endfacet
  facet normal 0 -1 -0
    outer loop
      vertex 31.8489 0 18.6503
      vertex 0 0 0
      vertex 32.739 0 18.55
    endloop
  endfacet
  facet normal 0 -1 -0
    outer loop
      vertex 31.0035 0 18.9461
      vertex 0 0 0
      vertex 31.8489 0 18.6503
    endloop
  endfacet
  facet normal 0 -1 -0
    outer loop
      vertex 30.245 0 19.4227
      vertex 0 0 0
      vertex 31.0035 0 18.9461
    endloop
  endfacet
  facet normal 0 -1 0
    outer loop
      vertex 66.361 0 26.55
      vertex 99.1 0 30.55
      vertex 32.739 0 26.55
    endloop
  endfacet
  facet normal 0 -1 0
    outer loop
      vertex 67.2511 0 26.4497
      vertex 99.1 0 30.55
      vertex 66.361 0 26.55
    endloop
  endfacet
  facet normal 0 -1 0
    outer loop
      vertex 68.0965 0 26.1539
      vertex 99.1 0 30.55
      vertex 67.2511 0 26.4497
    endloop
  endfacet
  facet normal 0 -1 0
    outer loop
      vertex 68.855 0 25.6773
      vertex 99.1 0 30.55
      vertex 68.0965 0 26.1539
    endloop
  endfacet
  facet normal 0 -1 0
    outer loop
      vertex 69.4883 0 25.044
      vertex 99.1 0 30.55
      vertex 68.855 0 25.6773
    endloop
  endfacet
  facet normal 0 -1 0
    outer loop
      vertex 69.9649 0 24.2855
      vertex 99.1 0 30.55
      vertex 69.4883 0 25.044
    endloop
  endfacet
  facet normal 0 -1 0
    outer loop
      vertex 70.2607 0 23.4401
      vertex 99.1 0 30.55
      vertex 69.9649 0 24.2855
    endloop
  endfacet
  facet normal 0 -1 0
    outer loop
      vertex 70.361 0 22.55
      vertex 99.1 0 30.55
      vertex 70.2607 0 23.4401
    endloop
  endfacet
  facet normal 0 -1 0
    outer loop
      vertex 70.2607 0 21.6599
      vertex 99.1 0 30.55
      vertex 70.361 0 22.55
    endloop
  endfacet
  facet normal 0 -1 0
    outer loop
      vertex 99.1 0 0
      vertex 70.2607 0 21.6599
      vertex 69.9649 0 20.8145
    endloop
  endfacet
  facet normal 0 -1 0
    outer loop
      vertex 99.1 0 0
      vertex 69.9649 0 20.8145
      vertex 69.4883 0 20.056
    endloop
  endfacet
  facet normal 0 -1 0
    outer loop
      vertex 99.1 0 0
      vertex 69.4883 0 20.056
      vertex 68.855 0 19.4227
    endloop
  endfacet
  facet normal 0 -1 0
    outer loop
      vertex 99.1 0 0
      vertex 68.855 0 19.4227
      vertex 68.0965 0 18.9461
    endloop
  endfacet
  facet normal 0 -1 0
    outer loop
      vertex 99.1 0 0
      vertex 66.361 0 18.55
      vertex 0 0 0
    endloop
  endfacet
  facet normal 0 -1 0
    outer loop
      vertex 70.2607 0 21.6599
      vertex 99.1 0 0
      vertex 99.1 0 30.55
    endloop
  endfacet
  facet normal 0 -1 0
    outer loop
      vertex 67.2511 0 18.6503
      vertex 99.1 0 0
      vertex 68.0965 0 18.9461
    endloop
  endfacet
  facet normal 0 -1 0
    outer loop
      vertex 66.361 0 18.55
      vertex 99.1 0 0
      vertex 67.2511 0 18.6503
    endloop
  endfacet
  facet normal 1 -0 0
    outer loop
      vertex 2 2 31.55
      vertex 2 119.2 1.6
      vertex 2 119.2 31.55
    endloop
  endfacet
  facet normal 1 0 0
    outer loop
      vertex 2 119.2 1.6
      vertex 2 2 31.55
      vertex 2 2 1.6
    endloop
  endfacet
  facet normal -1 0 0
    outer loop
      vertex 97.1 2 1.6
      vertex 97.1 119.2 31.55
      vertex 97.1 119.2 1.6
    endloop
  endfacet
  facet normal -1 -0 0
    outer loop
      vertex 97.1 119.2 31.55
      vertex 97.1 2 1.6
      vertex 97.1 2 31.55
    endloop
  endfacet
  facet normal -0 0 1
    outer loop
      vertex 2 119.2 1.6
      vertex 97.1 2 1.6
      vertex 97.1 119.2 1.6
    endloop
  endfacet
  facet normal 0 0 1
    outer loop
      vertex 97.1 2 1.6
      vertex 2 119.2 1.6
      vertex 2 2 1.6
    endloop
  endfacet
  facet normal 0 1 0
    outer loop
      vertex 97.1 2 31.55
      vertex 66.361 2 26.55
      vertex 2 2 31.55
    endloop
  endfacet
  facet normal 0 1 0
    outer loop
      vertex 97.1 2 31.55
      vertex 67.2511 2 26.4497
      vertex 66.361 2 26.55
    endloop
  endfacet
  facet normal 0 1 0
    outer loop
      vertex 97.1 2 31.55
      vertex 68.0965 2 26.1539
      vertex 67.2511 2 26.4497
    endloop
  endfacet
  facet normal 0 1 0
    outer loop
      vertex 97.1 2 31.55
      vertex 68.855 2 25.6773
      vertex 68.0965 2 26.1539
    endloop
  endfacet
  facet normal 0 1 0
    outer loop
      vertex 97.1 2 31.55
      vertex 69.4883 2 25.044
      vertex 68.855 2 25.6773
    endloop
  endfacet
  facet normal 0 1 0
    outer loop
      vertex 97.1 2 31.55
      vertex 69.9649 2 24.2855
      vertex 69.4883 2 25.044
    endloop
  endfacet
  facet normal 0 1 0
    outer loop
      vertex 97.1 2 31.55
      vertex 70.2607 2 23.4401
      vertex 69.9649 2 24.2855
    endloop
  endfacet
  facet normal 0 1 0
    outer loop
      vertex 97.1 2 31.55
      vertex 70.361 2 22.55
      vertex 70.2607 2 23.4401
    endloop
  endfacet
  facet normal 0 1 0
    outer loop
      vertex 97.1 2 31.55
      vertex 70.2607 2 21.6599
      vertex 70.361 2 22.55
    endloop
  endfacet
  facet normal 0 1 -0
    outer loop
      vertex 97.1 2 1.6
      vertex 70.2607 2 21.6599
      vertex 97.1 2 31.55
    endloop
  endfacet
  facet normal 0 1 0
    outer loop
      vertex 70.2607 2 21.6599
      vertex 97.1 2 1.6
      vertex 69.9649 2 20.8145
    endloop
  endfacet
  facet normal 0 1 0
    outer loop
      vertex 69.9649 2 20.8145
      vertex 97.1 2 1.6
      vertex 69.4883 2 20.056
    endloop
  endfacet
  facet normal 0 1 0
    outer loop
      vertex 69.4883 2 20.056
      vertex 97.1 2 1.6
      vertex 68.855 2 19.4227
    endloop
  endfacet
  facet normal 0 1 0
    outer loop
      vertex 66.361 2 18.55
      vertex 97.1 2 1.6
      vertex 32.739 2 18.55
    endloop
  endfacet
  facet normal 0 1 0
    outer loop
      vertex 67.2511 2 18.6503
      vertex 97.1 2 1.6
      vertex 66.361 2 18.55
    endloop
  endfacet
  facet normal 0 1 0
    outer loop
      vertex 68.0965 2 18.9461
      vertex 97.1 2 1.6
      vertex 67.2511 2 18.6503
    endloop
  endfacet
  facet normal 0 1 0
    outer loop
      vertex 68.855 2 19.4227
      vertex 97.1 2 1.6
      vertex 68.0965 2 18.9461
    endloop
  endfacet
  facet normal 0 1 -0
    outer loop
      vertex 32.739 2 26.55
      vertex 2 2 31.55
      vertex 66.361 2 26.55
    endloop
  endfacet
  facet normal 0 1 -0
    outer loop
      vertex 31.8489 2 26.4497
      vertex 2 2 31.55
      vertex 32.739 2 26.55
    endloop
  endfacet
  facet normal 0 1 -0
    outer loop
      vertex 31.0035 2 26.1539
      vertex 2 2 31.55
      vertex 31.8489 2 26.4497
    endloop
  endfacet
  facet normal 0 1 -0
    outer loop
      vertex 30.245 2 25.6773
      vertex 2 2 31.55
      vertex 31.0035 2 26.1539
    endloop
  endfacet
  facet normal 0 1 -0
    outer loop
      vertex 29.6117 2 25.044
      vertex 2 2 31.55
      vertex 30.245 2 25.6773
    endloop
  endfacet
  facet normal 0 1 -0
    outer loop
      vertex 29.1351 2 24.2855
      vertex 2 2 31.55
      vertex 29.6117 2 25.044
    endloop
  endfacet
  facet normal 0 1 -0
    outer loop
      vertex 28.8393 2 23.4401
      vertex 2 2 31.55
      vertex 29.1351 2 24.2855
    endloop
  endfacet
  facet normal 0 1 -0
    outer loop
      vertex 28.739 2 22.55
      vertex 2 2 31.55
      vertex 28.8393 2 23.4401
    endloop
  endfacet
  facet normal 0 1 0
    outer loop
      vertex 28.8393 2 21.6599
      vertex 2 2 31.55
      vertex 28.739 2 22.55
    endloop
  endfacet
  facet normal 0 1 0
    outer loop
      vertex 2 2 1.6
      vertex 28.8393 2 21.6599
      vertex 29.1351 2 20.8145
    endloop
  endfacet
  facet normal 0 1 0
    outer loop
      vertex 2 2 1.6
      vertex 29.1351 2 20.8145
      vertex 29.6117 2 20.056
    endloop
  endfacet
  facet normal 0 1 0
    outer loop
      vertex 2 2 1.6
      vertex 29.6117 2 20.056
      vertex 30.245 2 19.4227
    endloop
  endfacet
  facet normal 0 1 0
    outer loop
      vertex 2 2 1.6
      vertex 30.245 2 19.4227
      vertex 31.0035 2 18.9461
    endloop
  endfacet
  facet normal 0 1 0
    outer loop
      vertex 2 2 1.6
      vertex 32.739 2 18.55
      vertex 97.1 2 1.6
    endloop
  endfacet
  facet normal 0 1 0
    outer loop
      vertex 28.8393 2 21.6599
      vertex 2 2 1.6
      vertex 2 2 31.55
    endloop
  endfacet
  facet normal 0 1 0
    outer loop
      vertex 31.8489 2 18.6503
      vertex 2 2 1.6
      vertex 31.0035 2 18.9461
    endloop
  endfacet
  facet normal 0 1 0
    outer loop
      vertex 32.739 2 18.55
      vertex 2 2 1.6
      vertex 31.8489 2 18.6503
    endloop
  endfacet
  facet normal 0.993711 -0 0.111975
    outer loop
      vertex 28.739 0 22.55
      vertex 28.8393 2 21.6599
      vertex 28.739 2 22.55
    endloop
  endfacet
  facet normal 0.993711 0 0.111975
    outer loop
      vertex 28.8393 2 21.6599
      vertex 28.739 0 22.55
      vertex 28.8393 0 21.6599
    endloop
  endfacet
  facet normal 0.993711 0 -0.111975
    outer loop
      vertex 28.8393 0 23.4401
      vertex 28.739 2 22.55
      vertex 28.8393 2 23.4401
    endloop
  endfacet
  facet normal 0.993711 0 -0.111975
    outer loop
      vertex 28.739 2 22.55
      vertex 28.8393 0 23.4401
      vertex 28.739 0 22.55
    endloop
  endfacet
  facet normal -0.993711 0 0.111975
    outer loop
      vertex 70.2607 0 21.6599
      vertex 70.361 2 22.55
      vertex 70.2607 2 21.6599
    endloop
  endfacet
  facet normal -0.993711 0 0.111975
    outer loop
      vertex 70.361 2 22.55
      vertex 70.2607 0 21.6599
      vertex 70.361 0 22.55
    endloop
  endfacet
  facet normal 0 0 -1
    outer loop
      vertex 32.739 0 26.55
      vertex 66.361 2 26.55
      vertex 66.361 0 26.55
    endloop
  endfacet
  facet normal -0 0 -1
    outer loop
      vertex 66.361 2 26.55
      vertex 32.739 0 26.55
      vertex 32.739 2 26.55
    endloop
  endfacet
  facet normal -0.707107 0 -0.707107
    outer loop
      vertex 68.855 0 25.6773
      vertex 69.4883 2 25.044
      vertex 69.4883 0 25.044
    endloop
  endfacet
  facet normal -0.707107 0 -0.707107
    outer loop
      vertex 69.4883 2 25.044
      vertex 68.855 0 25.6773
      vertex 68.855 2 25.6773
    endloop
  endfacet
  facet normal -0 0 1
    outer loop
      vertex 32.739 2 18.55
      vertex 66.361 0 18.55
      vertex 66.361 2 18.55
    endloop
  endfacet
  facet normal 0 0 1
    outer loop
      vertex 66.361 0 18.55
      vertex 32.739 2 18.55
      vertex 32.739 0 18.55
    endloop
  endfacet
  facet normal 0.707107 0 -0.707107
    outer loop
      vertex 30.245 0 25.6773
      vertex 29.6117 2 25.044
      vertex 30.245 2 25.6773
    endloop
  endfacet
  facet normal 0.707107 0 -0.707107
    outer loop
      vertex 29.6117 2 25.044
      vertex 30.245 0 25.6773
      vertex 29.6117 0 25.044
    endloop
  endfacet
  facet normal 0.94389 0 -0.330261
    outer loop
      vertex 29.1351 0 24.2855
      vertex 28.8393 2 23.4401
      vertex 29.1351 2 24.2855
    endloop
  endfacet
  facet normal 0.94389 0 -0.330261
    outer loop
      vertex 28.8393 2 23.4401
      vertex 29.1351 0 24.2855
      vertex 28.8393 0 23.4401
    endloop
  endfacet
  facet normal -0.993711 0 -0.111975
    outer loop
      vertex 70.361 0 22.55
      vertex 70.2607 2 23.4401
      vertex 70.361 2 22.55
    endloop
  endfacet
  facet normal -0.993711 -0 -0.111975
    outer loop
      vertex 70.2607 2 23.4401
      vertex 70.361 0 22.55
      vertex 70.2607 0 23.4401
    endloop
  endfacet
  facet normal -0.846723 0 0.532034
    outer loop
      vertex 69.4883 0 20.056
      vertex 69.9649 2 20.8145
      vertex 69.4883 2 20.056
    endloop
  endfacet
  facet normal -0.846723 0 0.532034
    outer loop
      vertex 69.9649 2 20.8145
      vertex 69.4883 0 20.056
      vertex 69.9649 0 20.8145
    endloop
  endfacet
  facet normal 0.846723 0 -0.532034
    outer loop
      vertex 29.6117 0 25.044
      vertex 29.1351 2 24.2855
      vertex 29.6117 2 25.044
    endloop
  endfacet
  facet normal 0.846723 0 -0.532034
    outer loop
      vertex 29.1351 2 24.2855
      vertex 29.6117 0 25.044
      vertex 29.1351 0 24.2855
    endloop
  endfacet
  facet normal 0.330261 0 -0.94389
    outer loop
      vertex 31.0035 0 26.1539
      vertex 31.8489 2 26.4497
      vertex 31.8489 0 26.4497
    endloop
  endfacet
  facet normal 0.330261 0 -0.94389
    outer loop
      vertex 31.8489 2 26.4497
      vertex 31.0035 0 26.1539
      vertex 31.0035 2 26.1539
    endloop
  endfacet
  facet normal 0.94389 -0 0.330261
    outer loop
      vertex 28.8393 0 21.6599
      vertex 29.1351 2 20.8145
      vertex 28.8393 2 21.6599
    endloop
  endfacet
  facet normal 0.94389 0 0.330261
    outer loop
      vertex 29.1351 2 20.8145
      vertex 28.8393 0 21.6599
      vertex 29.1351 0 20.8145
    endloop
  endfacet
  facet normal 0.111975 0 0.993711
    outer loop
      vertex 31.8489 2 18.6503
      vertex 32.739 0 18.55
      vertex 32.739 2 18.55
    endloop
  endfacet
  facet normal 0.111975 0 0.993711
    outer loop
      vertex 32.739 0 18.55
      vertex 31.8489 2 18.6503
      vertex 31.8489 0 18.6503
    endloop
  endfacet
  facet normal 0.532034 0 0.846723
    outer loop
      vertex 30.245 2 19.4227
      vertex 31.0035 0 18.9461
      vertex 31.0035 2 18.9461
    endloop
  endfacet
  facet normal 0.532034 0 0.846723
    outer loop
      vertex 31.0035 0 18.9461
      vertex 30.245 2 19.4227
      vertex 30.245 0 19.4227
    endloop
  endfacet
  facet normal -0.94389 0 0.330261
    outer loop
      vertex 69.9649 0 20.8145
      vertex 70.2607 2 21.6599
      vertex 69.9649 2 20.8145
    endloop
  endfacet
  facet normal -0.94389 0 0.330261
    outer loop
      vertex 70.2607 2 21.6599
      vertex 69.9649 0 20.8145
      vertex 70.2607 0 21.6599
    endloop
  endfacet
  facet normal -0.111975 0 0.993711
    outer loop
      vertex 66.361 2 18.55
      vertex 67.2511 0 18.6503
      vertex 67.2511 2 18.6503
    endloop
  endfacet
  facet normal -0.111975 0 0.993711
    outer loop
      vertex 67.2511 0 18.6503
      vertex 66.361 2 18.55
      vertex 66.361 0 18.55
    endloop
  endfacet
  facet normal -0.330261 0 0.94389
    outer loop
      vertex 67.2511 2 18.6503
      vertex 68.0965 0 18.9461
      vertex 68.0965 2 18.9461
    endloop
  endfacet
  facet normal -0.330261 0 0.94389
    outer loop
      vertex 68.0965 0 18.9461
      vertex 67.2511 2 18.6503
      vertex 67.2511 0 18.6503
    endloop
  endfacet
  facet normal -0.532034 0 0.846723
    outer loop
      vertex 68.0965 2 18.9461
      vertex 68.855 0 19.4227
      vertex 68.855 2 19.4227
    endloop
  endfacet
  facet normal -0.532034 0 0.846723
    outer loop
      vertex 68.855 0 19.4227
      vertex 68.0965 2 18.9461
      vertex 68.0965 0 18.9461
    endloop
  endfacet
  facet normal -0.707107 0 0.707107
    outer loop
      vertex 68.855 0 19.4227
      vertex 69.4883 2 20.056
      vertex 68.855 2 19.4227
    endloop
  endfacet
  facet normal -0.707107 0 0.707107
    outer loop
      vertex 69.4883 2 20.056
      vertex 68.855 0 19.4227
      vertex 69.4883 0 20.056
    endloop
  endfacet
  facet normal 0.111975 0 -0.993711
    outer loop
      vertex 31.8489 0 26.4497
      vertex 32.739 2 26.55
      vertex 32.739 0 26.55
    endloop
  endfacet
  facet normal 0.111975 0 -0.993711
    outer loop
      vertex 32.739 2 26.55
      vertex 31.8489 0 26.4497
      vertex 31.8489 2 26.4497
    endloop
  endfacet
  facet normal 0.532034 0 -0.846723
    outer loop
      vertex 30.245 0 25.6773
      vertex 31.0035 2 26.1539
      vertex 31.0035 0 26.1539
    endloop
  endfacet
  facet normal 0.532034 0 -0.846723
    outer loop
      vertex 31.0035 2 26.1539
      vertex 30.245 0 25.6773
      vertex 30.245 2 25.6773
    endloop
  endfacet
  facet normal -0.94389 0 -0.330261
    outer loop
      vertex 70.2607 0 23.4401
      vertex 69.9649 2 24.2855
      vertex 70.2607 2 23.4401
    endloop
  endfacet
  facet normal -0.94389 -0 -0.330261
    outer loop
      vertex 69.9649 2 24.2855
      vertex 70.2607 0 23.4401
      vertex 69.9649 0 24.2855
    endloop
  endfacet
  facet normal -0.532034 0 -0.846723
    outer loop
      vertex 68.0965 0 26.1539
      vertex 68.855 2 25.6773
      vertex 68.855 0 25.6773
    endloop
  endfacet
  facet normal -0.532034 0 -0.846723
    outer loop
      vertex 68.855 2 25.6773
      vertex 68.0965 0 26.1539
      vertex 68.0965 2 26.1539
    endloop
  endfacet
  facet normal 0.846723 -0 0.532034
    outer loop
      vertex 29.1351 0 20.8145
      vertex 29.6117 2 20.056
      vertex 29.1351 2 20.8145
    endloop
  endfacet
  facet normal 0.846723 0 0.532034
    outer loop
      vertex 29.6117 2 20.056
      vertex 29.1351 0 20.8145
      vertex 29.6117 0 20.056
    endloop
  endfacet
  facet normal 0.707107 -0 0.707107
    outer loop
      vertex 29.6117 0 20.056
      vertex 30.245 2 19.4227
      vertex 29.6117 2 20.056
    endloop
  endfacet
  facet normal 0.707107 0 0.707107
    outer loop
      vertex 30.245 2 19.4227
      vertex 29.6117 0 20.056
      vertex 30.245 0 19.4227
    endloop
  endfacet
  facet normal 0.330261 0 0.94389
    outer loop
      vertex 31.0035 2 18.9461
      vertex 31.8489 0 18.6503
      vertex 31.8489 2 18.6503
    endloop
  endfacet
  facet normal 0.330261 0 0.94389
    outer loop
      vertex 31.8489 0 18.6503
      vertex 31.0035 2 18.9461
      vertex 31.0035 0 18.9461
    endloop
  endfacet
  facet normal -0.846723 0 -0.532034
    outer loop
      vertex 69.9649 0 24.2855
      vertex 69.4883 2 25.044
      vertex 69.9649 2 24.2855
    endloop
  endfacet
  facet normal -0.846723 -0 -0.532034
    outer loop
      vertex 69.4883 2 25.044
      vertex 69.9649 0 24.2855
      vertex 69.4883 0 25.044
    endloop
  endfacet
  facet normal -0.330261 0 -0.94389
    outer loop
      vertex 67.2511 0 26.4497
      vertex 68.0965 2 26.1539
      vertex 68.0965 0 26.1539
    endloop
  endfacet
  facet normal -0.330261 0 -0.94389
    outer loop
      vertex 68.0965 2 26.1539
      vertex 67.2511 0 26.4497
      vertex 67.2511 2 26.4497
    endloop
  endfacet
  facet normal -0.111975 0 -0.993711
    outer loop
      vertex 66.361 0 26.55
      vertex 67.2511 2 26.4497
      vertex 67.2511 0 26.4497
    endloop
  endfacet
  facet normal -0.111975 0 -0.993711
    outer loop
      vertex 67.2511 2 26.4497
      vertex 66.361 0 26.55
      vertex 66.361 2 26.55
    endloop
  endfacet
  facet normal -0 0 1
    outer loop
      vertex 0 1 30.55
      vertex 99.1 0 30.55
      vertex 99.1 1 30.55
    endloop
  endfacet
  facet normal 0 0 1
    outer loop
      vertex 99.1 0 30.55
      vertex 0 1 30.55
      vertex 0 0 30.55
    endloop
  endfacet
  facet normal 0 -1 0
    outer loop
      vertex 0 1 30.55
      vertex 99.1 1 31.55
      vertex 0 1 31.55
    endloop
  endfacet
  facet normal 0 -1 -0
    outer loop
      vertex 99.1 1 31.55
      vertex 0 1 30.55
      vertex 99.1 1 30.55
    endloop
  endfacet
endsolid OpenSCAD_Model
