solid OpenSCAD_Model
  facet normal 0 1 -0
    outer loop
      vertex 2.4 2.4 121.36
      vertex 2.32001 2.4 122.4
      vertex 2.4 2.4 122.4
    endloop
  endfacet
  facet normal 0 1 0
    outer loop
      vertex 2.32001 2.4 122.4
      vertex 2.4 2.4 121.36
      vertex 2.32001 2.4 121.28
    endloop
  endfacet
  facet normal -0.707151 0 0.707063
    outer loop
      vertex 2.32001 2.4 121.28
      vertex 2.4 34.4 121.36
      vertex 2.32001 34.4 121.28
    endloop
  endfacet
  facet normal -0.707151 0 0.707063
    outer loop
      vertex 2.4 34.4 121.36
      vertex 2.32001 2.4 121.28
      vertex 2.4 2.4 121.36
    endloop
  endfacet
  facet normal 0 -1 0
    outer loop
      vertex 2.32001 34.4 122.4
      vertex 2.4 34.4 121.36
      vertex 2.4 34.4 122.4
    endloop
  endfacet
  facet normal -0 -1 0
    outer loop
      vertex 2.4 34.4 121.36
      vertex 2.32001 34.4 122.4
      vertex 2.32001 34.4 121.28
    endloop
  endfacet
  facet normal 1 -0 0
    outer loop
      vertex 2.32001 2.4 122.4
      vertex 2.32001 34.4 121.28
      vertex 2.32001 34.4 122.4
    endloop
  endfacet
  facet normal 1 0 0
    outer loop
      vertex 2.32001 34.4 121.28
      vertex 2.32001 2.4 122.4
      vertex 2.32001 2.4 121.28
    endloop
  endfacet
  facet normal 0 1 0
    outer loop
      vertex 102.48 2.4 122.4
      vertex 102.4 2.4 121.36
      vertex 102.4 2.4 122.4
    endloop
  endfacet
  facet normal -0 1 0
    outer loop
      vertex 102.4 2.4 121.36
      vertex 102.48 2.4 122.4
      vertex 102.48 2.4 121.28
    endloop
  endfacet
  facet normal -1 0 0
    outer loop
      vertex 102.48 2.4 121.28
      vertex 102.48 34.4 122.4
      vertex 102.48 34.4 121.28
    endloop
  endfacet
  facet normal -1 -0 0
    outer loop
      vertex 102.48 34.4 122.4
      vertex 102.48 2.4 121.28
      vertex 102.48 2.4 122.4
    endloop
  endfacet
  facet normal 0.707107 -0 0.707107
    outer loop
      vertex 102.4 2.4 121.36
      vertex 102.48 34.4 121.28
      vertex 102.4 34.4 121.36
    endloop
  endfacet
  facet normal 0.707107 0 0.707107
    outer loop
      vertex 102.4 2.4 121.36
      vertex 102.48 2.4 121.28
      vertex 102.48 34.4 121.28
    endloop
  endfacet
  facet normal 0 -1 0
    outer loop
      vertex 102.4 34.4 121.36
      vertex 102.48 34.4 122.4
      vertex 102.4 34.4 122.4
    endloop
  endfacet
  facet normal 0 -1 -0
    outer loop
      vertex 102.48 34.4 122.4
      vertex 102.4 34.4 121.36
      vertex 102.48 34.4 121.28
    endloop
  endfacet
  facet normal 1 -0 0
    outer loop
      vertex 2.4 2.32001 122.4
      vertex 2.4 2.4 121.36
      vertex 2.4 2.4 122.4
    endloop
  endfacet
  facet normal 1 0 0
    outer loop
      vertex 2.4 2.4 121.36
      vertex 2.4 2.32001 122.4
      vertex 2.4 2.32001 121.28
    endloop
  endfacet
  facet normal 0 1 -0
    outer loop
      vertex 102.4 2.32001 121.28
      vertex 2.4 2.32001 122.4
      vertex 102.4 2.32001 122.4
    endloop
  endfacet
  facet normal 0 1 0
    outer loop
      vertex 2.4 2.32001 122.4
      vertex 102.4 2.32001 121.28
      vertex 2.4 2.32001 121.28
    endloop
  endfacet
  facet normal 0 -0.707151 0.707063
    outer loop
      vertex 2.4 2.4 121.36
      vertex 102.4 2.32001 121.28
      vertex 102.4 2.4 121.36
    endloop
  endfacet
  facet normal 0 -0.707151 0.707063
    outer loop
      vertex 102.4 2.32001 121.28
      vertex 2.4 2.4 121.36
      vertex 2.4 2.32001 121.28
    endloop
  endfacet
  facet normal -1 0 0
    outer loop
      vertex 102.4 2.32001 122.4
      vertex 102.4 2.4 121.36
      vertex 102.4 2.32001 121.28
    endloop
  endfacet
  facet normal -1 0 0
    outer loop
      vertex 102.4 2.4 121.36
      vertex 102.4 2.32001 122.4
      vertex 102.4 2.4 122.4
    endloop
  endfacet
  facet normal 1 0 0
    outer loop
      vertex 2.4 34.4 121.36
      vertex 2.4 34.48 122.4
      vertex 2.4 34.4 122.4
    endloop
  endfacet
  facet normal 1 0 0
    outer loop
      vertex 2.4 34.48 122.4
      vertex 2.4 34.4 121.36
      vertex 2.4 34.48 121.28
    endloop
  endfacet
  facet normal 0 0.707107 0.707107
    outer loop
      vertex 102.4 34.48 121.28
      vertex 2.4 34.4 121.36
      vertex 102.4 34.4 121.36
    endloop
  endfacet
  facet normal -0 0.707107 0.707107
    outer loop
      vertex 2.4 34.48 121.28
      vertex 2.4 34.4 121.36
      vertex 102.4 34.48 121.28
    endloop
  endfacet
  facet normal -1 0 0
    outer loop
      vertex 102.4 34.4 121.36
      vertex 102.4 34.48 122.4
      vertex 102.4 34.48 121.28
    endloop
  endfacet
  facet normal -1 -0 0
    outer loop
      vertex 102.4 34.48 122.4
      vertex 102.4 34.4 121.36
      vertex 102.4 34.4 122.4
    endloop
  endfacet
  facet normal 0 -1 0
    outer loop
      vertex 2.4 34.48 121.28
      vertex 102.4 34.48 122.4
      vertex 2.4 34.48 122.4
    endloop
  endfacet
  facet normal 0 -1 -0
    outer loop
      vertex 102.4 34.48 122.4
      vertex 2.4 34.48 121.28
      vertex 102.4 34.48 121.28
    endloop
  endfacet
  facet normal 0 1 -0
    outer loop
      vertex 2.4 36.8 121.36
      vertex 2.32001 36.8 122.4
      vertex 2.4 36.8 122.4
    endloop
  endfacet
  facet normal 0 1 0
    outer loop
      vertex 2.32001 36.8 122.4
      vertex 2.4 36.8 121.36
      vertex 2.32001 36.8 121.28
    endloop
  endfacet
  facet normal -0.707151 0 0.707063
    outer loop
      vertex 2.32001 36.8 121.28
      vertex 2.4 68.8 121.36
      vertex 2.32001 68.8 121.28
    endloop
  endfacet
  facet normal -0.707151 0 0.707063
    outer loop
      vertex 2.4 68.8 121.36
      vertex 2.32001 36.8 121.28
      vertex 2.4 36.8 121.36
    endloop
  endfacet
  facet normal 0 -1 0
    outer loop
      vertex 2.32001 68.8 122.4
      vertex 2.4 68.8 121.36
      vertex 2.4 68.8 122.4
    endloop
  endfacet
  facet normal -0 -1 0
    outer loop
      vertex 2.4 68.8 121.36
      vertex 2.32001 68.8 122.4
      vertex 2.32001 68.8 121.28
    endloop
  endfacet
  facet normal 1 -0 0
    outer loop
      vertex 2.32001 36.8 122.4
      vertex 2.32001 68.8 121.28
      vertex 2.32001 68.8 122.4
    endloop
  endfacet
  facet normal 1 0 0
    outer loop
      vertex 2.32001 68.8 121.28
      vertex 2.32001 36.8 122.4
      vertex 2.32001 36.8 121.28
    endloop
  endfacet
  facet normal 0 1 0
    outer loop
      vertex 102.48 36.8 122.4
      vertex 102.4 36.8 121.36
      vertex 102.4 36.8 122.4
    endloop
  endfacet
  facet normal -0 1 0
    outer loop
      vertex 102.4 36.8 121.36
      vertex 102.48 36.8 122.4
      vertex 102.48 36.8 121.28
    endloop
  endfacet
  facet normal -1 0 0
    outer loop
      vertex 102.48 36.8 121.28
      vertex 102.48 68.8 122.4
      vertex 102.48 68.8 121.28
    endloop
  endfacet
  facet normal -1 -0 0
    outer loop
      vertex 102.48 68.8 122.4
      vertex 102.48 36.8 121.28
      vertex 102.48 36.8 122.4
    endloop
  endfacet
  facet normal 0.707107 -0 0.707107
    outer loop
      vertex 102.4 36.8 121.36
      vertex 102.48 68.8 121.28
      vertex 102.4 68.8 121.36
    endloop
  endfacet
  facet normal 0.707107 0 0.707107
    outer loop
      vertex 102.48 68.8 121.28
      vertex 102.4 36.8 121.36
      vertex 102.48 36.8 121.28
    endloop
  endfacet
  facet normal 0 -1 0
    outer loop
      vertex 102.4 68.8 121.36
      vertex 102.48 68.8 122.4
      vertex 102.4 68.8 122.4
    endloop
  endfacet
  facet normal 0 -1 -0
    outer loop
      vertex 102.48 68.8 122.4
      vertex 102.4 68.8 121.36
      vertex 102.48 68.8 121.28
    endloop
  endfacet
  facet normal 1 -0 0
    outer loop
      vertex 2.4 36.72 122.4
      vertex 2.4 36.8 121.36
      vertex 2.4 36.8 122.4
    endloop
  endfacet
  facet normal 1 0 0
    outer loop
      vertex 2.4 36.8 121.36
      vertex 2.4 36.72 122.4
      vertex 2.4 36.72 121.28
    endloop
  endfacet
  facet normal 0 1 -0
    outer loop
      vertex 102.4 36.72 121.28
      vertex 2.4 36.72 122.4
      vertex 102.4 36.72 122.4
    endloop
  endfacet
  facet normal 0 1 0
    outer loop
      vertex 2.4 36.72 122.4
      vertex 102.4 36.72 121.28
      vertex 2.4 36.72 121.28
    endloop
  endfacet
  facet normal 0 -0.707107 0.707107
    outer loop
      vertex 2.4 36.72 121.28
      vertex 102.4 36.8 121.36
      vertex 2.4 36.8 121.36
    endloop
  endfacet
  facet normal 0 -0.707107 0.707107
    outer loop
      vertex 102.4 36.8 121.36
      vertex 2.4 36.72 121.28
      vertex 102.4 36.72 121.28
    endloop
  endfacet
  facet normal -1 0 0
    outer loop
      vertex 102.4 36.72 122.4
      vertex 102.4 36.8 121.36
      vertex 102.4 36.72 121.28
    endloop
  endfacet
  facet normal -1 0 0
    outer loop
      vertex 102.4 36.8 121.36
      vertex 102.4 36.72 122.4
      vertex 102.4 36.8 122.4
    endloop
  endfacet
  facet normal 1 0 0
    outer loop
      vertex 2.4 68.8 121.36
      vertex 2.4 68.88 122.4
      vertex 2.4 68.8 122.4
    endloop
  endfacet
  facet normal 1 0 0
    outer loop
      vertex 2.4 68.88 122.4
      vertex 2.4 68.8 121.36
      vertex 2.4 68.88 121.28
    endloop
  endfacet
  facet normal 0 0.707107 0.707107
    outer loop
      vertex 102.4 68.88 121.28
      vertex 2.4 68.8 121.36
      vertex 102.4 68.8 121.36
    endloop
  endfacet
  facet normal -0 0.707107 0.707107
    outer loop
      vertex 2.4 68.88 121.28
      vertex 2.4 68.8 121.36
      vertex 102.4 68.88 121.28
    endloop
  endfacet
  facet normal -1 0 0
    outer loop
      vertex 102.4 68.8 121.36
      vertex 102.4 68.88 122.4
      vertex 102.4 68.88 121.28
    endloop
  endfacet
  facet normal -1 -0 0
    outer loop
      vertex 102.4 68.88 122.4
      vertex 102.4 68.8 121.36
      vertex 102.4 68.8 122.4
    endloop
  endfacet
  facet normal 0 -1 0
    outer loop
      vertex 2.4 68.88 121.28
      vertex 102.4 68.88 122.4
      vertex 2.4 68.88 122.4
    endloop
  endfacet
  facet normal 0 -1 -0
    outer loop
      vertex 102.4 68.88 122.4
      vertex 2.4 68.88 121.28
      vertex 102.4 68.88 121.28
    endloop
  endfacet
  facet normal 0 1 -0
    outer loop
      vertex 2.4 71.2 121.36
      vertex 2.32001 71.2 122.4
      vertex 2.4 71.2 122.4
    endloop
  endfacet
  facet normal 0 1 0
    outer loop
      vertex 2.32001 71.2 122.4
      vertex 2.4 71.2 121.36
      vertex 2.32001 71.2 121.28
    endloop
  endfacet
  facet normal -0.707151 0 0.707063
    outer loop
      vertex 2.32001 71.2 121.28
      vertex 2.4 103.2 121.36
      vertex 2.32001 103.2 121.28
    endloop
  endfacet
  facet normal -0.707151 0 0.707063
    outer loop
      vertex 2.4 103.2 121.36
      vertex 2.32001 71.2 121.28
      vertex 2.4 71.2 121.36
    endloop
  endfacet
  facet normal 0 -1 0
    outer loop
      vertex 2.32001 103.2 122.4
      vertex 2.4 103.2 121.36
      vertex 2.4 103.2 122.4
    endloop
  endfacet
  facet normal -0 -1 0
    outer loop
      vertex 2.4 103.2 121.36
      vertex 2.32001 103.2 122.4
      vertex 2.32001 103.2 121.28
    endloop
  endfacet
  facet normal 1 -0 0
    outer loop
      vertex 2.32001 71.2 122.4
      vertex 2.32001 103.2 121.28
      vertex 2.32001 103.2 122.4
    endloop
  endfacet
  facet normal 1 0 0
    outer loop
      vertex 2.32001 103.2 121.28
      vertex 2.32001 71.2 122.4
      vertex 2.32001 71.2 121.28
    endloop
  endfacet
  facet normal 0 1 0
    outer loop
      vertex 102.48 71.2 122.4
      vertex 102.4 71.2 121.36
      vertex 102.4 71.2 122.4
    endloop
  endfacet
  facet normal -0 1 0
    outer loop
      vertex 102.4 71.2 121.36
      vertex 102.48 71.2 122.4
      vertex 102.48 71.2 121.28
    endloop
  endfacet
  facet normal -1 0 0
    outer loop
      vertex 102.48 71.2 121.28
      vertex 102.48 103.2 122.4
      vertex 102.48 103.2 121.28
    endloop
  endfacet
  facet normal -1 -0 0
    outer loop
      vertex 102.48 103.2 122.4
      vertex 102.48 71.2 121.28
      vertex 102.48 71.2 122.4
    endloop
  endfacet
  facet normal 0.707107 -0 0.707107
    outer loop
      vertex 102.4 71.2 121.36
      vertex 102.48 103.2 121.28
      vertex 102.4 103.2 121.36
    endloop
  endfacet
  facet normal 0.707107 0 0.707107
    outer loop
      vertex 102.48 103.2 121.28
      vertex 102.4 71.2 121.36
      vertex 102.48 71.2 121.28
    endloop
  endfacet
  facet normal 0 -1 0
    outer loop
      vertex 102.4 103.2 121.36
      vertex 102.48 103.2 122.4
      vertex 102.4 103.2 122.4
    endloop
  endfacet
  facet normal 0 -1 -0
    outer loop
      vertex 102.48 103.2 122.4
      vertex 102.4 103.2 121.36
      vertex 102.48 103.2 121.28
    endloop
  endfacet
  facet normal 1 -0 0
    outer loop
      vertex 2.4 71.12 122.4
      vertex 2.4 71.2 121.36
      vertex 2.4 71.2 122.4
    endloop
  endfacet
  facet normal 1 0 0
    outer loop
      vertex 2.4 71.2 121.36
      vertex 2.4 71.12 122.4
      vertex 2.4 71.12 121.28
    endloop
  endfacet
  facet normal 0 1 -0
    outer loop
      vertex 102.4 71.12 121.28
      vertex 2.4 71.12 122.4
      vertex 102.4 71.12 122.4
    endloop
  endfacet
  facet normal 0 1 0
    outer loop
      vertex 2.4 71.12 122.4
      vertex 102.4 71.12 121.28
      vertex 2.4 71.12 121.28
    endloop
  endfacet
  facet normal 0 -0.707107 0.707107
    outer loop
      vertex 2.4 71.12 121.28
      vertex 102.4 71.2 121.36
      vertex 2.4 71.2 121.36
    endloop
  endfacet
  facet normal 0 -0.707107 0.707107
    outer loop
      vertex 102.4 71.2 121.36
      vertex 2.4 71.12 121.28
      vertex 102.4 71.12 121.28
    endloop
  endfacet
  facet normal -1 0 0
    outer loop
      vertex 102.4 71.12 122.4
      vertex 102.4 71.2 121.36
      vertex 102.4 71.12 121.28
    endloop
  endfacet
  facet normal -1 0 0
    outer loop
      vertex 102.4 71.2 121.36
      vertex 102.4 71.12 122.4
      vertex 102.4 71.2 122.4
    endloop
  endfacet
  facet normal 1 0 0
    outer loop
      vertex 2.4 103.2 121.36
      vertex 2.4 103.28 122.4
      vertex 2.4 103.2 122.4
    endloop
  endfacet
  facet normal 1 0 0
    outer loop
      vertex 2.4 103.28 122.4
      vertex 2.4 103.2 121.36
      vertex 2.4 103.28 121.28
    endloop
  endfacet
  facet normal 0 0.707107 0.707107
    outer loop
      vertex 102.4 103.28 121.28
      vertex 2.4 103.2 121.36
      vertex 102.4 103.2 121.36
    endloop
  endfacet
  facet normal 0 0.707107 0.707107
    outer loop
      vertex 2.4 103.2 121.36
      vertex 102.4 103.28 121.28
      vertex 2.4 103.28 121.28
    endloop
  endfacet
  facet normal -1 0 0
    outer loop
      vertex 102.4 103.2 121.36
      vertex 102.4 103.28 122.4
      vertex 102.4 103.28 121.28
    endloop
  endfacet
  facet normal -1 -0 0
    outer loop
      vertex 102.4 103.28 122.4
      vertex 102.4 103.2 121.36
      vertex 102.4 103.2 122.4
    endloop
  endfacet
  facet normal 0 -1 0
    outer loop
      vertex 2.4 103.28 121.28
      vertex 102.4 103.28 122.4
      vertex 2.4 103.28 122.4
    endloop
  endfacet
  facet normal 0 -1 -0
    outer loop
      vertex 102.4 103.28 122.4
      vertex 2.4 103.28 121.28
      vertex 102.4 103.28 121.28
    endloop
  endfacet
  facet normal 1 -0 0
    outer loop
      vertex 2.4 2.4 121.36
      vertex 2.4 34.4 2.4
      vertex 2.4 34.4 121.36
    endloop
  endfacet
  facet normal 1 0 0
    outer loop
      vertex 2.4 2.4 121.36
      vertex 2.4 2.4 2.4
      vertex 2.4 34.4 2.4
    endloop
  endfacet
  facet normal 0 0 0
    outer loop
      vertex 2.4 2.4 2.4
      vertex 2.4 2.4 121.36
      vertex 2.4 2.4 122.4
    endloop
  endfacet
  facet normal 0 -1 0
    outer loop
      vertex 2.4 34.4 121.36
      vertex 2.4 34.4 2.4
      vertex 102.4 34.4 121.36
    endloop
  endfacet
  facet normal 0 -1 -0
    outer loop
      vertex 102.4 34.4 121.36
      vertex 2.4 34.4 2.4
      vertex 102.4 34.4 2.4
    endloop
  endfacet
  facet normal -1 0 0
    outer loop
      vertex 102.4 34.4 2.4
      vertex 102.4 2.4 121.36
      vertex 102.4 34.4 121.36
    endloop
  endfacet
  facet normal -1 0 0
    outer loop
      vertex 102.4 2.4 2.4
      vertex 102.4 2.4 121.36
      vertex 102.4 34.4 2.4
    endloop
  endfacet
  facet normal 0 1 0
    outer loop
      vertex 102.4 2.4 121.36
      vertex 102.4 2.4 2.4
      vertex 2.4 2.4 121.36
    endloop
  endfacet
  facet normal 0 -0 0
    outer loop
      vertex 2.4 2.4 121.36
      vertex 2.4 2.4 2.4
      vertex 2.4 2.4 122.4
    endloop
  endfacet
  facet normal 0 1 0
    outer loop
      vertex 2.4 2.4 2.4
      vertex 2.4 2.4 121.36
      vertex 102.4 2.4 2.4
    endloop
  endfacet
  facet normal -0 0 1
    outer loop
      vertex 2.4 34.4 2.4
      vertex 102.4 2.4 2.4
      vertex 102.4 34.4 2.4
    endloop
  endfacet
  facet normal 0 0 1
    outer loop
      vertex 102.4 2.4 2.4
      vertex 2.4 34.4 2.4
      vertex 2.4 2.4 2.4
    endloop
  endfacet
  facet normal 1 -0 0
    outer loop
      vertex 2.4 36.8 121.36
      vertex 2.4 68.8 2.4
      vertex 2.4 68.8 121.36
    endloop
  endfacet
  facet normal 1 0 0
    outer loop
      vertex 2.4 68.8 2.4
      vertex 2.4 36.8 121.36
      vertex 2.4 36.8 2.4
    endloop
  endfacet
  facet normal 0 0 0
    outer loop
      vertex 2.4 36.8 2.4
      vertex 2.4 36.8 121.36
      vertex 2.4 36.8 122.4
    endloop
  endfacet
  facet normal 0 -1 0
    outer loop
      vertex 2.4 68.8 121.36
      vertex 2.4 68.8 2.4
      vertex 102.4 68.8 121.36
    endloop
  endfacet
  facet normal 0 -1 -0
    outer loop
      vertex 102.4 68.8 121.36
      vertex 2.4 68.8 2.4
      vertex 102.4 68.8 2.4
    endloop
  endfacet
  facet normal -1 0 0
    outer loop
      vertex 102.4 36.8 2.4
      vertex 102.4 68.8 121.36
      vertex 102.4 68.8 2.4
    endloop
  endfacet
  facet normal -1 -0 0
    outer loop
      vertex 102.4 68.8 121.36
      vertex 102.4 36.8 2.4
      vertex 102.4 36.8 121.36
    endloop
  endfacet
  facet normal 0 1 0
    outer loop
      vertex 102.4 36.8 121.36
      vertex 102.4 36.8 2.4
      vertex 2.4 36.8 121.36
    endloop
  endfacet
  facet normal 0 -0 0
    outer loop
      vertex 2.4 36.8 121.36
      vertex 2.4 36.8 2.4
      vertex 2.4 36.8 122.4
    endloop
  endfacet
  facet normal 0 1 0
    outer loop
      vertex 2.4 36.8 2.4
      vertex 2.4 36.8 121.36
      vertex 102.4 36.8 2.4
    endloop
  endfacet
  facet normal -0 0 1
    outer loop
      vertex 2.4 68.8 2.4
      vertex 102.4 36.8 2.4
      vertex 102.4 68.8 2.4
    endloop
  endfacet
  facet normal 0 0 1
    outer loop
      vertex 102.4 36.8 2.4
      vertex 2.4 68.8 2.4
      vertex 2.4 36.8 2.4
    endloop
  endfacet
  facet normal 1 -0 0
    outer loop
      vertex 2.4 71.2 121.36
      vertex 2.4 103.2 2.4
      vertex 2.4 103.2 121.36
    endloop
  endfacet
  facet normal 1 0 0
    outer loop
      vertex 2.4 103.2 2.4
      vertex 2.4 71.2 121.36
      vertex 2.4 71.2 2.4
    endloop
  endfacet
  facet normal 0 0 0
    outer loop
      vertex 2.4 71.2 2.4
      vertex 2.4 71.2 121.36
      vertex 2.4 71.2 122.4
    endloop
  endfacet
  facet normal 0 -1 0
    outer loop
      vertex 2.4 103.2 121.36
      vertex 2.4 103.2 2.4
      vertex 102.4 103.2 121.36
    endloop
  endfacet
  facet normal 0 -1 -0
    outer loop
      vertex 102.4 103.2 121.36
      vertex 2.4 103.2 2.4
      vertex 102.4 103.2 2.4
    endloop
  endfacet
  facet normal -1 0 0
    outer loop
      vertex 102.4 71.2 2.4
      vertex 102.4 103.2 121.36
      vertex 102.4 103.2 2.4
    endloop
  endfacet
  facet normal -1 -0 0
    outer loop
      vertex 102.4 103.2 121.36
      vertex 102.4 71.2 2.4
      vertex 102.4 71.2 121.36
    endloop
  endfacet
  facet normal 0 1 0
    outer loop
      vertex 102.4 71.2 121.36
      vertex 102.4 71.2 2.4
      vertex 2.4 71.2 121.36
    endloop
  endfacet
  facet normal 0 -0 0
    outer loop
      vertex 2.4 71.2 121.36
      vertex 2.4 71.2 2.4
      vertex 2.4 71.2 122.4
    endloop
  endfacet
  facet normal 0 1 0
    outer loop
      vertex 2.4 71.2 2.4
      vertex 2.4 71.2 121.36
      vertex 102.4 71.2 2.4
    endloop
  endfacet
  facet normal -0 0 1
    outer loop
      vertex 2.4 103.2 2.4
      vertex 102.4 71.2 2.4
      vertex 102.4 103.2 2.4
    endloop
  endfacet
  facet normal 0 0 1
    outer loop
      vertex 102.4 71.2 2.4
      vertex 2.4 103.2 2.4
      vertex 2.4 71.2 2.4
    endloop
  endfacet
  facet normal -1 0 0
    outer loop
      vertex 0 0 3.8147e-07
      vertex 0 115.6 122.4
      vertex 0 115.6 3.8147e-07
    endloop
  endfacet
  facet normal -1 -0 0
    outer loop
      vertex 0 115.6 122.4
      vertex 0 0 3.8147e-07
      vertex 0 0 122.4
    endloop
  endfacet
  facet normal 0 1 -0
    outer loop
      vertex 102.4 105.6 2.4
      vertex 2.4 105.6 120
      vertex 102.4 105.6 120
    endloop
  endfacet
  facet normal 0 1 0
    outer loop
      vertex 2.4 105.6 120
      vertex 102.4 105.6 2.4
      vertex 2.4 105.6 2.4
    endloop
  endfacet
  facet normal 1 -0 0
    outer loop
      vertex 104.8 0 122.4
      vertex 104.8 115.6 3.8147e-07
      vertex 104.8 115.6 122.4
    endloop
  endfacet
  facet normal 1 0 0
    outer loop
      vertex 104.8 115.6 3.8147e-07
      vertex 104.8 0 122.4
      vertex 104.8 0 3.8147e-07
    endloop
  endfacet
  facet normal 0 0 -1
    outer loop
      vertex 0 0 3.8147e-07
      vertex 104.8 115.6 3.8147e-07
      vertex 104.8 0 3.8147e-07
    endloop
  endfacet
  facet normal -0 0 -1
    outer loop
      vertex 104.8 115.6 3.8147e-07
      vertex 0 0 3.8147e-07
      vertex 0 115.6 3.8147e-07
    endloop
  endfacet
  facet normal 0 -1 0
    outer loop
      vertex 0 0 3.8147e-07
      vertex 104.8 0 122.4
      vertex 0 0 122.4
    endloop
  endfacet
  facet normal 0 -1 -0
    outer loop
      vertex 104.8 0 122.4
      vertex 0 0 3.8147e-07
      vertex 104.8 0 3.8147e-07
    endloop
  endfacet
  facet normal -0 0 1
    outer loop
      vertex 2.32001 36.8 122.4
      vertex 2.4 36.72 122.4
      vertex 2.4 36.8 122.4
    endloop
  endfacet
  facet normal 0 0 1
    outer loop
      vertex 2.4 36.72 122.4
      vertex 2.32001 36.8 122.4
      vertex 2.4 34.48 122.4
    endloop
  endfacet
  facet normal 0 0 1
    outer loop
      vertex 2.32001 34.4 122.4
      vertex 2.4 34.48 122.4
      vertex 2.32001 36.8 122.4
    endloop
  endfacet
  facet normal 0 0 1
    outer loop
      vertex 2.4 34.48 122.4
      vertex 2.32001 34.4 122.4
      vertex 2.4 34.4 122.4
    endloop
  endfacet
  facet normal -0 0 1
    outer loop
      vertex 2.32001 71.2 122.4
      vertex 2.4 71.12 122.4
      vertex 2.4 71.2 122.4
    endloop
  endfacet
  facet normal 0 0 1
    outer loop
      vertex 2.4 71.12 122.4
      vertex 2.32001 71.2 122.4
      vertex 2.4 68.88 122.4
    endloop
  endfacet
  facet normal 0 0 1
    outer loop
      vertex 2.32001 68.8 122.4
      vertex 2.4 68.88 122.4
      vertex 2.32001 71.2 122.4
    endloop
  endfacet
  facet normal 0 0 1
    outer loop
      vertex 2.4 68.88 122.4
      vertex 2.32001 68.8 122.4
      vertex 2.4 68.8 122.4
    endloop
  endfacet
  facet normal -0 0 1
    outer loop
      vertex 2.4 36.72 122.4
      vertex 102.4 34.48 122.4
      vertex 102.4 36.72 122.4
    endloop
  endfacet
  facet normal 0 0 1
    outer loop
      vertex 102.4 34.48 122.4
      vertex 2.4 36.72 122.4
      vertex 2.4 34.48 122.4
    endloop
  endfacet
  facet normal -0 0 1
    outer loop
      vertex 2.4 71.12 122.4
      vertex 102.4 68.88 122.4
      vertex 102.4 71.12 122.4
    endloop
  endfacet
  facet normal 0 0 1
    outer loop
      vertex 102.4 68.88 122.4
      vertex 2.4 71.12 122.4
      vertex 2.4 68.88 122.4
    endloop
  endfacet
  facet normal 0 0 1
    outer loop
      vertex 102.4 108.6 122.4
      vertex 2.4 103.28 122.4
      vertex 102.4 103.28 122.4
    endloop
  endfacet
  facet normal -0 0 1
    outer loop
      vertex 2.4 108.6 122.4
      vertex 2.4 103.28 122.4
      vertex 102.4 108.6 122.4
    endloop
  endfacet
  facet normal 0 0 1
    outer loop
      vertex 2.32001 103.2 122.4
      vertex 2.4 103.28 122.4
      vertex 2.4 108.6 122.4
    endloop
  endfacet
  facet normal 0 0 1
    outer loop
      vertex 2.4 103.28 122.4
      vertex 2.32001 103.2 122.4
      vertex 2.4 103.2 122.4
    endloop
  endfacet
  facet normal 0 0 1
    outer loop
      vertex 102.4 36.72 122.4
      vertex 102.48 36.8 122.4
      vertex 102.4 36.8 122.4
    endloop
  endfacet
  facet normal 0 0 1
    outer loop
      vertex 102.48 36.8 122.4
      vertex 102.4 36.72 122.4
      vertex 102.48 34.4 122.4
    endloop
  endfacet
  facet normal -0 0 1
    outer loop
      vertex 102.4 34.48 122.4
      vertex 102.48 34.4 122.4
      vertex 102.4 36.72 122.4
    endloop
  endfacet
  facet normal 0 0 1
    outer loop
      vertex 102.48 34.4 122.4
      vertex 102.4 34.48 122.4
      vertex 102.4 34.4 122.4
    endloop
  endfacet
  facet normal 0 0 1
    outer loop
      vertex 102.4 71.12 122.4
      vertex 102.48 71.2 122.4
      vertex 102.4 71.2 122.4
    endloop
  endfacet
  facet normal 0 0 1
    outer loop
      vertex 102.48 71.2 122.4
      vertex 102.4 71.12 122.4
      vertex 102.48 68.8 122.4
    endloop
  endfacet
  facet normal -0 0 1
    outer loop
      vertex 102.4 68.88 122.4
      vertex 102.48 68.8 122.4
      vertex 102.4 71.12 122.4
    endloop
  endfacet
  facet normal 0 0 1
    outer loop
      vertex 102.48 68.8 122.4
      vertex 102.4 68.88 122.4
      vertex 102.4 68.8 122.4
    endloop
  endfacet
  facet normal 0 0 1
    outer loop
      vertex 102.48 71.2 122.4
      vertex 104.8 115.6 122.4
      vertex 102.48 103.2 122.4
    endloop
  endfacet
  facet normal 0 0 1
    outer loop
      vertex 102.4 108.6 122.4
      vertex 104.8 115.6 122.4
      vertex 102.4 115.6 122.4
    endloop
  endfacet
  facet normal 0 0 1
    outer loop
      vertex 104.8 115.6 122.4
      vertex 102.4 108.6 122.4
      vertex 102.48 103.2 122.4
    endloop
  endfacet
  facet normal -0 0 1
    outer loop
      vertex 102.4 103.28 122.4
      vertex 102.48 103.2 122.4
      vertex 102.4 108.6 122.4
    endloop
  endfacet
  facet normal 0 0 1
    outer loop
      vertex 102.48 103.2 122.4
      vertex 102.4 103.28 122.4
      vertex 102.4 103.2 122.4
    endloop
  endfacet
  facet normal 0 0 1
    outer loop
      vertex 102.48 68.8 122.4
      vertex 104.8 115.6 122.4
      vertex 102.48 71.2 122.4
    endloop
  endfacet
  facet normal 0 0 1
    outer loop
      vertex 104.8 115.6 122.4
      vertex 102.48 68.8 122.4
      vertex 104.8 0 122.4
    endloop
  endfacet
  facet normal -0 0 1
    outer loop
      vertex 102.48 36.8 122.4
      vertex 104.8 0 122.4
      vertex 102.48 68.8 122.4
    endloop
  endfacet
  facet normal -0 0 1
    outer loop
      vertex 102.48 34.4 122.4
      vertex 104.8 0 122.4
      vertex 102.48 36.8 122.4
    endloop
  endfacet
  facet normal -0 0 1
    outer loop
      vertex 102.48 2.4 122.4
      vertex 104.8 0 122.4
      vertex 102.48 34.4 122.4
    endloop
  endfacet
  facet normal 0 0 1
    outer loop
      vertex 102.4 2.32001 122.4
      vertex 102.48 2.4 122.4
      vertex 102.4 2.4 122.4
    endloop
  endfacet
  facet normal 0 0 1
    outer loop
      vertex 102.48 2.4 122.4
      vertex 102.4 2.32001 122.4
      vertex 104.8 0 122.4
    endloop
  endfacet
  facet normal -0 0 1
    outer loop
      vertex 2.4 2.32001 122.4
      vertex 104.8 0 122.4
      vertex 102.4 2.32001 122.4
    endloop
  endfacet
  facet normal -0 0 1
    outer loop
      vertex 2.32001 2.4 122.4
      vertex 2.4 2.32001 122.4
      vertex 2.4 2.4 122.4
    endloop
  endfacet
  facet normal 0 0 1
    outer loop
      vertex 2.4 2.32001 122.4
      vertex 0 0 122.4
      vertex 104.8 0 122.4
    endloop
  endfacet
  facet normal 0 0 1
    outer loop
      vertex 2.32001 2.4 122.4
      vertex 0 0 122.4
      vertex 2.4 2.32001 122.4
    endloop
  endfacet
  facet normal 0 0 1
    outer loop
      vertex 2.32001 34.4 122.4
      vertex 0 0 122.4
      vertex 2.32001 2.4 122.4
    endloop
  endfacet
  facet normal -0 0 1
    outer loop
      vertex 0 115.6 122.4
      vertex 2.4 108.6 122.4
      vertex 2.4 115.6 122.4
    endloop
  endfacet
  facet normal 0 0 1
    outer loop
      vertex 0 115.6 122.4
      vertex 2.32001 71.2 122.4
      vertex 2.32001 103.2 122.4
    endloop
  endfacet
  facet normal 0 0 1
    outer loop
      vertex 2.32001 71.2 122.4
      vertex 0 115.6 122.4
      vertex 2.32001 68.8 122.4
    endloop
  endfacet
  facet normal 0 0 1
    outer loop
      vertex 0 0 122.4
      vertex 2.32001 68.8 122.4
      vertex 0 115.6 122.4
    endloop
  endfacet
  facet normal 0 0 1
    outer loop
      vertex 2.32001 68.8 122.4
      vertex 0 0 122.4
      vertex 2.32001 36.8 122.4
    endloop
  endfacet
  facet normal 0 0 1
    outer loop
      vertex 2.32001 36.8 122.4
      vertex 0 0 122.4
      vertex 2.32001 34.4 122.4
    endloop
  endfacet
  facet normal 0 0 1
    outer loop
      vertex 2.4 108.6 122.4
      vertex 0 115.6 122.4
      vertex 2.32001 103.2 122.4
    endloop
  endfacet
  facet normal 0 1 0
    outer loop
      vertex 104.8 115.6 122.4
      vertex 102.4 115.6 2.4
      vertex 102.4 115.6 122.4
    endloop
  endfacet
  facet normal 0 1 0
    outer loop
      vertex 102.4 115.6 2.4
      vertex 104.8 115.6 3.8147e-07
      vertex 2.4 115.6 2.4
    endloop
  endfacet
  facet normal 0 1 -0
    outer loop
      vertex 104.8 115.6 3.8147e-07
      vertex 102.4 115.6 2.4
      vertex 104.8 115.6 122.4
    endloop
  endfacet
  facet normal 0 1 -0
    outer loop
      vertex 2.4 115.6 2.4
      vertex 0 115.6 122.4
      vertex 2.4 115.6 122.4
    endloop
  endfacet
  facet normal 0 1 0
    outer loop
      vertex 2.4 115.6 2.4
      vertex 0 115.6 3.8147e-07
      vertex 0 115.6 122.4
    endloop
  endfacet
  facet normal 0 1 0
    outer loop
      vertex 0 115.6 3.8147e-07
      vertex 2.4 115.6 2.4
      vertex 104.8 115.6 3.8147e-07
    endloop
  endfacet
  facet normal 1 0 0
    outer loop
      vertex 2.4 108.6 120
      vertex 2.4 115.6 122.4
      vertex 2.4 108.6 122.4
    endloop
  endfacet
  facet normal 1 0 0
    outer loop
      vertex 2.4 115.6 122.4
      vertex 2.4 108.6 120
      vertex 2.4 115.6 2.4
    endloop
  endfacet
  facet normal 1 0 0
    outer loop
      vertex 2.4 105.6 2.4
      vertex 2.4 108.6 120
      vertex 2.4 105.6 120
    endloop
  endfacet
  facet normal 1 0 0
    outer loop
      vertex 2.4 108.6 120
      vertex 2.4 105.6 2.4
      vertex 2.4 115.6 2.4
    endloop
  endfacet
  facet normal -1 0 0
    outer loop
      vertex 102.4 115.6 2.4
      vertex 102.4 108.6 120
      vertex 102.4 115.6 122.4
    endloop
  endfacet
  facet normal -1 0 0
    outer loop
      vertex 102.4 105.6 2.4
      vertex 102.4 108.6 120
      vertex 102.4 115.6 2.4
    endloop
  endfacet
  facet normal -1 -0 0
    outer loop
      vertex 102.4 108.6 120
      vertex 102.4 105.6 2.4
      vertex 102.4 105.6 120
    endloop
  endfacet
  facet normal -1 -0 0
    outer loop
      vertex 102.4 115.6 122.4
      vertex 102.4 108.6 120
      vertex 102.4 108.6 122.4
    endloop
  endfacet
  facet normal -0 0 1
    outer loop
      vertex 2.4 115.6 2.4
      vertex 102.4 105.6 2.4
      vertex 102.4 115.6 2.4
    endloop
  endfacet
  facet normal 0 0 1
    outer loop
      vertex 102.4 105.6 2.4
      vertex 2.4 115.6 2.4
      vertex 2.4 105.6 2.4
    endloop
  endfacet
  facet normal 0 1 -0
    outer loop
      vertex 102.4 108.6 120
      vertex 2.4 108.6 122.4
      vertex 102.4 108.6 122.4
    endloop
  endfacet
  facet normal 0 1 0
    outer loop
      vertex 2.4 108.6 122.4
      vertex 102.4 108.6 120
      vertex 2.4 108.6 120
    endloop
  endfacet
  facet normal 0 0 -1
    outer loop
      vertex 2.4 105.6 120
      vertex 102.4 108.6 120
      vertex 102.4 105.6 120
    endloop
  endfacet
  facet normal -0 0 -1
    outer loop
      vertex 102.4 108.6 120
      vertex 2.4 105.6 120
      vertex 2.4 108.6 120
    endloop
  endfacet
  facet normal 0 -1 0
    outer loop
      vertex 156.4 18 27.8
      vertex 160.9 18 32.8
      vertex 156.4 18 32.8
    endloop
  endfacet
  facet normal 0 -1 -0
    outer loop
      vertex 160.9 18 32.8
      vertex 156.4 18 27.8
      vertex 160.9 18 27.8
    endloop
  endfacet
  facet normal -0 0 1
    outer loop
      vertex 156.4 18 27.8
      vertex 160.9 10 27.8
      vertex 160.9 18 27.8
    endloop
  endfacet
  facet normal 0 0 1
    outer loop
      vertex 160.9 10 27.8
      vertex 156.4 18 27.8
      vertex 156.4 10 27.8
    endloop
  endfacet
  facet normal 0 1 -0
    outer loop
      vertex 160.9 10 27.8
      vertex 156.4 10 32.8
      vertex 160.9 10 32.8
    endloop
  endfacet
  facet normal 0 1 0
    outer loop
      vertex 156.4 10 32.8
      vertex 160.9 10 27.8
      vertex 156.4 10 27.8
    endloop
  endfacet
  facet normal 0 0 -1
    outer loop
      vertex 156.4 10 32.8
      vertex 160.9 18 32.8
      vertex 160.9 10 32.8
    endloop
  endfacet
  facet normal -0 0 -1
    outer loop
      vertex 160.9 18 32.8
      vertex 156.4 10 32.8
      vertex 156.4 18 32.8
    endloop
  endfacet
  facet normal 0 -1 0
    outer loop
      vertex 156.4 56.8 27.8
      vertex 160.9 56.8 32.8
      vertex 156.4 56.8 32.8
    endloop
  endfacet
  facet normal 0 -1 -0
    outer loop
      vertex 160.9 56.8 32.8
      vertex 156.4 56.8 27.8
      vertex 160.9 56.8 27.8
    endloop
  endfacet
  facet normal -0 0 1
    outer loop
      vertex 156.4 56.8 27.8
      vertex 160.9 48.8 27.8
      vertex 160.9 56.8 27.8
    endloop
  endfacet
  facet normal 0 0 1
    outer loop
      vertex 160.9 48.8 27.8
      vertex 156.4 56.8 27.8
      vertex 156.4 48.8 27.8
    endloop
  endfacet
  facet normal 0 1 -0
    outer loop
      vertex 160.9 48.8 27.8
      vertex 156.4 48.8 32.8
      vertex 160.9 48.8 32.8
    endloop
  endfacet
  facet normal 0 1 0
    outer loop
      vertex 156.4 48.8 32.8
      vertex 160.9 48.8 27.8
      vertex 156.4 48.8 27.8
    endloop
  endfacet
  facet normal 0 0 -1
    outer loop
      vertex 156.4 48.8 32.8
      vertex 160.9 56.8 32.8
      vertex 160.9 48.8 32.8
    endloop
  endfacet
  facet normal -0 0 -1
    outer loop
      vertex 160.9 56.8 32.8
      vertex 156.4 48.8 32.8
      vertex 156.4 56.8 32.8
    endloop
  endfacet
  facet normal 0 -1 0
    outer loop
      vertex 156.4 95.6 27.8
      vertex 160.9 95.6 32.8
      vertex 156.4 95.6 32.8
    endloop
  endfacet
  facet normal 0 -1 -0
    outer loop
      vertex 160.9 95.6 32.8
      vertex 156.4 95.6 27.8
      vertex 160.9 95.6 27.8
    endloop
  endfacet
  facet normal -0 0 1
    outer loop
      vertex 156.4 95.6 27.8
      vertex 160.9 87.6 27.8
      vertex 160.9 95.6 27.8
    endloop
  endfacet
  facet normal 0 0 1
    outer loop
      vertex 160.9 87.6 27.8
      vertex 156.4 95.6 27.8
      vertex 156.4 87.6 27.8
    endloop
  endfacet
  facet normal 0 1 -0
    outer loop
      vertex 160.9 87.6 27.8
      vertex 156.4 87.6 32.8
      vertex 160.9 87.6 32.8
    endloop
  endfacet
  facet normal 0 1 0
    outer loop
      vertex 156.4 87.6 32.8
      vertex 160.9 87.6 27.8
      vertex 156.4 87.6 27.8
    endloop
  endfacet
  facet normal 0 0 -1
    outer loop
      vertex 156.4 87.6 32.8
      vertex 160.9 95.6 32.8
      vertex 160.9 87.6 32.8
    endloop
  endfacet
  facet normal -0 0 -1
    outer loop
      vertex 160.9 95.6 32.8
      vertex 156.4 87.6 32.8
      vertex 156.4 95.6 32.8
    endloop
  endfacet
  facet normal 1 0 0
    outer loop
      vertex 160.9 105.6 122.4
      vertex 160.9 95.6 32.8
      vertex 160.9 105.6 3.8147e-07
    endloop
  endfacet
  facet normal 1 0 0
    outer loop
      vertex 160.9 105.6 122.4
      vertex 160.9 87.6 32.8
      vertex 160.9 95.6 32.8
    endloop
  endfacet
  facet normal 1 0 0
    outer loop
      vertex 160.9 87.6 32.8
      vertex 160.9 56.8 32.8
      vertex 160.9 87.6 27.8
    endloop
  endfacet
  facet normal 1 0 0
    outer loop
      vertex 160.9 105.6 122.4
      vertex 160.9 56.8 32.8
      vertex 160.9 87.6 32.8
    endloop
  endfacet
  facet normal 1 0 0
    outer loop
      vertex 160.9 105.6 122.4
      vertex 160.9 48.8 32.8
      vertex 160.9 56.8 32.8
    endloop
  endfacet
  facet normal 1 0 0
    outer loop
      vertex 160.9 48.8 32.8
      vertex 160.9 18 32.8
      vertex 160.9 48.8 27.8
    endloop
  endfacet
  facet normal 1 -0 0
    outer loop
      vertex 160.9 0 122.4
      vertex 160.9 48.8 32.8
      vertex 160.9 105.6 122.4
    endloop
  endfacet
  facet normal 1 0 0
    outer loop
      vertex 160.9 48.8 32.8
      vertex 160.9 0 122.4
      vertex 160.9 18 32.8
    endloop
  endfacet
  facet normal 1 0 0
    outer loop
      vertex 160.9 0 3.8147e-07
      vertex 160.9 10 32.8
      vertex 160.9 0 122.4
    endloop
  endfacet
  facet normal 1 0 0
    outer loop
      vertex 160.9 18 32.8
      vertex 160.9 0 122.4
      vertex 160.9 10 32.8
    endloop
  endfacet
  facet normal 1 -0 0
    outer loop
      vertex 160.9 95.6 27.8
      vertex 160.9 105.6 3.8147e-07
      vertex 160.9 95.6 32.8
    endloop
  endfacet
  facet normal 1 -0 0
    outer loop
      vertex 160.9 87.6 27.8
      vertex 160.9 105.6 3.8147e-07
      vertex 160.9 95.6 27.8
    endloop
  endfacet
  facet normal 1 0 0
    outer loop
      vertex 160.9 56.8 27.8
      vertex 160.9 87.6 27.8
      vertex 160.9 56.8 32.8
    endloop
  endfacet
  facet normal 1 0 0
    outer loop
      vertex 160.9 87.6 27.8
      vertex 160.9 56.8 27.8
      vertex 160.9 105.6 3.8147e-07
    endloop
  endfacet
  facet normal 1 -0 0
    outer loop
      vertex 160.9 48.8 27.8
      vertex 160.9 105.6 3.8147e-07
      vertex 160.9 56.8 27.8
    endloop
  endfacet
  facet normal 1 0 0
    outer loop
      vertex 160.9 18 27.8
      vertex 160.9 48.8 27.8
      vertex 160.9 18 32.8
    endloop
  endfacet
  facet normal 1 0 0
    outer loop
      vertex 160.9 0 3.8147e-07
      vertex 160.9 48.8 27.8
      vertex 160.9 18 27.8
    endloop
  endfacet
  facet normal 1 0 0
    outer loop
      vertex 160.9 0 3.8147e-07
      vertex 160.9 18 27.8
      vertex 160.9 10 27.8
    endloop
  endfacet
  facet normal 1 0 0
    outer loop
      vertex 160.9 48.8 27.8
      vertex 160.9 0 3.8147e-07
      vertex 160.9 105.6 3.8147e-07
    endloop
  endfacet
  facet normal 1 0 0
    outer loop
      vertex 160.9 10 32.8
      vertex 160.9 0 3.8147e-07
      vertex 160.9 10 27.8
    endloop
  endfacet
  facet normal 0 1 0
    outer loop
      vertex 160.9 105.6 122.4
      vertex 156.4 105.6 120.48
      vertex 158.32 105.6 122.4
    endloop
  endfacet
  facet normal 0 1 0
    outer loop
      vertex 160.9 105.6 122.4
      vertex 156.4 105.6 4.5
      vertex 156.4 105.6 120.48
    endloop
  endfacet
  facet normal 0 1 -0
    outer loop
      vertex 160.9 105.6 3.8147e-07
      vertex 156.4 105.6 4.5
      vertex 160.9 105.6 122.4
    endloop
  endfacet
  facet normal 0 1 0
    outer loop
      vertex 104.8 105.6 3.8147e-07
      vertex 156.4 105.6 4.5
      vertex 160.9 105.6 3.8147e-07
    endloop
  endfacet
  facet normal 0 1 0
    outer loop
      vertex 156.4 105.6 4.5
      vertex 104.8 105.6 3.8147e-07
      vertex 104.8 105.6 4.5
    endloop
  endfacet
  facet normal -1 0 0
    outer loop
      vertex 156.4 95.6 32.8
      vertex 156.4 105.6 4.5
      vertex 156.4 95.6 27.8
    endloop
  endfacet
  facet normal -1 0 0
    outer loop
      vertex 156.4 105.6 4.5
      vertex 156.4 87.6 27.8
      vertex 156.4 95.6 27.8
    endloop
  endfacet
  facet normal -1 0 0
    outer loop
      vertex 156.4 87.6 27.8
      vertex 156.4 56.8 27.8
      vertex 156.4 87.6 32.8
    endloop
  endfacet
  facet normal -1 0 0
    outer loop
      vertex 156.4 105.6 4.5
      vertex 156.4 56.8 27.8
      vertex 156.4 87.6 27.8
    endloop
  endfacet
  facet normal -1 0 0
    outer loop
      vertex 156.4 105.6 4.5
      vertex 156.4 48.8 27.8
      vertex 156.4 56.8 27.8
    endloop
  endfacet
  facet normal -1 0 0
    outer loop
      vertex 156.4 48.8 27.8
      vertex 156.4 18 27.8
      vertex 156.4 48.8 32.8
    endloop
  endfacet
  facet normal -1 0 0
    outer loop
      vertex 156.4 0 4.5
      vertex 156.4 48.8 27.8
      vertex 156.4 105.6 4.5
    endloop
  endfacet
  facet normal -1 -0 0
    outer loop
      vertex 156.4 48.8 27.8
      vertex 156.4 0 4.5
      vertex 156.4 18 27.8
    endloop
  endfacet
  facet normal -1 -0 0
    outer loop
      vertex 156.4 10 27.8
      vertex 156.4 0 4.5
      vertex 156.4 10 32.8
    endloop
  endfacet
  facet normal -1 -0 0
    outer loop
      vertex 156.4 18 27.8
      vertex 156.4 0 4.5
      vertex 156.4 10 27.8
    endloop
  endfacet
  facet normal -1 0 0
    outer loop
      vertex 156.4 105.6 4.5
      vertex 156.4 95.6 32.8
      vertex 156.4 105.6 120.48
    endloop
  endfacet
  facet normal -1 0 0
    outer loop
      vertex 156.4 87.6 32.8
      vertex 156.4 105.6 120.48
      vertex 156.4 95.6 32.8
    endloop
  endfacet
  facet normal -1 0 0
    outer loop
      vertex 156.4 56.8 32.8
      vertex 156.4 87.6 32.8
      vertex 156.4 56.8 27.8
    endloop
  endfacet
  facet normal -1 0 0
    outer loop
      vertex 156.4 87.6 32.8
      vertex 156.4 56.8 32.8
      vertex 156.4 105.6 120.48
    endloop
  endfacet
  facet normal -1 0 0
    outer loop
      vertex 156.4 48.8 32.8
      vertex 156.4 105.6 120.48
      vertex 156.4 56.8 32.8
    endloop
  endfacet
  facet normal -1 0 0
    outer loop
      vertex 156.4 18 32.8
      vertex 156.4 48.8 32.8
      vertex 156.4 18 27.8
    endloop
  endfacet
  facet normal -1 0 0
    outer loop
      vertex 156.4 0 120.48
      vertex 156.4 48.8 32.8
      vertex 156.4 18 32.8
    endloop
  endfacet
  facet normal -1 0 0
    outer loop
      vertex 156.4 0 120.48
      vertex 156.4 18 32.8
      vertex 156.4 10 32.8
    endloop
  endfacet
  facet normal -1 0 0
    outer loop
      vertex 156.4 48.8 32.8
      vertex 156.4 0 120.48
      vertex 156.4 105.6 120.48
    endloop
  endfacet
  facet normal -1 0 0
    outer loop
      vertex 156.4 0 120.48
      vertex 156.4 10 32.8
      vertex 156.4 0 4.5
    endloop
  endfacet
  facet normal 0 0 -1
    outer loop
      vertex 104.8 0 3.8147e-07
      vertex 160.9 105.6 3.8147e-07
      vertex 160.9 0 3.8147e-07
    endloop
  endfacet
  facet normal -0 0 -1
    outer loop
      vertex 160.9 105.6 3.8147e-07
      vertex 104.8 0 3.8147e-07
      vertex 104.8 105.6 3.8147e-07
    endloop
  endfacet
  facet normal 0 -1 0
    outer loop
      vertex 104.8 0 4.5
      vertex 104.8 0 3.8147e-07
      vertex 156.4 0 4.5
    endloop
  endfacet
  facet normal 0 -1 0
    outer loop
      vertex 156.4 0 120.48
      vertex 160.9 0 122.4
      vertex 158.32 0 122.4
    endloop
  endfacet
  facet normal 0 -1 0
    outer loop
      vertex 156.4 0 4.5
      vertex 160.9 0 122.4
      vertex 156.4 0 120.48
    endloop
  endfacet
  facet normal 0 -1 0
    outer loop
      vertex 156.4 0 4.5
      vertex 160.9 0 3.8147e-07
      vertex 160.9 0 122.4
    endloop
  endfacet
  facet normal 0 -1 0
    outer loop
      vertex 160.9 0 3.8147e-07
      vertex 156.4 0 4.5
      vertex 104.8 0 3.8147e-07
    endloop
  endfacet
  facet normal -0 0 1
    outer loop
      vertex 158.32 105.6 122.4
      vertex 160.9 0 122.4
      vertex 160.9 105.6 122.4
    endloop
  endfacet
  facet normal 0 0 1
    outer loop
      vertex 160.9 0 122.4
      vertex 158.32 105.6 122.4
      vertex 158.32 0 122.4
    endloop
  endfacet
  facet normal -0.707107 0 0.707107
    outer loop
      vertex 156.4 0 120.48
      vertex 158.32 105.6 122.4
      vertex 156.4 105.6 120.48
    endloop
  endfacet
  facet normal -0.707107 0 0.707107
    outer loop
      vertex 158.32 105.6 122.4
      vertex 156.4 0 120.48
      vertex 158.32 0 122.4
    endloop
  endfacet
  facet normal -1 0 0
    outer loop
      vertex 104.8 0 3.8147e-07
      vertex 104.8 105.6 4.5
      vertex 104.8 105.6 3.8147e-07
    endloop
  endfacet
  facet normal -1 -0 0
    outer loop
      vertex 104.8 105.6 4.5
      vertex 104.8 0 3.8147e-07
      vertex 104.8 0 4.5
    endloop
  endfacet
  facet normal -0 0 1
    outer loop
      vertex 104.8 105.6 4.5
      vertex 156.4 0 4.5
      vertex 156.4 105.6 4.5
    endloop
  endfacet
  facet normal 0 0 1
    outer loop
      vertex 156.4 0 4.5
      vertex 104.8 105.6 4.5
      vertex 104.8 0 4.5
    endloop
  endfacet
endsolid OpenSCAD_Model
