solid OpenSCAD_Model
  facet normal -1 0 0
    outer loop
      vertex 0 169.2 0
      vertex 0 1 53.55
      vertex 0 169.2 54.55
    endloop
  endfacet
  facet normal -1 0 0
    outer loop
      vertex 0 0 0
      vertex 0 1 53.55
      vertex 0 169.2 0
    endloop
  endfacet
  facet normal -1 -0 0
    outer loop
      vertex 0 1 53.55
      vertex 0 0 0
      vertex 0 0 53.55
    endloop
  endfacet
  facet normal -1 -0 0
    outer loop
      vertex 0 169.2 54.55
      vertex 0 1 53.55
      vertex 0 1 54.55
    endloop
  endfacet
  facet normal 0 0 1
    outer loop
      vertex 2 169.2 54.55
      vertex 0 169.2 54.55
      vertex 2 2 54.55
    endloop
  endfacet
  facet normal 0 0 1
    outer loop
      vertex 127.1 2 54.55
      vertex 129.1 169.2 54.55
      vertex 127.1 169.2 54.55
    endloop
  endfacet
  facet normal 0 0 1
    outer loop
      vertex 129.1 169.2 54.55
      vertex 127.1 2 54.55
      vertex 129.1 1 54.55
    endloop
  endfacet
  facet normal -0 0 1
    outer loop
      vertex 2 2 54.55
      vertex 129.1 1 54.55
      vertex 127.1 2 54.55
    endloop
  endfacet
  facet normal 0 0 1
    outer loop
      vertex 2 2 54.55
      vertex 0 1 54.55
      vertex 129.1 1 54.55
    endloop
  endfacet
  facet normal 0 0 1
    outer loop
      vertex 0 1 54.55
      vertex 2 2 54.55
      vertex 0 169.2 54.55
    endloop
  endfacet
  facet normal 1 0 0
    outer loop
      vertex 129.1 1 53.55
      vertex 129.1 169.2 54.55
      vertex 129.1 1 54.55
    endloop
  endfacet
  facet normal 1 0 0
    outer loop
      vertex 129.1 169.2 54.55
      vertex 129.1 1 53.55
      vertex 129.1 169.2 0
    endloop
  endfacet
  facet normal 1 0 0
    outer loop
      vertex 129.1 0 0
      vertex 129.1 1 53.55
      vertex 129.1 0 53.55
    endloop
  endfacet
  facet normal 1 0 0
    outer loop
      vertex 129.1 1 53.55
      vertex 129.1 0 0
      vertex 129.1 169.2 0
    endloop
  endfacet
  facet normal 0 0 -1
    outer loop
      vertex 0 0 0
      vertex 129.1 169.2 0
      vertex 129.1 0 0
    endloop
  endfacet
  facet normal -0 0 -1
    outer loop
      vertex 129.1 169.2 0
      vertex 0 0 0
      vertex 0 169.2 0
    endloop
  endfacet
  facet normal 0 -1 0
    outer loop
      vertex 0 0 53.55
      vertex 47.55 0 49.55
      vertex 129.1 0 53.55
    endloop
  endfacet
  facet normal 0 -1 0
    outer loop
      vertex 0 0 53.55
      vertex 46.6599 0 49.4497
      vertex 47.55 0 49.55
    endloop
  endfacet
  facet normal 0 -1 0
    outer loop
      vertex 0 0 53.55
      vertex 45.8145 0 49.1539
      vertex 46.6599 0 49.4497
    endloop
  endfacet
  facet normal 0 -1 0
    outer loop
      vertex 0 0 53.55
      vertex 45.056 0 48.6773
      vertex 45.8145 0 49.1539
    endloop
  endfacet
  facet normal 0 -1 0
    outer loop
      vertex 0 0 53.55
      vertex 44.4227 0 48.044
      vertex 45.056 0 48.6773
    endloop
  endfacet
  facet normal 0 -1 0
    outer loop
      vertex 0 0 53.55
      vertex 43.9461 0 47.2855
      vertex 44.4227 0 48.044
    endloop
  endfacet
  facet normal 0 -1 0
    outer loop
      vertex 0 0 53.55
      vertex 43.6503 0 46.4401
      vertex 43.9461 0 47.2855
    endloop
  endfacet
  facet normal 0 -1 0
    outer loop
      vertex 0 0 53.55
      vertex 43.55 0 45.55
      vertex 43.6503 0 46.4401
    endloop
  endfacet
  facet normal 0 -1 0
    outer loop
      vertex 0 0 53.55
      vertex 43.6503 0 44.6599
      vertex 43.55 0 45.55
    endloop
  endfacet
  facet normal 0 -1 0
    outer loop
      vertex 0 0 53.55
      vertex 43.9461 0 43.8145
      vertex 43.6503 0 44.6599
    endloop
  endfacet
  facet normal 0 -1 0
    outer loop
      vertex 0 0 53.55
      vertex 44.4227 0 43.056
      vertex 43.9461 0 43.8145
    endloop
  endfacet
  facet normal 0 -1 0
    outer loop
      vertex 0 0 0
      vertex 44.4227 0 43.056
      vertex 0 0 53.55
    endloop
  endfacet
  facet normal 0 -1 -0
    outer loop
      vertex 44.4227 0 43.056
      vertex 0 0 0
      vertex 45.056 0 42.4227
    endloop
  endfacet
  facet normal 0 -1 -0
    outer loop
      vertex 45.056 0 42.4227
      vertex 0 0 0
      vertex 45.8145 0 41.9461
    endloop
  endfacet
  facet normal 0 -1 -0
    outer loop
      vertex 47.55 0 41.55
      vertex 0 0 0
      vertex 81.55 0 41.55
    endloop
  endfacet
  facet normal 0 -1 -0
    outer loop
      vertex 46.6599 0 41.6503
      vertex 0 0 0
      vertex 47.55 0 41.55
    endloop
  endfacet
  facet normal 0 -1 -0
    outer loop
      vertex 45.8145 0 41.9461
      vertex 0 0 0
      vertex 46.6599 0 41.6503
    endloop
  endfacet
  facet normal 0 -1 0
    outer loop
      vertex 81.55 0 49.55
      vertex 129.1 0 53.55
      vertex 47.55 0 49.55
    endloop
  endfacet
  facet normal 0 -1 0
    outer loop
      vertex 82.4401 0 49.4497
      vertex 129.1 0 53.55
      vertex 81.55 0 49.55
    endloop
  endfacet
  facet normal 0 -1 0
    outer loop
      vertex 83.2855 0 49.1539
      vertex 129.1 0 53.55
      vertex 82.4401 0 49.4497
    endloop
  endfacet
  facet normal 0 -1 0
    outer loop
      vertex 84.044 0 48.6773
      vertex 129.1 0 53.55
      vertex 83.2855 0 49.1539
    endloop
  endfacet
  facet normal 0 -1 0
    outer loop
      vertex 84.6773 0 48.044
      vertex 129.1 0 53.55
      vertex 84.044 0 48.6773
    endloop
  endfacet
  facet normal 0 -1 0
    outer loop
      vertex 85.1539 0 47.2855
      vertex 129.1 0 53.55
      vertex 84.6773 0 48.044
    endloop
  endfacet
  facet normal 0 -1 0
    outer loop
      vertex 85.4497 0 46.4401
      vertex 129.1 0 53.55
      vertex 85.1539 0 47.2855
    endloop
  endfacet
  facet normal 0 -1 0
    outer loop
      vertex 85.55 0 45.55
      vertex 129.1 0 53.55
      vertex 85.4497 0 46.4401
    endloop
  endfacet
  facet normal 0 -1 0
    outer loop
      vertex 85.4497 0 44.6599
      vertex 129.1 0 53.55
      vertex 85.55 0 45.55
    endloop
  endfacet
  facet normal 0 -1 0
    outer loop
      vertex 85.1539 0 43.8145
      vertex 129.1 0 53.55
      vertex 85.4497 0 44.6599
    endloop
  endfacet
  facet normal 0 -1 0
    outer loop
      vertex 84.6773 0 43.056
      vertex 129.1 0 53.55
      vertex 85.1539 0 43.8145
    endloop
  endfacet
  facet normal 0 -1 0
    outer loop
      vertex 129.1 0 0
      vertex 84.6773 0 43.056
      vertex 84.044 0 42.4227
    endloop
  endfacet
  facet normal 0 -1 0
    outer loop
      vertex 129.1 0 0
      vertex 84.044 0 42.4227
      vertex 83.2855 0 41.9461
    endloop
  endfacet
  facet normal 0 -1 0
    outer loop
      vertex 129.1 0 0
      vertex 83.2855 0 41.9461
      vertex 82.4401 0 41.6503
    endloop
  endfacet
  facet normal 0 -1 0
    outer loop
      vertex 129.1 0 0
      vertex 81.55 0 41.55
      vertex 0 0 0
    endloop
  endfacet
  facet normal 0 -1 0
    outer loop
      vertex 81.55 0 41.55
      vertex 129.1 0 0
      vertex 82.4401 0 41.6503
    endloop
  endfacet
  facet normal 0 -1 0
    outer loop
      vertex 84.6773 0 43.056
      vertex 129.1 0 0
      vertex 129.1 0 53.55
    endloop
  endfacet
  facet normal 0 1 0
    outer loop
      vertex 129.1 169.2 54.55
      vertex 127.1 169.2 1.6
      vertex 127.1 169.2 54.55
    endloop
  endfacet
  facet normal 0 1 0
    outer loop
      vertex 127.1 169.2 1.6
      vertex 129.1 169.2 0
      vertex 2 169.2 1.6
    endloop
  endfacet
  facet normal 0 1 -0
    outer loop
      vertex 129.1 169.2 0
      vertex 127.1 169.2 1.6
      vertex 129.1 169.2 54.55
    endloop
  endfacet
  facet normal 0 1 -0
    outer loop
      vertex 2 169.2 1.6
      vertex 0 169.2 54.55
      vertex 2 169.2 54.55
    endloop
  endfacet
  facet normal 0 1 0
    outer loop
      vertex 2 169.2 1.6
      vertex 0 169.2 0
      vertex 0 169.2 54.55
    endloop
  endfacet
  facet normal 0 1 0
    outer loop
      vertex 0 169.2 0
      vertex 2 169.2 1.6
      vertex 129.1 169.2 0
    endloop
  endfacet
  facet normal 1 -0 0
    outer loop
      vertex 2 2 54.55
      vertex 2 169.2 1.6
      vertex 2 169.2 54.55
    endloop
  endfacet
  facet normal 1 0 0
    outer loop
      vertex 2 169.2 1.6
      vertex 2 2 54.55
      vertex 2 2 1.6
    endloop
  endfacet
  facet normal -1 0 0
    outer loop
      vertex 127.1 2 1.6
      vertex 127.1 169.2 54.55
      vertex 127.1 169.2 1.6
    endloop
  endfacet
  facet normal -1 -0 0
    outer loop
      vertex 127.1 169.2 54.55
      vertex 127.1 2 1.6
      vertex 127.1 2 54.55
    endloop
  endfacet
  facet normal -0 0 1
    outer loop
      vertex 2 169.2 1.6
      vertex 127.1 2 1.6
      vertex 127.1 169.2 1.6
    endloop
  endfacet
  facet normal 0 0 1
    outer loop
      vertex 127.1 2 1.6
      vertex 2 169.2 1.6
      vertex 2 2 1.6
    endloop
  endfacet
  facet normal 0 1 0
    outer loop
      vertex 127.1 2 54.55
      vertex 81.55 2 49.55
      vertex 2 2 54.55
    endloop
  endfacet
  facet normal 0 1 0
    outer loop
      vertex 127.1 2 54.55
      vertex 82.4401 2 49.4497
      vertex 81.55 2 49.55
    endloop
  endfacet
  facet normal 0 1 0
    outer loop
      vertex 127.1 2 54.55
      vertex 83.2855 2 49.1539
      vertex 82.4401 2 49.4497
    endloop
  endfacet
  facet normal 0 1 0
    outer loop
      vertex 127.1 2 54.55
      vertex 84.044 2 48.6773
      vertex 83.2855 2 49.1539
    endloop
  endfacet
  facet normal 0 1 0
    outer loop
      vertex 127.1 2 54.55
      vertex 84.6773 2 48.044
      vertex 84.044 2 48.6773
    endloop
  endfacet
  facet normal 0 1 0
    outer loop
      vertex 127.1 2 54.55
      vertex 85.1539 2 47.2855
      vertex 84.6773 2 48.044
    endloop
  endfacet
  facet normal 0 1 0
    outer loop
      vertex 127.1 2 54.55
      vertex 85.4497 2 46.4401
      vertex 85.1539 2 47.2855
    endloop
  endfacet
  facet normal 0 1 0
    outer loop
      vertex 127.1 2 54.55
      vertex 85.55 2 45.55
      vertex 85.4497 2 46.4401
    endloop
  endfacet
  facet normal 0 1 0
    outer loop
      vertex 127.1 2 54.55
      vertex 85.4497 2 44.6599
      vertex 85.55 2 45.55
    endloop
  endfacet
  facet normal 0 1 0
    outer loop
      vertex 127.1 2 54.55
      vertex 85.1539 2 43.8145
      vertex 85.4497 2 44.6599
    endloop
  endfacet
  facet normal 0 1 -0
    outer loop
      vertex 127.1 2 1.6
      vertex 85.1539 2 43.8145
      vertex 127.1 2 54.55
    endloop
  endfacet
  facet normal 0 1 0
    outer loop
      vertex 85.1539 2 43.8145
      vertex 127.1 2 1.6
      vertex 84.6773 2 43.056
    endloop
  endfacet
  facet normal 0 1 0
    outer loop
      vertex 84.6773 2 43.056
      vertex 127.1 2 1.6
      vertex 84.044 2 42.4227
    endloop
  endfacet
  facet normal 0 1 0
    outer loop
      vertex 84.044 2 42.4227
      vertex 127.1 2 1.6
      vertex 83.2855 2 41.9461
    endloop
  endfacet
  facet normal 0 1 0
    outer loop
      vertex 81.55 2 41.55
      vertex 127.1 2 1.6
      vertex 47.55 2 41.55
    endloop
  endfacet
  facet normal 0 1 0
    outer loop
      vertex 82.4401 2 41.6503
      vertex 127.1 2 1.6
      vertex 81.55 2 41.55
    endloop
  endfacet
  facet normal 0 1 0
    outer loop
      vertex 83.2855 2 41.9461
      vertex 127.1 2 1.6
      vertex 82.4401 2 41.6503
    endloop
  endfacet
  facet normal 0 1 -0
    outer loop
      vertex 47.55 2 49.55
      vertex 2 2 54.55
      vertex 81.55 2 49.55
    endloop
  endfacet
  facet normal 0 1 -0
    outer loop
      vertex 46.6599 2 49.4497
      vertex 2 2 54.55
      vertex 47.55 2 49.55
    endloop
  endfacet
  facet normal 0 1 -0
    outer loop
      vertex 45.8145 2 49.1539
      vertex 2 2 54.55
      vertex 46.6599 2 49.4497
    endloop
  endfacet
  facet normal 0 1 -0
    outer loop
      vertex 45.056 2 48.6773
      vertex 2 2 54.55
      vertex 45.8145 2 49.1539
    endloop
  endfacet
  facet normal 0 1 -0
    outer loop
      vertex 44.4227 2 48.044
      vertex 2 2 54.55
      vertex 45.056 2 48.6773
    endloop
  endfacet
  facet normal 0 1 -0
    outer loop
      vertex 43.9461 2 47.2855
      vertex 2 2 54.55
      vertex 44.4227 2 48.044
    endloop
  endfacet
  facet normal 0 1 -0
    outer loop
      vertex 43.6503 2 46.4401
      vertex 2 2 54.55
      vertex 43.9461 2 47.2855
    endloop
  endfacet
  facet normal 0 1 -0
    outer loop
      vertex 43.55 2 45.55
      vertex 2 2 54.55
      vertex 43.6503 2 46.4401
    endloop
  endfacet
  facet normal 0 1 0
    outer loop
      vertex 43.6503 2 44.6599
      vertex 2 2 54.55
      vertex 43.55 2 45.55
    endloop
  endfacet
  facet normal 0 1 0
    outer loop
      vertex 43.9461 2 43.8145
      vertex 2 2 54.55
      vertex 43.6503 2 44.6599
    endloop
  endfacet
  facet normal 0 1 0
    outer loop
      vertex 2 2 1.6
      vertex 43.9461 2 43.8145
      vertex 44.4227 2 43.056
    endloop
  endfacet
  facet normal 0 1 0
    outer loop
      vertex 2 2 1.6
      vertex 44.4227 2 43.056
      vertex 45.056 2 42.4227
    endloop
  endfacet
  facet normal 0 1 0
    outer loop
      vertex 2 2 1.6
      vertex 45.056 2 42.4227
      vertex 45.8145 2 41.9461
    endloop
  endfacet
  facet normal 0 1 0
    outer loop
      vertex 2 2 1.6
      vertex 45.8145 2 41.9461
      vertex 46.6599 2 41.6503
    endloop
  endfacet
  facet normal 0 1 0
    outer loop
      vertex 2 2 1.6
      vertex 47.55 2 41.55
      vertex 127.1 2 1.6
    endloop
  endfacet
  facet normal 0 1 0
    outer loop
      vertex 47.55 2 41.55
      vertex 2 2 1.6
      vertex 46.6599 2 41.6503
    endloop
  endfacet
  facet normal 0 1 0
    outer loop
      vertex 43.9461 2 43.8145
      vertex 2 2 1.6
      vertex 2 2 54.55
    endloop
  endfacet
  facet normal 0.993711 -0 0.111975
    outer loop
      vertex 43.55 0 45.55
      vertex 43.6503 2 44.6599
      vertex 43.55 2 45.55
    endloop
  endfacet
  facet normal 0.993711 0 0.111975
    outer loop
      vertex 43.6503 2 44.6599
      vertex 43.55 0 45.55
      vertex 43.6503 0 44.6599
    endloop
  endfacet
  facet normal 0.993711 0 -0.111975
    outer loop
      vertex 43.6503 0 46.4401
      vertex 43.55 2 45.55
      vertex 43.6503 2 46.4401
    endloop
  endfacet
  facet normal 0.993711 0 -0.111975
    outer loop
      vertex 43.55 2 45.55
      vertex 43.6503 0 46.4401
      vertex 43.55 0 45.55
    endloop
  endfacet
  facet normal -0.94389 0 -0.330261
    outer loop
      vertex 85.4497 0 46.4401
      vertex 85.1539 2 47.2855
      vertex 85.4497 2 46.4401
    endloop
  endfacet
  facet normal -0.94389 -0 -0.330261
    outer loop
      vertex 85.1539 2 47.2855
      vertex 85.4497 0 46.4401
      vertex 85.1539 0 47.2855
    endloop
  endfacet
  facet normal 0.111975 0 -0.993711
    outer loop
      vertex 46.6599 0 49.4497
      vertex 47.55 2 49.55
      vertex 47.55 0 49.55
    endloop
  endfacet
  facet normal 0.111975 0 -0.993711
    outer loop
      vertex 47.55 2 49.55
      vertex 46.6599 0 49.4497
      vertex 46.6599 2 49.4497
    endloop
  endfacet
  facet normal 0 0 -1
    outer loop
      vertex 47.55 0 49.55
      vertex 81.55 2 49.55
      vertex 81.55 0 49.55
    endloop
  endfacet
  facet normal -0 0 -1
    outer loop
      vertex 81.55 2 49.55
      vertex 47.55 0 49.55
      vertex 47.55 2 49.55
    endloop
  endfacet
  facet normal -0.94389 0 0.330261
    outer loop
      vertex 85.1539 0 43.8145
      vertex 85.4497 2 44.6599
      vertex 85.1539 2 43.8145
    endloop
  endfacet
  facet normal -0.94389 0 0.330261
    outer loop
      vertex 85.4497 2 44.6599
      vertex 85.1539 0 43.8145
      vertex 85.4497 0 44.6599
    endloop
  endfacet
  facet normal -0 0 1
    outer loop
      vertex 47.55 2 41.55
      vertex 81.55 0 41.55
      vertex 81.55 2 41.55
    endloop
  endfacet
  facet normal 0 0 1
    outer loop
      vertex 81.55 0 41.55
      vertex 47.55 2 41.55
      vertex 47.55 0 41.55
    endloop
  endfacet
  facet normal 0.94389 -0 0.330261
    outer loop
      vertex 43.6503 0 44.6599
      vertex 43.9461 2 43.8145
      vertex 43.6503 2 44.6599
    endloop
  endfacet
  facet normal 0.94389 0 0.330261
    outer loop
      vertex 43.9461 2 43.8145
      vertex 43.6503 0 44.6599
      vertex 43.9461 0 43.8145
    endloop
  endfacet
  facet normal 0.94389 0 -0.330261
    outer loop
      vertex 43.9461 0 47.2855
      vertex 43.6503 2 46.4401
      vertex 43.9461 2 47.2855
    endloop
  endfacet
  facet normal 0.94389 0 -0.330261
    outer loop
      vertex 43.6503 2 46.4401
      vertex 43.9461 0 47.2855
      vertex 43.6503 0 46.4401
    endloop
  endfacet
  facet normal 0.330261 0 -0.94389
    outer loop
      vertex 45.8145 0 49.1539
      vertex 46.6599 2 49.4497
      vertex 46.6599 0 49.4497
    endloop
  endfacet
  facet normal 0.330261 0 -0.94389
    outer loop
      vertex 46.6599 2 49.4497
      vertex 45.8145 0 49.1539
      vertex 45.8145 2 49.1539
    endloop
  endfacet
  facet normal 0.707107 0 -0.707107
    outer loop
      vertex 44.4227 0 48.044
      vertex 45.056 2 48.6773
      vertex 45.056 0 48.6773
    endloop
  endfacet
  facet normal 0.707107 0 -0.707107
    outer loop
      vertex 45.056 2 48.6773
      vertex 44.4227 0 48.044
      vertex 44.4227 2 48.044
    endloop
  endfacet
  facet normal 0.846723 -0 0.532034
    outer loop
      vertex 43.9461 0 43.8145
      vertex 44.4227 2 43.056
      vertex 43.9461 2 43.8145
    endloop
  endfacet
  facet normal 0.846723 0 0.532034
    outer loop
      vertex 44.4227 2 43.056
      vertex 43.9461 0 43.8145
      vertex 44.4227 0 43.056
    endloop
  endfacet
  facet normal 0.707107 -0 0.707107
    outer loop
      vertex 44.4227 0 43.056
      vertex 45.056 2 42.4227
      vertex 44.4227 2 43.056
    endloop
  endfacet
  facet normal 0.707107 0 0.707107
    outer loop
      vertex 45.056 2 42.4227
      vertex 44.4227 0 43.056
      vertex 45.056 0 42.4227
    endloop
  endfacet
  facet normal 0.846723 0 -0.532034
    outer loop
      vertex 44.4227 0 48.044
      vertex 43.9461 2 47.2855
      vertex 44.4227 2 48.044
    endloop
  endfacet
  facet normal 0.846723 0 -0.532034
    outer loop
      vertex 43.9461 2 47.2855
      vertex 44.4227 0 48.044
      vertex 43.9461 0 47.2855
    endloop
  endfacet
  facet normal 0.532034 0 -0.846723
    outer loop
      vertex 45.056 0 48.6773
      vertex 45.8145 2 49.1539
      vertex 45.8145 0 49.1539
    endloop
  endfacet
  facet normal 0.532034 0 -0.846723
    outer loop
      vertex 45.8145 2 49.1539
      vertex 45.056 0 48.6773
      vertex 45.056 2 48.6773
    endloop
  endfacet
  facet normal -0.846723 0 -0.532034
    outer loop
      vertex 85.1539 0 47.2855
      vertex 84.6773 2 48.044
      vertex 85.1539 2 47.2855
    endloop
  endfacet
  facet normal -0.846723 -0 -0.532034
    outer loop
      vertex 84.6773 2 48.044
      vertex 85.1539 0 47.2855
      vertex 84.6773 0 48.044
    endloop
  endfacet
  facet normal -0.532034 0 -0.846723
    outer loop
      vertex 83.2855 0 49.1539
      vertex 84.044 2 48.6773
      vertex 84.044 0 48.6773
    endloop
  endfacet
  facet normal -0.532034 0 -0.846723
    outer loop
      vertex 84.044 2 48.6773
      vertex 83.2855 0 49.1539
      vertex 83.2855 2 49.1539
    endloop
  endfacet
  facet normal -0.330261 0 -0.94389
    outer loop
      vertex 82.4401 0 49.4497
      vertex 83.2855 2 49.1539
      vertex 83.2855 0 49.1539
    endloop
  endfacet
  facet normal -0.330261 0 -0.94389
    outer loop
      vertex 83.2855 2 49.1539
      vertex 82.4401 0 49.4497
      vertex 82.4401 2 49.4497
    endloop
  endfacet
  facet normal -0.111975 0 -0.993711
    outer loop
      vertex 81.55 0 49.55
      vertex 82.4401 2 49.4497
      vertex 82.4401 0 49.4497
    endloop
  endfacet
  facet normal -0.111975 0 -0.993711
    outer loop
      vertex 82.4401 2 49.4497
      vertex 81.55 0 49.55
      vertex 81.55 2 49.55
    endloop
  endfacet
  facet normal -0.707107 0 0.707107
    outer loop
      vertex 84.044 0 42.4227
      vertex 84.6773 2 43.056
      vertex 84.044 2 42.4227
    endloop
  endfacet
  facet normal -0.707107 0 0.707107
    outer loop
      vertex 84.6773 2 43.056
      vertex 84.044 0 42.4227
      vertex 84.6773 0 43.056
    endloop
  endfacet
  facet normal -0.111975 0 0.993711
    outer loop
      vertex 81.55 2 41.55
      vertex 82.4401 0 41.6503
      vertex 82.4401 2 41.6503
    endloop
  endfacet
  facet normal -0.111975 0 0.993711
    outer loop
      vertex 82.4401 0 41.6503
      vertex 81.55 2 41.55
      vertex 81.55 0 41.55
    endloop
  endfacet
  facet normal -0.846723 0 0.532034
    outer loop
      vertex 84.6773 0 43.056
      vertex 85.1539 2 43.8145
      vertex 84.6773 2 43.056
    endloop
  endfacet
  facet normal -0.846723 0 0.532034
    outer loop
      vertex 85.1539 2 43.8145
      vertex 84.6773 0 43.056
      vertex 85.1539 0 43.8145
    endloop
  endfacet
  facet normal -0.993711 0 0.111975
    outer loop
      vertex 85.4497 0 44.6599
      vertex 85.55 2 45.55
      vertex 85.4497 2 44.6599
    endloop
  endfacet
  facet normal -0.993711 0 0.111975
    outer loop
      vertex 85.55 2 45.55
      vertex 85.4497 0 44.6599
      vertex 85.55 0 45.55
    endloop
  endfacet
  facet normal -0.993711 0 -0.111975
    outer loop
      vertex 85.55 0 45.55
      vertex 85.4497 2 46.4401
      vertex 85.55 2 45.55
    endloop
  endfacet
  facet normal -0.993711 -0 -0.111975
    outer loop
      vertex 85.4497 2 46.4401
      vertex 85.55 0 45.55
      vertex 85.4497 0 46.4401
    endloop
  endfacet
  facet normal 0.532034 0 0.846723
    outer loop
      vertex 45.056 2 42.4227
      vertex 45.8145 0 41.9461
      vertex 45.8145 2 41.9461
    endloop
  endfacet
  facet normal 0.532034 0 0.846723
    outer loop
      vertex 45.8145 0 41.9461
      vertex 45.056 2 42.4227
      vertex 45.056 0 42.4227
    endloop
  endfacet
  facet normal 0.330261 0 0.94389
    outer loop
      vertex 45.8145 2 41.9461
      vertex 46.6599 0 41.6503
      vertex 46.6599 2 41.6503
    endloop
  endfacet
  facet normal 0.330261 0 0.94389
    outer loop
      vertex 46.6599 0 41.6503
      vertex 45.8145 2 41.9461
      vertex 45.8145 0 41.9461
    endloop
  endfacet
  facet normal 0.111975 0 0.993711
    outer loop
      vertex 46.6599 2 41.6503
      vertex 47.55 0 41.55
      vertex 47.55 2 41.55
    endloop
  endfacet
  facet normal 0.111975 0 0.993711
    outer loop
      vertex 47.55 0 41.55
      vertex 46.6599 2 41.6503
      vertex 46.6599 0 41.6503
    endloop
  endfacet
  facet normal -0.707107 0 -0.707107
    outer loop
      vertex 84.6773 0 48.044
      vertex 84.044 2 48.6773
      vertex 84.6773 2 48.044
    endloop
  endfacet
  facet normal -0.707107 -0 -0.707107
    outer loop
      vertex 84.044 2 48.6773
      vertex 84.6773 0 48.044
      vertex 84.044 0 48.6773
    endloop
  endfacet
  facet normal -0.532034 0 0.846723
    outer loop
      vertex 83.2855 2 41.9461
      vertex 84.044 0 42.4227
      vertex 84.044 2 42.4227
    endloop
  endfacet
  facet normal -0.532034 0 0.846723
    outer loop
      vertex 84.044 0 42.4227
      vertex 83.2855 2 41.9461
      vertex 83.2855 0 41.9461
    endloop
  endfacet
  facet normal -0.330261 0 0.94389
    outer loop
      vertex 82.4401 2 41.6503
      vertex 83.2855 0 41.9461
      vertex 83.2855 2 41.9461
    endloop
  endfacet
  facet normal -0.330261 0 0.94389
    outer loop
      vertex 83.2855 0 41.9461
      vertex 82.4401 2 41.6503
      vertex 82.4401 0 41.6503
    endloop
  endfacet
  facet normal 0 -1 0
    outer loop
      vertex 0 1 53.55
      vertex 129.1 1 54.55
      vertex 0 1 54.55
    endloop
  endfacet
  facet normal 0 -1 -0
    outer loop
      vertex 129.1 1 54.55
      vertex 0 1 53.55
      vertex 129.1 1 53.55
    endloop
  endfacet
  facet normal -0 0 1
    outer loop
      vertex 0 1 53.55
      vertex 129.1 0 53.55
      vertex 129.1 1 53.55
    endloop
  endfacet
  facet normal 0 0 1
    outer loop
      vertex 129.1 0 53.55
      vertex 0 1 53.55
      vertex 0 0 53.55
    endloop
  endfacet
endsolid OpenSCAD_Model
