solid OpenSCAD_Model
  facet normal -1 0 0
    outer loop
      vertex 0 139.2 0
      vertex 0 1 38.55
      vertex 0 139.2 39.55
    endloop
  endfacet
  facet normal -1 0 0
    outer loop
      vertex 0 0 0
      vertex 0 1 38.55
      vertex 0 139.2 0
    endloop
  endfacet
  facet normal -1 -0 0
    outer loop
      vertex 0 1 38.55
      vertex 0 0 0
      vertex 0 0 38.55
    endloop
  endfacet
  facet normal -1 -0 0
    outer loop
      vertex 0 139.2 39.55
      vertex 0 1 38.55
      vertex 0 1 39.55
    endloop
  endfacet
  facet normal 0 0 1
    outer loop
      vertex 2 139.2 39.55
      vertex 0 139.2 39.55
      vertex 2 2 39.55
    endloop
  endfacet
  facet normal 0 0 1
    outer loop
      vertex 117.1 2 39.55
      vertex 119.1 139.2 39.55
      vertex 117.1 139.2 39.55
    endloop
  endfacet
  facet normal 0 0 1
    outer loop
      vertex 119.1 139.2 39.55
      vertex 117.1 2 39.55
      vertex 119.1 1 39.55
    endloop
  endfacet
  facet normal -0 0 1
    outer loop
      vertex 2 2 39.55
      vertex 119.1 1 39.55
      vertex 117.1 2 39.55
    endloop
  endfacet
  facet normal 0 0 1
    outer loop
      vertex 2 2 39.55
      vertex 0 1 39.55
      vertex 119.1 1 39.55
    endloop
  endfacet
  facet normal 0 0 1
    outer loop
      vertex 0 1 39.55
      vertex 2 2 39.55
      vertex 0 139.2 39.55
    endloop
  endfacet
  facet normal 1 0 0
    outer loop
      vertex 119.1 1 38.55
      vertex 119.1 139.2 39.55
      vertex 119.1 1 39.55
    endloop
  endfacet
  facet normal 1 0 0
    outer loop
      vertex 119.1 139.2 39.55
      vertex 119.1 1 38.55
      vertex 119.1 139.2 0
    endloop
  endfacet
  facet normal 1 0 0
    outer loop
      vertex 119.1 0 0
      vertex 119.1 1 38.55
      vertex 119.1 0 38.55
    endloop
  endfacet
  facet normal 1 0 0
    outer loop
      vertex 119.1 1 38.55
      vertex 119.1 0 0
      vertex 119.1 139.2 0
    endloop
  endfacet
  facet normal 0 0 -1
    outer loop
      vertex 0 0 0
      vertex 119.1 139.2 0
      vertex 119.1 0 0
    endloop
  endfacet
  facet normal -0 0 -1
    outer loop
      vertex 119.1 139.2 0
      vertex 0 0 0
      vertex 0 139.2 0
    endloop
  endfacet
  facet normal 0 -1 0
    outer loop
      vertex 0 0 38.55
      vertex 42.55 0 34.55
      vertex 119.1 0 38.55
    endloop
  endfacet
  facet normal 0 -1 0
    outer loop
      vertex 0 0 38.55
      vertex 41.6599 0 34.4497
      vertex 42.55 0 34.55
    endloop
  endfacet
  facet normal 0 -1 0
    outer loop
      vertex 0 0 38.55
      vertex 40.8145 0 34.1539
      vertex 41.6599 0 34.4497
    endloop
  endfacet
  facet normal 0 -1 0
    outer loop
      vertex 0 0 38.55
      vertex 40.056 0 33.6773
      vertex 40.8145 0 34.1539
    endloop
  endfacet
  facet normal 0 -1 0
    outer loop
      vertex 0 0 38.55
      vertex 39.4227 0 33.044
      vertex 40.056 0 33.6773
    endloop
  endfacet
  facet normal 0 -1 0
    outer loop
      vertex 0 0 38.55
      vertex 38.9461 0 32.2855
      vertex 39.4227 0 33.044
    endloop
  endfacet
  facet normal 0 -1 0
    outer loop
      vertex 0 0 38.55
      vertex 38.6503 0 31.4401
      vertex 38.9461 0 32.2855
    endloop
  endfacet
  facet normal 0 -1 0
    outer loop
      vertex 0 0 38.55
      vertex 38.55 0 30.55
      vertex 38.6503 0 31.4401
    endloop
  endfacet
  facet normal 0 -1 0
    outer loop
      vertex 0 0 38.55
      vertex 38.6503 0 29.6599
      vertex 38.55 0 30.55
    endloop
  endfacet
  facet normal 0 -1 0
    outer loop
      vertex 0 0 38.55
      vertex 38.9461 0 28.8145
      vertex 38.6503 0 29.6599
    endloop
  endfacet
  facet normal 0 -1 0
    outer loop
      vertex 0 0 0
      vertex 38.9461 0 28.8145
      vertex 0 0 38.55
    endloop
  endfacet
  facet normal 0 -1 -0
    outer loop
      vertex 38.9461 0 28.8145
      vertex 0 0 0
      vertex 39.4227 0 28.056
    endloop
  endfacet
  facet normal 0 -1 -0
    outer loop
      vertex 39.4227 0 28.056
      vertex 0 0 0
      vertex 40.056 0 27.4227
    endloop
  endfacet
  facet normal 0 -1 -0
    outer loop
      vertex 40.056 0 27.4227
      vertex 0 0 0
      vertex 40.8145 0 26.9461
    endloop
  endfacet
  facet normal 0 -1 -0
    outer loop
      vertex 42.55 0 26.55
      vertex 0 0 0
      vertex 76.55 0 26.55
    endloop
  endfacet
  facet normal 0 -1 -0
    outer loop
      vertex 41.6599 0 26.6503
      vertex 0 0 0
      vertex 42.55 0 26.55
    endloop
  endfacet
  facet normal 0 -1 -0
    outer loop
      vertex 40.8145 0 26.9461
      vertex 0 0 0
      vertex 41.6599 0 26.6503
    endloop
  endfacet
  facet normal 0 -1 0
    outer loop
      vertex 76.55 0 34.55
      vertex 119.1 0 38.55
      vertex 42.55 0 34.55
    endloop
  endfacet
  facet normal 0 -1 0
    outer loop
      vertex 77.4401 0 34.4497
      vertex 119.1 0 38.55
      vertex 76.55 0 34.55
    endloop
  endfacet
  facet normal 0 -1 0
    outer loop
      vertex 78.2855 0 34.1539
      vertex 119.1 0 38.55
      vertex 77.4401 0 34.4497
    endloop
  endfacet
  facet normal 0 -1 0
    outer loop
      vertex 79.044 0 33.6773
      vertex 119.1 0 38.55
      vertex 78.2855 0 34.1539
    endloop
  endfacet
  facet normal 0 -1 0
    outer loop
      vertex 79.6773 0 33.044
      vertex 119.1 0 38.55
      vertex 79.044 0 33.6773
    endloop
  endfacet
  facet normal 0 -1 0
    outer loop
      vertex 80.1539 0 32.2855
      vertex 119.1 0 38.55
      vertex 79.6773 0 33.044
    endloop
  endfacet
  facet normal 0 -1 0
    outer loop
      vertex 80.4497 0 31.4401
      vertex 119.1 0 38.55
      vertex 80.1539 0 32.2855
    endloop
  endfacet
  facet normal 0 -1 0
    outer loop
      vertex 80.55 0 30.55
      vertex 119.1 0 38.55
      vertex 80.4497 0 31.4401
    endloop
  endfacet
  facet normal 0 -1 0
    outer loop
      vertex 80.4497 0 29.6599
      vertex 119.1 0 38.55
      vertex 80.55 0 30.55
    endloop
  endfacet
  facet normal 0 -1 0
    outer loop
      vertex 80.1539 0 28.8145
      vertex 119.1 0 38.55
      vertex 80.4497 0 29.6599
    endloop
  endfacet
  facet normal 0 -1 0
    outer loop
      vertex 119.1 0 0
      vertex 80.1539 0 28.8145
      vertex 79.6773 0 28.056
    endloop
  endfacet
  facet normal 0 -1 0
    outer loop
      vertex 119.1 0 0
      vertex 79.6773 0 28.056
      vertex 79.044 0 27.4227
    endloop
  endfacet
  facet normal 0 -1 0
    outer loop
      vertex 119.1 0 0
      vertex 79.044 0 27.4227
      vertex 78.2855 0 26.9461
    endloop
  endfacet
  facet normal 0 -1 0
    outer loop
      vertex 119.1 0 0
      vertex 78.2855 0 26.9461
      vertex 77.4401 0 26.6503
    endloop
  endfacet
  facet normal 0 -1 0
    outer loop
      vertex 119.1 0 0
      vertex 76.55 0 26.55
      vertex 0 0 0
    endloop
  endfacet
  facet normal 0 -1 0
    outer loop
      vertex 76.55 0 26.55
      vertex 119.1 0 0
      vertex 77.4401 0 26.6503
    endloop
  endfacet
  facet normal 0 -1 0
    outer loop
      vertex 80.1539 0 28.8145
      vertex 119.1 0 0
      vertex 119.1 0 38.55
    endloop
  endfacet
  facet normal 0 1 0
    outer loop
      vertex 119.1 139.2 39.55
      vertex 117.1 139.2 1.6
      vertex 117.1 139.2 39.55
    endloop
  endfacet
  facet normal 0 1 0
    outer loop
      vertex 117.1 139.2 1.6
      vertex 119.1 139.2 0
      vertex 2 139.2 1.6
    endloop
  endfacet
  facet normal 0 1 -0
    outer loop
      vertex 119.1 139.2 0
      vertex 117.1 139.2 1.6
      vertex 119.1 139.2 39.55
    endloop
  endfacet
  facet normal 0 1 -0
    outer loop
      vertex 2 139.2 1.6
      vertex 0 139.2 39.55
      vertex 2 139.2 39.55
    endloop
  endfacet
  facet normal 0 1 0
    outer loop
      vertex 2 139.2 1.6
      vertex 0 139.2 0
      vertex 0 139.2 39.55
    endloop
  endfacet
  facet normal 0 1 0
    outer loop
      vertex 0 139.2 0
      vertex 2 139.2 1.6
      vertex 119.1 139.2 0
    endloop
  endfacet
  facet normal 1 -0 0
    outer loop
      vertex 2 2 39.55
      vertex 2 139.2 1.6
      vertex 2 139.2 39.55
    endloop
  endfacet
  facet normal 1 0 0
    outer loop
      vertex 2 139.2 1.6
      vertex 2 2 39.55
      vertex 2 2 1.6
    endloop
  endfacet
  facet normal -1 0 0
    outer loop
      vertex 117.1 2 1.6
      vertex 117.1 139.2 39.55
      vertex 117.1 139.2 1.6
    endloop
  endfacet
  facet normal -1 -0 0
    outer loop
      vertex 117.1 139.2 39.55
      vertex 117.1 2 1.6
      vertex 117.1 2 39.55
    endloop
  endfacet
  facet normal -0 0 1
    outer loop
      vertex 2 139.2 1.6
      vertex 117.1 2 1.6
      vertex 117.1 139.2 1.6
    endloop
  endfacet
  facet normal 0 0 1
    outer loop
      vertex 117.1 2 1.6
      vertex 2 139.2 1.6
      vertex 2 2 1.6
    endloop
  endfacet
  facet normal 0 1 0
    outer loop
      vertex 117.1 2 39.55
      vertex 76.55 2 34.55
      vertex 2 2 39.55
    endloop
  endfacet
  facet normal 0 1 0
    outer loop
      vertex 117.1 2 39.55
      vertex 77.4401 2 34.4497
      vertex 76.55 2 34.55
    endloop
  endfacet
  facet normal 0 1 0
    outer loop
      vertex 117.1 2 39.55
      vertex 78.2855 2 34.1539
      vertex 77.4401 2 34.4497
    endloop
  endfacet
  facet normal 0 1 0
    outer loop
      vertex 117.1 2 39.55
      vertex 79.044 2 33.6773
      vertex 78.2855 2 34.1539
    endloop
  endfacet
  facet normal 0 1 0
    outer loop
      vertex 117.1 2 39.55
      vertex 79.6773 2 33.044
      vertex 79.044 2 33.6773
    endloop
  endfacet
  facet normal 0 1 0
    outer loop
      vertex 117.1 2 39.55
      vertex 80.1539 2 32.2855
      vertex 79.6773 2 33.044
    endloop
  endfacet
  facet normal 0 1 0
    outer loop
      vertex 117.1 2 39.55
      vertex 80.4497 2 31.4401
      vertex 80.1539 2 32.2855
    endloop
  endfacet
  facet normal 0 1 0
    outer loop
      vertex 117.1 2 39.55
      vertex 80.55 2 30.55
      vertex 80.4497 2 31.4401
    endloop
  endfacet
  facet normal 0 1 0
    outer loop
      vertex 117.1 2 39.55
      vertex 80.4497 2 29.6599
      vertex 80.55 2 30.55
    endloop
  endfacet
  facet normal 0 1 0
    outer loop
      vertex 117.1 2 39.55
      vertex 80.1539 2 28.8145
      vertex 80.4497 2 29.6599
    endloop
  endfacet
  facet normal 0 1 -0
    outer loop
      vertex 117.1 2 1.6
      vertex 80.1539 2 28.8145
      vertex 117.1 2 39.55
    endloop
  endfacet
  facet normal 0 1 0
    outer loop
      vertex 80.1539 2 28.8145
      vertex 117.1 2 1.6
      vertex 79.6773 2 28.056
    endloop
  endfacet
  facet normal 0 1 0
    outer loop
      vertex 79.6773 2 28.056
      vertex 117.1 2 1.6
      vertex 79.044 2 27.4227
    endloop
  endfacet
  facet normal 0 1 0
    outer loop
      vertex 79.044 2 27.4227
      vertex 117.1 2 1.6
      vertex 78.2855 2 26.9461
    endloop
  endfacet
  facet normal 0 1 0
    outer loop
      vertex 76.55 2 26.55
      vertex 117.1 2 1.6
      vertex 42.55 2 26.55
    endloop
  endfacet
  facet normal 0 1 0
    outer loop
      vertex 77.4401 2 26.6503
      vertex 117.1 2 1.6
      vertex 76.55 2 26.55
    endloop
  endfacet
  facet normal 0 1 0
    outer loop
      vertex 78.2855 2 26.9461
      vertex 117.1 2 1.6
      vertex 77.4401 2 26.6503
    endloop
  endfacet
  facet normal 0 1 -0
    outer loop
      vertex 42.55 2 34.55
      vertex 2 2 39.55
      vertex 76.55 2 34.55
    endloop
  endfacet
  facet normal 0 1 -0
    outer loop
      vertex 41.6599 2 34.4497
      vertex 2 2 39.55
      vertex 42.55 2 34.55
    endloop
  endfacet
  facet normal 0 1 -0
    outer loop
      vertex 40.8145 2 34.1539
      vertex 2 2 39.55
      vertex 41.6599 2 34.4497
    endloop
  endfacet
  facet normal 0 1 -0
    outer loop
      vertex 40.056 2 33.6773
      vertex 2 2 39.55
      vertex 40.8145 2 34.1539
    endloop
  endfacet
  facet normal 0 1 -0
    outer loop
      vertex 39.4227 2 33.044
      vertex 2 2 39.55
      vertex 40.056 2 33.6773
    endloop
  endfacet
  facet normal 0 1 -0
    outer loop
      vertex 38.9461 2 32.2855
      vertex 2 2 39.55
      vertex 39.4227 2 33.044
    endloop
  endfacet
  facet normal 0 1 -0
    outer loop
      vertex 38.6503 2 31.4401
      vertex 2 2 39.55
      vertex 38.9461 2 32.2855
    endloop
  endfacet
  facet normal 0 1 -0
    outer loop
      vertex 38.55 2 30.55
      vertex 2 2 39.55
      vertex 38.6503 2 31.4401
    endloop
  endfacet
  facet normal 0 1 0
    outer loop
      vertex 38.6503 2 29.6599
      vertex 2 2 39.55
      vertex 38.55 2 30.55
    endloop
  endfacet
  facet normal 0 1 0
    outer loop
      vertex 38.9461 2 28.8145
      vertex 2 2 39.55
      vertex 38.6503 2 29.6599
    endloop
  endfacet
  facet normal 0 1 0
    outer loop
      vertex 2 2 1.6
      vertex 38.9461 2 28.8145
      vertex 39.4227 2 28.056
    endloop
  endfacet
  facet normal 0 1 0
    outer loop
      vertex 2 2 1.6
      vertex 39.4227 2 28.056
      vertex 40.056 2 27.4227
    endloop
  endfacet
  facet normal 0 1 0
    outer loop
      vertex 2 2 1.6
      vertex 40.056 2 27.4227
      vertex 40.8145 2 26.9461
    endloop
  endfacet
  facet normal 0 1 0
    outer loop
      vertex 2 2 1.6
      vertex 40.8145 2 26.9461
      vertex 41.6599 2 26.6503
    endloop
  endfacet
  facet normal 0 1 0
    outer loop
      vertex 2 2 1.6
      vertex 42.55 2 26.55
      vertex 117.1 2 1.6
    endloop
  endfacet
  facet normal 0 1 0
    outer loop
      vertex 42.55 2 26.55
      vertex 2 2 1.6
      vertex 41.6599 2 26.6503
    endloop
  endfacet
  facet normal 0 1 0
    outer loop
      vertex 38.9461 2 28.8145
      vertex 2 2 1.6
      vertex 2 2 39.55
    endloop
  endfacet
  facet normal 0.993711 -0 0.111975
    outer loop
      vertex 38.55 0 30.55
      vertex 38.6503 2 29.6599
      vertex 38.55 2 30.55
    endloop
  endfacet
  facet normal 0.993711 0 0.111975
    outer loop
      vertex 38.6503 2 29.6599
      vertex 38.55 0 30.55
      vertex 38.6503 0 29.6599
    endloop
  endfacet
  facet normal 0.993711 0 -0.111975
    outer loop
      vertex 38.6503 0 31.4401
      vertex 38.55 2 30.55
      vertex 38.6503 2 31.4401
    endloop
  endfacet
  facet normal 0.993711 0 -0.111975
    outer loop
      vertex 38.55 2 30.55
      vertex 38.6503 0 31.4401
      vertex 38.55 0 30.55
    endloop
  endfacet
  facet normal 0.707107 0 -0.707107
    outer loop
      vertex 39.4227 0 33.044
      vertex 40.056 2 33.6773
      vertex 40.056 0 33.6773
    endloop
  endfacet
  facet normal 0.707107 0 -0.707107
    outer loop
      vertex 40.056 2 33.6773
      vertex 39.4227 0 33.044
      vertex 39.4227 2 33.044
    endloop
  endfacet
  facet normal -0.707107 0 -0.707107
    outer loop
      vertex 79.6773 0 33.044
      vertex 79.044 2 33.6773
      vertex 79.6773 2 33.044
    endloop
  endfacet
  facet normal -0.707107 -0 -0.707107
    outer loop
      vertex 79.044 2 33.6773
      vertex 79.6773 0 33.044
      vertex 79.044 0 33.6773
    endloop
  endfacet
  facet normal 0 0 -1
    outer loop
      vertex 42.55 0 34.55
      vertex 76.55 2 34.55
      vertex 76.55 0 34.55
    endloop
  endfacet
  facet normal -0 0 -1
    outer loop
      vertex 76.55 2 34.55
      vertex 42.55 0 34.55
      vertex 42.55 2 34.55
    endloop
  endfacet
  facet normal -0.993711 0 0.111975
    outer loop
      vertex 80.4497 0 29.6599
      vertex 80.55 2 30.55
      vertex 80.4497 2 29.6599
    endloop
  endfacet
  facet normal -0.993711 0 0.111975
    outer loop
      vertex 80.55 2 30.55
      vertex 80.4497 0 29.6599
      vertex 80.55 0 30.55
    endloop
  endfacet
  facet normal -0 0 1
    outer loop
      vertex 42.55 2 26.55
      vertex 76.55 0 26.55
      vertex 76.55 2 26.55
    endloop
  endfacet
  facet normal 0 0 1
    outer loop
      vertex 76.55 0 26.55
      vertex 42.55 2 26.55
      vertex 42.55 0 26.55
    endloop
  endfacet
  facet normal 0.94389 0 -0.330261
    outer loop
      vertex 38.9461 0 32.2855
      vertex 38.6503 2 31.4401
      vertex 38.9461 2 32.2855
    endloop
  endfacet
  facet normal 0.94389 0 -0.330261
    outer loop
      vertex 38.6503 2 31.4401
      vertex 38.9461 0 32.2855
      vertex 38.6503 0 31.4401
    endloop
  endfacet
  facet normal 0.846723 -0 0.532034
    outer loop
      vertex 38.9461 0 28.8145
      vertex 39.4227 2 28.056
      vertex 38.9461 2 28.8145
    endloop
  endfacet
  facet normal 0.846723 0 0.532034
    outer loop
      vertex 39.4227 2 28.056
      vertex 38.9461 0 28.8145
      vertex 39.4227 0 28.056
    endloop
  endfacet
  facet normal 0.330261 0 -0.94389
    outer loop
      vertex 40.8145 0 34.1539
      vertex 41.6599 2 34.4497
      vertex 41.6599 0 34.4497
    endloop
  endfacet
  facet normal 0.330261 0 -0.94389
    outer loop
      vertex 41.6599 2 34.4497
      vertex 40.8145 0 34.1539
      vertex 40.8145 2 34.1539
    endloop
  endfacet
  facet normal 0.111975 0 -0.993711
    outer loop
      vertex 41.6599 0 34.4497
      vertex 42.55 2 34.55
      vertex 42.55 0 34.55
    endloop
  endfacet
  facet normal 0.111975 0 -0.993711
    outer loop
      vertex 42.55 2 34.55
      vertex 41.6599 0 34.4497
      vertex 41.6599 2 34.4497
    endloop
  endfacet
  facet normal -0.94389 0 -0.330261
    outer loop
      vertex 80.4497 0 31.4401
      vertex 80.1539 2 32.2855
      vertex 80.4497 2 31.4401
    endloop
  endfacet
  facet normal -0.94389 -0 -0.330261
    outer loop
      vertex 80.1539 2 32.2855
      vertex 80.4497 0 31.4401
      vertex 80.1539 0 32.2855
    endloop
  endfacet
  facet normal -0.111975 0 -0.993711
    outer loop
      vertex 76.55 0 34.55
      vertex 77.4401 2 34.4497
      vertex 77.4401 0 34.4497
    endloop
  endfacet
  facet normal -0.111975 0 -0.993711
    outer loop
      vertex 77.4401 2 34.4497
      vertex 76.55 0 34.55
      vertex 76.55 2 34.55
    endloop
  endfacet
  facet normal -0.532034 0 -0.846723
    outer loop
      vertex 78.2855 0 34.1539
      vertex 79.044 2 33.6773
      vertex 79.044 0 33.6773
    endloop
  endfacet
  facet normal -0.532034 0 -0.846723
    outer loop
      vertex 79.044 2 33.6773
      vertex 78.2855 0 34.1539
      vertex 78.2855 2 34.1539
    endloop
  endfacet
  facet normal -0.330261 0 0.94389
    outer loop
      vertex 77.4401 2 26.6503
      vertex 78.2855 0 26.9461
      vertex 78.2855 2 26.9461
    endloop
  endfacet
  facet normal -0.330261 0 0.94389
    outer loop
      vertex 78.2855 0 26.9461
      vertex 77.4401 2 26.6503
      vertex 77.4401 0 26.6503
    endloop
  endfacet
  facet normal -0.993711 0 -0.111975
    outer loop
      vertex 80.55 0 30.55
      vertex 80.4497 2 31.4401
      vertex 80.55 2 30.55
    endloop
  endfacet
  facet normal -0.993711 -0 -0.111975
    outer loop
      vertex 80.4497 2 31.4401
      vertex 80.55 0 30.55
      vertex 80.4497 0 31.4401
    endloop
  endfacet
  facet normal 0.111975 0 0.993711
    outer loop
      vertex 41.6599 2 26.6503
      vertex 42.55 0 26.55
      vertex 42.55 2 26.55
    endloop
  endfacet
  facet normal 0.111975 0 0.993711
    outer loop
      vertex 42.55 0 26.55
      vertex 41.6599 2 26.6503
      vertex 41.6599 0 26.6503
    endloop
  endfacet
  facet normal 0.707107 -0 0.707107
    outer loop
      vertex 39.4227 0 28.056
      vertex 40.056 2 27.4227
      vertex 39.4227 2 28.056
    endloop
  endfacet
  facet normal 0.707107 0 0.707107
    outer loop
      vertex 40.056 2 27.4227
      vertex 39.4227 0 28.056
      vertex 40.056 0 27.4227
    endloop
  endfacet
  facet normal 0.94389 -0 0.330261
    outer loop
      vertex 38.6503 0 29.6599
      vertex 38.9461 2 28.8145
      vertex 38.6503 2 29.6599
    endloop
  endfacet
  facet normal 0.94389 0 0.330261
    outer loop
      vertex 38.9461 2 28.8145
      vertex 38.6503 0 29.6599
      vertex 38.9461 0 28.8145
    endloop
  endfacet
  facet normal 0.846723 0 -0.532034
    outer loop
      vertex 39.4227 0 33.044
      vertex 38.9461 2 32.2855
      vertex 39.4227 2 33.044
    endloop
  endfacet
  facet normal 0.846723 0 -0.532034
    outer loop
      vertex 38.9461 2 32.2855
      vertex 39.4227 0 33.044
      vertex 38.9461 0 32.2855
    endloop
  endfacet
  facet normal 0.532034 0 -0.846723
    outer loop
      vertex 40.056 0 33.6773
      vertex 40.8145 2 34.1539
      vertex 40.8145 0 34.1539
    endloop
  endfacet
  facet normal 0.532034 0 -0.846723
    outer loop
      vertex 40.8145 2 34.1539
      vertex 40.056 0 33.6773
      vertex 40.056 2 33.6773
    endloop
  endfacet
  facet normal -0.846723 0 -0.532034
    outer loop
      vertex 80.1539 0 32.2855
      vertex 79.6773 2 33.044
      vertex 80.1539 2 32.2855
    endloop
  endfacet
  facet normal -0.846723 -0 -0.532034
    outer loop
      vertex 79.6773 2 33.044
      vertex 80.1539 0 32.2855
      vertex 79.6773 0 33.044
    endloop
  endfacet
  facet normal -0.111975 0 0.993711
    outer loop
      vertex 76.55 2 26.55
      vertex 77.4401 0 26.6503
      vertex 77.4401 2 26.6503
    endloop
  endfacet
  facet normal -0.111975 0 0.993711
    outer loop
      vertex 77.4401 0 26.6503
      vertex 76.55 2 26.55
      vertex 76.55 0 26.55
    endloop
  endfacet
  facet normal -0.94389 0 0.330261
    outer loop
      vertex 80.1539 0 28.8145
      vertex 80.4497 2 29.6599
      vertex 80.1539 2 28.8145
    endloop
  endfacet
  facet normal -0.94389 0 0.330261
    outer loop
      vertex 80.4497 2 29.6599
      vertex 80.1539 0 28.8145
      vertex 80.4497 0 29.6599
    endloop
  endfacet
  facet normal 0.330261 0 0.94389
    outer loop
      vertex 40.8145 2 26.9461
      vertex 41.6599 0 26.6503
      vertex 41.6599 2 26.6503
    endloop
  endfacet
  facet normal 0.330261 0 0.94389
    outer loop
      vertex 41.6599 0 26.6503
      vertex 40.8145 2 26.9461
      vertex 40.8145 0 26.9461
    endloop
  endfacet
  facet normal 0.532034 0 0.846723
    outer loop
      vertex 40.056 2 27.4227
      vertex 40.8145 0 26.9461
      vertex 40.8145 2 26.9461
    endloop
  endfacet
  facet normal 0.532034 0 0.846723
    outer loop
      vertex 40.8145 0 26.9461
      vertex 40.056 2 27.4227
      vertex 40.056 0 27.4227
    endloop
  endfacet
  facet normal -0.330261 0 -0.94389
    outer loop
      vertex 77.4401 0 34.4497
      vertex 78.2855 2 34.1539
      vertex 78.2855 0 34.1539
    endloop
  endfacet
  facet normal -0.330261 0 -0.94389
    outer loop
      vertex 78.2855 2 34.1539
      vertex 77.4401 0 34.4497
      vertex 77.4401 2 34.4497
    endloop
  endfacet
  facet normal -0.707107 0 0.707107
    outer loop
      vertex 79.044 0 27.4227
      vertex 79.6773 2 28.056
      vertex 79.044 2 27.4227
    endloop
  endfacet
  facet normal -0.707107 0 0.707107
    outer loop
      vertex 79.6773 2 28.056
      vertex 79.044 0 27.4227
      vertex 79.6773 0 28.056
    endloop
  endfacet
  facet normal -0.532034 0 0.846723
    outer loop
      vertex 78.2855 2 26.9461
      vertex 79.044 0 27.4227
      vertex 79.044 2 27.4227
    endloop
  endfacet
  facet normal -0.532034 0 0.846723
    outer loop
      vertex 79.044 0 27.4227
      vertex 78.2855 2 26.9461
      vertex 78.2855 0 26.9461
    endloop
  endfacet
  facet normal -0.846723 0 0.532034
    outer loop
      vertex 79.6773 0 28.056
      vertex 80.1539 2 28.8145
      vertex 79.6773 2 28.056
    endloop
  endfacet
  facet normal -0.846723 0 0.532034
    outer loop
      vertex 80.1539 2 28.8145
      vertex 79.6773 0 28.056
      vertex 80.1539 0 28.8145
    endloop
  endfacet
  facet normal 0 -1 0
    outer loop
      vertex 0 1 38.55
      vertex 119.1 1 39.55
      vertex 0 1 39.55
    endloop
  endfacet
  facet normal 0 -1 -0
    outer loop
      vertex 119.1 1 39.55
      vertex 0 1 38.55
      vertex 119.1 1 38.55
    endloop
  endfacet
  facet normal -0 0 1
    outer loop
      vertex 0 1 38.55
      vertex 119.1 0 38.55
      vertex 119.1 1 38.55
    endloop
  endfacet
  facet normal 0 0 1
    outer loop
      vertex 119.1 0 38.55
      vertex 0 1 38.55
      vertex 0 0 38.55
    endloop
  endfacet
endsolid OpenSCAD_Model
